<svg preserveAspectRatio="none" width="100%" height="100%" overflow="visible" style="display: block;" viewBox="0 0 76 97" fill="none" xmlns="http://www.w3.org/2000/svg">
<g id="Union">
<path d="M53.208 65.9141C53.3015 66.0077 53.3721 66.1017 53.4189 66.1953C53.4422 66.2419 53.4531 66.2774 53.4531 66.3008C53.4765 66.7692 53.4765 67.2259 53.4531 67.6709C53.4297 68.1161 53.4072 68.5734 53.3838 69.042C53.3838 69.6744 53.3955 70.2953 53.4189 70.9043C53.4658 71.5133 53.5 72.1224 53.5234 72.7314C53.5234 73.0595 53.5117 73.3995 53.4883 73.751V74.7695C53.4883 75.0975 53.4766 75.4611 53.4531 75.8594C53.4297 76.2577 53.4297 76.5274 53.4531 76.668C53.4537 76.6912 53.536 76.7031 53.6992 76.7031C53.8632 76.6797 54.0509 76.668 54.2617 76.668H58.1982C58.3856 76.6679 58.5499 76.6328 58.6904 76.5625C58.8542 76.4923 59.0296 76.4571 59.2168 76.457V76.2461C59.2637 76.0352 59.2988 75.7186 59.3223 75.2969C59.3457 74.8755 59.3574 74.5595 59.3574 74.3486C59.3574 74.1612 59.3457 73.9735 59.3223 73.7861C59.2988 73.5753 59.2871 73.3759 59.2871 73.1885C59.3105 73.001 59.3105 72.8251 59.2871 72.6611C59.2637 72.4738 59.252 72.286 59.252 72.0986V70.0254C59.2754 69.7677 59.2754 69.5096 59.252 69.252C59.252 68.8774 59.2637 68.573 59.2871 68.3389C59.3105 68.0811 59.2988 67.7411 59.252 67.3193C59.2754 67.2256 59.2754 67.1435 59.252 67.0732C59.2286 66.9796 59.2168 66.8739 59.2168 66.7568C59.2167 66.7102 59.205 66.6747 59.1816 66.6514V66.2305C59.1816 66.1369 59.1934 66.0311 59.2168 65.9141H62.9775C63.0946 66.0311 63.1533 66.1368 63.1533 66.2305C63.1766 66.3006 63.1884 66.394 63.1885 66.5107C63.1885 66.8387 63.1767 67.1554 63.1533 67.46V68.2686C63.1533 68.6901 63.1181 69.1468 63.0479 69.6387C63.001 70.1073 62.9775 70.5998 62.9775 71.1152C62.9775 71.3026 62.9893 71.5373 63.0127 71.8184C63.0361 72.0992 63.0243 72.3567 62.9775 72.5908C62.9073 73.1765 62.8603 73.7394 62.8369 74.2783V75.8945C62.8369 76.3631 62.8604 76.8439 62.9072 77.3359C62.9541 77.8043 62.9775 78.2376 62.9775 78.6357C62.9307 78.7997 62.9072 79.0929 62.9072 79.5146V80.8145C62.9307 81.283 62.9424 81.7287 62.9424 82.1504C62.9658 82.5716 62.9775 82.8643 62.9775 83.0283V86.6133C62.4623 86.6133 61.9939 86.6368 61.5723 86.6836C61.174 86.7539 60.7635 86.7891 60.3418 86.7891H59.8496C59.7325 86.8125 59.5799 86.8829 59.3926 87L59.2168 86.7891C59.2402 86.6251 59.252 86.4022 59.252 86.1211C59.2519 85.8401 59.2402 85.5475 59.2168 85.2432V83.6611C59.2402 83.1224 59.252 82.5837 59.252 82.0449C59.2754 81.4826 59.2871 80.9314 59.2871 80.3926C59.2871 80.416 59.2754 80.3574 59.252 80.2168V79.7607C59.252 79.5734 59.2402 79.3974 59.2168 79.2334V78.917C59.2168 78.8233 59.1816 78.7881 59.1113 78.8115C59.0645 78.8347 58.9946 78.8348 58.9014 78.8115C58.6438 78.7647 58.4325 78.7647 58.2686 78.8115C58.1046 78.835 57.9052 78.8467 57.6709 78.8467C57.5303 78.8467 57.3544 78.8584 57.1436 78.8818C56.9327 78.8818 56.7098 78.8936 56.4756 78.917C56.265 78.917 56.0544 78.9288 55.8438 78.9521C55.633 78.9756 55.457 78.9873 55.3164 78.9873L53.7695 79.0225H53.4531C53.383 78.9992 53.3014 78.9992 53.208 79.0225C53.1377 79.0225 53.1025 79.0694 53.1025 79.1631C53.1026 79.2099 53.1143 79.2451 53.1377 79.2686C53.1377 79.5495 53.1495 79.8421 53.1729 80.1465C53.1963 80.4276 53.208 80.7326 53.208 81.0605V82.0098C53.208 82.6188 53.1963 83.2161 53.1729 83.8018C53.1729 84.3875 53.1259 84.9856 53.0322 85.5947V86.6133C52.9152 86.7069 52.7977 86.7538 52.6807 86.7539C52.587 86.7773 52.4462 86.7891 52.2588 86.7891H51.5557C51.2746 86.8125 51.0399 86.8829 50.8525 87H49.834C49.7169 87 49.6113 86.9765 49.5176 86.9297C49.4239 86.9063 49.2714 86.8594 49.0605 86.7891V84.3994C49.0605 83.8137 49.0488 83.4384 49.0254 83.2744V82.8877C48.9787 82.7707 48.9669 82.6304 48.9902 82.4668C49.0136 82.303 49.0254 82.1855 49.0254 82.1152C49.0722 81.6232 49.0722 81.119 49.0254 80.6035C49.002 80.0649 48.9785 79.6199 48.9551 79.2686C48.9316 79.0577 48.9199 78.8583 48.9199 78.6709V78.0381C48.9199 77.64 48.9317 77.2536 48.9551 76.8789C49.0019 76.4806 49.0019 76.0819 48.9551 75.6836C48.9083 75.1684 48.92 74.7469 48.9902 74.4189C49.0137 74.3253 49.0019 74.1609 48.9551 73.9268C48.9082 73.669 48.8848 73.3993 48.8848 73.1182C48.8848 72.7433 48.8965 72.4032 48.9199 72.0986C48.9433 71.7943 48.9551 71.5017 48.9551 71.2207C48.9785 70.9396 48.9902 70.6464 48.9902 70.3418C49.0137 70.0372 49.0137 69.6971 48.9902 69.3223V68.1279C49.0137 67.8702 49.0254 67.6357 49.0254 67.4248C49.0488 67.1906 49.0605 67.0263 49.0605 66.9326C49.0605 66.7219 49.0371 66.5693 48.9902 66.4756C48.9436 66.3588 48.92 66.2537 48.9199 66.1602V65.9141H53.208Z" fill="var(--fill-0, black)"/>
<path d="M39.0225 65.9492H39.7256C39.9597 65.9258 40.1937 65.9258 40.4277 65.9492C40.9666 65.9961 41.4826 66.0195 41.9746 66.0195C42.4898 65.9961 42.9113 65.9609 43.2393 65.9141C43.4033 65.9141 43.6965 65.9375 44.1182 65.9844C44.5399 66.0312 44.9503 66.0664 45.3486 66.0898C45.6059 66.1132 45.8166 66.1132 45.9805 66.0898C46.1444 66.0664 46.2852 66.0665 46.4023 66.0898V67.7061C46.4023 67.7996 46.4141 67.8583 46.4375 67.8818C46.4609 67.9053 46.4492 68.0108 46.4023 68.1982C46.3788 68.2918 46.285 68.3506 46.1211 68.374H45.7354C45.1262 68.4677 44.5633 68.5029 44.0479 68.4795C43.556 68.4561 43.0759 68.4443 42.6074 68.4443H42.1504C42.0567 68.4443 41.9394 68.4561 41.7988 68.4795V69.2871C41.7988 69.4745 41.7871 69.7561 41.7637 70.1309V71.2207C41.7636 71.2676 41.7519 71.3381 41.7285 71.4316C41.7285 71.502 41.7168 71.6195 41.6934 71.7832C41.6699 71.9237 41.6229 72.1343 41.5527 72.415V74.208C41.5761 74.4421 41.5879 74.6761 41.5879 74.9102V76.0352C41.4942 76.4334 41.4707 76.8322 41.5176 77.2305C41.5644 77.6286 41.5879 78.0267 41.5879 78.4248V86.4375C41.541 86.4375 41.4589 86.4492 41.3418 86.4727C41.2247 86.4961 41.1074 86.5078 40.9902 86.5078C40.8732 86.5312 40.7675 86.543 40.6738 86.543C40.6041 86.5662 40.5807 86.578 40.6035 86.5781H38.8818C38.507 86.5313 38.1903 86.4961 37.9326 86.4727C37.6986 86.4727 37.488 86.4844 37.3008 86.5078C37.2539 86.5078 37.207 86.4843 37.1602 86.4375C37.1133 86.4141 37.0781 86.3906 37.0547 86.3672C37.0313 86.1564 37.0195 85.8403 37.0195 85.4189C37.043 84.9973 37.0547 84.6689 37.0547 84.4346V83.9424C37.1015 83.5441 37.1133 83.1922 37.0898 82.8877C37.0664 82.5598 37.0547 82.1969 37.0547 81.7988V81.0254C37.1718 80.5101 37.1952 79.9713 37.125 79.4092C37.0781 78.8469 37.0547 78.3309 37.0547 77.8623V68.9014C37.0547 68.6672 36.9959 68.55 36.8789 68.5498C36.5509 68.5264 36.2929 68.5146 36.1055 68.5146C35.918 68.5146 35.66 68.5264 35.332 68.5498C35.1915 68.5498 34.9457 68.5145 34.5947 68.4443C34.2668 68.3741 34.0439 68.3506 33.9268 68.374C33.8096 68.4209 33.5633 68.4209 33.1885 68.374C32.8371 68.3272 32.6025 68.3037 32.4854 68.3037H32.1689C32.0755 68.2803 31.9821 68.2331 31.8887 68.1631V65.9844C31.9823 65.9376 32.1225 65.9141 32.3096 65.9141H33.5049C33.6923 65.9141 33.8682 65.9023 34.0322 65.8789C34.0794 65.8789 34.2437 65.8907 34.5244 65.9141C34.8052 65.9375 35.0393 65.961 35.2266 65.9844C35.3671 65.9375 35.5079 65.9141 35.6484 65.9141C35.9999 65.8906 36.3282 65.8906 36.6328 65.9141C36.8436 65.9375 36.9962 65.9375 37.0898 65.9141C37.1836 65.8907 37.3244 65.8789 37.5117 65.8789H38.0732L39.0225 65.9492Z" fill="var(--fill-0, black)"/>
<path fill-rule="evenodd" clip-rule="evenodd" d="M22.5088 65C22.5556 65.0937 22.5791 65.1876 22.5791 65.2812C22.5791 65.3515 22.6026 65.4337 22.6494 65.5273L22.79 66.0547L22.8945 66.3359L23.2812 67.4248L23.9141 69.2168L24.1602 69.6738C24.207 69.7207 24.2539 69.8263 24.3008 69.9902C24.3476 70.1308 24.418 70.3184 24.5117 70.5527C24.6289 70.8573 24.7461 71.2091 24.8633 71.6074C25.0038 71.9821 25.1329 72.3567 25.25 72.7314C25.414 73.3172 25.542 73.7511 25.6357 74.0322C25.7528 74.3132 25.8702 74.6058 25.9873 74.9102C26.0575 75.0038 26.1045 75.1095 26.1279 75.2266C26.1513 75.3436 26.1866 75.4611 26.2334 75.5781L26.6904 77.0195L27.2881 78.2842C27.3584 78.495 27.4287 78.7061 27.499 78.917C27.5927 79.1044 27.6983 79.2921 27.8154 79.4795C28.0028 79.9479 28.1553 80.3811 28.2725 80.7793C28.3896 81.1542 28.5411 81.5763 28.7285 82.0449C28.8222 82.2558 28.9161 82.4552 29.0098 82.6426C29.1268 82.8298 29.2208 83.0286 29.291 83.2393L29.5723 83.9424C29.6894 84.1532 29.7832 84.3761 29.8535 84.6104C29.9472 84.8212 30.0528 85.0558 30.1699 85.3135C30.2167 85.4538 30.2755 85.594 30.3457 85.7344C30.4159 85.8749 30.4629 86.004 30.4863 86.1211C30.3692 86.1211 30.2519 86.1094 30.1348 86.0859C30.0176 86.0625 29.9121 86.0508 29.8184 86.0508H28.6582C28.4945 86.0741 28.3543 86.0859 28.2373 86.0859C28.1202 85.805 27.9441 85.5359 27.71 85.2783C27.4991 84.9972 27.2763 84.6571 27.042 84.2588C26.9951 84.1416 26.9482 84.0361 26.9014 83.9424L26.7607 83.6611C26.7138 83.5206 26.573 83.3211 26.3389 83.0635C26.1283 82.8061 26.0108 82.6073 25.9873 82.4668C25.8001 82.2561 25.6601 82.0917 25.5664 81.9746C25.4962 81.8341 25.4022 81.705 25.2852 81.5879H24.9336C24.7931 81.5645 24.664 81.541 24.5469 81.5176C24.4063 81.4941 24.2538 81.4824 24.0898 81.4824H23.2461C23.129 81.4824 22.9998 81.4942 22.8594 81.5176C22.7422 81.5176 22.5551 81.5294 22.2979 81.5527C22.0401 81.5527 21.6883 81.5645 21.2432 81.5879H19.2051C19.0176 81.5879 18.8652 81.6113 18.748 81.6582C18.6543 81.6816 18.5136 81.6582 18.3262 81.5879C18.2558 81.5411 18.0799 81.5293 17.7988 81.5527C17.5417 81.5761 17.3662 81.5997 17.2725 81.623L16.8154 81.6582L16.6396 81.9043C16.5928 82.0449 16.5107 82.2091 16.3936 82.3965C16.2765 82.5838 16.159 82.7707 16.042 82.958L15.6904 83.5205C15.5967 83.7079 15.5264 83.8604 15.4795 83.9775L15.2334 84.6104L14.3555 86.2266C14.3087 86.3202 14.2381 86.3671 14.1445 86.3672C14.051 86.3672 13.9805 86.3908 13.9336 86.4375H12.1406C12.0471 86.344 12 86.2851 12 86.2617C12.0003 86.238 12.0472 86.1675 12.1406 86.0508C12.1407 85.9571 12.1759 85.8161 12.2461 85.6289C12.3162 85.4652 12.3515 85.3368 12.3516 85.2432C12.4687 85.0558 12.5625 84.868 12.6328 84.6807C12.7265 84.4698 12.8203 84.2704 12.9141 84.083L13.8984 81.623C14.0624 81.1545 14.2266 80.6971 14.3906 80.252C14.578 79.7836 14.7531 79.315 14.917 78.8467C15.0341 78.4952 15.1866 78.1434 15.374 77.792C15.5614 77.4407 15.7257 77.1248 15.8662 76.8438C15.9834 76.4455 16.1006 76.1288 16.2178 75.8945C16.3583 75.6368 16.4404 75.4726 16.4639 75.4023C16.464 75.3553 16.5109 75.2379 16.6045 75.0508C16.7216 74.8633 16.8507 74.5591 16.9912 74.1377C17.0615 73.9268 17.1201 73.704 17.167 73.4697C17.2373 73.2355 17.3184 73.0126 17.4121 72.8018L18.2559 70.7637C18.3496 70.506 18.4082 70.3183 18.4316 70.2012C18.4785 70.0606 18.5137 69.9433 18.5371 69.8496C18.5605 69.7559 18.584 69.6503 18.6074 69.5332C18.6309 69.4161 18.7014 69.229 18.8184 68.9717C18.9355 68.714 19.0293 68.4677 19.0996 68.2334C19.1933 67.9991 19.2989 67.7528 19.416 67.4951L19.6973 66.6514C19.7674 66.4642 19.8262 66.3006 19.873 66.1602C19.9199 66.0196 19.9668 65.8554 20.0137 65.668C20.0604 65.6212 20.0948 65.5623 20.1182 65.4922C20.1416 65.3985 20.1886 65.2928 20.2588 65.1758C20.3992 65.0822 20.5167 65.0353 20.6104 65.0352C20.704 65.0117 20.798 65 20.8916 65H22.5088ZM21.2783 72.9072C21.1612 72.9541 21.0791 73.0127 21.0322 73.083C20.9854 73.1533 20.9385 73.2354 20.8916 73.3291C20.7979 73.6571 20.6689 73.9855 20.5049 74.3135C20.3644 74.6179 20.2235 74.9339 20.083 75.2617C19.9659 75.4959 19.8495 75.7189 19.7324 75.9297C19.6153 76.1171 19.5097 76.3282 19.416 76.5625C19.2052 77.031 18.994 77.4993 18.7832 77.9678C18.5723 78.4129 18.3378 78.8586 18.0801 79.3037H18.291C18.4784 79.3037 18.6426 79.3154 18.7832 79.3389C18.9472 79.3623 19.1114 79.3506 19.2754 79.3037C19.4159 79.2569 19.545 79.2451 19.6621 79.2686C19.8025 79.2919 19.9318 79.3037 20.0488 79.3037H21.2783C21.7 79.2803 22.1691 79.292 22.6846 79.3389C22.942 79.3622 23.1761 79.3622 23.3867 79.3389C23.621 79.3154 23.8556 79.3037 24.0898 79.3037H24.4062C24.3828 79.21 24.3476 79.1396 24.3008 79.0928C24.2774 79.0225 24.2422 78.9521 24.1953 78.8818C24.1016 78.6944 23.9961 78.5302 23.8789 78.3896C23.7852 78.2491 23.7031 78.0731 23.6328 77.8623L22.4033 75.4023C22.3565 75.2852 22.3095 75.1327 22.2627 74.9453L21.2783 72.9072Z" fill="var(--fill-0, black)"/>
<path fill-rule="evenodd" clip-rule="evenodd" d="M37.5605 21.8916C37.7533 21.8916 37.9441 21.951 38.0908 21.9971C38.2906 22.0599 38.6187 22.1728 39.1709 22.3779C40.1846 22.7546 42.0026 23.5567 43.4424 24.2129C44.9061 24.8801 45.9607 25.4219 46.7031 25.7949C48.4512 26.6385 49.2119 27.0483 49.9189 27.4609C50.0124 27.5111 50.0681 27.5355 50.1328 27.5625C50.2081 27.5938 50.3239 27.6396 50.4824 27.7158C50.5715 27.7587 50.651 27.8137 50.7207 27.877C51.2008 27.9502 51.5693 28.3637 51.5693 28.8643C51.5692 29.4163 51.1213 29.864 50.5693 29.8643C50.1771 29.8643 49.7693 29.8643 49.5107 29.8564C49.2384 29.8481 49.094 29.8289 48.5264 29.7832C48.3806 29.7715 48.2027 29.7572 47.9561 29.7422C47.9576 30.0143 47.9603 30.3876 47.9629 30.8994C47.9724 32.7838 47.9908 36.5462 48.0049 38.5703L48.0225 39.8896C48.0259 40.0911 48.0316 40.2608 48.0352 40.4043C48.0764 40.3899 48.1175 40.3747 48.1582 40.3623C49.1713 40.0532 50.1199 40.3568 50.791 40.7051C51.3309 40.9853 51.7811 41.3416 52.0801 41.6006C52.1379 41.5359 52.205 41.4773 52.2812 41.4277C52.2909 41.4204 52.3273 41.3934 52.3955 41.3379C52.4776 41.271 52.5858 41.1794 52.7109 41.0693C52.9617 40.8487 53.2715 40.5605 53.5752 40.25C54.3345 39.4734 55.3942 38.7562 56.3096 38.3848C57.2238 38.014 58.0142 38.3008 58.6543 38.6846C58.9636 38.8701 59.2811 39.1039 59.5938 39.3379C59.9177 39.5803 60.2529 39.8352 60.6406 40.1084C61.135 40.4568 61.4791 40.8384 61.7461 41.1562C62.0286 41.4926 62.166 41.6756 62.3398 41.833C62.902 42.2498 63.2064 42.5155 63.6641 42.8174C63.9845 43.0145 64.5508 43.3444 65.2959 43.8271C65.7592 44.1274 65.8919 44.7465 65.5918 45.21C65.2915 45.6729 64.6723 45.8057 64.209 45.5059C63.4728 45.0289 62.9737 44.7422 62.5986 44.5107L62.5869 44.5029L62.5742 44.4951C62.0529 44.1523 61.549 43.7333 61.1025 43.4043L61.0674 43.3779L61.0342 43.3496C60.7036 43.058 60.4145 42.68 60.2148 42.4424C59.99 42.1748 59.7751 41.9453 59.4883 41.7432C59.0702 41.4486 58.7019 41.1677 58.3955 40.9385C58.0782 40.701 57.8362 40.5265 57.626 40.4004C57.2272 40.1612 57.1335 40.2081 57.0615 40.2373C56.4178 40.4985 55.5859 41.0544 55.0059 41.6475C54.7318 41.9277 54.4532 42.1865 54.21 42.4062C54.6654 42.5011 55.2183 42.6073 55.8965 42.7334C56.75 42.8921 57.2384 43.1262 57.6768 43.5234C58.0598 43.8706 58.3942 44.3157 58.6914 44.6943C59.0077 45.0973 59.3486 45.5178 59.8096 45.9561C60.0083 46.145 60.2918 46.3231 60.6738 46.5166C60.8615 46.6117 61.0585 46.7036 61.2705 46.8018C61.4773 46.8975 61.7024 47.0002 61.9199 47.1084C62.5316 47.4127 62.946 47.9334 63.2402 48.4355C63.4627 48.8153 63.6469 49.2384 63.8066 49.6553L63.959 50.0684L63.9629 50.0811C64.3588 51.2425 64.5235 51.7777 64.6533 52.1055C64.6902 52.194 64.7316 52.2902 64.7969 52.4434C64.8643 52.6017 64.9529 52.8109 65.0771 53.1104C65.2884 53.6202 65.0458 54.2052 64.5361 54.417C64.0263 54.6282 63.4412 54.3866 63.2295 53.877C63.1081 53.5845 63.0225 53.3812 62.957 53.2275C62.8931 53.0775 62.843 52.9616 62.7998 52.8574L62.7969 52.8496L62.7939 52.8428C62.6415 52.4579 62.4355 51.7996 62.0742 50.7393L61.9365 50.3643C61.7993 50.0066 61.6623 49.6983 61.5146 49.4463C61.3156 49.1066 61.1483 48.9587 61.0293 48.8994C60.8422 48.8064 60.6456 48.7157 60.4307 48.6162C60.2209 48.5191 59.9936 48.4137 59.7705 48.3008C59.3308 48.0781 58.842 47.7953 58.4316 47.4053C57.8627 46.8643 57.4497 46.3519 57.1182 45.9297C56.7677 45.4833 56.5594 45.2093 56.334 45.0049C56.2619 44.9396 56.2046 44.9004 56.1182 44.8613C56.0174 44.8158 55.8457 44.7577 55.5312 44.6992C54.2307 44.4575 53.2926 44.2742 52.6104 44.083C51.9238 43.8906 51.3743 43.6591 50.9316 43.2539C50.6951 43.0374 50.3121 42.7099 49.8701 42.4805C49.4187 42.2462 49.0419 42.184 48.7422 42.2754C48.4073 42.3777 47.948 42.6593 47.2705 43.0879C46.66 43.4741 45.9005 43.9576 45.1318 44.25C44.4041 44.5267 43.7746 44.7137 43.2695 44.8379C43.3314 44.9276 43.3929 45.0205 43.458 45.1133C44.3367 46.3659 45.4217 47.5054 46.3398 48.1875C46.6999 48.4549 47.2425 48.7621 47.8916 49.0996C48.4796 49.4054 49.2687 49.7921 49.8496 50.0986C50.8593 50.6314 51.6289 51.089 52.2549 51.4492C52.8912 51.8154 53.3601 52.0698 53.8291 52.252C55.0555 52.7283 55.765 53.4724 56.3408 54.2148L56.918 54.9893L56.9453 55.0352C57.4699 55.9232 57.7804 56.6477 57.9814 57.335L58.0615 57.627L58.0693 57.6621C58.1089 57.8457 58.1437 58.0201 58.2129 58.3994C58.3118 58.9426 57.9513 59.4634 57.4082 59.5625C56.8651 59.6612 56.3442 59.3009 56.2451 58.7578C56.1807 58.4049 56.1496 58.2515 56.1182 58.1045C55.9764 57.5497 55.7418 56.9384 55.2461 56.0928C54.4985 55.0862 54.0998 54.5025 53.1055 54.1162C52.4805 53.8735 51.8949 53.5492 51.2578 53.1826C50.61 52.8099 49.884 52.3789 48.916 51.8682C48.2832 51.5343 47.6821 51.2445 46.9697 50.874C46.3183 50.5353 45.6473 50.165 45.1465 49.793C44.0225 48.9578 42.7955 47.6505 41.8213 46.2617C41.0081 45.1024 40.356 44.0336 39.877 43.3174C39.3494 42.5287 39.0178 42.15 38.7393 41.9795C38.3308 41.7295 37.8716 41.4207 37.1621 41.208C36.4631 40.9985 35.4789 40.8737 34.0938 41.1172C32.995 41.3105 31.7723 41.7842 29.8164 41.6006C29.0006 41.524 28.2166 41.4388 27.5557 41.4395C27.2286 41.4398 26.9781 41.4624 26.8027 41.501C26.7124 41.5209 26.665 41.5404 26.6465 41.5488C26.4769 41.7293 26.2462 42.0286 25.9395 42.4551C25.6515 42.8554 25.249 43.4359 24.8672 43.9629C24.0687 45.0649 23.0748 46.3456 21.9365 47.3457C21.2146 47.9799 20.5254 48.2767 19.8984 48.4756C19.2145 48.6925 18.8746 48.7373 18.4004 48.9502C17.6515 49.2865 17.1904 49.5343 16.8623 49.8057C16.5667 50.0503 16.3494 50.3389 16.165 50.8193C15.2939 53.0891 14.4917 55.2639 13.3242 56.9111C12.917 57.4856 12.5572 58.0078 12.2969 58.4033C12.1661 58.602 12.0648 58.7619 11.9971 58.876C11.9682 58.9246 11.9486 58.9585 11.9375 58.9795C11.765 59.4499 11.2644 59.7267 10.7656 59.6064C10.2292 59.4766 9.89902 58.9369 10.0283 58.4004L10.0596 58.293C10.0941 58.1928 10.1356 58.1126 10.1533 58.0781C10.1897 58.0071 10.2326 57.9299 10.2773 57.8545C10.3677 57.7022 10.488 57.5143 10.626 57.3047C10.9036 56.8828 11.2778 56.3398 11.6924 55.7549C12.6805 54.3607 13.3899 52.4681 14.2979 50.1025C14.5935 49.3323 15.0023 48.7481 15.5879 48.2637C16.1412 47.8061 16.8204 47.4675 17.5811 47.126C18.1814 46.8564 18.898 46.6949 19.2939 46.5693C19.7466 46.4257 20.1631 46.2417 20.6162 45.8438C21.5775 44.9991 22.4633 43.8708 23.2471 42.7891C23.6561 42.2245 23.9707 41.7679 24.3164 41.2871C24.6297 40.8516 24.9444 40.4317 25.2305 40.1357L25.3623 40.0127C25.6798 39.7459 26.059 39.6172 26.374 39.5479C26.7486 39.4656 27.1587 39.4399 27.5527 39.4395C27.8294 39.4391 28.1227 39.4525 28.4189 39.4717C28.4168 39.4468 28.4154 39.424 28.4131 39.4004L28.4111 39.3848L28.4102 39.3691C28.3578 38.5819 28.3266 37.555 28.2764 35.5537V35.5352C28.2679 34.1334 28.2676 31.6476 28.2676 30.4062V29.5254C26.057 29.5192 26.0142 29.5195 26.001 29.5195C25.7158 29.5195 25.4585 29.3995 25.2764 29.208C25.1992 29.2226 25.1277 29.2345 25.0596 29.2383C24.5083 29.2688 24.0366 28.8471 24.0059 28.2959C23.9753 27.7447 24.3971 27.2731 24.9482 27.2422C24.8682 27.2467 24.8851 27.2622 25.1191 27.1807C25.344 27.1023 25.7278 26.9492 26.3613 26.6562C26.9176 26.399 27.7073 26.0119 28.5713 25.5908C29.4275 25.1735 30.3513 24.7252 31.1543 24.3594C32.7653 23.6254 33.8107 23.2364 34.6611 22.9375C35.5031 22.6416 36.1236 22.4455 36.4805 22.332C36.6215 22.2872 36.7261 22.2531 36.8154 22.2256C36.9985 22.0211 37.2645 21.8917 37.5605 21.8916ZM42.209 30.0713C42.2123 31.0186 42.2187 32.8927 42.3037 34.9893C42.3888 37.0894 42.5533 39.3589 42.6426 40.6953C42.7341 42.0649 42.7379 42.3112 42.7656 42.668C42.7719 42.7491 42.7663 42.8284 42.7539 42.9053C43.171 42.8044 43.7351 42.6417 44.4209 42.3809C44.9334 42.1859 45.4801 41.8517 46.084 41.4707V41.4688L46.085 41.4678C46.0525 41.1377 46.0272 40.7572 46.0049 38.5908V38.5869C45.9908 36.561 45.9724 32.7935 45.9629 30.9092C45.96 30.34 45.9575 29.9422 45.9561 29.6641C45.2088 29.6437 44.2452 29.6226 42.9863 29.6064C42.7369 29.6032 42.4763 29.6016 42.207 29.5986C42.2074 29.7219 42.2083 29.8768 42.209 30.0713ZM36.2373 30.7295C36.2373 32.2778 36.2378 35.3679 36.2412 37.0195C36.2447 38.7108 36.2527 38.7575 36.2568 38.7959C36.2588 38.8139 36.2689 38.9061 36.2812 39.0186C36.8227 39.0667 37.3058 39.163 37.7363 39.292C38.7373 39.5921 39.4178 40.0498 39.7832 40.2734C40.1042 40.4699 40.3917 40.7334 40.6592 41.0332C40.6549 40.9676 40.6512 40.8992 40.6465 40.8281C40.5582 39.5073 40.3921 37.2038 40.3057 35.0703C40.2191 32.9337 40.2123 31.0277 40.209 30.0781C40.2083 29.8697 40.2074 29.7067 40.207 29.5791C38.9442 29.5691 37.5841 29.5604 36.2373 29.5537V30.7295ZM30.2676 30.4062C30.2676 31.6503 30.2679 34.1292 30.2764 35.5234C30.3266 37.5238 30.3573 38.5012 30.4062 39.2363C30.4154 39.3341 30.4228 39.4389 30.4385 39.6377C31.7393 39.6912 32.4218 39.3807 33.748 39.1475C33.9276 39.1159 34.1034 39.0894 34.2744 39.0674C34.272 39.0473 34.2697 39.0267 34.2676 39.0068C34.2492 38.8343 34.2446 38.636 34.2412 37.0234C34.2378 35.3691 34.2373 32.2768 34.2373 30.7295V29.5449C32.7769 29.539 31.4021 29.5346 30.2676 29.5312V30.4062ZM37.8115 24.0127C37.7524 24.0397 37.6897 24.0617 37.624 24.0771C37.4989 24.1065 37.4551 24.1202 37.0869 24.2373C36.7329 24.3499 36.1364 24.5388 35.3242 24.8242C34.5194 25.107 33.5308 25.4747 31.9834 26.1797C31.2072 26.5334 30.3052 26.9705 29.4473 27.3887C29.3515 27.4354 29.2557 27.4812 29.1611 27.5273C29.2084 27.5275 29.2569 27.5282 29.3057 27.5283C32.5727 27.5376 39.0996 27.5563 43.0117 27.6064C44.2559 27.6224 45.2178 27.6437 45.9717 27.6641C45.9218 27.6399 45.871 27.6148 45.8193 27.5898L45.8057 27.582C45.0523 27.2035 44.0352 26.6803 42.6133 26.0322C41.1668 25.3729 39.4112 24.601 38.4746 24.2529C38.1896 24.147 37.9738 24.0693 37.8115 24.0127Z" fill="var(--fill-0, black)"/>
<path d="M59 9C62.866 9 66 12.134 66 16C66 19.866 62.866 23 59 23C55.1342 22.9998 52 19.8659 52 16C52 12.1341 55.1342 9.00023 59 9Z" fill="var(--fill-0, black)"/>
<path fill-rule="evenodd" clip-rule="evenodd" d="M74.2041 0.0107422C75.2128 0.113005 76 0.96435 76 2V95L75.9893 95.2041C75.8938 96.1457 75.1457 96.8938 74.2041 96.9893L74 97H2C0.895431 97 0 96.1046 0 95V2C6.44266e-08 0.895431 0.895431 8.0532e-09 2 0H74L74.2041 0.0107422ZM2 95H74V2H2V95Z" fill="var(--fill-0, black)"/>
</g>
</svg>
