<svg preserveAspectRatio="none" width="100%" height="100%" overflow="visible" style="display: block;" viewBox="0 0 76 97" fill="none" xmlns="http://www.w3.org/2000/svg">
<g id="Union">
<path d="M53.208 65.9141C53.3015 66.0076 53.3722 66.1017 53.4189 66.1953C53.4422 66.2419 53.4541 66.2774 53.4541 66.3008C53.4775 66.7692 53.4775 67.2259 53.4541 67.6709C53.4307 68.116 53.4072 68.5734 53.3838 69.042C53.3838 69.6744 53.3955 70.2953 53.4189 70.9043C53.4658 71.5133 53.501 72.1224 53.5244 72.7314C53.5244 73.0594 53.5127 73.3995 53.4893 73.751V74.7695C53.4893 75.0975 53.4775 75.4611 53.4541 75.8594C53.4307 76.2576 53.4307 76.5274 53.4541 76.668C53.4547 76.6912 53.5369 76.7031 53.7002 76.7031C53.8639 76.6798 54.0513 76.668 54.2617 76.668H58.1982C58.3855 76.6679 58.55 76.6327 58.6904 76.5625C58.8543 76.4923 59.0305 76.457 59.2178 76.457V76.2461C59.2646 76.0352 59.2998 75.7186 59.3232 75.2969C59.3466 74.8756 59.3584 74.5594 59.3584 74.3486C59.3584 74.1613 59.3466 73.9735 59.3232 73.7861C59.2998 73.5753 59.2881 73.3759 59.2881 73.1885C59.3115 73.0011 59.3115 72.8251 59.2881 72.6611C59.2647 72.4738 59.2529 72.286 59.2529 72.0986V70.0254C59.2763 69.7678 59.2764 69.5096 59.2529 69.252C59.2529 68.8774 59.2647 68.573 59.2881 68.3389C59.3115 68.0812 59.2998 67.741 59.2529 67.3193C59.2763 67.2258 59.2763 67.1434 59.2529 67.0732C59.2295 66.9796 59.2178 66.8739 59.2178 66.7568C59.2177 66.7102 59.2059 66.6747 59.1826 66.6514V66.2305C59.1826 66.1368 59.1944 66.0311 59.2178 65.9141H62.9775C63.0946 66.0311 63.1533 66.1368 63.1533 66.2305C63.1766 66.3006 63.1884 66.394 63.1885 66.5107C63.1885 66.8387 63.1767 67.1554 63.1533 67.46V68.2686C63.1533 68.6901 63.1181 69.1468 63.0479 69.6387C63.001 70.1073 62.9775 70.5998 62.9775 71.1152C62.9775 71.3026 62.9893 71.5373 63.0127 71.8184C63.0361 72.0992 63.0243 72.3567 62.9775 72.5908C62.9073 73.1765 62.8603 73.7395 62.8369 74.2783V75.8945C62.8369 76.3631 62.8604 76.8439 62.9072 77.3359C62.9541 77.8043 62.9775 78.2376 62.9775 78.6357C62.9307 78.7998 62.9072 79.093 62.9072 79.5146V80.8145C62.9307 81.283 62.9424 81.7287 62.9424 82.1504C62.9658 82.5716 62.9775 82.8643 62.9775 83.0283V86.6133C62.4624 86.6133 61.9938 86.6368 61.5723 86.6836C61.1741 86.7539 60.7634 86.789 60.3418 86.7891H59.8496C59.7326 86.8126 59.5805 86.8832 59.3936 87L59.2178 86.7891C59.2412 86.6251 59.2529 86.4021 59.2529 86.1211C59.2529 85.8402 59.2412 85.5475 59.2178 85.2432V83.6611C59.2412 83.1224 59.2529 82.5836 59.2529 82.0449C59.2764 81.4826 59.2881 80.9314 59.2881 80.3926C59.2881 80.416 59.2764 80.3573 59.2529 80.2168V79.7607C59.2529 79.5734 59.2412 79.3973 59.2178 79.2334V78.917C59.2178 78.8235 59.1822 78.7885 59.1123 78.8115C59.089 78.8231 59.0592 78.829 59.0244 78.8291L58.7168 78.7852C58.5412 78.7676 58.3915 78.7764 58.2686 78.8115C58.1046 78.8349 57.905 78.8467 57.6709 78.8467C57.5304 78.8467 57.3542 78.8584 57.1436 78.8818C56.933 78.8819 56.7104 78.8936 56.4766 78.917C56.2659 78.917 56.0544 78.9288 55.8438 78.9521C55.6331 78.9756 55.4569 78.9873 55.3164 78.9873L53.7705 79.0225H53.4541C53.3839 78.9991 53.3015 78.9992 53.208 79.0225C53.1378 79.0225 53.1025 79.0694 53.1025 79.1631C53.1026 79.2098 53.1143 79.2451 53.1377 79.2686C53.1377 79.5495 53.1495 79.8421 53.1729 80.1465C53.1963 80.4276 53.208 80.7326 53.208 81.0605V82.0098C53.208 82.6188 53.1963 83.2161 53.1729 83.8018C53.1729 84.3875 53.1259 84.9856 53.0322 85.5947V86.6133C52.9152 86.7069 52.7977 86.7538 52.6807 86.7539C52.587 86.7773 52.446 86.7891 52.2588 86.7891H51.5557C51.275 86.8125 51.0408 86.8831 50.8535 87H49.834C49.717 87 49.6112 86.9765 49.5176 86.9297C49.4239 86.9062 49.2711 86.8593 49.0605 86.7891V84.3994C49.0605 83.8137 49.0488 83.4384 49.0254 83.2744V82.8877C48.9788 82.7708 48.9669 82.6304 48.9902 82.4668C49.0136 82.303 49.0254 82.1855 49.0254 82.1152C49.0722 81.6232 49.0722 81.1189 49.0254 80.6035C49.002 80.0649 48.9785 79.6199 48.9551 79.2686C48.9316 79.0577 48.9199 78.8583 48.9199 78.6709V78.0381C48.9199 77.64 48.9317 77.2536 48.9551 76.8789C49.0019 76.4806 49.0019 76.0819 48.9551 75.6836C48.9083 75.1685 48.92 74.7469 48.9902 74.4189C49.0136 74.3252 49.0019 74.1609 48.9551 73.9268C48.9082 73.669 48.8848 73.3993 48.8848 73.1182C48.8848 72.7433 48.8965 72.4032 48.9199 72.0986C48.9433 71.7943 48.9551 71.5017 48.9551 71.2207C48.9785 70.9396 48.9902 70.6464 48.9902 70.3418C49.0137 70.0372 49.0137 69.6971 48.9902 69.3223V68.1279C49.0137 67.8702 49.0254 67.6357 49.0254 67.4248C49.0488 67.1906 49.0605 67.0263 49.0605 66.9326C49.0605 66.722 49.037 66.5693 48.9902 66.4756C48.9436 66.3588 48.92 66.2536 48.9199 66.1602V65.9141H53.208Z" fill="var(--fill-0, black)"/>
<path d="M39.0225 65.9492H39.7256C39.9597 65.9258 40.1946 65.9258 40.4287 65.9492C40.9673 65.996 41.4829 66.0195 41.9746 66.0195C42.4899 65.9961 42.9123 65.9609 43.2402 65.9141C43.4043 65.9141 43.6972 65.9376 44.1182 65.9844C44.5398 66.0312 44.9505 66.0664 45.3486 66.0898C45.6061 66.1132 45.8176 66.1132 45.9814 66.0898C46.145 66.0665 46.2854 66.0665 46.4023 66.0898V67.7061C46.4023 67.7994 46.4142 67.8582 46.4375 67.8818C46.4608 67.9055 46.4491 68.0112 46.4023 68.1982C46.3788 68.2917 46.2855 68.3506 46.1221 68.374H45.7354C45.1263 68.4677 44.5632 68.5029 44.0479 68.4795C43.5561 68.4561 43.0757 68.4443 42.6074 68.4443H42.1504C42.0568 68.4443 41.9392 68.4561 41.7988 68.4795V69.2871C41.7988 69.4745 41.7871 69.7561 41.7637 70.1309V71.2207C41.7636 71.2676 41.7519 71.3381 41.7285 71.4316C41.7285 71.502 41.7167 71.6195 41.6934 71.7832C41.6699 71.9237 41.6229 72.1344 41.5527 72.415V74.208C41.5761 74.4421 41.5879 74.6761 41.5879 74.9102V76.0352C41.4942 76.4334 41.4707 76.8322 41.5176 77.2305C41.5644 77.6286 41.5879 78.0267 41.5879 78.4248V86.4375C41.541 86.4376 41.4585 86.4493 41.3418 86.4727C41.2249 86.496 41.1072 86.5078 40.9902 86.5078C40.8736 86.5311 40.7682 86.5429 40.6748 86.543C40.6047 86.5663 40.5813 86.5781 40.6045 86.5781H38.8818C38.5074 86.5313 38.1911 86.4961 37.9336 86.4727C37.6996 86.4727 37.4881 86.4844 37.3008 86.5078C37.254 86.5078 37.2069 86.4842 37.1602 86.4375C37.1134 86.4141 37.0781 86.3906 37.0547 86.3672C37.0313 86.1564 37.0195 85.8403 37.0195 85.4189C37.043 84.9973 37.0547 84.6689 37.0547 84.4346V83.9424C37.1015 83.5442 37.1133 83.1922 37.0898 82.8877C37.0664 82.5598 37.0547 82.1969 37.0547 81.7988V81.0254C37.1718 80.5101 37.1952 79.9713 37.125 79.4092C37.0781 78.8469 37.0547 78.3309 37.0547 77.8623V68.9014C37.0547 68.6673 36.9958 68.55 36.8789 68.5498C36.5511 68.5264 36.2929 68.5147 36.1055 68.5146C35.9181 68.5147 35.6597 68.5264 35.332 68.5498C35.1914 68.5497 34.9454 68.5145 34.5947 68.4443C34.267 68.3741 34.044 68.3507 33.9268 68.374C33.8096 68.4208 33.563 68.4208 33.1885 68.374C32.838 68.3273 32.6037 68.3038 32.4863 68.3037H32.1699C32.0764 68.2803 31.9822 68.2332 31.8887 68.1631V65.9844C31.9824 65.9376 32.1234 65.9141 32.3105 65.9141H33.5049C33.6922 65.9141 33.8683 65.9023 34.0322 65.8789C34.0795 65.879 34.2439 65.8907 34.5244 65.9141C34.8053 65.9375 35.0402 65.961 35.2275 65.9844C35.3678 65.9377 35.5082 65.9141 35.6484 65.9141C35.9997 65.8907 36.3283 65.8906 36.6328 65.9141C36.8434 65.9375 36.9962 65.9375 37.0898 65.9141C37.1835 65.8907 37.3246 65.8789 37.5117 65.8789H38.0732L39.0225 65.9492Z" fill="var(--fill-0, black)"/>
<path fill-rule="evenodd" clip-rule="evenodd" d="M22.5088 65C22.5556 65.0937 22.5791 65.1876 22.5791 65.2812C22.5791 65.3515 22.6026 65.4337 22.6494 65.5273L22.79 66.0547L22.8955 66.3359L23.2822 67.4248L23.9141 69.2168L24.1602 69.6738C24.2069 69.7207 24.254 69.8265 24.3008 69.9902C24.3476 70.1308 24.418 70.3185 24.5117 70.5527C24.6289 70.8573 24.7461 71.2092 24.8633 71.6074C25.0038 71.9821 25.1329 72.3568 25.25 72.7314C25.414 73.3171 25.543 73.7511 25.6367 74.0322C25.7538 74.3132 25.8712 74.6058 25.9883 74.9102C26.0409 74.9803 26.0803 75.0572 26.1064 75.1406L26.1719 75.4023C26.1895 75.461 26.21 75.5196 26.2334 75.5781L26.6904 77.0195L27.2881 78.2842C27.3584 78.495 27.4287 78.7062 27.499 78.917C27.5927 79.1044 27.6983 79.2921 27.8154 79.4795C28.0028 79.9479 28.1554 80.3812 28.2725 80.7793C28.3896 81.1541 28.5421 81.5764 28.7295 82.0449C28.8231 82.2556 28.9161 82.4553 29.0098 82.6426C29.1268 82.8298 29.2208 83.0286 29.291 83.2393L29.5723 83.9424C29.6894 84.1532 29.7832 84.3761 29.8535 84.6104C29.9472 84.8212 30.0528 85.0558 30.1699 85.3135C30.2167 85.4538 30.2756 85.5941 30.3457 85.7344C30.4159 85.8748 30.4629 86.0041 30.4863 86.1211C30.3693 86.1211 30.2518 86.1093 30.1348 86.0859C30.0178 86.0626 29.912 86.0508 29.8184 86.0508H28.6592C28.4955 86.0742 28.3543 86.0859 28.2373 86.0859C28.1202 85.805 27.944 85.5359 27.71 85.2783C27.4991 84.9972 27.2762 84.657 27.042 84.2588C26.9952 84.1417 26.9482 84.036 26.9014 83.9424L26.7607 83.6611C26.7138 83.5206 26.5729 83.321 26.3389 83.0635C26.1285 82.8063 26.0119 82.6073 25.9883 82.4668C25.8011 82.2562 25.6601 82.0917 25.5664 81.9746C25.4962 81.8342 25.4022 81.705 25.2852 81.5879H24.9336C24.7932 81.5645 24.6639 81.541 24.5469 81.5176C24.4064 81.4942 24.2537 81.4824 24.0898 81.4824H23.2471C23.1301 81.4824 23.0007 81.4942 22.8604 81.5176C22.7433 81.5176 22.5553 81.5293 22.2979 81.5527C22.0402 81.5527 21.6881 81.5645 21.2432 81.5879H19.2051C19.0178 81.5879 18.8651 81.6114 18.748 81.6582C18.6544 81.6815 18.5133 81.658 18.3262 81.5879C18.2557 81.5412 18.0801 81.5294 17.7998 81.5527C17.5426 81.5761 17.3663 81.5997 17.2725 81.623L16.8154 81.6582L16.6396 81.9043C16.5928 82.0448 16.5106 82.2092 16.3936 82.3965C16.2765 82.5837 16.159 82.7708 16.042 82.958L15.6904 83.5205C15.5967 83.7079 15.5263 83.8604 15.4795 83.9775L15.2334 84.6104L14.3555 86.2266C14.3087 86.3201 14.238 86.3671 14.1445 86.3672C14.0511 86.3672 13.9804 86.3908 13.9336 86.4375H12.1416C12.0479 86.3438 12.001 86.2851 12.001 86.2617C12.0013 86.238 12.0483 86.1674 12.1416 86.0508C12.1417 85.9571 12.1769 85.8161 12.2471 85.6289C12.3171 85.4654 12.3515 85.3367 12.3516 85.2432C12.4686 85.0559 12.5626 84.868 12.6328 84.6807C12.7265 84.4699 12.8204 84.2704 12.9141 84.083L13.8984 81.623C14.0624 81.1545 14.2266 80.6971 14.3906 80.252C14.578 79.7836 14.754 79.3151 14.918 78.8467C15.0351 78.4953 15.1866 78.1434 15.374 77.792C15.5613 77.4408 15.7257 77.1247 15.8662 76.8438C15.9833 76.4455 16.1006 76.1288 16.2178 75.8945C16.3583 75.6369 16.4404 75.4726 16.4639 75.4023C16.464 75.3553 16.5109 75.2379 16.6045 75.0508C16.7216 74.8634 16.8508 74.559 16.9912 74.1377C17.0615 73.9269 17.1201 73.704 17.167 73.4697C17.2373 73.2355 17.3194 73.0126 17.4131 72.8018L18.2559 70.7637C18.3496 70.506 18.4082 70.3183 18.4316 70.2012C18.4785 70.0607 18.5137 69.9433 18.5371 69.8496C18.5605 69.756 18.584 69.6502 18.6074 69.5332C18.6309 69.4161 18.7015 69.2289 18.8184 68.9717C18.9355 68.7141 19.0293 68.4676 19.0996 68.2334C19.1933 67.9991 19.2989 67.7528 19.416 67.4951L19.6973 66.6514C19.7674 66.4643 19.8262 66.3005 19.873 66.1602C19.9199 66.0196 19.9668 65.8553 20.0137 65.668C20.0604 65.6212 20.0957 65.5624 20.1191 65.4922C20.1426 65.3985 20.1895 65.2929 20.2598 65.1758C20.3999 65.0824 20.5168 65.0354 20.6104 65.0352C20.7038 65.0118 20.7981 65 20.8916 65H22.5088ZM21.2783 72.9072C21.1614 72.954 21.0791 73.0128 21.0322 73.083C20.9854 73.1532 20.9384 73.2355 20.8916 73.3291C20.7979 73.657 20.6698 73.9856 20.5059 74.3135C20.3654 74.6179 20.2245 74.9339 20.084 75.2617C19.9669 75.4959 19.8495 75.7189 19.7324 75.9297C19.6153 76.1171 19.5097 76.3283 19.416 76.5625C19.2052 77.0309 18.994 77.4993 18.7832 77.9678C18.5724 78.4129 18.3378 78.8586 18.0801 79.3037H18.291C18.4782 79.3037 18.6427 79.3155 18.7832 79.3389C18.9471 79.3622 19.1115 79.3505 19.2754 79.3037C19.4158 79.2569 19.5451 79.2452 19.6621 79.2686C19.8025 79.2919 19.9318 79.3037 20.0488 79.3037H21.2783C21.6999 79.2803 22.1693 79.292 22.6846 79.3389C22.9418 79.3622 23.1762 79.3622 23.3867 79.3389C23.6208 79.3155 23.8558 79.3037 24.0898 79.3037H24.4062C24.3828 79.2101 24.3476 79.1396 24.3008 79.0928C24.2774 79.0225 24.2421 78.9521 24.1953 78.8818C24.1016 78.6945 23.996 78.5302 23.8789 78.3896C23.7853 78.2491 23.703 78.073 23.6328 77.8623L22.4033 75.4023C22.3565 75.2852 22.3095 75.1326 22.2627 74.9453L21.2783 72.9072Z" fill="var(--fill-0, black)"/>
<path fill-rule="evenodd" clip-rule="evenodd" d="M37.5605 21.8916C37.7531 21.8917 37.9443 21.951 38.0908 21.9971C38.2906 22.0599 38.6192 22.1729 39.1709 22.3779C40.1846 22.7546 42.0028 23.5567 43.4424 24.2129C44.9058 24.8799 45.9608 25.4219 46.7031 25.7949C48.4508 26.6383 49.212 27.0484 49.9189 27.4609C50.0121 27.5109 50.0683 27.5356 50.1328 27.5625C50.208 27.5938 50.3242 27.6398 50.4824 27.7158C50.571 27.7585 50.6504 27.8132 50.7197 27.876C51.2001 27.949 51.5684 28.3635 51.5684 28.8643C51.5683 29.4164 51.1205 29.8642 50.5684 29.8643C50.1761 29.8643 49.7682 29.8643 49.5098 29.8564C49.2377 29.8481 49.0929 29.8288 48.5254 29.7832C48.3799 29.7715 48.2021 29.7572 47.9561 29.7422C47.9576 30.0143 47.9603 30.3876 47.9629 30.8994C47.9724 32.7838 47.9908 36.5462 48.0049 38.5703L48.0225 39.8896C48.0259 40.0911 48.0316 40.2608 48.0352 40.4043C48.0762 40.3899 48.1177 40.3747 48.1582 40.3623C49.1711 40.0534 50.12 40.3569 50.791 40.7051C51.3307 40.9852 51.7812 41.3416 52.0801 41.6006C52.1378 41.536 52.2052 41.4772 52.2812 41.4277C52.2912 41.4202 52.3279 41.3929 52.3955 41.3379C52.4776 41.2711 52.586 41.1792 52.7109 41.0693C52.9617 40.8488 53.2717 40.5603 53.5752 40.25C54.3345 39.4736 55.3944 38.7562 56.3096 38.3848C57.2235 38.0142 58.0144 38.3009 58.6543 38.6846C58.9634 38.87 59.2812 39.104 59.5938 39.3379C59.9176 39.5802 60.2531 39.8353 60.6406 40.1084C61.1348 40.4567 61.4792 40.8385 61.7461 41.1562C62.0284 41.4924 62.1661 41.6757 62.3398 41.833C62.9018 42.2497 63.2066 42.5156 63.6641 42.8174C63.9845 43.0145 64.5511 43.3446 65.2959 43.8271C65.759 44.1275 65.8917 44.7466 65.5918 45.21C65.2915 45.6727 64.6722 45.8055 64.209 45.5059C63.4731 45.0291 62.9736 44.7421 62.5986 44.5107L62.5869 44.5029L62.5742 44.4951C62.0531 44.1524 61.5489 43.7332 61.1025 43.4043L61.0674 43.3779L61.0342 43.3496C60.7038 43.0581 60.4144 42.68 60.2148 42.4424C59.9901 42.1749 59.775 41.9452 59.4883 41.7432C59.0704 41.4487 58.7018 41.1677 58.3955 40.9385C58.0784 40.7012 57.8361 40.5265 57.626 40.4004C57.2279 40.1617 57.1334 40.2081 57.0615 40.2373C56.4179 40.4985 55.5858 41.0546 55.0059 41.6475C54.7319 41.9276 54.4531 42.1865 54.21 42.4062C54.6653 42.5011 55.2186 42.6074 55.8965 42.7334C56.7497 42.892 57.2385 43.1263 57.6768 43.5234C58.0596 43.8706 58.3943 44.3158 58.6914 44.6943C59.0077 45.0972 59.3488 45.5179 59.8096 45.9561C60.0083 46.1449 60.292 46.3232 60.6738 46.5166C60.8614 46.6116 61.0587 46.7037 61.2705 46.8018C61.4771 46.8974 61.7026 47.0003 61.9199 47.1084C62.5314 47.4127 62.946 47.9335 63.2402 48.4355C63.4627 48.8152 63.647 49.2385 63.8066 49.6553L63.959 50.0684L63.9629 50.0811C64.3587 51.2423 64.5235 51.7777 64.6533 52.1055C64.6902 52.194 64.7317 52.2903 64.7969 52.4434C64.8643 52.6017 64.9529 52.8111 65.0771 53.1104C65.2882 53.6201 65.0455 54.2052 64.5361 54.417C64.0264 54.628 63.4412 54.3864 63.2295 53.877C63.1082 53.5846 63.0225 53.3811 62.957 53.2275C62.8932 53.0776 62.843 52.9616 62.7998 52.8574L62.7969 52.8496L62.7939 52.8428C62.6415 52.4579 62.4355 51.7994 62.0742 50.7393L61.9365 50.3643C61.7993 50.0067 61.6623 49.6983 61.5146 49.4463C61.3157 49.107 61.1483 48.9588 61.0293 48.8994C60.8423 48.8064 60.6454 48.7157 60.4307 48.6162C60.221 48.5191 59.9934 48.4136 59.7705 48.3008C59.3309 48.0781 58.8418 47.7952 58.4316 47.4053C57.8629 46.8645 57.4496 46.3518 57.1182 45.9297C56.7679 45.4835 56.5593 45.2092 56.334 45.0049C56.2621 44.9398 56.2043 44.9003 56.1182 44.8613C56.0174 44.8158 55.8452 44.7576 55.5312 44.6992C54.2311 44.4576 53.2926 44.2742 52.6104 44.083C51.9241 43.8906 51.3742 43.6589 50.9316 43.2539C50.6952 43.0375 50.3118 42.7098 49.8701 42.4805C49.419 42.2464 49.0418 42.1842 48.7422 42.2754C48.4073 42.3778 47.9476 42.6595 47.2705 43.0879C46.6601 43.474 45.9003 43.9576 45.1318 44.25C44.4044 44.5266 43.7745 44.7137 43.2695 44.8379C43.3313 44.9275 43.393 45.0206 43.458 45.1133C44.3366 46.3658 45.4218 47.5054 46.3398 48.1875C46.6998 48.4549 47.2427 48.7622 47.8916 49.0996C48.4795 49.4053 49.2688 49.7922 49.8496 50.0986C50.859 50.6312 51.629 51.0891 52.2549 51.4492C52.891 51.8152 53.3602 52.0698 53.8291 52.252C55.0552 52.7282 55.7651 53.4725 56.3408 54.2148L56.918 54.9893L56.9453 55.0352C57.4698 55.9231 57.7804 56.6478 57.9814 57.335L58.0615 57.627L58.0693 57.6621C58.1089 57.8457 58.1437 58.0202 58.2129 58.3994C58.3117 58.9424 57.9511 59.4632 57.4082 59.5625C56.8653 59.661 56.3442 59.3007 56.2451 58.7578C56.1808 58.405 56.1496 58.2515 56.1182 58.1045C55.9764 57.5497 55.7417 56.9383 55.2461 56.0928C54.4986 55.0864 54.0995 54.5025 53.1055 54.1162C52.4807 53.8735 51.8947 53.5491 51.2578 53.1826C50.6102 52.81 49.8837 52.3788 48.916 51.8682C48.2833 51.5344 47.6819 51.2443 46.9697 50.874C46.3185 50.5354 45.6472 50.1649 45.1465 49.793C44.0226 48.9579 42.7954 47.6503 41.8213 46.2617C41.0082 45.1025 40.356 44.0336 39.877 43.3174C39.3496 42.529 39.0177 42.1501 38.7393 41.9795C38.3309 41.7295 37.8713 41.4207 37.1621 41.208C36.4632 40.9986 35.4785 40.8738 34.0938 41.1172C32.9951 41.3105 31.7719 41.7841 29.8164 41.6006C29.0008 41.524 28.2164 41.4388 27.5557 41.4395C27.229 41.4399 26.9781 41.4625 26.8027 41.501C26.7131 41.5208 26.6651 41.5403 26.6465 41.5488C26.4769 41.7293 26.246 42.0288 25.9395 42.4551C25.6516 42.8554 25.2489 43.436 24.8672 43.9629C24.0688 45.0648 23.0746 46.3457 21.9365 47.3457C21.2147 47.9797 20.5252 48.2767 19.8984 48.4756C19.2148 48.6924 18.8744 48.7374 18.4004 48.9502C17.6518 49.2863 17.1903 49.5344 16.8623 49.8057C16.5669 50.0502 16.3494 50.3391 16.165 50.8193C15.2939 53.089 14.4916 55.264 13.3242 56.9111C12.9171 57.4855 12.5572 58.0078 12.2969 58.4033C12.1662 58.6019 12.0648 58.762 11.9971 58.876C11.9683 58.9244 11.9486 58.9585 11.9375 58.9795C11.765 59.4498 11.2643 59.7265 10.7656 59.6064C10.2294 59.4765 9.8991 58.9368 10.0283 58.4004L10.0596 58.293C10.0941 58.193 10.1356 58.1127 10.1533 58.0781C10.1897 58.0072 10.2326 57.9298 10.2773 57.8545C10.3677 57.7023 10.4881 57.5142 10.626 57.3047C10.9036 56.8829 11.2779 56.3396 11.6924 55.7549C12.6804 54.3608 13.39 52.4679 14.2979 50.1025C14.5935 49.3324 15.0024 48.7481 15.5879 48.2637C16.1411 47.8063 16.8206 47.4675 17.5811 47.126C18.1812 46.8566 18.898 46.6949 19.2939 46.5693C19.7464 46.4257 20.1633 46.2415 20.6162 45.8438C21.5774 44.9992 22.4634 43.8707 23.2471 42.7891C23.656 42.2246 23.9707 41.7678 24.3164 41.2871C24.6296 40.8517 24.9445 40.4317 25.2305 40.1357L25.3623 40.0127C25.6797 39.7461 26.0591 39.6172 26.374 39.5479C26.7484 39.4656 27.159 39.4399 27.5527 39.4395C27.8292 39.4392 28.1229 39.4526 28.4189 39.4717C28.4168 39.4468 28.4154 39.4239 28.4131 39.4004L28.4111 39.3848L28.4102 39.3691C28.3578 38.5819 28.3266 37.555 28.2764 35.5537V35.5352C28.2679 34.1334 28.2676 31.6476 28.2676 30.4062V29.5254C26.0369 29.5192 26.013 29.5195 26 29.5195C25.7152 29.5194 25.4584 29.3992 25.2764 29.208C25.1993 29.2226 25.1277 29.2344 25.0596 29.2383C24.5085 29.2686 24.0366 28.847 24.0059 28.2959C23.9753 27.7448 24.3972 27.2732 24.9482 27.2422C24.8686 27.2467 24.8857 27.2619 25.1191 27.1807C25.344 27.1023 25.7282 26.949 26.3613 26.6562C26.9176 26.399 27.7076 26.0118 28.5713 25.5908C29.4273 25.1736 30.3515 24.7252 31.1543 24.3594C32.765 23.6255 33.8108 23.2363 34.6611 22.9375C35.5027 22.6418 36.1236 22.4455 36.4805 22.332C36.6212 22.2873 36.7263 22.2531 36.8154 22.2256C36.9984 22.0212 37.2647 21.8918 37.5605 21.8916ZM42.209 30.0713C42.2123 31.0186 42.2187 32.8927 42.3037 34.9893C42.3888 37.0894 42.5533 39.3589 42.6426 40.6953C42.7341 42.0649 42.7379 42.3112 42.7656 42.668C42.7719 42.7491 42.7663 42.8284 42.7539 42.9053C43.1709 42.8045 43.7354 42.6415 44.4209 42.3809C44.9333 42.1859 45.4803 41.8516 46.084 41.4707V41.4688L46.085 41.4678C46.0525 41.1377 46.0272 40.7571 46.0049 38.5908V38.5869C45.9908 36.561 45.9724 32.7935 45.9629 30.9092C45.96 30.34 45.9575 29.9422 45.9561 29.6641C45.2088 29.6437 44.2444 29.6226 42.9854 29.6064C42.7363 29.6033 42.4758 29.6016 42.207 29.5986C42.2074 29.7219 42.2083 29.8768 42.209 30.0713ZM36.2373 30.7295C36.2373 32.2778 36.2378 35.3679 36.2412 37.0195C36.2447 38.7103 36.2527 38.7575 36.2568 38.7959C36.2588 38.814 36.2689 38.9062 36.2812 39.0186C36.8224 39.0667 37.3059 39.163 37.7363 39.292C38.7369 39.592 39.4178 40.0498 39.7832 40.2734C40.104 40.4698 40.3919 40.7335 40.6592 41.0332C40.6549 40.9676 40.6512 40.8992 40.6465 40.8281C40.5582 39.5073 40.3921 37.2038 40.3057 35.0703C40.2191 32.9337 40.2123 31.0277 40.209 30.0781C40.2083 29.8697 40.2074 29.7067 40.207 29.5791C38.9443 29.5691 37.5839 29.5604 36.2373 29.5537V30.7295ZM30.2676 30.4062C30.2676 31.6503 30.2679 34.1292 30.2764 35.5234C30.3266 37.5238 30.3574 38.5012 30.4062 39.2363C30.4154 39.3341 30.4228 39.4389 30.4385 39.6377C31.739 39.6911 32.4221 39.3806 33.748 39.1475C33.9273 39.116 34.1036 39.0894 34.2744 39.0674C34.272 39.0473 34.2697 39.0266 34.2676 39.0068C34.2492 38.8343 34.2446 38.6359 34.2412 37.0234C34.2378 35.3691 34.2373 32.2768 34.2373 30.7295V29.5449C32.7771 29.539 31.402 29.5346 30.2676 29.5312V30.4062ZM37.8115 24.0127C37.7526 24.0396 37.6894 24.0617 37.624 24.0771C37.4992 24.1064 37.4545 24.1204 37.0869 24.2373C36.7329 24.3499 36.136 24.5389 35.3242 24.8242C34.5195 25.107 33.5304 25.4748 31.9834 26.1797C31.2073 26.5333 30.305 26.9706 29.4473 27.3887C29.3517 27.4352 29.2555 27.4813 29.1611 27.5273C29.208 27.5275 29.2564 27.5282 29.3047 27.5283C32.5715 27.5376 39.0984 27.5563 43.0107 27.6064C44.2552 27.6224 45.2177 27.6437 45.9717 27.6641C45.9219 27.6399 45.8709 27.6147 45.8193 27.5898L45.8057 27.582C45.0523 27.2035 44.0349 26.6802 42.6133 26.0322C41.167 25.373 39.4112 24.601 38.4746 24.2529C38.19 24.1472 37.9737 24.0693 37.8115 24.0127Z" fill="var(--fill-0, black)"/>
<path d="M59 9C62.866 9 66 12.134 66 16C66 19.866 62.866 23 59 23C55.1342 22.9998 52 19.8659 52 16C52 12.1341 55.1342 9.00022 59 9Z" fill="var(--fill-0, black)"/>
<path fill-rule="evenodd" clip-rule="evenodd" d="M74.2041 0.0107422C75.2128 0.113005 76 0.96435 76 2V95L75.9893 95.2041C75.8938 96.1457 75.1457 96.8938 74.2041 96.9893L74 97H2C0.895431 97 0 96.1046 0 95V2C6.44266e-08 0.895431 0.895431 8.0532e-09 2 0H74L74.2041 0.0107422ZM2 95H74V2H2V95Z" fill="var(--fill-0, black)"/>
</g>
</svg>
