<svg preserveAspectRatio="none" width="100%" height="100%" overflow="visible" style="display: block;" viewBox="0 0 56 78" fill="none" xmlns="http://www.w3.org/2000/svg">
<g id="Group 8">
<g id="Group 7">
<path id="Union" d="M27.5603 12.8916C27.7532 12.8916 27.9438 12.951 28.0906 12.9971C28.2904 13.0599 28.6183 13.1727 29.1706 13.3779C30.1844 13.7546 32.0023 14.5566 33.4421 15.2129C34.9061 15.8801 35.9604 16.4219 36.7029 16.7949C38.4511 17.6386 39.2116 18.0483 39.9187 18.4609C40.0123 18.5112 40.0677 18.5355 40.1326 18.5625C40.2078 18.5938 40.3234 18.6395 40.4822 18.7158C40.5709 18.7585 40.65 18.8131 40.7195 18.876C41.2 18.9489 41.5681 19.3634 41.5681 19.8643C41.568 20.4165 41.1203 20.8643 40.5681 20.8643C40.1757 20.8643 39.768 20.8643 39.5095 20.8564C39.2372 20.8481 39.093 20.8289 38.5251 20.7832C38.3795 20.7715 38.2023 20.7572 37.9558 20.7422C37.9573 21.0143 37.9601 21.3876 37.9626 21.8994C37.9722 23.7838 37.9906 27.5462 38.0046 29.5703L38.0222 30.8896C38.0257 31.0911 38.0314 31.2608 38.0349 31.4043C38.0762 31.3898 38.1171 31.3748 38.1579 31.3623C39.1712 31.0531 40.1196 31.3568 40.7908 31.7051C41.3308 31.9854 41.7809 32.3415 42.0798 32.6006C42.1377 32.5358 42.2047 32.4773 42.281 32.4277C42.2906 32.4205 42.3268 32.3936 42.3953 32.3379C42.4774 32.271 42.5855 32.1795 42.7107 32.0693C42.9615 31.8487 43.2712 31.5606 43.5749 31.25C44.3344 30.4734 45.3939 29.7562 46.3093 29.3848C47.2237 29.0139 48.0139 29.3007 48.654 29.6846C48.9634 29.8701 49.2808 30.1038 49.5935 30.3379C49.9175 30.5804 50.2525 30.8351 50.6404 31.1084C51.1348 31.4569 51.4788 31.8384 51.7458 32.1562C52.0285 32.4927 52.1657 32.6756 52.3396 32.833C52.9019 33.2499 53.2061 33.5154 53.6638 33.8174C53.9842 34.0145 54.5504 34.3443 55.2956 34.8271C55.759 35.1274 55.8917 35.7465 55.5915 36.21C55.2912 36.6731 54.6721 36.8058 54.2087 36.5059C53.4724 36.0288 52.9735 35.7422 52.5984 35.5107L52.5867 35.5029L52.574 35.4951C52.0526 35.1522 51.5488 34.7334 51.1023 34.4043L51.0671 34.3779L51.0339 34.3496C50.7033 34.0579 50.4142 33.6801 50.2146 33.4424C49.9897 33.1747 49.7749 32.9454 49.488 32.7432C49.0699 32.4485 48.7017 32.1678 48.3953 31.9385C48.0778 31.7009 47.836 31.5265 47.6257 31.4004C47.2266 31.161 47.1332 31.2081 47.0613 31.2373C46.4175 31.4985 45.5857 32.0543 45.0056 32.6475C44.7315 32.9278 44.453 33.1864 44.2097 33.4062C44.6653 33.5011 45.2178 33.6073 45.8962 33.7334C46.7499 33.8921 47.2381 34.1261 47.6765 34.5234C48.0596 34.8707 48.3939 35.3157 48.6912 35.6943C49.0075 36.0973 49.3483 36.5177 49.8093 36.9561C50.0081 37.145 50.2914 37.323 50.6736 37.5166C50.8614 37.6117 51.0582 37.7035 51.2703 37.8018C51.4771 37.8975 51.7021 38.0002 51.9197 38.1084C52.5314 38.4127 52.9457 38.9334 53.24 39.4355C53.4625 39.8153 53.6467 40.2383 53.8064 40.6553L53.9587 41.0684L53.9626 41.0811C54.3586 42.2427 54.5232 42.7777 54.6531 43.1055C54.69 43.1941 54.7313 43.2901 54.7966 43.4434C54.8641 43.6017 54.9526 43.8109 55.0769 44.1104C55.2882 44.6202 55.0456 45.2053 54.5359 45.417C54.026 45.6284 53.441 45.3867 53.2292 44.877C53.1078 44.5844 53.0222 44.3812 52.9568 44.2275C52.8928 44.0774 52.8428 43.9616 52.7996 43.8574L52.7966 43.8496L52.7937 43.8428C52.6412 43.4579 52.4353 42.7997 52.074 41.7393L51.9363 41.3643C51.799 41.0066 51.6621 40.6984 51.5144 40.4463C51.3152 40.1065 51.1481 39.9587 51.029 39.8994C50.8418 39.8063 50.6455 39.7158 50.4304 39.6162C50.2205 39.519 49.9934 39.4138 49.7703 39.3008C49.3305 39.0781 48.8418 38.7954 48.4314 38.4053C47.8624 37.8643 47.4494 37.352 47.1179 36.9297C46.7674 36.4832 46.5592 36.2093 46.3337 36.0049C46.2616 35.9395 46.2044 35.9004 46.1179 35.8613C46.0172 35.8158 45.8457 35.7577 45.531 35.6992C44.2303 35.4575 43.2924 35.2742 42.6101 35.083C41.9234 34.8906 41.3741 34.6592 40.9314 34.2539C40.6949 34.0374 40.3119 33.7099 39.8699 33.4805C39.4183 33.2461 39.0418 33.184 38.7419 33.2754C38.407 33.3777 37.9479 33.6592 37.2703 34.0879C36.6597 34.4741 35.9003 34.9576 35.1316 35.25C34.4037 35.5268 33.7744 35.7137 33.2693 35.8379C33.3312 35.9277 33.3926 36.0204 33.4578 36.1133C34.3365 37.366 35.4214 38.5054 36.3396 39.1875C36.6997 39.455 37.2421 39.762 37.8913 40.0996C38.4794 40.4054 39.2684 40.7921 39.8494 41.0986C40.8592 41.6314 41.6286 42.089 42.2546 42.4492C42.8911 42.8155 43.3597 43.0697 43.8288 43.252C45.0554 43.7283 45.7647 44.4723 46.3406 45.2148L46.9177 45.9893L46.9451 46.0352C47.4697 46.9232 47.7801 47.6477 47.9812 48.335L48.0613 48.627L48.0691 48.6621C48.1086 48.8457 48.1434 49.0201 48.2126 49.3994C48.3115 49.9426 47.9511 50.4634 47.4079 50.5625C46.8648 50.6614 46.344 50.301 46.2449 49.7578C46.1805 49.4049 46.1493 49.2516 46.1179 49.1045C45.9762 48.5497 45.7416 47.9384 45.2458 47.0928C44.4981 46.0861 44.0996 45.5025 43.1052 45.1162C42.4801 44.8734 41.8948 44.5493 41.2576 44.1826C40.6097 43.8099 39.8839 43.379 38.9158 42.8682C38.2828 42.5342 37.682 42.2445 36.9695 41.874C36.318 41.5353 35.6471 41.1651 35.1462 40.793C34.0222 39.9578 32.7953 38.6506 31.821 37.2617C31.0078 36.1023 30.3558 35.0336 29.8767 34.3174C29.349 33.5285 29.0176 33.15 28.739 32.9795C28.3305 32.7294 27.8715 32.4208 27.1619 32.208C26.4628 31.9985 25.4788 31.8737 24.0935 32.1172C22.9946 32.3104 21.7722 32.7843 19.8162 32.6006C19.0002 32.524 18.2164 32.4387 17.5554 32.4395C17.2282 32.4398 16.9779 32.4624 16.8025 32.501C16.7118 32.521 16.6647 32.5404 16.6462 32.5488C16.4766 32.7293 16.246 33.0285 15.9392 33.4551C15.6513 33.8555 15.2488 34.4358 14.8669 34.9629C14.0684 36.065 13.0746 37.3455 11.9363 38.3457C11.2142 38.98 10.5252 39.2766 9.89818 39.4756C9.21403 39.6926 8.87445 39.7372 8.40014 39.9502C7.65102 40.2866 7.19018 40.5343 6.86205 40.8057C6.56641 41.0503 6.34923 41.3388 6.16479 41.8193C5.2936 44.0891 4.49146 46.2639 3.32396 47.9111C2.91672 48.4857 2.55699 49.0077 2.29662 49.4033C2.16578 49.6021 2.06454 49.7619 1.99682 49.876C1.96788 49.9247 1.94839 49.9585 1.93725 49.9795C1.7648 50.45 1.26422 50.7268 0.765371 50.6064C0.228798 50.4767 -0.101293 49.937 0.0280665 49.4004L0.0593165 49.293C0.0939182 49.1927 0.135407 49.1126 0.153066 49.0781C0.189487 49.0071 0.232297 48.93 0.27709 48.8545C0.367507 48.7022 0.487738 48.5144 0.625723 48.3047C0.903404 47.8828 1.27752 47.3398 1.69213 46.7549C2.68029 45.3607 3.38964 43.4681 4.2976 41.1025C4.59331 40.3322 5.00194 39.7481 5.58764 39.2637C6.14106 38.806 6.81999 38.4676 7.5808 38.126C8.18128 37.8564 8.89775 37.6949 9.29369 37.5693C9.7464 37.4257 10.1627 37.2418 10.616 36.8438C11.5773 35.9991 12.463 34.8708 13.2468 33.7891C13.6559 33.2244 13.9704 32.7679 14.3162 32.2871C14.6295 31.8515 14.9441 31.4318 15.2302 31.1357L15.3621 31.0127C15.6797 30.7458 16.0587 30.6172 16.3738 30.5479C16.7484 30.4655 17.1584 30.4399 17.5525 30.4395C17.8293 30.4391 18.1223 30.4525 18.4187 30.4717C18.4165 30.4468 18.4151 30.424 18.4128 30.4004L18.4109 30.3848L18.4099 30.3691C18.3575 29.5819 18.3263 28.555 18.2761 26.5537V26.5352C18.2676 25.1334 18.2673 22.6476 18.2673 21.4062V20.5254C16.0257 20.5191 16.0128 20.5195 15.9997 20.5195C15.7147 20.5195 15.4582 20.3994 15.2761 20.208C15.1988 20.2227 15.1276 20.2345 15.0593 20.2383C14.5079 20.2689 14.0363 19.8472 14.0056 19.2959C13.975 18.7446 14.3967 18.2729 14.948 18.2422C14.8676 18.2467 14.8843 18.2623 15.1189 18.1807C15.3438 18.1023 15.7273 17.9493 16.3611 17.6562C16.9174 17.399 17.7069 17.012 18.571 16.5908C19.4274 16.1734 20.351 15.7253 21.154 15.3594C22.7653 14.6253 23.8104 14.2364 24.6609 13.9375C25.5031 13.6415 26.1234 13.4455 26.4802 13.332C26.6214 13.2871 26.7258 13.2531 26.8152 13.2256C26.9983 13.021 27.2641 12.8916 27.5603 12.8916ZM32.2087 21.0713C32.212 22.0186 32.2185 23.8926 32.3035 25.9893C32.3886 28.0894 32.553 30.3589 32.6423 31.6953C32.7339 33.065 32.7376 33.3112 32.7654 33.668C32.7717 33.7491 32.7661 33.8284 32.7537 33.9053C33.1708 33.8044 33.7347 33.6417 34.4206 33.3809C34.9332 33.1859 35.4797 32.8518 36.0837 32.4707V32.4688L36.0847 32.4678C36.0522 32.1377 36.0269 31.7572 36.0046 29.5908V29.5869C35.9906 27.561 35.9722 23.7935 35.9626 21.9092C35.9598 21.34 35.9572 20.9422 35.9558 20.6641C35.2084 20.6437 34.2443 20.6226 32.9851 20.6064C32.7358 20.6033 32.4759 20.6016 32.2068 20.5986C32.2072 20.7219 32.2081 20.8768 32.2087 21.0713ZM26.2371 21.7295C26.2371 23.2778 26.2375 26.3679 26.241 28.0195C26.2445 29.7113 26.2525 29.7575 26.2566 29.7959C26.2586 29.8139 26.2686 29.9061 26.281 30.0186C26.8226 30.0667 27.3054 30.1629 27.7361 30.292C28.7373 30.5922 29.4176 31.0498 29.7829 31.2734C30.104 31.4699 30.3914 31.7333 30.6589 32.0332C30.6546 31.9676 30.651 31.8992 30.6462 31.8281C30.558 30.5073 30.3919 28.2038 30.3054 26.0703C30.2188 23.9337 30.212 22.0277 30.2087 21.0781C30.208 20.8697 30.2072 20.7067 30.2068 20.5791C28.9439 20.5691 27.5839 20.5604 26.2371 20.5537V21.7295ZM20.2673 21.4062C20.2673 22.6503 20.2677 25.1292 20.2761 26.5234C20.3264 28.5238 20.3571 29.5012 20.406 30.2363C20.4152 30.3341 20.4226 30.4388 20.4382 30.6377C21.7392 30.6912 22.4213 30.3807 23.7478 30.1475C23.9274 30.1159 24.1031 30.0894 24.2742 30.0674C24.2717 30.0472 24.2694 30.0267 24.2673 30.0068C24.249 29.8343 24.2443 29.6361 24.241 28.0234C24.2375 26.3691 24.2371 23.2768 24.2371 21.7295V20.5449C22.7766 20.539 21.4019 20.5346 20.2673 20.5312V21.4062ZM27.8113 15.0127C27.7521 15.0397 27.6895 15.0617 27.6238 15.0771C27.4985 15.1065 27.4552 15.1201 27.0867 15.2373C26.7326 15.3499 26.1364 15.5387 25.324 15.8242C24.5191 16.1071 23.5307 16.4746 21.9831 17.1797C21.2068 17.5334 20.3051 17.9705 19.447 18.3887C19.3512 18.4354 19.2555 18.4812 19.1609 18.5273C19.208 18.5275 19.2559 18.5282 19.3044 18.5283C22.5713 18.5376 29.0981 18.5563 33.0105 18.6064C34.2551 18.6224 35.2174 18.6437 35.9714 18.6641C35.9215 18.6398 35.8708 18.6148 35.8191 18.5898L35.8054 18.582C35.052 18.2035 34.0351 17.6804 32.613 17.0322C31.1665 16.3729 29.411 15.601 28.4744 15.2529C28.1892 15.147 27.9736 15.0694 27.8113 15.0127Z" fill="var(--fill-0, black)"/>
<circle id="Ellipse 1" cx="49" cy="7" r="7" fill="var(--fill-0, black)"/>
</g>
<g id="ATH">
<path d="M3.89776 72.623C4.06176 72.1544 4.22577 71.6976 4.38977 71.2524C4.5772 70.7838 4.75292 70.3152 4.91693 69.8466C5.03407 69.4952 5.18636 69.1438 5.3738 68.7923C5.56123 68.4409 5.72523 68.1246 5.86581 67.8435C5.98295 67.4452 6.1001 67.1289 6.21725 66.8946C6.35782 66.6368 6.43982 66.4728 6.46325 66.4026C6.46325 66.3557 6.51011 66.2386 6.60383 66.0511C6.72097 65.8637 6.84983 65.5591 6.99041 65.1374C7.0607 64.9265 7.11927 64.7039 7.16613 64.4696C7.23642 64.2354 7.31842 64.0128 7.41213 63.8019L8.25559 61.7636C8.3493 61.5059 8.40788 61.3184 8.4313 61.2013C8.47816 61.0607 8.51331 60.9436 8.53674 60.8498C8.56016 60.7561 8.58359 60.6507 8.60702 60.5335C8.63045 60.4164 8.70074 60.229 8.81789 59.9712C8.93503 59.7135 9.02875 59.4675 9.09904 59.2332C9.19275 58.9989 9.29818 58.7529 9.41533 58.4952C9.46219 58.3546 9.50905 58.2141 9.55591 58.0735C9.60276 57.9329 9.64962 57.7923 9.69648 57.6518C9.76677 57.4643 9.82534 57.3003 9.8722 57.1597C9.91906 57.0192 9.96592 56.8552 10.0128 56.6677C10.0596 56.6209 10.0948 56.5623 10.1182 56.492C10.1416 56.3983 10.1885 56.2929 10.2588 56.1757C10.3994 56.082 10.5165 56.0351 10.6102 56.0351C10.7039 56.0117 10.7977 56 10.8914 56H12.508C12.5548 56.0937 12.5783 56.1874 12.5783 56.2811C12.5783 56.3514 12.6017 56.4334 12.6486 56.5272L12.7891 57.0543L12.8946 57.3355L13.2811 58.4249L13.9137 60.2173L14.1597 60.6741C14.2066 60.721 14.2535 60.8264 14.3003 60.9904C14.3472 61.131 14.4175 61.3184 14.5112 61.5527C14.6283 61.8573 14.7455 62.2087 14.8626 62.607C15.0032 62.9819 15.1321 63.3568 15.2492 63.7316C15.4132 64.3174 15.5421 64.7508 15.6358 65.0319C15.7529 65.3131 15.8701 65.606 15.9872 65.9105C16.0575 66.0043 16.1044 66.1097 16.1278 66.2268C16.1512 66.344 16.1864 66.4611 16.2332 66.5783L16.6901 68.0192L17.2875 69.2843C17.3578 69.4952 17.4281 69.7061 17.4984 69.9169C17.5921 70.1044 17.6975 70.2918 17.8147 70.4792C18.0021 70.9478 18.1544 71.3813 18.2716 71.7796C18.3887 72.1544 18.541 72.5761 18.7284 73.0447C18.8221 73.2556 18.9159 73.4547 19.0096 73.6422C19.1267 73.8296 19.2204 74.0288 19.2907 74.2396C19.3376 74.3568 19.3844 74.4739 19.4313 74.5911C19.4782 74.7082 19.525 74.8253 19.5719 74.9425C19.689 75.1534 19.7827 75.3759 19.853 75.6102C19.9467 75.8211 20.0522 76.0554 20.1693 76.3131C20.2162 76.4537 20.2748 76.5942 20.345 76.7348C20.4153 76.8754 20.4622 77.0043 20.4856 77.1214C20.3685 77.1214 20.2513 77.1097 20.1342 77.0863C20.017 77.0628 19.9116 77.0511 19.8179 77.0511H19.2204C19.0096 77.0511 18.8221 77.0511 18.6581 77.0511C18.4941 77.0745 18.3536 77.0863 18.2364 77.0863C18.1193 76.8051 17.9436 76.5357 17.7093 76.278C17.4984 75.9968 17.2758 75.6571 17.0415 75.2588C16.9947 75.1416 16.9478 75.0362 16.901 74.9425C16.8541 74.8488 16.8072 74.7551 16.7604 74.6613C16.7135 74.5208 16.5729 74.3216 16.3387 74.0639C16.1278 73.8062 16.0106 73.607 15.9872 73.4665C15.7998 73.2556 15.6592 73.0916 15.5655 72.9744C15.4952 72.8339 15.4015 72.705 15.2843 72.5879C15.1906 72.5879 15.0735 72.5879 14.9329 72.5879C14.7923 72.5644 14.6635 72.541 14.5463 72.5176C14.4057 72.4941 14.2535 72.4824 14.0895 72.4824H13.246C13.1289 72.4824 13 72.4941 12.8594 72.5176C12.7423 72.5176 12.5548 72.5293 12.2971 72.5527C12.0394 72.5527 11.688 72.5644 11.2428 72.5879C10.7977 72.5879 10.2002 72.5879 9.45047 72.5879H9.20447C9.01703 72.5879 8.86474 72.6113 8.7476 72.6581C8.65388 72.6816 8.51331 72.6581 8.32587 72.5879C8.25559 72.541 8.07987 72.5293 7.79872 72.5527C7.541 72.5761 7.36528 72.5996 7.27156 72.623L6.81469 72.6581L6.63897 72.9042C6.59211 73.0447 6.51011 73.2087 6.39297 73.3962C6.27582 73.5836 6.15867 73.771 6.04153 73.9585C5.92438 74.1459 5.80724 74.3333 5.69009 74.5208C5.59637 74.7082 5.52609 74.8605 5.47923 74.9776L5.23322 75.6102L4.35463 77.2268C4.30777 77.3206 4.23748 77.3674 4.14376 77.3674C4.05005 77.3674 3.97976 77.3908 3.9329 77.4377H2.14057C2.04685 77.344 1.99999 77.2854 1.99999 77.262C1.99999 77.2386 2.04685 77.1683 2.14057 77.0511C2.14057 76.9574 2.17571 76.8168 2.246 76.6294C2.31629 76.4654 2.35143 76.3365 2.35143 76.2428C2.46858 76.0554 2.56229 75.8679 2.63258 75.6805C2.7263 75.4696 2.82002 75.2705 2.91373 75.0831L3.89776 72.623ZM11.278 63.9073C11.1608 63.9542 11.0788 64.0128 11.0319 64.0831C10.9851 64.1534 10.9382 64.2354 10.8914 64.3291C10.7977 64.6571 10.6688 64.9851 10.5048 65.3131C10.3642 65.6177 10.2236 65.934 10.0831 66.262C9.96592 66.4963 9.84877 66.7188 9.73162 66.9297C9.61448 67.1171 9.50905 67.328 9.41533 67.5623C9.20447 68.0309 8.9936 68.4995 8.78274 68.9681C8.57188 69.4132 8.33759 69.8584 8.07987 70.3035H8.29073C8.47816 70.3035 8.64217 70.3152 8.78274 70.3387C8.94675 70.3621 9.11075 70.3504 9.27475 70.3035C9.41533 70.2567 9.54419 70.2449 9.66134 70.2684C9.80191 70.2918 9.93077 70.3035 10.0479 70.3035C10.4462 70.3035 10.8562 70.3035 11.278 70.3035C11.6997 70.2801 12.1683 70.2918 12.6837 70.3387C12.9414 70.3621 13.1757 70.3621 13.3866 70.3387C13.6209 70.3152 13.8552 70.3035 14.0895 70.3035H14.4057C14.3823 70.2098 14.3472 70.1395 14.3003 70.0927C14.2769 70.0224 14.2417 69.9521 14.1949 69.8818C14.1012 69.6944 13.9957 69.5304 13.8786 69.3898C13.7849 69.2492 13.7029 69.0735 13.6326 68.8626L12.4026 66.4026C12.3557 66.2854 12.3088 66.1331 12.262 65.9457L11.278 63.9073Z" fill="var(--fill-0, black)"/>
<path d="M31.5875 77.4377C31.5406 77.4377 31.4586 77.4494 31.3415 77.4728C31.2243 77.4963 31.1072 77.508 30.99 77.508C30.8729 77.5314 30.7675 77.5431 30.6737 77.5431C30.6035 77.5666 30.58 77.5783 30.6035 77.5783H28.8814C28.5065 77.5314 28.1902 77.4963 27.9325 77.4728C27.6982 77.4728 27.4874 77.4846 27.2999 77.508C27.2531 77.508 27.2062 77.4846 27.1594 77.4377C27.1125 77.4143 27.0774 77.3908 27.0539 77.3674C27.0305 77.1565 27.0188 76.8403 27.0188 76.4185C27.0422 75.9968 27.0539 75.6688 27.0539 75.4345V74.9425C27.1008 74.5442 27.1125 74.1928 27.0891 73.8882C27.0656 73.5602 27.0539 73.197 27.0539 72.7987V72.0256C27.1711 71.5101 27.1945 70.9712 27.1242 70.4089C27.0774 69.8466 27.0539 69.3312 27.0539 68.8626V59.901C27.0539 59.6667 26.9954 59.5495 26.8782 59.5495C26.5502 59.5261 26.2925 59.5144 26.1051 59.5144C25.9176 59.5144 25.6599 59.5261 25.3319 59.5495C25.1913 59.5495 24.9453 59.5144 24.5939 59.4441C24.2659 59.3738 24.0433 59.3504 23.9261 59.3738C23.809 59.4207 23.563 59.4207 23.1881 59.3738C22.8367 59.3269 22.6024 59.3035 22.4852 59.3035C22.3681 59.3035 22.2627 59.3035 22.1689 59.3035C22.0752 59.2801 21.9815 59.2332 21.8878 59.1629V56.984C21.9815 56.9372 22.1221 56.9137 22.3095 56.9137C22.497 56.9137 22.6844 56.9137 22.8718 56.9137C23.1061 56.9137 23.317 56.9137 23.5044 56.9137C23.6918 56.9137 23.8676 56.902 24.0316 56.8786C24.0784 56.8786 24.2424 56.8903 24.5236 56.9137C24.8047 56.9372 25.039 56.9606 25.2265 56.984C25.367 56.9372 25.5076 56.9137 25.6482 56.9137C25.9996 56.8903 26.3276 56.8903 26.6322 56.9137C26.8431 56.9372 26.9954 56.9372 27.0891 56.9137C27.1828 56.8903 27.3234 56.8786 27.5108 56.8786H28.0731L29.022 56.9489C29.2563 56.9489 29.4906 56.9489 29.7249 56.9489C29.9592 56.9255 30.1934 56.9255 30.4277 56.9489C30.9666 56.9957 31.482 57.0192 31.9741 57.0192C32.4895 56.9957 32.9112 56.9606 33.2392 56.9137C33.4032 56.9137 33.6961 56.9372 34.1178 56.984C34.5396 57.0309 34.9496 57.066 35.3479 57.0895C35.6056 57.1129 35.8164 57.1129 35.9805 57.0895C36.1445 57.066 36.285 57.066 36.4022 57.0895V58.7061C36.4022 58.7998 36.4139 58.8584 36.4373 58.8818C36.4607 58.9052 36.449 59.0106 36.4022 59.1981C36.3787 59.2918 36.285 59.3504 36.121 59.3738C35.957 59.3738 35.8282 59.3738 35.7344 59.3738C35.1253 59.4675 34.563 59.5027 34.0475 59.4792C33.5555 59.4558 33.0752 59.4441 32.6066 59.4441C32.4192 59.4441 32.2669 59.4441 32.1498 59.4441C32.0561 59.4441 31.9389 59.4558 31.7983 59.4792V60.2875C31.7983 60.475 31.7866 60.7561 31.7632 61.131C31.7632 61.5059 31.7632 61.7987 31.7632 62.0096C31.7632 62.1033 31.7632 62.1736 31.7632 62.2204C31.7632 62.2673 31.7515 62.3376 31.7281 62.4313C31.7281 62.5016 31.7163 62.6187 31.6929 62.7827C31.6695 62.9233 31.6226 63.1342 31.5523 63.4153C31.5523 63.8136 31.5523 64.1534 31.5523 64.4345C31.5523 64.7157 31.5523 64.9734 31.5523 65.2077C31.5758 65.442 31.5875 65.6763 31.5875 65.9105C31.5875 66.1214 31.5875 66.3791 31.5875 66.6837V67.0351C31.4938 67.4334 31.4703 67.8317 31.5172 68.23C31.564 68.6283 31.5875 69.0266 31.5875 69.4249V77.4377Z" fill="var(--fill-0, black)"/>
<path d="M43.4532 67.6677C43.4532 67.6912 43.5352 67.7029 43.6992 67.7029C43.8632 67.6794 44.0506 67.6677 44.2615 67.6677H48.1976C48.385 67.6677 48.549 67.6326 48.6896 67.5623C48.8536 67.492 49.0293 67.4569 49.2167 67.4569V67.246C49.2636 67.0351 49.2987 66.7189 49.3222 66.2971C49.3456 65.8754 49.3573 65.5591 49.3573 65.3482C49.3573 65.1608 49.3456 64.9734 49.3222 64.7859C49.2987 64.5751 49.287 64.3759 49.287 64.1885C49.3105 64.0011 49.3105 63.8253 49.287 63.6613C49.2636 63.4739 49.2519 63.2865 49.2519 63.099V61.4824C49.2519 61.4121 49.2519 61.2599 49.2519 61.0256C49.2753 60.7678 49.2753 60.5101 49.2519 60.2524C49.2519 59.8775 49.2636 59.5729 49.287 59.3387C49.3105 59.0809 49.2987 58.7412 49.2519 58.3195C49.2753 58.2258 49.2753 58.1438 49.2519 58.0735C49.2285 57.9798 49.2167 57.8743 49.2167 57.7572C49.2167 57.7103 49.205 57.6752 49.1816 57.6518C49.1816 57.6049 49.1816 57.558 49.1816 57.5112C49.1816 57.4175 49.1816 57.3237 49.1816 57.23C49.1816 57.1363 49.1933 57.0309 49.2167 56.9137H52.9771C53.0943 57.0309 53.1529 57.1363 53.1529 57.23C53.1763 57.3003 53.188 57.394 53.188 57.5112C53.188 57.8392 53.1763 58.1555 53.1529 58.4601C53.1529 58.7412 53.1529 59.0106 53.1529 59.2684C53.1529 59.6901 53.1177 60.147 53.0474 60.639C53.0006 61.1076 52.9771 61.5996 52.9771 62.115C52.9771 62.3024 52.9888 62.5367 53.0123 62.8179C53.0357 63.099 53.024 63.3568 52.9771 63.5911C52.9068 64.1768 52.86 64.7391 52.8366 65.278C52.8366 65.8168 52.8366 66.3557 52.8366 66.8946C52.8366 67.3632 52.86 67.8435 52.9068 68.3355C52.9537 68.804 52.9771 69.2375 52.9771 69.6358C52.9303 69.7998 52.9068 70.0927 52.9068 70.5144C52.9068 70.9127 52.9068 71.3461 52.9068 71.8147C52.9303 72.2833 52.942 72.7284 52.942 73.1502C52.9654 73.5719 52.9771 73.8648 52.9771 74.0288V77.6134C52.4617 77.6134 51.9931 77.6368 51.5714 77.6837C51.1731 77.754 50.7631 77.7891 50.3413 77.7891C50.1539 77.7891 49.9899 77.7891 49.8493 77.7891C49.7322 77.8126 49.5799 77.8829 49.3925 78L49.2167 77.7891C49.2402 77.6251 49.2519 77.4026 49.2519 77.1214C49.2519 76.8403 49.2402 76.5474 49.2167 76.2428C49.2167 75.9148 49.2167 75.6102 49.2167 75.3291C49.2167 75.0479 49.2167 74.8253 49.2167 74.6613C49.2402 74.1225 49.2519 73.5836 49.2519 73.0447C49.2753 72.4824 49.287 71.9318 49.287 71.393C49.287 71.4164 49.2753 71.3578 49.2519 71.2173C49.2519 71.0767 49.2519 70.9244 49.2519 70.7604C49.2519 70.5729 49.2402 70.3972 49.2167 70.2332C49.2167 70.0692 49.2167 69.9638 49.2167 69.9169C49.2167 69.8232 49.1816 69.7881 49.1113 69.8115C49.0645 69.8349 48.9942 69.8349 48.9005 69.8115C48.6427 69.7646 48.4319 69.7646 48.2679 69.8115C48.1039 69.8349 47.9047 69.8466 47.6704 69.8466C47.5298 69.8466 47.3541 69.8584 47.1433 69.8818C46.9324 69.8818 46.7098 69.8935 46.4755 69.9169C46.2647 69.9169 46.0538 69.9286 45.8429 69.9521C45.6321 69.9755 45.4564 69.9872 45.3158 69.9872L43.7695 70.0224C43.6523 70.0224 43.5469 70.0224 43.4532 70.0224C43.3829 69.9989 43.3009 69.9989 43.2072 70.0224C43.1369 70.0224 43.1017 70.0692 43.1017 70.1629C43.1017 70.2098 43.1134 70.2449 43.1369 70.2684C43.1369 70.5495 43.1486 70.8424 43.172 71.147C43.1954 71.4281 43.2072 71.7327 43.2072 72.0607V73.0096C43.2072 73.6187 43.1954 74.2162 43.172 74.8019C43.172 75.3876 43.1252 75.9851 43.0314 76.5942V77.6134C42.9143 77.7071 42.7972 77.754 42.68 77.754C42.5863 77.7774 42.4457 77.7891 42.2583 77.7891C42.0708 77.7891 41.8366 77.7891 41.5554 77.7891C41.2743 77.8126 41.04 77.8829 40.8525 78H39.8334C39.7162 78 39.6108 77.9766 39.5171 77.9297C39.4234 77.9063 39.2711 77.8594 39.0602 77.7891V75.3994C39.0602 74.8136 39.0485 74.4388 39.0251 74.2748C39.0251 74.1108 39.0251 73.9819 39.0251 73.8882C38.9782 73.771 38.9665 73.6305 38.9899 73.4665C39.0133 73.3025 39.0251 73.1853 39.0251 73.115C39.0719 72.623 39.0719 72.1193 39.0251 71.6038C39.0016 71.065 38.9782 70.6198 38.9548 70.2684C38.9313 70.0575 38.9196 69.8584 38.9196 69.6709C38.9196 69.4601 38.9196 69.2492 38.9196 69.0383C38.9196 68.64 38.9313 68.2535 38.9548 67.8786C39.0016 67.4803 39.0016 67.082 38.9548 66.6837C38.9079 66.1683 38.9196 65.7465 38.9899 65.4185C39.0133 65.3248 39.0016 65.1608 38.9548 64.9265C38.9079 64.6688 38.8845 64.3994 38.8845 64.1182C38.8845 63.7433 38.8962 63.4036 38.9196 63.099C38.9431 62.7945 38.9548 62.5016 38.9548 62.2204C38.9782 61.9393 38.9899 61.6464 38.9899 61.3419C39.0133 61.0373 39.0133 60.6976 38.9899 60.3227C38.9899 60.229 38.9899 60.0767 38.9899 59.8658C38.9899 59.6315 38.9899 59.3855 38.9899 59.1278C39.0133 58.8701 39.0251 58.6358 39.0251 58.4249C39.0485 58.1906 39.0602 58.0266 39.0602 57.9329C39.0602 57.722 39.0368 57.5698 38.9899 57.476C38.9431 57.3589 38.9196 57.2535 38.9196 57.1597V56.9137H43.2072C43.3009 57.0075 43.3712 57.1012 43.418 57.1949C43.4415 57.2417 43.4532 57.2769 43.4532 57.3003C43.4766 57.7689 43.4766 58.2258 43.4532 58.6709C43.4297 59.1161 43.4063 59.5729 43.3829 60.0415C43.3829 60.6741 43.3946 61.295 43.418 61.9042C43.4649 62.5133 43.5 63.1225 43.5235 63.7316C43.5235 64.0596 43.5117 64.3994 43.4883 64.7508C43.4883 65.1022 43.4883 65.442 43.4883 65.77C43.4883 66.098 43.4766 66.4611 43.4532 66.8594C43.4297 67.2577 43.4297 67.5272 43.4532 67.6677Z" fill="var(--fill-0, black)"/>
</g>
</g>
</svg>
