<svg preserveAspectRatio="none" width="100%" height="100%" overflow="visible" style="display: block;" viewBox="0 0 56.0002 78" fill="none" xmlns="http://www.w3.org/2000/svg">
<g id="Group 8">
<g id="Group 7">
<path id="Union" d="M27.5603 12.8916C27.7531 12.8916 27.9438 12.951 28.0905 12.9971C28.2903 13.0599 28.6184 13.1727 29.1706 13.3779C30.1843 13.7546 32.0023 14.5566 33.4421 15.2129C34.9059 15.8801 35.9604 16.4219 36.7028 16.7949C38.4509 17.6386 39.2116 18.0483 39.9187 18.4609C40.0122 18.5111 40.0678 18.5355 40.1325 18.5625C40.2078 18.5938 40.3235 18.6396 40.4821 18.7158C40.5712 18.7587 40.6507 18.8137 40.7204 18.877C41.2006 18.9502 41.5691 19.3637 41.5691 19.8643C41.569 20.4163 41.1211 20.864 40.5691 20.8643C40.1768 20.8643 39.7691 20.8643 39.5105 20.8564C39.2381 20.8481 39.0938 20.8289 38.5261 20.7832C38.3803 20.7715 38.2025 20.7572 37.9558 20.7422C37.9573 21.0143 37.96 21.3876 37.9626 21.8994C37.9721 23.7838 37.9905 27.5462 38.0046 29.5703L38.0222 30.8896C38.0257 31.0911 38.0314 31.2608 38.0349 31.4043C38.0761 31.3899 38.1172 31.3748 38.1579 31.3623C39.1711 31.0532 40.1196 31.3568 40.7907 31.7051C41.3307 31.9853 41.7808 32.3415 42.0798 32.6006C42.1376 32.5359 42.2047 32.4773 42.281 32.4277C42.2905 32.4205 42.3268 32.3936 42.3952 32.3379C42.4774 32.271 42.5855 32.1794 42.7107 32.0693C42.9615 31.8487 43.2712 31.5605 43.5749 31.25C44.3343 30.4734 45.3939 29.7562 46.3093 29.3848C47.2235 29.0139 48.0139 29.3008 48.654 29.6846C48.9633 29.8701 49.2808 30.1039 49.5935 30.3379C49.9174 30.5803 50.2526 30.8351 50.6403 31.1084C51.1347 31.4568 51.4788 31.8384 51.7458 32.1562C52.0284 32.4927 52.1657 32.6756 52.3396 32.833C52.9018 33.2499 53.2061 33.5155 53.6638 33.8174C53.9842 34.0145 54.5505 34.3444 55.2956 34.8271C55.759 35.1274 55.8916 35.7465 55.5915 36.21C55.2912 36.673 54.672 36.8058 54.2087 36.5059C53.4725 36.0289 52.9734 35.7422 52.5983 35.5107L52.5866 35.5029L52.5739 35.4951C52.0526 35.1523 51.5487 34.7333 51.1023 34.4043L51.0671 34.3779L51.0339 34.3496C50.7033 34.058 50.4142 33.68 50.2146 33.4424C49.9897 33.1747 49.7749 32.9453 49.488 32.7432C49.0699 32.4485 48.7016 32.1678 48.3952 31.9385C48.0779 31.701 47.836 31.5265 47.6257 31.4004C47.2267 31.1611 47.1332 31.2081 47.0612 31.2373C46.4175 31.4985 45.5856 32.0544 45.0056 32.6475C44.7315 32.9278 44.4529 33.1865 44.2097 33.4062C44.6652 33.5011 45.2179 33.6073 45.8962 33.7334C46.7498 33.8921 47.2381 34.1261 47.6765 34.5234C48.0595 34.8706 48.3939 35.3157 48.6911 35.6943C49.0075 36.0973 49.3483 36.5178 49.8093 36.9561C50.0081 37.145 50.2915 37.3231 50.6735 37.5166C50.8613 37.6117 51.0582 37.7036 51.2702 37.8018C51.477 37.8975 51.7021 38.0002 51.9196 38.1084C52.5314 38.4127 52.9457 38.9334 53.24 39.4355C53.4624 39.8153 53.6466 40.2384 53.8064 40.6553L53.9587 41.0684L53.9626 41.0811C54.3585 42.2425 54.5232 42.7777 54.653 43.1055C54.6899 43.194 54.7313 43.2902 54.7966 43.4434C54.8641 43.6017 54.9526 43.8109 55.0769 44.1104C55.2881 44.6202 55.0456 45.2053 54.5358 45.417C54.026 45.6282 53.4409 45.3866 53.2292 44.877C53.1078 44.5844 53.0222 44.3812 52.9567 44.2275C52.8928 44.0775 52.8428 43.9616 52.7995 43.8574L52.7966 43.8496L52.7937 43.8428C52.6412 43.4579 52.4352 42.7996 52.0739 41.7393L51.9362 41.3643C51.799 41.0066 51.662 40.6983 51.5144 40.4463C51.3152 40.1066 51.148 39.9587 51.029 39.8994C50.8419 39.8063 50.6454 39.7158 50.4304 39.6162C50.2206 39.519 49.9933 39.4138 49.7702 39.3008C49.3305 39.0781 48.8417 38.7954 48.4314 38.4053C47.8624 37.8643 47.4494 37.3519 47.1179 36.9297C46.7674 36.4832 46.5592 36.2093 46.3337 36.0049C46.2616 35.9396 46.2043 35.9004 46.1179 35.8613C46.0171 35.8158 45.8455 35.7577 45.531 35.6992C44.2304 35.4575 43.2924 35.2742 42.6101 35.083C41.9235 34.8906 41.374 34.6591 40.9314 34.2539C40.6948 34.0374 40.3118 33.7099 39.8698 33.4805C39.4184 33.2462 39.0417 33.184 38.7419 33.2754C38.407 33.3777 37.9477 33.6593 37.2702 34.0879C36.6597 34.4741 35.9002 34.9576 35.1316 35.25C34.4038 35.5267 33.7743 35.7137 33.2692 35.8379C33.3311 35.9277 33.3926 36.0204 33.4577 36.1133C34.3364 37.3659 35.4214 38.5053 36.3396 39.1875C36.6996 39.455 37.2422 39.7621 37.8913 40.0996C38.4793 40.4054 39.2684 40.7921 39.8493 41.0986C40.859 41.6314 41.6286 42.089 42.2546 42.4492C42.891 42.8154 43.3598 43.0698 43.8288 43.252C45.0553 43.7283 45.7647 44.4724 46.3405 45.2148L46.9177 45.9893L46.945 46.0352C47.4696 46.9232 47.7801 47.6477 47.9812 48.335L48.0612 48.627L48.0691 48.6621C48.1086 48.8457 48.1434 49.0201 48.2126 49.3994C48.3115 49.9426 47.9511 50.4634 47.4079 50.5625C46.8649 50.6612 46.3439 50.3009 46.2448 49.7578C46.1805 49.4049 46.1493 49.2516 46.1179 49.1045C45.9761 48.5497 45.7415 47.9384 45.2458 47.0928C44.4982 46.0862 44.0996 45.5025 43.1052 45.1162C42.4802 44.8735 41.8947 44.5492 41.2575 44.1826C40.6097 43.8099 39.8837 43.3789 38.9157 42.8682C38.2828 42.5342 37.6819 42.2445 36.9694 41.874C36.318 41.5353 35.647 41.165 35.1462 40.793C34.0222 39.9578 32.7952 38.6505 31.821 37.2617C31.0078 36.1024 30.3558 35.0336 29.8767 34.3174C29.3491 33.5286 29.0175 33.15 28.739 32.9795C28.3305 32.7295 27.8714 32.4207 27.1618 32.208C26.4628 31.9985 25.4786 31.8737 24.0935 32.1172C22.9946 32.3105 21.772 32.7842 19.8161 32.6006C19.0003 32.524 18.2163 32.4387 17.5554 32.4395C17.2283 32.4399 16.9779 32.4624 16.8025 32.501C16.712 32.5209 16.6646 32.5404 16.6462 32.5488C16.4766 32.7293 16.2459 33.0286 15.9392 33.4551C15.6512 33.8555 15.2488 34.4359 14.8669 34.9629C14.0684 36.065 13.0745 37.3456 11.9362 38.3457C11.2142 38.9799 10.5251 39.2767 9.89815 39.4756C9.21417 39.6926 8.87436 39.7373 8.40011 39.9502C7.65112 40.2865 7.19012 40.5343 6.86202 40.8057C6.56646 41.0503 6.34916 41.3389 6.16476 41.8193C5.29358 44.0891 4.49142 46.2639 3.32394 47.9111C2.91673 48.4857 2.55694 49.0078 2.29659 49.4033C2.16579 49.6021 2.0645 49.7619 1.99679 49.876C1.96789 49.9247 1.94835 49.9585 1.93722 49.9795C1.76473 50.45 1.26416 50.7268 0.765342 50.6064C0.228944 50.4766 -0.101261 49.9369 0.0280369 49.4004L0.0592869 49.293C0.0938511 49.1928 0.135344 49.1126 0.153037 49.0781C0.189439 49.0071 0.232293 48.9299 0.27706 48.8545C0.367459 48.7022 0.487743 48.5143 0.625693 48.3047C0.903354 47.8828 1.27753 47.3398 1.6921 46.7549C2.68025 45.3607 3.38963 43.4681 4.29757 41.1025C4.59326 40.3322 5.002 39.7481 5.58761 39.2637C6.14097 38.8061 6.82005 38.4676 7.58077 38.126C8.18112 37.8564 8.89767 37.6949 9.29366 37.5693C9.74632 37.4257 10.1628 37.2417 10.6159 36.8438C11.5772 35.9991 12.463 34.8708 13.2468 33.7891C13.6558 33.2245 13.9704 32.7679 14.3161 32.2871C14.6294 31.8515 14.9441 31.4318 15.2302 31.1357L15.362 31.0127C15.6795 30.7459 16.0587 30.6172 16.3737 30.5479C16.7483 30.4655 17.1584 30.4399 17.5525 30.4395C17.8292 30.4391 18.1224 30.4525 18.4187 30.4717C18.4165 30.4468 18.4151 30.424 18.4128 30.4004L18.4108 30.3848L18.4099 30.3691C18.3575 29.5819 18.3263 28.555 18.2761 26.5537V26.5352C18.2676 25.1334 18.2673 22.6476 18.2673 21.4062V20.5254C16.0511 20.5192 16.0139 20.5195 16.0007 20.5195C15.7155 20.5195 15.4583 20.3995 15.2761 20.208C15.1989 20.2226 15.1275 20.2345 15.0593 20.2383C14.508 20.2688 14.0363 19.8471 14.0056 19.2959C13.975 18.7447 14.3968 18.2731 14.948 18.2422C14.8679 18.2467 14.8848 18.2622 15.1189 18.1807C15.3437 18.1023 15.7274 17.9492 16.361 17.6562C16.9174 17.399 17.707 17.0119 18.571 16.5908C19.4272 16.1735 20.351 15.7252 21.154 15.3594C22.7651 14.6253 23.8104 14.2364 24.6608 13.9375C25.5029 13.6416 26.1233 13.4455 26.4802 13.332C26.6213 13.2872 26.7258 13.2531 26.8151 13.2256C26.9982 13.021 27.2642 12.8917 27.5603 12.8916ZM32.2087 21.0713C32.212 22.0186 32.2184 23.8927 32.3034 25.9893C32.3886 28.0894 32.553 30.3589 32.6423 31.6953C32.7338 33.065 32.7376 33.3112 32.7653 33.668C32.7717 33.7491 32.7661 33.8284 32.7536 33.9053C33.1707 33.8044 33.7348 33.6417 34.4206 33.3809C34.9331 33.1859 35.4798 32.8518 36.0837 32.4707V32.4688L36.0847 32.4678C36.0522 32.1377 36.0269 31.7572 36.0046 29.5908V29.5869C35.9905 27.561 35.9721 23.7935 35.9626 21.9092C35.9597 21.34 35.9572 20.9422 35.9558 20.6641C35.2085 20.6437 34.2449 20.6226 32.986 20.6064C32.7366 20.6032 32.476 20.6016 32.2067 20.5986C32.2071 20.7219 32.208 20.8768 32.2087 21.0713ZM26.237 21.7295C26.237 23.2778 26.2375 26.3679 26.2409 28.0195C26.2445 29.7108 26.2525 29.7575 26.2566 29.7959C26.2585 29.8139 26.2686 29.9061 26.281 30.0186C26.8224 30.0667 27.3055 30.163 27.736 30.292C28.7371 30.5921 29.4176 31.0498 29.7829 31.2734C30.1039 31.4699 30.3914 31.7334 30.6589 32.0332C30.6546 31.9676 30.651 31.8992 30.6462 31.8281C30.5579 30.5073 30.3919 28.2038 30.3054 26.0703C30.2188 23.9337 30.212 22.0277 30.2087 21.0781C30.208 20.8697 30.2072 20.7067 30.2067 20.5791C28.9439 20.5691 27.5838 20.5604 26.237 20.5537V21.7295ZM20.2673 21.4062C20.2673 22.6503 20.2677 25.1292 20.2761 26.5234C20.3263 28.5238 20.3571 29.5012 20.406 30.2363C20.4151 30.3341 20.4225 30.4388 20.4382 30.6377C21.7391 30.6912 22.4215 30.3807 23.7478 30.1475C23.9273 30.1159 24.1031 30.0894 24.2741 30.0674C24.2717 30.0473 24.2694 30.0267 24.2673 30.0068C24.2489 29.8343 24.2443 29.636 24.2409 28.0234C24.2375 26.3691 24.237 23.2768 24.237 21.7295V20.5449C22.7766 20.539 21.4018 20.5346 20.2673 20.5312V21.4062ZM27.8112 15.0127C27.7521 15.0397 27.6894 15.0617 27.6237 15.0771C27.4986 15.1065 27.4549 15.1202 27.0866 15.2373C26.7326 15.3499 26.1362 15.5388 25.3239 15.8242C24.5191 16.1071 23.5305 16.4747 21.9831 17.1797C21.2069 17.5334 20.3049 17.9705 19.447 18.3887C19.3512 18.4354 19.2555 18.4812 19.1608 18.5273C19.2082 18.5275 19.2566 18.5282 19.3054 18.5283C22.5724 18.5376 29.0993 18.5563 33.0114 18.6064C34.2557 18.6224 35.2175 18.6437 35.9714 18.6641C35.9215 18.6399 35.8707 18.6148 35.8191 18.5898L35.8054 18.582C35.052 18.2035 34.035 17.6804 32.613 17.0322C31.1665 16.3729 29.4109 15.601 28.4743 15.2529C28.1893 15.147 27.9735 15.0693 27.8112 15.0127Z" fill="var(--fill-0, black)"/>
<circle id="Ellipse 1" cx="49.0002" cy="7" r="7" fill="var(--fill-0, black)"/>
</g>
<g id="ATH">
<path d="M3.89801 72.623C4.06202 72.1544 4.22602 71.6976 4.39002 71.2524C4.57746 70.7838 4.75318 70.3152 4.91718 69.8466C5.03433 69.4952 5.18662 69.1438 5.37405 68.7923C5.56148 68.4409 5.72549 68.1246 5.86606 67.8435C5.98321 67.4452 6.10035 67.1289 6.2175 66.8946C6.35808 66.6368 6.44008 66.4728 6.46351 66.4026C6.46351 66.3557 6.51037 66.2386 6.60408 66.0511C6.72123 65.8637 6.85009 65.5591 6.99066 65.1374C7.06095 64.9265 7.11952 64.7039 7.16638 64.4696C7.23667 64.2354 7.31867 64.0128 7.41239 63.8019L8.25584 61.7636C8.34956 61.5059 8.40813 61.3184 8.43156 61.2013C8.47842 61.0607 8.51356 60.9436 8.53699 60.8498C8.56042 60.7561 8.58385 60.6507 8.60728 60.5335C8.63071 60.4164 8.70099 60.229 8.81814 59.9712C8.93529 59.7135 9.029 59.4675 9.09929 59.2332C9.19301 58.9989 9.29844 58.7529 9.41558 58.4952C9.46244 58.3546 9.5093 58.2141 9.55616 58.0735C9.60302 57.9329 9.64988 57.7923 9.69673 57.6518C9.76702 57.4643 9.82559 57.3003 9.87245 57.1597C9.91931 57.0192 9.96617 56.8552 10.013 56.6677C10.0599 56.6209 10.095 56.5623 10.1185 56.492C10.1419 56.3983 10.1887 56.2929 10.259 56.1757C10.3996 56.082 10.5168 56.0351 10.6105 56.0351C10.7042 56.0117 10.7979 56 10.8916 56H12.5082C12.5551 56.0937 12.5785 56.1874 12.5785 56.2811C12.5785 56.3514 12.602 56.4334 12.6488 56.5272L12.7894 57.0543L12.8948 57.3355L13.2814 58.4249L13.914 60.2173L14.16 60.6741C14.2069 60.721 14.2537 60.8264 14.3006 60.9904C14.3474 61.131 14.4177 61.3184 14.5114 61.5527C14.6286 61.8573 14.7457 62.2087 14.8629 62.607C15.0034 62.9819 15.1323 63.3568 15.2494 63.7316C15.4135 64.3174 15.5423 64.7508 15.636 65.0319C15.7532 65.3131 15.8703 65.606 15.9875 65.9105C16.0578 66.0043 16.1046 66.1097 16.128 66.2268C16.1515 66.344 16.1866 66.4611 16.2335 66.5783L16.6903 68.0192L17.2878 69.2843C17.3581 69.4952 17.4284 69.7061 17.4987 69.9169C17.5924 70.1044 17.6978 70.2918 17.8149 70.4792C18.0024 70.9478 18.1547 71.3813 18.2718 71.7796C18.389 72.1544 18.5412 72.5761 18.7287 73.0447C18.8224 73.2556 18.9161 73.4547 19.0098 73.6422C19.127 73.8296 19.2207 74.0288 19.291 74.2396C19.3378 74.3568 19.3847 74.4739 19.4316 74.5911C19.4784 74.7082 19.5253 74.8253 19.5721 74.9425C19.6893 75.1534 19.783 75.3759 19.8533 75.6102C19.947 75.8211 20.0524 76.0554 20.1696 76.3131C20.2164 76.4537 20.275 76.5942 20.3453 76.7348C20.4156 76.8754 20.4624 77.0043 20.4859 77.1214C20.3687 77.1214 20.2516 77.1097 20.1344 77.0863C20.0173 77.0628 19.9119 77.0511 19.8181 77.0511H19.2207C19.0098 77.0511 18.8224 77.0511 18.6584 77.0511C18.4944 77.0745 18.3538 77.0863 18.2367 77.0863C18.1195 76.8051 17.9438 76.5357 17.7095 76.278C17.4987 75.9968 17.2761 75.6571 17.0418 75.2588C16.9949 75.1416 16.9481 75.0362 16.9012 74.9425C16.8543 74.8488 16.8075 74.7551 16.7606 74.6613C16.7138 74.5208 16.5732 74.3216 16.3389 74.0639C16.128 73.8062 16.0109 73.607 15.9875 73.4665C15.8 73.2556 15.6595 73.0916 15.5657 72.9744C15.4955 72.8339 15.4017 72.705 15.2846 72.5879C15.1909 72.5879 15.0737 72.5879 14.9332 72.5879C14.7926 72.5644 14.6637 72.541 14.5466 72.5176C14.406 72.4941 14.2537 72.4824 14.0897 72.4824H13.2463C13.1291 72.4824 13.0002 72.4941 12.8597 72.5176C12.7425 72.5176 12.5551 72.5293 12.2974 72.5527C12.0397 72.5527 11.6882 72.5644 11.2431 72.5879C10.7979 72.5879 10.2005 72.5879 9.45073 72.5879H9.20472C9.01729 72.5879 8.865 72.6113 8.74785 72.6581C8.65414 72.6816 8.51356 72.6581 8.32613 72.5879C8.25584 72.541 8.08012 72.5293 7.79897 72.5527C7.54125 72.5761 7.36553 72.5996 7.27181 72.623L6.81494 72.6581L6.63923 72.9042C6.59237 73.0447 6.51037 73.2087 6.39322 73.3962C6.27607 73.5836 6.15893 73.771 6.04178 73.9585C5.92464 74.1459 5.80749 74.3333 5.69034 74.5208C5.59663 74.7082 5.52634 74.8605 5.47948 74.9776L5.23348 75.6102L4.35488 77.2268C4.30802 77.3206 4.23773 77.3674 4.14402 77.3674C4.0503 77.3674 3.98001 77.3908 3.93316 77.4377H2.14082C2.04711 77.344 2.00025 77.2854 2.00025 77.262C2.00025 77.2386 2.04711 77.1683 2.14082 77.0511C2.14082 76.9574 2.17597 76.8168 2.24625 76.6294C2.31654 76.4654 2.35169 76.3365 2.35169 76.2428C2.46883 76.0554 2.56255 75.8679 2.63284 75.6805C2.72655 75.4696 2.82027 75.2705 2.91399 75.0831L3.89801 72.623ZM11.2782 63.9073C11.1611 63.9542 11.0791 64.0128 11.0322 64.0831C10.9853 64.1534 10.9385 64.2354 10.8916 64.3291C10.7979 64.6571 10.669 64.9851 10.505 65.3131C10.3645 65.6177 10.2239 65.934 10.0833 66.262C9.96617 66.4963 9.84902 66.7188 9.73188 66.9297C9.61473 67.1171 9.5093 67.328 9.41558 67.5623C9.20472 68.0309 8.99386 68.4995 8.783 68.9681C8.57213 69.4132 8.33784 69.8584 8.08012 70.3035H8.29098C8.47842 70.3035 8.64242 70.3152 8.783 70.3387C8.947 70.3621 9.111 70.3504 9.27501 70.3035C9.41558 70.2567 9.54444 70.2449 9.66159 70.2684C9.80217 70.2918 9.93103 70.3035 10.0482 70.3035C10.4465 70.3035 10.8565 70.3035 11.2782 70.3035C11.6999 70.2801 12.1685 70.2918 12.684 70.3387C12.9417 70.3621 13.176 70.3621 13.3868 70.3387C13.6211 70.3152 13.8554 70.3035 14.0897 70.3035H14.406C14.3826 70.2098 14.3474 70.1395 14.3006 70.0927C14.2771 70.0224 14.242 69.9521 14.1951 69.8818C14.1014 69.6944 13.996 69.5304 13.8788 69.3898C13.7851 69.2492 13.7031 69.0735 13.6328 68.8626L12.4028 66.4026C12.3559 66.2854 12.3091 66.1331 12.2622 65.9457L11.2782 63.9073Z" fill="var(--fill-0, black)"/>
<path d="M31.5877 77.4377C31.5409 77.4377 31.4589 77.4494 31.3417 77.4728C31.2246 77.4963 31.1074 77.508 30.9903 77.508C30.8731 77.5314 30.7677 77.5431 30.674 77.5431C30.6037 77.5666 30.5803 77.5783 30.6037 77.5783H28.8817C28.5068 77.5314 28.1905 77.4963 27.9328 77.4728C27.6985 77.4728 27.4876 77.4846 27.3002 77.508C27.2533 77.508 27.2065 77.4846 27.1596 77.4377C27.1128 77.4143 27.0776 77.3908 27.0542 77.3674C27.0308 77.1565 27.019 76.8403 27.019 76.4185C27.0425 75.9968 27.0542 75.6688 27.0542 75.4345V74.9425C27.101 74.5442 27.1128 74.1928 27.0893 73.8882C27.0659 73.5602 27.0542 73.197 27.0542 72.7987V72.0256C27.1713 71.5101 27.1948 70.9712 27.1245 70.4089C27.0776 69.8466 27.0542 69.3312 27.0542 68.8626V59.901C27.0542 59.6667 26.9956 59.5495 26.8785 59.5495C26.5505 59.5261 26.2927 59.5144 26.1053 59.5144C25.9179 59.5144 25.6602 59.5261 25.3321 59.5495C25.1916 59.5495 24.9456 59.5144 24.5941 59.4441C24.2661 59.3738 24.0435 59.3504 23.9264 59.3738C23.8092 59.4207 23.5632 59.4207 23.1884 59.3738C22.8369 59.3269 22.6026 59.3035 22.4855 59.3035C22.3684 59.3035 22.2629 59.3035 22.1692 59.3035C22.0755 59.2801 21.9818 59.2332 21.8881 59.1629V56.984C21.9818 56.9372 22.1223 56.9137 22.3098 56.9137C22.4972 56.9137 22.6846 56.9137 22.8721 56.9137C23.1064 56.9137 23.3172 56.9137 23.5047 56.9137C23.6921 56.9137 23.8678 56.902 24.0318 56.8786C24.0787 56.8786 24.2427 56.8903 24.5238 56.9137C24.805 56.9372 25.0393 56.9606 25.2267 56.984C25.3673 56.9372 25.5079 56.9137 25.6484 56.9137C25.9999 56.8903 26.3279 56.8903 26.6325 56.9137C26.8433 56.9372 26.9956 56.9372 27.0893 56.9137C27.183 56.8903 27.3236 56.8786 27.5111 56.8786H28.0734L29.0222 56.9489C29.2565 56.9489 29.4908 56.9489 29.7251 56.9489C29.9594 56.9255 30.1937 56.9255 30.428 56.9489C30.9669 56.9957 31.4823 57.0192 31.9743 57.0192C32.4898 56.9957 32.9115 56.9606 33.2395 56.9137C33.4035 56.9137 33.6964 56.9372 34.1181 56.984C34.5398 57.0309 34.9498 57.066 35.3481 57.0895C35.6058 57.1129 35.8167 57.1129 35.9807 57.0895C36.1447 57.066 36.2853 57.066 36.4024 57.0895V58.7061C36.4024 58.7998 36.4141 58.8584 36.4376 58.8818C36.461 58.9052 36.4493 59.0106 36.4024 59.1981C36.379 59.2918 36.2853 59.3504 36.1213 59.3738C35.9573 59.3738 35.8284 59.3738 35.7347 59.3738C35.1255 59.4675 34.5632 59.5027 34.0478 59.4792C33.5558 59.4558 33.0755 59.4441 32.6069 59.4441C32.4195 59.4441 32.2672 59.4441 32.15 59.4441C32.0563 59.4441 31.9392 59.4558 31.7986 59.4792V60.2875C31.7986 60.475 31.7869 60.7561 31.7635 61.131C31.7635 61.5059 31.7635 61.7987 31.7635 62.0096C31.7635 62.1033 31.7635 62.1736 31.7635 62.2204C31.7635 62.2673 31.7517 62.3376 31.7283 62.4313C31.7283 62.5016 31.7166 62.6187 31.6932 62.7827C31.6697 62.9233 31.6229 63.1342 31.5526 63.4153C31.5526 63.8136 31.5526 64.1534 31.5526 64.4345C31.5526 64.7157 31.5526 64.9734 31.5526 65.2077C31.576 65.442 31.5877 65.6763 31.5877 65.9105C31.5877 66.1214 31.5877 66.3791 31.5877 66.6837V67.0351C31.494 67.4334 31.4706 67.8317 31.5174 68.23C31.5643 68.6283 31.5877 69.0266 31.5877 69.4249V77.4377Z" fill="var(--fill-0, black)"/>
<path d="M43.4534 67.6677C43.4534 67.6912 43.5354 67.7029 43.6994 67.7029C43.8634 67.6794 44.0509 67.6677 44.2617 67.6677H48.1978C48.3853 67.6677 48.5493 67.6326 48.6898 67.5623C48.8538 67.492 49.0296 67.4569 49.217 67.4569V67.246C49.2639 67.0351 49.299 66.7189 49.3224 66.2971C49.3459 65.8754 49.3576 65.5591 49.3576 65.3482C49.3576 65.1608 49.3459 64.9734 49.3224 64.7859C49.299 64.5751 49.2873 64.3759 49.2873 64.1885C49.3107 64.0011 49.3107 63.8253 49.2873 63.6613C49.2639 63.4739 49.2521 63.2865 49.2521 63.099V61.4824C49.2521 61.4121 49.2521 61.2599 49.2521 61.0256C49.2756 60.7678 49.2756 60.5101 49.2521 60.2524C49.2521 59.8775 49.2639 59.5729 49.2873 59.3387C49.3107 59.0809 49.299 58.7412 49.2521 58.3195C49.2756 58.2258 49.2756 58.1438 49.2521 58.0735C49.2287 57.9798 49.217 57.8743 49.217 57.7572C49.217 57.7103 49.2053 57.6752 49.1819 57.6518C49.1819 57.6049 49.1819 57.558 49.1819 57.5112C49.1819 57.4175 49.1819 57.3237 49.1819 57.23C49.1819 57.1363 49.1936 57.0309 49.217 56.9137H52.9774C53.0945 57.0309 53.1531 57.1363 53.1531 57.23C53.1765 57.3003 53.1882 57.394 53.1882 57.5112C53.1882 57.8392 53.1765 58.1555 53.1531 58.4601C53.1531 58.7412 53.1531 59.0106 53.1531 59.2684C53.1531 59.6901 53.118 60.147 53.0477 60.639C53.0008 61.1076 52.9774 61.5996 52.9774 62.115C52.9774 62.3024 52.9891 62.5367 53.0125 62.8179C53.036 63.099 53.0242 63.3568 52.9774 63.5911C52.9071 64.1768 52.8602 64.7391 52.8368 65.278C52.8368 65.8168 52.8368 66.3557 52.8368 66.8946C52.8368 67.3632 52.8602 67.8435 52.9071 68.3355C52.954 68.804 52.9774 69.2375 52.9774 69.6358C52.9305 69.7998 52.9071 70.0927 52.9071 70.5144C52.9071 70.9127 52.9071 71.3461 52.9071 71.8147C52.9305 72.2833 52.9422 72.7284 52.9422 73.1502C52.9657 73.5719 52.9774 73.8648 52.9774 74.0288V77.6134C52.4619 77.6134 51.9934 77.6368 51.5716 77.6837C51.1733 77.754 50.7633 77.7891 50.3416 77.7891C50.1542 77.7891 49.9902 77.7891 49.8496 77.7891C49.7324 77.8126 49.5802 77.8829 49.3927 78L49.217 77.7891C49.2404 77.6251 49.2521 77.4026 49.2521 77.1214C49.2521 76.8403 49.2404 76.5474 49.217 76.2428C49.217 75.9148 49.217 75.6102 49.217 75.3291C49.217 75.0479 49.217 74.8253 49.217 74.6613C49.2404 74.1225 49.2521 73.5836 49.2521 73.0447C49.2756 72.4824 49.2873 71.9318 49.2873 71.393C49.2873 71.4164 49.2756 71.3578 49.2521 71.2173C49.2521 71.0767 49.2521 70.9244 49.2521 70.7604C49.2521 70.5729 49.2404 70.3972 49.217 70.2332C49.217 70.0692 49.217 69.9638 49.217 69.9169C49.217 69.8232 49.1819 69.7881 49.1116 69.8115C49.0647 69.8349 48.9944 69.8349 48.9007 69.8115C48.643 69.7646 48.4321 69.7646 48.2681 69.8115C48.1041 69.8349 47.905 69.8466 47.6707 69.8466C47.5301 69.8466 47.3544 69.8584 47.1435 69.8818C46.9327 69.8818 46.7101 69.8935 46.4758 69.9169C46.2649 69.9169 46.0541 69.9286 45.8432 69.9521C45.6323 69.9755 45.4566 69.9872 45.316 69.9872L43.7697 70.0224C43.6526 70.0224 43.5471 70.0224 43.4534 70.0224C43.3831 69.9989 43.3011 69.9989 43.2074 70.0224C43.1371 70.0224 43.102 70.0692 43.102 70.1629C43.102 70.2098 43.1137 70.2449 43.1371 70.2684C43.1371 70.5495 43.1488 70.8424 43.1723 71.147C43.1957 71.4281 43.2074 71.7327 43.2074 72.0607V73.0096C43.2074 73.6187 43.1957 74.2162 43.1723 74.8019C43.1723 75.3876 43.1254 75.9851 43.0317 76.5942V77.6134C42.9146 77.7071 42.7974 77.754 42.6803 77.754C42.5865 77.7774 42.446 77.7891 42.2585 77.7891C42.0711 77.7891 41.8368 77.7891 41.5557 77.7891C41.2745 77.8126 41.0402 77.8829 40.8528 78H39.8336C39.7165 78 39.611 77.9766 39.5173 77.9297C39.4236 77.9063 39.2713 77.8594 39.0605 77.7891V75.3994C39.0605 74.8136 39.0487 74.4388 39.0253 74.2748C39.0253 74.1108 39.0253 73.9819 39.0253 73.8882C38.9784 73.771 38.9667 73.6305 38.9902 73.4665C39.0136 73.3025 39.0253 73.1853 39.0253 73.115C39.0722 72.623 39.0722 72.1193 39.0253 71.6038C39.0019 71.065 38.9784 70.6198 38.955 70.2684C38.9316 70.0575 38.9199 69.8584 38.9199 69.6709C38.9199 69.4601 38.9199 69.2492 38.9199 69.0383C38.9199 68.64 38.9316 68.2535 38.955 67.8786C39.0019 67.4803 39.0019 67.082 38.955 66.6837C38.9082 66.1683 38.9199 65.7465 38.9902 65.4185C39.0136 65.3248 39.0019 65.1608 38.955 64.9265C38.9082 64.6688 38.8847 64.3994 38.8847 64.1182C38.8847 63.7433 38.8964 63.4036 38.9199 63.099C38.9433 62.7945 38.955 62.5016 38.955 62.2204C38.9784 61.9393 38.9902 61.6464 38.9902 61.3419C39.0136 61.0373 39.0136 60.6976 38.9902 60.3227C38.9902 60.229 38.9902 60.0767 38.9902 59.8658C38.9902 59.6315 38.9902 59.3855 38.9902 59.1278C39.0136 58.8701 39.0253 58.6358 39.0253 58.4249C39.0487 58.1906 39.0605 58.0266 39.0605 57.9329C39.0605 57.722 39.037 57.5698 38.9902 57.476C38.9433 57.3589 38.9199 57.2535 38.9199 57.1597V56.9137H43.2074C43.3011 57.0075 43.3714 57.1012 43.4183 57.1949C43.4417 57.2417 43.4534 57.2769 43.4534 57.3003C43.4769 57.7689 43.4769 58.2258 43.4534 58.6709C43.43 59.1161 43.4066 59.5729 43.3831 60.0415C43.3831 60.6741 43.3949 61.295 43.4183 61.9042C43.4651 62.5133 43.5003 63.1225 43.5237 63.7316C43.5237 64.0596 43.512 64.3994 43.4886 64.7508C43.4886 65.1022 43.4886 65.442 43.4886 65.77C43.4886 66.098 43.4769 66.4611 43.4534 66.8594C43.43 67.2577 43.43 67.5272 43.4534 67.6677Z" fill="var(--fill-0, black)"/>
</g>
</g>
</svg>
