<svg preserveAspectRatio="none" width="100%" height="100%" overflow="visible" style="display: block;" viewBox="0 0 76 97" fill="none" xmlns="http://www.w3.org/2000/svg">
<g id="Union">
<path d="M53.208 65.9141C53.3016 66.0077 53.3721 66.1017 53.4189 66.1953C53.4422 66.2419 53.4541 66.2774 53.4541 66.3008C53.4775 66.7692 53.4775 67.2259 53.4541 67.6709C53.4307 68.1161 53.4072 68.5734 53.3838 69.042C53.3838 69.6744 53.3955 70.2953 53.4189 70.9043C53.4658 71.5133 53.501 72.1224 53.5244 72.7314C53.5244 73.0595 53.5127 73.3995 53.4893 73.751V74.7695C53.4893 75.0975 53.4775 75.4611 53.4541 75.8594C53.4307 76.2577 53.4307 76.5274 53.4541 76.668C53.4547 76.6912 53.5361 76.7031 53.6992 76.7031C53.8632 76.6797 54.051 76.668 54.2617 76.668H58.1982C58.3856 76.6679 58.5499 76.6328 58.6904 76.5625C58.8542 76.4923 59.0296 76.4571 59.2168 76.457V76.2461C59.2637 76.0352 59.2988 75.7186 59.3223 75.2969C59.3457 74.8755 59.3574 74.5595 59.3574 74.3486C59.3574 74.1612 59.3457 73.9735 59.3223 73.7861C59.2988 73.5753 59.2871 73.3759 59.2871 73.1885C59.3105 73.001 59.3105 72.8251 59.2871 72.6611C59.2637 72.4738 59.252 72.286 59.252 72.0986V70.0254C59.2754 69.7677 59.2754 69.5096 59.252 69.252C59.252 68.8774 59.2637 68.573 59.2871 68.3389C59.3105 68.0811 59.2988 67.7411 59.252 67.3193C59.2754 67.2256 59.2754 67.1435 59.252 67.0732C59.2286 66.9796 59.2168 66.8738 59.2168 66.7568C59.2167 66.7102 59.205 66.6747 59.1816 66.6514V66.2305C59.1816 66.1369 59.1934 66.031 59.2168 65.9141H62.9775C63.0946 66.0312 63.1533 66.1368 63.1533 66.2305C63.1766 66.3006 63.1884 66.394 63.1885 66.5107C63.1885 66.8387 63.1767 67.1554 63.1533 67.46V68.2686C63.1533 68.6901 63.1181 69.1468 63.0479 69.6387C63.001 70.1073 62.9775 70.5998 62.9775 71.1152C62.9775 71.3026 62.9893 71.5373 63.0127 71.8184C63.0361 72.0992 63.0243 72.3567 62.9775 72.5908C62.9073 73.1765 62.8603 73.7394 62.8369 74.2783V75.8945C62.8369 76.3631 62.8604 76.8439 62.9072 77.3359C62.9541 77.8043 62.9775 78.2376 62.9775 78.6357C62.9307 78.7997 62.9072 79.0929 62.9072 79.5146V80.8145C62.9307 81.283 62.9424 81.7287 62.9424 82.1504C62.9658 82.5716 62.9775 82.8643 62.9775 83.0283V86.6133C62.4623 86.6133 61.9939 86.6368 61.5723 86.6836C61.174 86.7539 60.7635 86.7891 60.3418 86.7891H59.8496C59.7325 86.8125 59.5799 86.8829 59.3926 87L59.2168 86.7891C59.2402 86.6251 59.252 86.4022 59.252 86.1211C59.2519 85.8401 59.2402 85.5475 59.2168 85.2432V83.6611C59.2402 83.1224 59.252 82.5837 59.252 82.0449C59.2754 81.4826 59.2871 80.9314 59.2871 80.3926C59.2871 80.416 59.2754 80.3574 59.252 80.2168V79.7607C59.252 79.5733 59.2402 79.3974 59.2168 79.2334V78.917C59.2168 78.8233 59.1816 78.7881 59.1113 78.8115C59.0881 78.8231 59.0592 78.8291 59.0244 78.8291L58.7168 78.7852C58.541 78.7675 58.3916 78.7764 58.2686 78.8115C58.1046 78.835 57.9052 78.8467 57.6709 78.8467C57.5303 78.8467 57.3544 78.8584 57.1436 78.8818C56.9328 78.8818 56.7098 78.8936 56.4756 78.917C56.265 78.917 56.0544 78.9288 55.8438 78.9521C55.6329 78.9756 55.457 78.9873 55.3164 78.9873L53.7695 79.0225H53.4541C53.3839 78.9991 53.3016 78.9991 53.208 79.0225C53.1377 79.0225 53.1025 79.0694 53.1025 79.1631C53.1026 79.2099 53.1143 79.2451 53.1377 79.2686C53.1377 79.5495 53.1495 79.8421 53.1729 80.1465C53.1963 80.4276 53.208 80.7326 53.208 81.0605V82.0098C53.208 82.6188 53.1963 83.2161 53.1729 83.8018C53.1729 84.3875 53.1259 84.9856 53.0322 85.5947V86.6133C52.9151 86.707 52.7978 86.7539 52.6807 86.7539C52.5869 86.7773 52.4462 86.7891 52.2588 86.7891H51.5557C51.2746 86.8125 51.0399 86.8829 50.8525 87H49.834C49.7168 87 49.6113 86.9765 49.5176 86.9297C49.4239 86.9063 49.2714 86.8594 49.0605 86.7891V84.3994C49.0605 83.8137 49.0488 83.4384 49.0254 83.2744V82.8877C48.9787 82.7707 48.9669 82.6304 48.9902 82.4668C49.0136 82.303 49.0254 82.1855 49.0254 82.1152C49.0722 81.6232 49.0722 81.119 49.0254 80.6035C49.002 80.0649 48.9785 79.6199 48.9551 79.2686C48.9316 79.0577 48.9199 78.8583 48.9199 78.6709V78.0381C48.9199 77.64 48.9317 77.2536 48.9551 76.8789C49.0019 76.4806 49.0019 76.0819 48.9551 75.6836C48.9083 75.1684 48.92 74.7469 48.9902 74.4189C49.0137 74.3253 49.0019 74.1609 48.9551 73.9268C48.9082 73.669 48.8848 73.3993 48.8848 73.1182C48.8848 72.7433 48.8965 72.4032 48.9199 72.0986C48.9433 71.7943 48.9551 71.5017 48.9551 71.2207C48.9785 70.9396 48.9902 70.6464 48.9902 70.3418C49.0137 70.0372 49.0137 69.6971 48.9902 69.3223V68.1279C49.0137 67.8702 49.0254 67.6357 49.0254 67.4248C49.0488 67.1906 49.0605 67.0263 49.0605 66.9326C49.0605 66.7219 49.0371 66.5693 48.9902 66.4756C48.9436 66.3588 48.92 66.2537 48.9199 66.1602V65.9141H53.208Z" fill="var(--fill-0, black)"/>
<path d="M39.0225 65.9492H39.7256C39.9598 65.9258 40.1945 65.9258 40.4287 65.9492C40.9674 65.996 41.4828 66.0195 41.9746 66.0195C42.4898 65.9961 42.9113 65.9609 43.2393 65.9141C43.4032 65.9141 43.6965 65.9375 44.1182 65.9844C44.5399 66.0312 44.9503 66.0664 45.3486 66.0898C45.6059 66.1132 45.8166 66.1132 45.9805 66.0898C46.1444 66.0664 46.2852 66.0665 46.4023 66.0898V67.7061C46.4023 67.7996 46.4142 67.8583 46.4375 67.8818C46.4609 67.9053 46.4492 68.0108 46.4023 68.1982C46.3788 68.2918 46.285 68.3506 46.1211 68.374H45.7354C45.1262 68.4677 44.5633 68.5029 44.0479 68.4795C43.556 68.4561 43.0759 68.4443 42.6074 68.4443H42.1504C42.0567 68.4443 41.9394 68.4561 41.7988 68.4795V69.2871C41.7988 69.4745 41.7871 69.7561 41.7637 70.1309V71.2207C41.7636 71.2676 41.7519 71.3381 41.7285 71.4316C41.7285 71.502 41.7168 71.6195 41.6934 71.7832C41.6699 71.9237 41.6229 72.1343 41.5527 72.415V74.208C41.5761 74.4421 41.5879 74.6761 41.5879 74.9102V76.0352C41.4942 76.4334 41.4707 76.8322 41.5176 77.2305C41.5644 77.6286 41.5879 78.0267 41.5879 78.4248V86.4375C41.541 86.4375 41.4589 86.4492 41.3418 86.4727C41.2247 86.4961 41.1073 86.5078 40.9902 86.5078C40.8732 86.5312 40.7675 86.543 40.6738 86.543C40.6042 86.5662 40.5809 86.578 40.6035 86.5781H38.8818C38.507 86.5313 38.1903 86.4961 37.9326 86.4727C37.6986 86.4727 37.488 86.4844 37.3008 86.5078C37.2539 86.5078 37.207 86.4843 37.1602 86.4375C37.1133 86.4141 37.0781 86.3906 37.0547 86.3672C37.0313 86.1564 37.0195 85.8403 37.0195 85.4189C37.043 84.9973 37.0547 84.6689 37.0547 84.4346V83.9424C37.1015 83.5441 37.1133 83.1922 37.0898 82.8877C37.0664 82.5598 37.0547 82.1969 37.0547 81.7988V81.0254C37.1718 80.5101 37.1952 79.9713 37.125 79.4092C37.0781 78.8469 37.0547 78.3309 37.0547 77.8623V68.9014C37.0547 68.6672 36.9959 68.5499 36.8789 68.5498C36.5509 68.5264 36.2929 68.5146 36.1055 68.5146C35.918 68.5147 35.66 68.5264 35.332 68.5498C35.1915 68.5497 34.9457 68.5145 34.5947 68.4443C34.2668 68.3741 34.0439 68.3506 33.9268 68.374C33.8096 68.4209 33.5633 68.4209 33.1885 68.374C32.8371 68.3272 32.6025 68.3037 32.4854 68.3037H32.1699C32.0763 68.2803 31.9823 68.2332 31.8887 68.1631V65.9844C31.9823 65.9376 32.1225 65.9141 32.3096 65.9141H33.5049C33.6923 65.9141 33.8682 65.9023 34.0322 65.8789C34.0793 65.8789 34.2436 65.8907 34.5244 65.9141C34.8052 65.9375 35.0393 65.961 35.2266 65.9844C35.3671 65.9375 35.5079 65.9141 35.6484 65.9141C35.9999 65.8906 36.3282 65.8906 36.6328 65.9141C36.8436 65.9375 36.9961 65.9375 37.0898 65.9141C37.1836 65.8907 37.3244 65.8789 37.5117 65.8789H38.0732L39.0225 65.9492Z" fill="var(--fill-0, black)"/>
<path fill-rule="evenodd" clip-rule="evenodd" d="M22.5088 65C22.5556 65.0937 22.5791 65.1876 22.5791 65.2812C22.5791 65.3515 22.6026 65.4337 22.6494 65.5273L22.79 66.0547L22.8955 66.3359L23.2812 67.4248L23.9141 69.2168L24.1602 69.6738C24.207 69.7207 24.2539 69.8263 24.3008 69.9902C24.3476 70.1308 24.418 70.3184 24.5117 70.5527C24.6289 70.8573 24.7461 71.2091 24.8633 71.6074C25.0038 71.9821 25.1329 72.3567 25.25 72.7314C25.414 73.3172 25.543 73.7511 25.6367 74.0322C25.7537 74.3131 25.8703 74.6059 25.9873 74.9102C26.0575 75.0038 26.1045 75.1095 26.1279 75.2266C26.1513 75.3436 26.1866 75.4611 26.2334 75.5781L26.6904 77.0195L27.2881 78.2842C27.3584 78.495 27.4287 78.7061 27.499 78.917C27.5927 79.1044 27.6983 79.2921 27.8154 79.4795C28.0028 79.9479 28.1553 80.3811 28.2725 80.7793C28.3896 81.1542 28.5411 81.5763 28.7285 82.0449C28.8222 82.2558 28.9161 82.4551 29.0098 82.6426C29.1268 82.8299 29.2208 83.0286 29.291 83.2393L29.5723 83.9424C29.6894 84.1532 29.7832 84.3761 29.8535 84.6104C29.9472 84.8212 30.0528 85.0558 30.1699 85.3135C30.2167 85.4538 30.2755 85.594 30.3457 85.7344C30.4159 85.8748 30.4629 86.004 30.4863 86.1211C30.3692 86.1211 30.2519 86.1094 30.1348 86.0859C30.0176 86.0625 29.9121 86.0508 29.8184 86.0508H28.6582C28.4945 86.0741 28.3543 86.0859 28.2373 86.0859C28.1202 85.8049 27.9441 85.5359 27.71 85.2783C27.4991 84.9972 27.2763 84.6571 27.042 84.2588C26.9951 84.1416 26.9482 84.0361 26.9014 83.9424L26.7607 83.6611C26.7138 83.5206 26.573 83.3211 26.3389 83.0635C26.1283 82.8061 26.0108 82.6073 25.9873 82.4668C25.8 82.2561 25.6601 82.0917 25.5664 81.9746C25.4962 81.8341 25.4022 81.705 25.2852 81.5879H24.9336C24.793 81.5645 24.664 81.541 24.5469 81.5176C24.4063 81.4941 24.2538 81.4824 24.0898 81.4824H23.2461C23.1292 81.4824 23.0006 81.4942 22.8604 81.5176C22.7432 81.5176 22.5555 81.5293 22.2979 81.5527C22.0401 81.5527 21.6883 81.5645 21.2432 81.5879H19.2051C19.0176 81.5879 18.8652 81.6113 18.748 81.6582C18.6543 81.6816 18.5136 81.6582 18.3262 81.5879C18.2558 81.5411 18.0798 81.5293 17.7988 81.5527C17.5417 81.5761 17.3662 81.5997 17.2725 81.623L16.8154 81.6582L16.6396 81.9043C16.5928 82.0449 16.5107 82.2091 16.3936 82.3965C16.2765 82.5838 16.159 82.7707 16.042 82.958L15.6904 83.5205C15.5967 83.7079 15.5264 83.8604 15.4795 83.9775L15.2334 84.6104L14.3555 86.2266C14.3087 86.3202 14.2381 86.3671 14.1445 86.3672C14.0509 86.3672 13.9805 86.3908 13.9336 86.4375H12.1406C12.0471 86.344 12.001 86.2851 12.001 86.2617C12.0013 86.238 12.0473 86.1675 12.1406 86.0508C12.1407 85.9571 12.1759 85.8161 12.2461 85.6289C12.3162 85.4652 12.3515 85.3368 12.3516 85.2432C12.4687 85.0558 12.5625 84.868 12.6328 84.6807C12.7265 84.4698 12.8203 84.2704 12.9141 84.083L13.8984 81.623C14.0624 81.1545 14.2266 80.6971 14.3906 80.252C14.578 79.7836 14.7531 79.315 14.917 78.8467C15.0341 78.4952 15.1866 78.1434 15.374 77.792C15.5614 77.4407 15.7257 77.1248 15.8662 76.8438C15.9834 76.4455 16.1006 76.1288 16.2178 75.8945C16.3583 75.6368 16.4404 75.4726 16.4639 75.4023C16.464 75.3553 16.5109 75.2379 16.6045 75.0508C16.7216 74.8634 16.8507 74.5591 16.9912 74.1377C17.0615 73.9268 17.1201 73.704 17.167 73.4697C17.2373 73.2354 17.3194 73.0126 17.4131 72.8018L18.2559 70.7637C18.3496 70.506 18.4082 70.3183 18.4316 70.2012C18.4785 70.0606 18.5137 69.9433 18.5371 69.8496C18.5605 69.7559 18.584 69.6503 18.6074 69.5332C18.6309 69.4161 18.7014 69.229 18.8184 68.9717C18.9355 68.714 19.0293 68.4676 19.0996 68.2334C19.1933 67.9991 19.2989 67.7528 19.416 67.4951L19.6973 66.6514C19.7674 66.4642 19.8262 66.3006 19.873 66.1602C19.9199 66.0196 19.9668 65.8553 20.0137 65.668C20.0605 65.6211 20.0957 65.5624 20.1191 65.4922C20.1426 65.3985 20.1886 65.2928 20.2588 65.1758C20.3992 65.0822 20.5167 65.0353 20.6104 65.0352C20.704 65.0117 20.798 65 20.8916 65H22.5088ZM21.2783 72.9072C21.1612 72.9541 21.0791 73.0127 21.0322 73.083C20.9854 73.1533 20.9384 73.2354 20.8916 73.3291C20.7979 73.6571 20.6689 73.9855 20.5049 74.3135C20.3644 74.6178 20.2244 74.934 20.084 75.2617C19.9669 75.496 19.8495 75.7189 19.7324 75.9297C19.6153 76.1171 19.5097 76.3282 19.416 76.5625C19.2052 77.031 18.994 77.4993 18.7832 77.9678C18.5723 78.4129 18.3378 78.8586 18.0801 79.3037H18.291C18.4784 79.3037 18.6426 79.3154 18.7832 79.3389C18.9472 79.3623 19.1114 79.3506 19.2754 79.3037C19.4159 79.2569 19.545 79.2451 19.6621 79.2686C19.8026 79.292 19.9318 79.3037 20.0488 79.3037H21.2783C21.7 79.2803 22.1691 79.292 22.6846 79.3389C22.942 79.3622 23.1761 79.3622 23.3867 79.3389C23.621 79.3154 23.8556 79.3037 24.0898 79.3037H24.4062C24.3828 79.21 24.3476 79.1396 24.3008 79.0928C24.2774 79.0225 24.2422 78.9521 24.1953 78.8818C24.1016 78.6944 23.9961 78.5302 23.8789 78.3896C23.7852 78.2491 23.7031 78.0731 23.6328 77.8623L22.4033 75.4023C22.3565 75.2852 22.3095 75.1327 22.2627 74.9453L21.2783 72.9072Z" fill="var(--fill-0, black)"/>
<path fill-rule="evenodd" clip-rule="evenodd" d="M37.5615 21.8916C37.7542 21.8918 37.9453 21.951 38.0918 21.9971C38.2917 22.0599 38.6202 22.1729 39.1719 22.3779C40.1858 22.7547 42.0038 23.5568 43.4434 24.2129C44.9069 24.88 45.9618 25.422 46.7041 25.7949C48.4519 26.6384 49.2129 27.0483 49.9199 27.4609C50.0131 27.511 50.0691 27.5356 50.1338 27.5625C50.2091 27.5938 50.3252 27.6397 50.4834 27.7158C50.572 27.7585 50.6513 27.8132 50.7207 27.876C51.2009 27.9492 51.5693 28.3636 51.5693 28.8643C51.5692 29.4163 51.1213 29.864 50.5693 29.8643C50.1771 29.8643 49.7693 29.8643 49.5107 29.8564C49.2384 29.8481 49.094 29.8289 48.5264 29.7832C48.3808 29.7715 48.2032 29.7572 47.957 29.7422C47.9585 30.0143 47.9613 30.3876 47.9639 30.8994C47.9734 32.7838 47.9918 36.5462 48.0059 38.5703L48.0234 39.8896C48.0269 40.0911 48.0326 40.2608 48.0361 40.4043C48.0772 40.3899 48.1186 40.3747 48.1592 40.3623C49.1722 40.0535 50.121 40.3569 50.792 40.7051C51.3317 40.9853 51.7822 41.3416 52.0811 41.6006C52.1389 41.536 52.206 41.4772 52.2822 41.4277C52.2925 41.4199 52.3292 41.3927 52.3965 41.3379C52.4786 41.271 52.5869 41.1793 52.7119 41.0693C52.9627 40.8487 53.2726 40.5604 53.5762 40.25C54.3356 39.4735 55.3953 38.7561 56.3105 38.3848C57.2246 38.0143 58.0153 38.3008 58.6553 38.6846C58.9644 38.8701 59.2822 39.104 59.5947 39.3379C59.9186 39.5803 60.254 39.8352 60.6416 40.1084C61.1358 40.4568 61.4802 40.8385 61.7471 41.1562C62.0295 41.4925 62.167 41.6756 62.3408 41.833C62.9028 42.2497 63.2074 42.5155 63.665 42.8174C63.9856 43.0146 64.5521 43.3446 65.2969 43.8271C65.7597 44.1275 65.8924 44.7467 65.5928 45.21C65.2926 45.6729 64.6732 45.8053 64.21 45.5059C63.4741 45.029 62.9746 44.7421 62.5996 44.5107L62.5879 44.5029L62.5752 44.4951C62.054 44.1524 61.5499 43.7333 61.1035 43.4043L61.0684 43.3779L61.0352 43.3496C60.7047 43.0581 60.4155 42.6801 60.2158 42.4424C59.9911 42.1748 59.7759 41.9453 59.4893 41.7432C59.0713 41.4487 58.7028 41.1677 58.3965 40.9385C58.0793 40.7011 57.8371 40.5265 57.627 40.4004C57.2291 40.1618 57.1344 40.2081 57.0625 40.2373C56.4189 40.4984 55.5869 41.0545 55.0068 41.6475C54.7329 41.9276 54.4541 42.1865 54.2109 42.4062C54.6663 42.5011 55.2195 42.6074 55.8975 42.7334C56.7507 42.8921 57.2394 43.1262 57.6777 43.5234C58.0606 43.8706 58.3952 44.3158 58.6924 44.6943C59.0087 45.0972 59.3497 45.5179 59.8105 45.9561C60.0093 46.1449 60.2929 46.3232 60.6748 46.5166C60.8624 46.6116 61.0596 46.7037 61.2715 46.8018C61.4782 46.8975 61.7035 47.0003 61.9209 47.1084C62.5323 47.4128 62.947 47.9335 63.2412 48.4355C63.4636 48.8152 63.6479 49.2385 63.8076 49.6553L63.96 50.0684L63.9639 50.0811C64.3598 51.2425 64.5244 51.7777 64.6543 52.1055C64.6912 52.194 64.7326 52.2903 64.7979 52.4434C64.8653 52.6017 64.9539 52.811 65.0781 53.1104C65.2891 53.6199 65.0463 54.2051 64.5371 54.417C64.0273 54.6283 63.4423 54.3865 63.2305 53.877C63.1091 53.5846 63.0234 53.3811 62.958 53.2275C62.8941 53.0776 62.844 52.9616 62.8008 52.8574L62.7979 52.8496L62.7949 52.8428C62.6424 52.4579 62.4365 51.7996 62.0752 50.7393L61.9375 50.3643C61.8003 50.0067 61.6632 49.6983 61.5156 49.4463C61.3168 49.1071 61.1493 48.9589 61.0303 48.8994C60.8432 48.8064 60.6464 48.7157 60.4316 48.6162C60.222 48.5191 59.9944 48.4137 59.7715 48.3008C59.3319 48.0781 58.8429 47.7952 58.4326 47.4053C57.8638 46.8644 57.4506 46.3519 57.1191 45.9297C56.7688 45.4835 56.5603 45.2092 56.335 45.0049C56.263 44.9397 56.2053 44.9003 56.1191 44.8613C56.0185 44.8158 55.8465 44.7577 55.5322 44.6992C54.232 44.4576 53.2936 44.2742 52.6113 44.083C51.9249 43.8906 51.3753 43.6589 50.9326 43.2539C50.6962 43.0375 50.3129 42.7099 49.8711 42.4805C49.4199 42.2463 49.0429 42.1843 48.7432 42.2754C48.4083 42.3776 47.9488 42.6594 47.2715 43.0879C46.6611 43.474 45.9013 43.9575 45.1328 44.25C44.4053 44.5267 43.7755 44.7137 43.2705 44.8379C43.3323 44.9276 43.3939 45.0205 43.459 45.1133C44.3377 46.3659 45.4227 47.5054 46.3408 48.1875C46.7009 48.4549 47.2437 48.7622 47.8926 49.0996C48.4806 49.4054 49.2698 49.7922 49.8506 50.0986C50.8601 50.6313 51.6299 51.0891 52.2559 51.4492C52.892 51.8153 53.3611 52.0698 53.8301 52.252C55.0561 52.7283 55.7661 53.4725 56.3418 54.2148L56.9189 54.9893L56.9463 55.0352C57.4708 55.923 57.7814 56.6478 57.9824 57.335L58.0625 57.627L58.0703 57.6621C58.1098 57.8457 58.1447 58.0202 58.2139 58.3994C58.3126 58.9423 57.9519 59.4631 57.4092 59.5625C56.8661 59.6613 56.3453 59.3009 56.2461 58.7578C56.1817 58.405 56.1506 58.2515 56.1191 58.1045C55.9774 57.5497 55.7427 56.9383 55.2471 56.0928C54.4995 55.0864 54.1003 54.5025 53.1064 54.1162C52.4816 53.8735 51.8958 53.5491 51.2588 53.1826C50.6111 52.8099 49.8848 52.3788 48.917 51.8682C48.2842 51.5343 47.6829 51.2444 46.9707 50.874C46.3195 50.5354 45.6483 50.1649 45.1475 49.793C44.0235 48.9579 42.7965 47.6504 41.8223 46.2617C41.0092 45.1025 40.357 44.0336 39.8779 43.3174C39.3506 42.5291 39.0187 42.1502 38.7402 41.9795C38.3318 41.7295 37.8723 41.4208 37.1631 41.208C36.4642 40.9985 35.4797 40.8738 34.0947 41.1172C32.996 41.3104 31.773 41.784 29.8174 41.6006C29.0018 41.524 28.2175 41.4388 27.5566 41.4395C27.2299 41.4398 26.9791 41.4625 26.8037 41.501C26.7142 41.5207 26.6664 41.5402 26.6475 41.5488C26.4779 41.7293 26.2471 42.0287 25.9404 42.4551C25.6526 42.8554 25.25 43.4359 24.8682 43.9629C24.0698 45.0648 23.0756 46.3456 21.9375 47.3457C21.2157 47.9798 20.5262 48.2767 19.8994 48.4756C19.2156 48.6925 18.8753 48.7375 18.4014 48.9502C17.6526 49.2864 17.1914 49.5344 16.8633 49.8057C16.5677 50.0502 16.3504 50.339 16.166 50.8193C15.2949 53.089 14.4925 55.2639 13.3252 56.9111C12.9181 57.4855 12.5582 58.0078 12.2979 58.4033C12.1671 58.6019 12.0658 58.7619 11.998 58.876C11.9693 58.9245 11.9496 58.9585 11.9385 58.9795C11.7661 59.4498 11.2652 59.7263 10.7666 59.6064C10.23 59.4767 9.89994 58.937 10.0293 58.4004L10.0605 58.293C10.0951 58.1928 10.1367 58.1126 10.1543 58.0781C10.1907 58.0071 10.2336 57.9298 10.2783 57.8545C10.3687 57.7023 10.4891 57.5142 10.627 57.3047C10.9046 56.8828 11.2789 56.3397 11.6934 55.7549C12.6814 54.3607 13.391 52.4679 14.2988 50.1025C14.5945 49.3323 15.0032 48.7481 15.5889 48.2637C16.1422 47.8062 16.8214 47.4675 17.582 47.126C18.1824 46.8566 18.8991 46.6949 19.2949 46.5693C19.7473 46.4257 20.1642 46.2416 20.6172 45.8438C21.5784 44.9991 22.4644 43.8707 23.248 42.7891C23.657 42.2246 23.9717 41.7678 24.3174 41.2871C24.6306 40.8516 24.9454 40.4317 25.2314 40.1357L25.3633 40.0127C25.6808 39.7461 26.0601 39.6171 26.375 39.5479C26.7494 39.4657 27.1599 39.4399 27.5537 39.4395C27.8303 39.4392 28.1238 39.4526 28.4199 39.4717C28.4178 39.4468 28.4164 39.424 28.4141 39.4004L28.4121 39.3848L28.4111 39.3691C28.3588 38.5819 28.3276 37.555 28.2773 35.5537V35.5352C28.2689 34.1334 28.2686 31.6476 28.2686 30.4062V29.5254C26.0585 29.5192 26.0143 29.5195 26.001 29.5195C25.7161 29.5195 25.4595 29.3992 25.2773 29.208C25.2002 29.2227 25.1287 29.2344 25.0605 29.2383C24.5092 29.2689 24.0376 28.8472 24.0068 28.2959C23.9763 27.7446 24.3979 27.2729 24.9492 27.2422C24.8688 27.2467 24.8855 27.2623 25.1201 27.1807C25.3451 27.1022 25.7292 26.949 26.3623 26.6562C26.9186 26.399 27.7085 26.0118 28.5723 25.5908C29.4284 25.1735 30.3524 24.7252 31.1553 24.3594C32.7661 23.6255 33.8118 23.2363 34.6621 22.9375C35.504 22.6417 36.1247 22.4455 36.4814 22.332C36.6223 22.2872 36.7272 22.2531 36.8164 22.2256C36.9995 22.0212 37.2655 21.8916 37.5615 21.8916ZM42.21 30.0713C42.2132 31.0186 42.2197 32.8926 42.3047 34.9893C42.3898 37.0894 42.5542 39.359 42.6436 40.6953C42.7351 42.0649 42.7388 42.3112 42.7666 42.668C42.7729 42.749 42.7673 42.8284 42.7549 42.9053C43.1719 42.8044 43.7363 42.6416 44.4219 42.3809C44.9343 42.1858 45.4812 41.8516 46.085 41.4707V41.4688L46.0859 41.4678C46.0534 41.1377 46.0282 40.7572 46.0059 38.5908V38.5869C45.9918 36.5611 45.9734 32.7935 45.9639 30.9092C45.961 30.34 45.9585 29.9422 45.957 29.6641C45.2097 29.6437 44.2455 29.6226 42.9863 29.6064C42.7372 29.6033 42.4769 29.6016 42.208 29.5986C42.2084 29.7219 42.2093 29.8768 42.21 30.0713ZM36.2383 30.7295C36.2383 32.2778 36.2387 35.3679 36.2422 37.0195C36.2457 38.7113 36.2537 38.7575 36.2578 38.7959C36.2598 38.8141 36.2699 38.9063 36.2822 39.0186C36.8235 39.0667 37.3069 39.163 37.7373 39.292C38.7381 39.5922 39.419 40.0499 39.7842 40.2734C40.105 40.4699 40.3928 40.7335 40.6602 41.0332C40.6558 40.9676 40.6522 40.8992 40.6475 40.8281C40.5592 39.5073 40.3931 37.2038 40.3066 35.0703C40.22 32.9337 40.2132 31.0277 40.21 30.0781C40.2092 29.8697 40.2084 29.7067 40.208 29.5791C38.9453 29.5691 37.585 29.5604 36.2383 29.5537V30.7295ZM30.2686 30.4062C30.2686 31.6503 30.2689 34.1292 30.2773 35.5234C30.3276 37.5238 30.3583 38.5012 30.4072 39.2363C30.4164 39.3341 30.4238 39.4389 30.4395 39.6377C31.7399 39.691 32.4228 39.3806 33.749 39.1475C33.9284 39.1159 34.1046 39.0894 34.2754 39.0674C34.273 39.0473 34.2707 39.0267 34.2686 39.0068C34.2502 38.8343 34.2455 38.6361 34.2422 37.0234C34.2387 35.3691 34.2383 32.2768 34.2383 30.7295V29.5449C32.778 29.539 31.4031 29.5346 30.2686 29.5312V30.4062ZM37.8125 24.0127C37.7536 24.0396 37.6905 24.0617 37.625 24.0771C37.4998 24.1065 37.4558 24.1203 37.0879 24.2373C36.734 24.3499 36.1373 24.5389 35.3252 24.8242C34.5205 25.107 33.5316 25.4748 31.9844 26.1797C31.2083 26.5333 30.3061 26.9705 29.4482 27.3887C29.3527 27.4353 29.2565 27.4813 29.1621 27.5273C29.2091 27.5275 29.2573 27.5282 29.3057 27.5283C32.5727 27.5376 39.0996 27.5563 43.0117 27.6064C44.2563 27.6224 45.2187 27.6437 45.9727 27.6641C45.9228 27.6399 45.872 27.6148 45.8203 27.5898L45.8066 27.582C45.0533 27.2035 44.036 26.6803 42.6143 26.0322C41.1681 25.3731 39.4124 24.6011 38.4756 24.2529C38.1909 24.1471 37.9747 24.0693 37.8125 24.0127Z" fill="var(--fill-0, black)"/>
<path d="M59 9C62.866 9 66 12.134 66 16C66 19.866 62.866 23 59 23C55.1342 22.9998 52 19.8659 52 16C52 12.1341 55.1342 9.00022 59 9Z" fill="var(--fill-0, black)"/>
<path fill-rule="evenodd" clip-rule="evenodd" d="M74.2041 0.0107422C75.2128 0.113005 76 0.96435 76 2V95L75.9893 95.2041C75.8938 96.1457 75.1457 96.8938 74.2041 96.9893L74 97H2C0.895431 97 0 96.1046 0 95V2C6.44266e-08 0.895431 0.895431 8.0532e-09 2 0H74L74.2041 0.0107422ZM2 95H74V2H2V95Z" fill="var(--fill-0, black)"/>
</g>
</svg>
