<svg width="100" height="120" viewBox="0 0 100 120" fill="none" xmlns="http://www.w3.org/2000/svg">
<path fill-rule="evenodd" clip-rule="evenodd" d="M6.42874 0.6875C6.42099 1.58525 5.60911 3.17425 4.65474 4.15925C3.73005 5.1135 2.57492 5.68175 1.1161 5.89975C0.485391 5.99415 0.018715 6.53587 0.018715 7.17361V8.52725V10.2397C0.018715 10.677 0.325738 11.0541 0.753872 11.1427C3.38493 11.6875 4.7304 12.6225 5.78555 14.6395C7.52881 17.9712 5.53319 21.8817 1.55586 22.9277L1.51004 22.9398C0.631259 23.1709 0.018715 23.9654 0.018715 24.874V25.791C0.018715 28.0033 0.067638 28.25 0.505791 28.25C1.80929 28.25 3.53276 29.092 4.68736 30.2928C6.43329 32.109 6.86503 34.0455 6.02214 36.281C5.27789 38.2555 2.65271 40.2302 0.753872 40.2445C0.346969 40.2475 0.018715 40.5783 0.018715 40.9852V42.7578C0.018715 45.4623 -0.0486526 45.3468 1.68311 45.6158C4.0185 45.9783 6.43463 48.8197 6.43463 51.2032C6.43463 54.5955 3.95808 57.096 0.219212 57.4795C0.109072 57.4907 0.018715 58.607 0.018715 59.9603V60.8703C0.018715 61.7735 0.651994 62.553 1.53608 62.738C2.79253 63.001 3.28843 63.2765 4.41896 64.3402C6.94255 66.7147 7.1369 69.7335 4.93945 72.4277C4.1396 73.4082 1.9745 74.5 0.829527 74.5C0.381728 74.5 0.018715 74.863 0.018715 75.3108V77.125V78.8694C0.018715 79.3557 0.412967 79.75 0.899301 79.75C2.27257 79.75 4.53365 81.1567 5.48935 82.6052C6.19296 83.6717 6.30096 84.071 6.30096 85.6052C6.30096 87.7832 5.80159 88.8485 4.138 90.2178C3.27212 90.9305 2.49526 91.3113 1.46764 91.5263C0.623423 91.7029 0.018715 92.4473 0.018715 93.3098V94.2785V95.7104C0.018715 96.2976 0.442285 96.7992 1.0212 96.8975C4.45211 97.4797 6.74927 100.353 6.344 103.554C6.02882 106.043 3.81212 108.305 1.29602 108.706C0.63255 108.811 0.137895 109.374 0.11788 110.045L0.0761899 111.444L0.0195305 113.345C0.00883953 113.703 0.296678 114 0.655495 114C1.69888 114 3.64852 114.894 4.57107 115.796C5.64547 116.846 6.10608 117.68 6.32743 118.974C6.42888 119.567 6.94279 120 7.54423 120H10.0778C13.5491 120 13.6525 119.985 13.6525 119.467C13.6525 115.84 17.9752 113.18 22.0424 114.304C24.1281 114.88 26.4843 117.685 26.4843 119.592C26.4843 119.949 26.9217 120 29.9546 120H32.7182C33.1323 120 33.4921 119.715 33.5876 119.312C34.1647 116.875 35.2594 115.48 37.2922 114.595C41.1412 112.919 45.6139 115.117 46.4079 119.074C46.5159 119.613 46.9888 120 47.5379 120H50.0094H52.4808C53.0299 120 53.5028 119.613 53.6108 119.074C54.4085 115.098 58.8596 112.911 62.7265 114.595C64.7593 115.48 65.854 116.875 66.4311 119.312C66.5266 119.715 66.8864 120 67.3005 120H70.0642C73.243 120 73.5344 119.962 73.5344 119.544C73.5344 118.345 74.435 116.713 75.6698 115.675C77.8159 113.871 80.3825 113.503 82.8388 114.648C84.9459 115.63 86.3662 117.57 86.3662 119.467C86.3662 119.985 86.4688 120 89.9751 120H92.8831C93.2702 120 93.5841 119.686 93.5841 119.299C93.5841 118.251 94.8224 116.13 95.8695 115.383C97.0118 114.568 98.4302 114 99.3231 114C99.697 114 100 113.697 100 113.323V111.527C100 108.909 99.9206 108.75 98.616 108.75C97.2387 108.75 95.095 107.104 94.2211 105.375C92.4241 101.82 94.7972 97.6083 98.9975 96.897C99.5764 96.799 100 96.2976 100 95.7105V94.2705V92.9236C100 92.2859 99.5333 91.7442 98.9026 91.6497C98.299 91.5595 97.4807 91.3288 97.0842 91.137C95.8732 90.5515 94.1768 88.6293 93.8389 87.4603C93.4651 86.1668 93.645 84.0985 94.2222 83.0547C95.1584 81.3615 97.5943 79.768 99.2648 79.7555C99.6717 79.7525 100 79.4217 100 79.0148V77.1575V75.805C100 75.1001 99.4679 74.5089 98.7668 74.435C97.1815 74.268 95.5671 73.2117 94.5534 71.6785C92.1886 68.1012 94.4959 63.41 99.0101 62.618C99.5825 62.5175 100 62.0204 100 61.4392V60.012V59.1297C100 58.2265 99.3667 57.447 98.4826 57.262C97.2262 56.999 96.7303 56.7235 95.5997 55.6598C93.1155 53.3225 92.9011 50.243 95.0397 47.6208C95.8738 46.5983 98.0226 45.5 99.1892 45.5C99.637 45.5 100 45.137 100 44.6892V42.875V41.1306C100 40.6443 99.6057 40.25 99.1194 40.25C97.7908 40.25 95.4845 38.8425 94.5898 37.486C93.656 36.0703 93.3809 34.1982 93.8669 32.5682C94.4935 30.467 97.4181 28.25 99.5632 28.25C99.9383 28.25 100 27.8975 100 25.7612V24.2896C100 23.7024 99.5764 23.2008 98.9975 23.1025C95.5666 22.5203 93.2694 19.6473 93.6747 16.4458C93.9982 13.8913 96.2967 11.5753 98.7668 11.315C99.4679 11.2411 100 10.6499 100 9.94498V8.5925C100 6.25125 99.9527 6 99.5129 6C98.5027 6 96.5247 5.18425 95.6375 4.4015C94.516 3.41225 93.9236 2.385 93.6913 1.02625C93.5898 0.43343 93.0759 0 92.4745 0H89.9409C86.4696 0 86.3662 0.0155007 86.3662 0.533501C86.3662 4.14925 82.0317 6.8165 77.9763 5.696C75.8906 5.11975 73.5344 2.315 73.5344 0.408501C73.5344 0.0515007 73.097 0 70.0642 0H67.3005C66.8864 0 66.5266 0.284557 66.4311 0.6875C65.6703 3.9015 63.7359 5.62225 60.5371 5.931C57.2815 6.24525 54.2366 4.04475 53.6108 0.925751C53.5028 0.387384 53.0299 0 52.4808 0H50.0094H47.5379C46.9888 0 46.5159 0.387384 46.4079 0.925751C45.6139 4.88325 41.1412 7.081 37.2922 5.40475C35.2594 4.51975 34.1647 3.1255 33.5876 0.6875C33.4921 0.284557 33.1323 0 32.7182 0H29.9546C26.9217 0 26.4843 0.0515007 26.4843 0.408501C26.4843 2.315 24.1281 5.11975 22.0424 5.696C18.7147 6.6155 15.3252 5.1825 14.0436 2.31425C13.8284 1.83275 13.6525 1.11525 13.6525 0.7195C13.6525 0.322131 13.3304 0 12.933 0H10.0436H7.12215C6.74149 0 6.432 0.306857 6.42874 0.6875Z" fill="#00C8FF"/>
<path d="M65.208 77.9141C65.3015 78.0077 65.3721 78.1017 65.4189 78.1953C65.4422 78.2419 65.4531 78.2774 65.4531 78.3008C65.4765 78.7692 65.4765 79.2259 65.4531 79.6709C65.4297 80.1161 65.4072 80.5734 65.3838 81.042C65.3838 81.6744 65.3955 82.2953 65.4189 82.9043C65.4658 83.5133 65.5 84.1224 65.5234 84.7314C65.5234 85.0595 65.5117 85.3995 65.4883 85.751V86.7695C65.4883 87.0975 65.4766 87.4611 65.4531 87.8594C65.4297 88.2577 65.4297 88.5274 65.4531 88.668C65.4537 88.6912 65.536 88.7031 65.6992 88.7031C65.8632 88.6797 66.0509 88.668 66.2617 88.668H70.1982C70.3856 88.6679 70.5499 88.6328 70.6904 88.5625C70.8542 88.4923 71.0296 88.4571 71.2168 88.457V88.2461C71.2637 88.0352 71.2988 87.7186 71.3223 87.2969C71.3457 86.8755 71.3574 86.5595 71.3574 86.3486C71.3574 86.1612 71.3457 85.9735 71.3223 85.7861C71.2988 85.5753 71.2871 85.3759 71.2871 85.1885C71.3105 85.001 71.3105 84.8251 71.2871 84.6611C71.2637 84.4738 71.252 84.286 71.252 84.0986V82.0254C71.2754 81.7677 71.2754 81.5096 71.252 81.252C71.252 80.8774 71.2637 80.573 71.2871 80.3389C71.3105 80.0811 71.2988 79.7411 71.252 79.3193C71.2754 79.2256 71.2754 79.1435 71.252 79.0732C71.2286 78.9796 71.2168 78.8739 71.2168 78.7568C71.2167 78.7102 71.205 78.6747 71.1816 78.6514V78.2305C71.1816 78.1369 71.1934 78.0311 71.2168 77.9141H74.9775C75.0946 78.0311 75.1533 78.1368 75.1533 78.2305C75.1766 78.3006 75.1884 78.394 75.1885 78.5107C75.1885 78.8387 75.1767 79.1554 75.1533 79.46V80.2686C75.1533 80.6901 75.1181 81.1468 75.0479 81.6387C75.001 82.1073 74.9775 82.5998 74.9775 83.1152C74.9775 83.3026 74.9893 83.5373 75.0127 83.8184C75.0361 84.0992 75.0243 84.3567 74.9775 84.5908C74.9073 85.1765 74.8603 85.7394 74.8369 86.2783V87.8945C74.8369 88.3631 74.8604 88.8439 74.9072 89.3359C74.9541 89.8043 74.9775 90.2376 74.9775 90.6357C74.9307 90.7997 74.9072 91.0929 74.9072 91.5146V92.8145C74.9307 93.283 74.9424 93.7287 74.9424 94.1504C74.9658 94.5716 74.9775 94.8643 74.9775 95.0283V98.6133C74.4623 98.6133 73.9939 98.6368 73.5723 98.6836C73.174 98.7539 72.7635 98.7891 72.3418 98.7891H71.8496C71.7325 98.8125 71.5799 98.8829 71.3926 99L71.2168 98.7891C71.2402 98.6251 71.252 98.4022 71.252 98.1211C71.2519 97.8401 71.2402 97.5475 71.2168 97.2432V95.6611C71.2402 95.1224 71.252 94.5837 71.252 94.0449C71.2754 93.4826 71.2871 92.9314 71.2871 92.3926C71.2871 92.416 71.2754 92.3574 71.252 92.2168V91.7607C71.252 91.5734 71.2402 91.3974 71.2168 91.2334V90.917C71.2168 90.8233 71.1816 90.7881 71.1113 90.8115C71.0645 90.8347 70.9946 90.8348 70.9014 90.8115C70.6438 90.7647 70.4325 90.7647 70.2686 90.8115C70.1046 90.835 69.9052 90.8467 69.6709 90.8467C69.5303 90.8467 69.3544 90.8584 69.1436 90.8818C68.9327 90.8818 68.7098 90.8936 68.4756 90.917C68.265 90.917 68.0544 90.9288 67.8438 90.9521C67.633 90.9756 67.457 90.9873 67.3164 90.9873L65.7695 91.0225H65.4531C65.383 90.9992 65.3014 90.9992 65.208 91.0225C65.1377 91.0225 65.1025 91.0694 65.1025 91.1631C65.1026 91.2099 65.1143 91.2451 65.1377 91.2686C65.1377 91.5495 65.1495 91.8421 65.1729 92.1465C65.1963 92.4276 65.208 92.7326 65.208 93.0605V94.0098C65.208 94.6188 65.1963 95.2161 65.1729 95.8018C65.1729 96.3875 65.1259 96.9856 65.0322 97.5947V98.6133C64.9152 98.7069 64.7977 98.7538 64.6807 98.7539C64.587 98.7773 64.4462 98.7891 64.2588 98.7891H63.5557C63.2746 98.8125 63.0399 98.8829 62.8525 99H61.834C61.7169 99 61.6113 98.9765 61.5176 98.9297C61.4239 98.9063 61.2714 98.8594 61.0605 98.7891V96.3994C61.0605 95.8137 61.0488 95.4384 61.0254 95.2744V94.8877C60.9787 94.7707 60.9669 94.6304 60.9902 94.4668C61.0136 94.303 61.0254 94.1855 61.0254 94.1152C61.0722 93.6232 61.0722 93.119 61.0254 92.6035C61.002 92.0649 60.9785 91.6199 60.9551 91.2686C60.9316 91.0577 60.9199 90.8583 60.9199 90.6709V90.0381C60.9199 89.64 60.9317 89.2536 60.9551 88.8789C61.0019 88.4806 61.0019 88.0819 60.9551 87.6836C60.9083 87.1684 60.92 86.7469 60.9902 86.4189C61.0137 86.3253 61.0019 86.1609 60.9551 85.9268C60.9082 85.669 60.8848 85.3993 60.8848 85.1182C60.8848 84.7433 60.8965 84.4032 60.9199 84.0986C60.9433 83.7943 60.9551 83.5017 60.9551 83.2207C60.9785 82.9396 60.9902 82.6464 60.9902 82.3418C61.0137 82.0372 61.0137 81.6971 60.9902 81.3223V80.1279C61.0137 79.8702 61.0254 79.6357 61.0254 79.4248C61.0488 79.1906 61.0605 79.0263 61.0605 78.9326C61.0605 78.7219 61.0371 78.5693 60.9902 78.4756C60.9436 78.3588 60.92 78.2537 60.9199 78.1602V77.9141H65.208Z" fill="black"/>
<path d="M51.0225 77.9492H51.7256C51.9597 77.9258 52.1937 77.9258 52.4277 77.9492C52.9666 77.9961 53.4826 78.0195 53.9746 78.0195C54.4898 77.9961 54.9113 77.9609 55.2393 77.9141C55.4033 77.9141 55.6965 77.9375 56.1182 77.9844C56.5399 78.0312 56.9503 78.0664 57.3486 78.0898C57.6059 78.1132 57.8166 78.1132 57.9805 78.0898C58.1444 78.0664 58.2852 78.0665 58.4023 78.0898V79.7061C58.4023 79.7996 58.4141 79.8583 58.4375 79.8818C58.4609 79.9053 58.4492 80.0108 58.4023 80.1982C58.3788 80.2918 58.285 80.3506 58.1211 80.374H57.7354C57.1262 80.4677 56.5633 80.5029 56.0479 80.4795C55.556 80.4561 55.0759 80.4443 54.6074 80.4443H54.1504C54.0567 80.4443 53.9394 80.4561 53.7988 80.4795V81.2871C53.7988 81.4745 53.7871 81.7561 53.7637 82.1309V83.2207C53.7636 83.2676 53.7519 83.3381 53.7285 83.4316C53.7285 83.502 53.7168 83.6195 53.6934 83.7832C53.6699 83.9237 53.6229 84.1343 53.5527 84.415V86.208C53.5761 86.4421 53.5879 86.6761 53.5879 86.9102V88.0352C53.4942 88.4334 53.4707 88.8322 53.5176 89.2305C53.5644 89.6286 53.5879 90.0267 53.5879 90.4248V98.4375C53.541 98.4375 53.4589 98.4492 53.3418 98.4727C53.2247 98.4961 53.1074 98.5078 52.9902 98.5078C52.8732 98.5312 52.7675 98.543 52.6738 98.543C52.6041 98.5662 52.5807 98.578 52.6035 98.5781H50.8818C50.507 98.5313 50.1903 98.4961 49.9326 98.4727C49.6986 98.4727 49.488 98.4844 49.3008 98.5078C49.2539 98.5078 49.207 98.4843 49.1602 98.4375C49.1133 98.4141 49.0781 98.3906 49.0547 98.3672C49.0313 98.1564 49.0195 97.8403 49.0195 97.4189C49.043 96.9973 49.0547 96.6689 49.0547 96.4346V95.9424C49.1015 95.5441 49.1133 95.1922 49.0898 94.8877C49.0664 94.5598 49.0547 94.1969 49.0547 93.7988V93.0254C49.1718 92.5101 49.1952 91.9713 49.125 91.4092C49.0781 90.8469 49.0547 90.3309 49.0547 89.8623V80.9014C49.0547 80.6672 48.9959 80.55 48.8789 80.5498C48.5509 80.5264 48.2929 80.5146 48.1055 80.5146C47.918 80.5146 47.66 80.5264 47.332 80.5498C47.1915 80.5498 46.9457 80.5145 46.5947 80.4443C46.2668 80.3741 46.0439 80.3506 45.9268 80.374C45.8096 80.4209 45.5633 80.4209 45.1885 80.374C44.8371 80.3272 44.6025 80.3037 44.4854 80.3037H44.1689C44.0755 80.2803 43.9821 80.2331 43.8887 80.1631V77.9844C43.9823 77.9376 44.1225 77.9141 44.3096 77.9141H45.5049C45.6923 77.9141 45.8682 77.9023 46.0322 77.8789C46.0794 77.8789 46.2437 77.8907 46.5244 77.9141C46.8052 77.9375 47.0393 77.961 47.2266 77.9844C47.3671 77.9375 47.5079 77.9141 47.6484 77.9141C47.9999 77.8906 48.3282 77.8906 48.6328 77.9141C48.8436 77.9375 48.9962 77.9375 49.0898 77.9141C49.1836 77.8907 49.3244 77.8789 49.5117 77.8789H50.0732L51.0225 77.9492Z" fill="black"/>
<path fill-rule="evenodd" clip-rule="evenodd" d="M34.5088 77C34.5556 77.0937 34.5791 77.1876 34.5791 77.2812C34.5791 77.3515 34.6026 77.4337 34.6494 77.5273L34.79 78.0547L34.8945 78.3359L35.2812 79.4248L35.9141 81.2168L36.1602 81.6738C36.207 81.7207 36.2539 81.8263 36.3008 81.9902C36.3476 82.1308 36.418 82.3184 36.5117 82.5527C36.6289 82.8573 36.7461 83.2091 36.8633 83.6074C37.0038 83.9821 37.1329 84.3567 37.25 84.7314C37.414 85.3172 37.542 85.7511 37.6357 86.0322C37.7528 86.3132 37.8702 86.6058 37.9873 86.9102C38.0575 87.0038 38.1045 87.1095 38.1279 87.2266C38.1513 87.3436 38.1866 87.4611 38.2334 87.5781L38.6904 89.0195L39.2881 90.2842C39.3584 90.495 39.4287 90.7061 39.499 90.917C39.5927 91.1044 39.6983 91.2921 39.8154 91.4795C40.0028 91.9479 40.1553 92.3811 40.2725 92.7793C40.3896 93.1542 40.5411 93.5763 40.7285 94.0449C40.8222 94.2558 40.9161 94.4552 41.0098 94.6426C41.1268 94.8298 41.2208 95.0286 41.291 95.2393L41.5723 95.9424C41.6894 96.1532 41.7832 96.3761 41.8535 96.6104C41.9472 96.8212 42.0528 97.0558 42.1699 97.3135C42.2167 97.4538 42.2755 97.594 42.3457 97.7344C42.4159 97.8749 42.4629 98.004 42.4863 98.1211C42.3692 98.1211 42.2519 98.1094 42.1348 98.0859C42.0176 98.0625 41.9121 98.0508 41.8184 98.0508H40.6582C40.4945 98.0741 40.3543 98.0859 40.2373 98.0859C40.1202 97.805 39.9441 97.5359 39.71 97.2783C39.4991 96.9972 39.2763 96.6571 39.042 96.2588C38.9951 96.1416 38.9482 96.0361 38.9014 95.9424L38.7607 95.6611C38.7138 95.5206 38.573 95.3211 38.3389 95.0635C38.1283 94.8061 38.0108 94.6073 37.9873 94.4668C37.8001 94.2561 37.6601 94.0917 37.5664 93.9746C37.4962 93.8341 37.4022 93.705 37.2852 93.5879H36.9336C36.7931 93.5645 36.664 93.541 36.5469 93.5176C36.4063 93.4941 36.2538 93.4824 36.0898 93.4824H35.2461C35.129 93.4824 34.9998 93.4942 34.8594 93.5176C34.7422 93.5176 34.5551 93.5294 34.2979 93.5527C34.0401 93.5527 33.6883 93.5645 33.2432 93.5879H31.2051C31.0176 93.5879 30.8652 93.6113 30.748 93.6582C30.6543 93.6816 30.5136 93.6582 30.3262 93.5879C30.2558 93.5411 30.0799 93.5293 29.7988 93.5527C29.5417 93.5761 29.3662 93.5997 29.2725 93.623L28.8154 93.6582L28.6396 93.9043C28.5928 94.0449 28.5107 94.2091 28.3936 94.3965C28.2765 94.5838 28.159 94.7707 28.042 94.958L27.6904 95.5205C27.5967 95.7079 27.5264 95.8604 27.4795 95.9775L27.2334 96.6104L26.3555 98.2266C26.3087 98.3202 26.2381 98.3671 26.1445 98.3672C26.051 98.3672 25.9805 98.3908 25.9336 98.4375H24.1406C24.0471 98.344 24 98.2851 24 98.2617C24.0003 98.238 24.0472 98.1675 24.1406 98.0508C24.1407 97.9571 24.1759 97.8161 24.2461 97.6289C24.3162 97.4652 24.3515 97.3368 24.3516 97.2432C24.4687 97.0558 24.5625 96.868 24.6328 96.6807C24.7265 96.4698 24.8203 96.2704 24.9141 96.083L25.8984 93.623C26.0624 93.1545 26.2266 92.6971 26.3906 92.252C26.578 91.7836 26.7531 91.315 26.917 90.8467C27.0341 90.4952 27.1866 90.1434 27.374 89.792C27.5614 89.4407 27.7257 89.1248 27.8662 88.8438C27.9834 88.4455 28.1006 88.1288 28.2178 87.8945C28.3583 87.6368 28.4404 87.4726 28.4639 87.4023C28.464 87.3553 28.5109 87.2379 28.6045 87.0508C28.7216 86.8633 28.8507 86.5591 28.9912 86.1377C29.0615 85.9268 29.1201 85.704 29.167 85.4697C29.2373 85.2355 29.3184 85.0126 29.4121 84.8018L30.2559 82.7637C30.3496 82.506 30.4082 82.3183 30.4316 82.2012C30.4785 82.0606 30.5137 81.9433 30.5371 81.8496C30.5605 81.7559 30.584 81.6503 30.6074 81.5332C30.6309 81.4161 30.7014 81.229 30.8184 80.9717C30.9355 80.714 31.0293 80.4677 31.0996 80.2334C31.1933 79.9991 31.2989 79.7528 31.416 79.4951L31.6973 78.6514C31.7674 78.4642 31.8262 78.3006 31.873 78.1602C31.9199 78.0196 31.9668 77.8554 32.0137 77.668C32.0604 77.6212 32.0948 77.5623 32.1182 77.4922C32.1416 77.3985 32.1886 77.2928 32.2588 77.1758C32.3992 77.0822 32.5167 77.0353 32.6104 77.0352C32.704 77.0117 32.798 77 32.8916 77H34.5088ZM33.2783 84.9072C33.1612 84.9541 33.0791 85.0127 33.0322 85.083C32.9854 85.1533 32.9385 85.2354 32.8916 85.3291C32.7979 85.6571 32.6689 85.9855 32.5049 86.3135C32.3644 86.6179 32.2235 86.9339 32.083 87.2617C31.9659 87.4959 31.8495 87.7189 31.7324 87.9297C31.6153 88.1171 31.5097 88.3282 31.416 88.5625C31.2052 89.031 30.994 89.4993 30.7832 89.9678C30.5723 90.4129 30.3378 90.8586 30.0801 91.3037H30.291C30.4784 91.3037 30.6426 91.3154 30.7832 91.3389C30.9472 91.3623 31.1114 91.3506 31.2754 91.3037C31.4159 91.2569 31.545 91.2451 31.6621 91.2686C31.8025 91.2919 31.9318 91.3037 32.0488 91.3037H33.2783C33.7 91.2803 34.1691 91.292 34.6846 91.3389C34.942 91.3622 35.1761 91.3622 35.3867 91.3389C35.621 91.3154 35.8556 91.3037 36.0898 91.3037H36.4062C36.3828 91.21 36.3476 91.1396 36.3008 91.0928C36.2774 91.0225 36.2422 90.9521 36.1953 90.8818C36.1016 90.6944 35.9961 90.5302 35.8789 90.3896C35.7852 90.2491 35.7031 90.0731 35.6328 89.8623L34.4033 87.4023C34.3565 87.2852 34.3095 87.1327 34.2627 86.9453L33.2783 84.9072Z" fill="black"/>
<path fill-rule="evenodd" clip-rule="evenodd" d="M49.5605 33.8916C49.7533 33.8916 49.9441 33.951 50.0908 33.9971C50.2906 34.0599 50.6187 34.1728 51.1709 34.3779C52.1846 34.7546 54.0026 35.5567 55.4424 36.2129C56.9061 36.8801 57.9607 37.4219 58.7031 37.7949C60.4512 38.6385 61.2119 39.0483 61.9189 39.4609C62.0124 39.5111 62.0681 39.5355 62.1328 39.5625C62.2081 39.5938 62.3239 39.6396 62.4824 39.7158C62.5715 39.7587 62.651 39.8137 62.7207 39.877C63.2008 39.9502 63.5693 40.3637 63.5693 40.8643C63.5692 41.4163 63.1213 41.864 62.5693 41.8643C62.1771 41.8643 61.7693 41.8643 61.5107 41.8564C61.2384 41.8481 61.094 41.8289 60.5264 41.7832C60.3806 41.7715 60.2027 41.7572 59.9561 41.7422C59.9576 42.0143 59.9603 42.3876 59.9629 42.8994C59.9724 44.7838 59.9908 48.5462 60.0049 50.5703L60.0225 51.8896C60.0259 52.0911 60.0316 52.2608 60.0352 52.4043C60.0764 52.3899 60.1175 52.3747 60.1582 52.3623C61.1713 52.0532 62.1199 52.3568 62.791 52.7051C63.3309 52.9853 63.7811 53.3416 64.0801 53.6006C64.1379 53.5359 64.205 53.4773 64.2812 53.4277C64.2909 53.4204 64.3273 53.3934 64.3955 53.3379C64.4776 53.271 64.5858 53.1794 64.7109 53.0693C64.9617 52.8487 65.2715 52.5605 65.5752 52.25C66.3345 51.4734 67.3942 50.7562 68.3096 50.3848C69.2238 50.014 70.0142 50.3008 70.6543 50.6846C70.9636 50.8701 71.2811 51.1039 71.5938 51.3379C71.9177 51.5803 72.2529 51.8352 72.6406 52.1084C73.135 52.4568 73.4791 52.8384 73.7461 53.1562C74.0286 53.4926 74.166 53.6756 74.3398 53.833C74.902 54.2498 75.2064 54.5155 75.6641 54.8174C75.9845 55.0145 76.5508 55.3444 77.2959 55.8271C77.7592 56.1274 77.8919 56.7465 77.5918 57.21C77.2915 57.6729 76.6723 57.8057 76.209 57.5059C75.4728 57.0289 74.9737 56.7422 74.5986 56.5107L74.5869 56.5029L74.5742 56.4951C74.0529 56.1523 73.549 55.7333 73.1025 55.4043L73.0674 55.3779L73.0342 55.3496C72.7036 55.058 72.4145 54.68 72.2148 54.4424C71.99 54.1748 71.7751 53.9453 71.4883 53.7432C71.0702 53.4486 70.7019 53.1677 70.3955 52.9385C70.0782 52.701 69.8362 52.5265 69.626 52.4004C69.2272 52.1612 69.1335 52.2081 69.0615 52.2373C68.4178 52.4985 67.5859 53.0544 67.0059 53.6475C66.7318 53.9277 66.4532 54.1865 66.21 54.4062C66.6654 54.5011 67.2183 54.6073 67.8965 54.7334C68.75 54.8921 69.2384 55.1262 69.6768 55.5234C70.0598 55.8706 70.3942 56.3157 70.6914 56.6943C71.0077 57.0973 71.3486 57.5178 71.8096 57.9561C72.0083 58.145 72.2918 58.3231 72.6738 58.5166C72.8615 58.6117 73.0585 58.7036 73.2705 58.8018C73.4773 58.8975 73.7024 59.0002 73.9199 59.1084C74.5316 59.4127 74.946 59.9334 75.2402 60.4355C75.4627 60.8153 75.6469 61.2384 75.8066 61.6553L75.959 62.0684L75.9629 62.0811C76.3588 63.2425 76.5235 63.7777 76.6533 64.1055C76.6902 64.194 76.7316 64.2902 76.7969 64.4434C76.8643 64.6017 76.9529 64.8109 77.0771 65.1104C77.2884 65.6202 77.0458 66.2052 76.5361 66.417C76.0263 66.6282 75.4412 66.3866 75.2295 65.877C75.1081 65.5845 75.0225 65.3812 74.957 65.2275C74.8931 65.0775 74.843 64.9616 74.7998 64.8574L74.7969 64.8496L74.7939 64.8428C74.6415 64.4579 74.4355 63.7996 74.0742 62.7393L73.9365 62.3643C73.7993 62.0066 73.6623 61.6983 73.5146 61.4463C73.3156 61.1066 73.1483 60.9587 73.0293 60.8994C72.8422 60.8064 72.6456 60.7157 72.4307 60.6162C72.2209 60.5191 71.9936 60.4137 71.7705 60.3008C71.3308 60.0781 70.842 59.7953 70.4316 59.4053C69.8627 58.8643 69.4497 58.3519 69.1182 57.9297C68.7677 57.4833 68.5594 57.2093 68.334 57.0049C68.2619 56.9396 68.2046 56.9004 68.1182 56.8613C68.0174 56.8158 67.8457 56.7577 67.5312 56.6992C66.2307 56.4575 65.2926 56.2742 64.6104 56.083C63.9238 55.8906 63.3743 55.6591 62.9316 55.2539C62.6951 55.0374 62.3121 54.7099 61.8701 54.4805C61.4187 54.2462 61.0419 54.184 60.7422 54.2754C60.4073 54.3777 59.948 54.6593 59.2705 55.0879C58.66 55.4741 57.9005 55.9576 57.1318 56.25C56.4041 56.5267 55.7746 56.7137 55.2695 56.8379C55.3314 56.9276 55.3929 57.0205 55.458 57.1133C56.3367 58.3659 57.4217 59.5054 58.3398 60.1875C58.6999 60.4549 59.2425 60.7621 59.8916 61.0996C60.4796 61.4054 61.2687 61.7921 61.8496 62.0986C62.8593 62.6314 63.6289 63.089 64.2549 63.4492C64.8912 63.8154 65.3601 64.0698 65.8291 64.252C67.0555 64.7283 67.765 65.4724 68.3408 66.2148L68.918 66.9893L68.9453 67.0352C69.4699 67.9232 69.7804 68.6477 69.9814 69.335L70.0615 69.627L70.0693 69.6621C70.1089 69.8457 70.1437 70.0201 70.2129 70.3994C70.3118 70.9426 69.9513 71.4634 69.4082 71.5625C68.8651 71.6612 68.3442 71.3009 68.2451 70.7578C68.1807 70.4049 68.1496 70.2515 68.1182 70.1045C67.9764 69.5497 67.7418 68.9384 67.2461 68.0928C66.4985 67.0862 66.0998 66.5025 65.1055 66.1162C64.4805 65.8735 63.8949 65.5492 63.2578 65.1826C62.61 64.8099 61.884 64.3789 60.916 63.8682C60.2832 63.5343 59.6821 63.2445 58.9697 62.874C58.3183 62.5353 57.6473 62.165 57.1465 61.793C56.0225 60.9578 54.7955 59.6505 53.8213 58.2617C53.0081 57.1024 52.356 56.0336 51.877 55.3174C51.3494 54.5287 51.0178 54.15 50.7393 53.9795C50.3308 53.7295 49.8716 53.4207 49.1621 53.208C48.4631 52.9985 47.4789 52.8737 46.0938 53.1172C44.995 53.3105 43.7723 53.7842 41.8164 53.6006C41.0006 53.524 40.2166 53.4388 39.5557 53.4395C39.2286 53.4398 38.9781 53.4624 38.8027 53.501C38.7124 53.5209 38.665 53.5404 38.6465 53.5488C38.4769 53.7293 38.2462 54.0286 37.9395 54.4551C37.6515 54.8554 37.249 55.4359 36.8672 55.9629C36.0687 57.0649 35.0748 58.3456 33.9365 59.3457C33.2146 59.9799 32.5254 60.2767 31.8984 60.4756C31.2145 60.6925 30.8746 60.7373 30.4004 60.9502C29.6515 61.2865 29.1904 61.5343 28.8623 61.8057C28.5667 62.0503 28.3494 62.3389 28.165 62.8193C27.2939 65.0891 26.4917 67.2639 25.3242 68.9111C24.917 69.4856 24.5572 70.0078 24.2969 70.4033C24.1661 70.602 24.0648 70.7619 23.9971 70.876C23.9682 70.9246 23.9486 70.9585 23.9375 70.9795C23.765 71.4499 23.2644 71.7267 22.7656 71.6064C22.2292 71.4766 21.899 70.9369 22.0283 70.4004L22.0596 70.293C22.0941 70.1928 22.1356 70.1126 22.1533 70.0781C22.1897 70.0071 22.2326 69.9299 22.2773 69.8545C22.3677 69.7022 22.488 69.5143 22.626 69.3047C22.9036 68.8828 23.2778 68.3398 23.6924 67.7549C24.6805 66.3607 25.3899 64.4681 26.2979 62.1025C26.5935 61.3323 27.0023 60.7481 27.5879 60.2637C28.1412 59.8061 28.8204 59.4675 29.5811 59.126C30.1814 58.8564 30.898 58.6949 31.2939 58.5693C31.7466 58.4257 32.1631 58.2417 32.6162 57.8438C33.5775 56.9991 34.4633 55.8708 35.2471 54.7891C35.6561 54.2245 35.9707 53.7679 36.3164 53.2871C36.6297 52.8516 36.9444 52.4317 37.2305 52.1357L37.3623 52.0127C37.6798 51.7459 38.059 51.6172 38.374 51.5479C38.7486 51.4656 39.1587 51.4399 39.5527 51.4395C39.8294 51.4391 40.1227 51.4525 40.4189 51.4717C40.4168 51.4468 40.4154 51.424 40.4131 51.4004L40.4111 51.3848L40.4102 51.3691C40.3578 50.5819 40.3266 49.555 40.2764 47.5537V47.5352C40.2679 46.1334 40.2676 43.6476 40.2676 42.4062V41.5254C38.057 41.5192 38.0142 41.5195 38.001 41.5195C37.7158 41.5195 37.4585 41.3995 37.2764 41.208C37.1992 41.2226 37.1277 41.2345 37.0596 41.2383C36.5083 41.2688 36.0366 40.8471 36.0059 40.2959C35.9753 39.7447 36.3971 39.2731 36.9482 39.2422C36.8682 39.2467 36.8851 39.2622 37.1191 39.1807C37.344 39.1023 37.7278 38.9492 38.3613 38.6562C38.9176 38.399 39.7073 38.0119 40.5713 37.5908C41.4275 37.1735 42.3513 36.7252 43.1543 36.3594C44.7653 35.6254 45.8107 35.2364 46.6611 34.9375C47.5031 34.6416 48.1236 34.4455 48.4805 34.332C48.6215 34.2872 48.7261 34.2531 48.8154 34.2256C48.9985 34.0211 49.2645 33.8917 49.5605 33.8916ZM54.209 42.0713C54.2123 43.0186 54.2187 44.8927 54.3037 46.9893C54.3888 49.0894 54.5533 51.3589 54.6426 52.6953C54.7341 54.0649 54.7379 54.3112 54.7656 54.668C54.7719 54.7491 54.7663 54.8284 54.7539 54.9053C55.171 54.8044 55.7351 54.6417 56.4209 54.3809C56.9334 54.1859 57.4801 53.8517 58.084 53.4707V53.4688L58.085 53.4678C58.0525 53.1377 58.0272 52.7572 58.0049 50.5908V50.5869C57.9908 48.561 57.9724 44.7935 57.9629 42.9092C57.96 42.34 57.9575 41.9422 57.9561 41.6641C57.2088 41.6437 56.2452 41.6226 54.9863 41.6064C54.7369 41.6032 54.4763 41.6016 54.207 41.5986C54.2074 41.7219 54.2083 41.8768 54.209 42.0713ZM48.2373 42.7295C48.2373 44.2778 48.2378 47.3679 48.2412 49.0195C48.2447 50.7108 48.2527 50.7575 48.2568 50.7959C48.2588 50.8139 48.2689 50.9061 48.2812 51.0186C48.8227 51.0667 49.3058 51.163 49.7363 51.292C50.7373 51.5921 51.4178 52.0498 51.7832 52.2734C52.1042 52.4699 52.3917 52.7334 52.6592 53.0332C52.6549 52.9676 52.6512 52.8992 52.6465 52.8281C52.5582 51.5073 52.3921 49.2038 52.3057 47.0703C52.2191 44.9337 52.2123 43.0277 52.209 42.0781C52.2083 41.8697 52.2074 41.7067 52.207 41.5791C50.9442 41.5691 49.5841 41.5604 48.2373 41.5537V42.7295ZM42.2676 42.4062C42.2676 43.6503 42.2679 46.1292 42.2764 47.5234C42.3266 49.5238 42.3573 50.5012 42.4062 51.2363C42.4154 51.3341 42.4228 51.4389 42.4385 51.6377C43.7393 51.6912 44.4218 51.3807 45.748 51.1475C45.9276 51.1159 46.1034 51.0894 46.2744 51.0674C46.272 51.0473 46.2697 51.0267 46.2676 51.0068C46.2492 50.8343 46.2446 50.636 46.2412 49.0234C46.2378 47.3691 46.2373 44.2768 46.2373 42.7295V41.5449C44.7769 41.539 43.4021 41.5346 42.2676 41.5312V42.4062ZM49.8115 36.0127C49.7524 36.0397 49.6897 36.0617 49.624 36.0771C49.4989 36.1065 49.4551 36.1202 49.0869 36.2373C48.7329 36.3499 48.1364 36.5388 47.3242 36.8242C46.5194 37.107 45.5308 37.4747 43.9834 38.1797C43.2072 38.5334 42.3052 38.9705 41.4473 39.3887C41.3515 39.4354 41.2557 39.4812 41.1611 39.5273C41.2084 39.5275 41.2569 39.5282 41.3057 39.5283C44.5727 39.5376 51.0996 39.5563 55.0117 39.6064C56.2559 39.6224 57.2178 39.6437 57.9717 39.6641C57.9218 39.6399 57.871 39.6148 57.8193 39.5898L57.8057 39.582C57.0523 39.2035 56.0352 38.6803 54.6133 38.0322C53.1668 37.3729 51.4112 36.601 50.4746 36.2529C50.1896 36.147 49.9738 36.0693 49.8115 36.0127Z" fill="black"/>
<path d="M71 21C74.866 21 78 24.134 78 28C78 31.866 74.866 35 71 35C67.1342 34.9998 64 31.8659 64 28C64 24.1341 67.1342 21.0002 71 21Z" fill="black"/>
<path fill-rule="evenodd" clip-rule="evenodd" d="M86.2041 12.0107C87.2128 12.113 88 12.9643 88 14V107L87.9893 107.204C87.8938 108.146 87.1457 108.894 86.2041 108.989L86 109H14C12.8954 109 12 108.105 12 107V14C12 12.8954 12.8954 12 14 12H86L86.2041 12.0107ZM14 107H86V14H14V107Z" fill="black"/>
</svg>
