<svg preserveAspectRatio="none" width="100%" height="100%" overflow="visible" style="display: block;" viewBox="0 0 99.9816 120" fill="none" xmlns="http://www.w3.org/2000/svg">
<path id="image 2 (Traced)" fill-rule="evenodd" clip-rule="evenodd" d="M6.41038 0.6875C6.40263 1.58525 5.59075 3.17425 4.63638 4.15925C3.71169 5.1135 2.55656 5.68175 1.09774 5.89975C0.467027 5.99415 0.000351044 6.53587 0.000351044 7.17361V8.52725V10.2397C0.000351044 10.677 0.307374 11.0541 0.735508 11.1427C3.36657 11.6875 4.71204 12.6225 5.76719 14.6395C7.51044 17.9712 5.51483 21.8817 1.5375 22.9277L1.49167 22.9398C0.612895 23.1709 0.000351044 23.9654 0.000351044 24.874V25.791C0.000351044 28.0033 0.049274 28.25 0.487427 28.25C1.79093 28.25 3.5144 29.092 4.669 30.2928C6.41493 32.109 6.84666 34.0455 6.00377 36.281C5.25953 38.2555 2.63435 40.2302 0.735508 40.2445C0.328605 40.2475 0.000351044 40.5783 0.000351044 40.9852V42.7578C0.000351044 45.4623 -0.0670166 45.3468 1.66474 45.6158C4.00014 45.9783 6.41626 48.8197 6.41626 51.2032C6.41626 54.5955 3.93972 57.096 0.200848 57.4795C0.0907085 57.4907 0.000351044 58.607 0.000351044 59.9603V60.8703C0.000351044 61.7735 0.63363 62.553 1.51771 62.738C2.77416 63.001 3.27006 63.2765 4.4006 64.3402C6.92419 66.7147 7.11854 69.7335 4.92109 72.4277C4.12124 73.4082 1.95614 74.5 0.811163 74.5C0.363364 74.5 0.000351044 74.863 0.000351044 75.3108V77.125V78.8694C0.000351044 79.3557 0.394603 79.75 0.880937 79.75C2.25421 79.75 4.51528 81.1567 5.47099 82.6052C6.1746 83.6717 6.2826 84.071 6.2826 85.6052C6.2826 87.7832 5.78322 88.8485 4.11963 90.2178C3.25375 90.9305 2.47689 91.3113 1.44928 91.5263C0.605059 91.7029 0.000351044 92.4473 0.000351044 93.3098V94.2785V95.7104C0.000351044 96.2976 0.423921 96.7992 1.00284 96.8975C4.43375 97.4797 6.73091 100.353 6.32564 103.554C6.01045 106.043 3.79376 108.305 1.27765 108.706C0.614186 108.811 0.119531 109.374 0.0995157 110.045L0.0578259 111.444L0.0011665 113.345C-0.00952446 113.703 0.278314 114 0.637131 114C1.68052 114 3.63015 114.894 4.55271 115.796C5.62711 116.846 6.08771 117.68 6.30906 118.974C6.41052 119.567 6.92443 120 7.52586 120H10.0594C13.5307 120 13.6342 119.985 13.6342 119.467C13.6342 115.84 17.9569 113.18 22.024 114.304C24.1097 114.88 26.466 117.685 26.466 119.592C26.466 119.949 26.9033 120 29.9362 120H32.6999C33.114 120 33.4738 119.715 33.5692 119.312C34.1464 116.875 35.2411 115.48 37.2739 114.595C41.1229 112.919 45.5956 115.117 46.3895 119.074C46.4976 119.613 46.9704 120 47.5195 120H49.991H52.4625C53.0116 120 53.4844 119.613 53.5925 119.074C54.3902 115.098 58.8412 112.911 62.7081 114.595C64.7409 115.48 65.8356 116.875 66.4128 119.312C66.5082 119.715 66.868 120 67.2821 120H70.0458C73.2246 120 73.516 119.962 73.516 119.544C73.516 118.345 74.4166 116.713 75.6514 115.675C77.7976 113.871 80.3642 113.503 82.8204 114.648C84.9275 115.63 86.3478 117.57 86.3478 119.467C86.3478 119.985 86.4505 120 89.9568 120H92.8647C93.2519 120 93.5657 119.686 93.5657 119.299C93.5657 118.251 94.804 116.13 95.8511 115.383C96.9934 114.568 98.4119 114 99.3048 114C99.6786 114 99.9816 113.697 99.9816 113.323V111.527C99.9816 108.909 99.9022 108.75 98.5977 108.75C97.2204 108.75 95.0767 107.104 94.2028 105.375C92.4058 101.82 94.7789 97.6083 98.9791 96.897C99.558 96.799 99.9816 96.2976 99.9816 95.7105V94.2705V92.9236C99.9816 92.2859 99.515 91.7442 98.8843 91.6497C98.2806 91.5595 97.4623 91.3288 97.0659 91.137C95.8549 90.5515 94.1584 88.6293 93.8205 87.4603C93.4468 86.1668 93.6267 84.0985 94.2038 83.0547C95.14 81.3615 97.5759 79.768 99.2465 79.7555C99.6534 79.7525 99.9816 79.4217 99.9816 79.0148V77.1575V75.805C99.9816 75.1001 99.4495 74.5089 98.7484 74.435C97.1632 74.268 95.5488 73.2117 94.5351 71.6785C92.1703 68.1012 94.4776 63.41 98.9917 62.618C99.5641 62.5175 99.9816 62.0204 99.9816 61.4392V60.012V59.1297C99.9816 58.2265 99.3484 57.447 98.4643 57.262C97.2078 56.999 96.7119 56.7235 95.5814 55.6598C93.0971 53.3225 92.8827 50.243 95.0213 47.6208C95.8554 46.5983 98.0042 45.5 99.1708 45.5C99.6186 45.5 99.9816 45.137 99.9816 44.6892V42.875V41.1306C99.9816 40.6443 99.5874 40.25 99.101 40.25C97.7724 40.25 95.4662 38.8425 94.5714 37.486C93.6376 36.0703 93.3625 34.1982 93.8486 32.5682C94.4752 30.467 97.3998 28.25 99.5448 28.25C99.9199 28.25 99.9816 27.8975 99.9816 25.7612V24.2896C99.9816 23.7024 99.5581 23.2008 98.9791 23.1025C95.5482 22.5203 93.2511 19.6473 93.6563 16.4458C93.9798 13.8913 96.2783 11.5753 98.7484 11.315C99.4495 11.2411 99.9816 10.6499 99.9816 9.94498V8.5925C99.9816 6.25125 99.9343 6 99.4946 6C98.4843 6 96.5064 5.18425 95.6191 4.4015C94.4976 3.41225 93.9052 2.385 93.6729 1.02625C93.5715 0.43343 93.0576 0 92.4561 0H89.9226C86.4513 0 86.3478 0.0155007 86.3478 0.533501C86.3478 4.14925 82.0133 6.8165 77.9579 5.696C75.8722 5.11975 73.516 2.315 73.516 0.408501C73.516 0.0515007 73.0787 0 70.0458 0H67.2821C66.868 0 66.5082 0.284557 66.4128 0.6875C65.652 3.9015 63.7176 5.62225 60.5187 5.931C57.2632 6.24525 54.2183 4.04475 53.5925 0.925751C53.4844 0.387384 53.0116 0 52.4625 0H49.991H47.5195C46.9704 0 46.4976 0.387384 46.3895 0.925751C45.5956 4.88325 41.1229 7.081 37.2739 5.40475C35.2411 4.51975 34.1464 3.1255 33.5692 0.6875C33.4738 0.284557 33.114 0 32.6999 0H29.9362C26.9033 0 26.466 0.0515007 26.466 0.408501C26.466 2.315 24.1097 5.11975 22.024 5.696C18.6963 6.6155 15.3068 5.1825 14.0253 2.31425C13.8101 1.83275 13.6342 1.11525 13.6342 0.7195C13.6342 0.322131 13.312 0 12.9147 0H10.0252H7.10379C6.72313 0 6.41364 0.306857 6.41038 0.6875Z" fill="var(--fill-0, #D9D9D9)"/>
</svg>
