<svg preserveAspectRatio="none" width="100%" height="100%" overflow="visible" style="display: block;" viewBox="0 0 104.405 70.6882" fill="none" xmlns="http://www.w3.org/2000/svg">
<path id="Union" d="M86.7928 0.00851056C87.4108 -0.048645 88.0203 0.18435 88.4426 0.639172L101.049 14.2166C101.35 14.5401 101.534 14.9538 101.575 15.3933L104.397 45.9017C104.437 46.3412 104.331 46.7818 104.095 47.1548L94.1928 62.814C93.8611 63.3386 93.3046 63.6794 92.6866 63.7365L17.6123 70.6797C16.9943 70.7369 16.3848 70.5039 15.9625 70.049L3.35589 56.4716C3.05557 56.1481 2.87068 55.7344 2.83003 55.2949L0.0085011 24.7865C-0.0321455 24.347 0.0737343 23.9064 0.309641 23.5334L10.2123 7.87421C10.544 7.34965 11.1005 7.00882 11.7185 6.95167L86.7928 0.00851056Z" fill="var(--fill-0, #D9D9D9)"/>
</svg>
