<svg width="108" height="74" viewBox="0 0 108 74" fill="none" xmlns="http://www.w3.org/2000/svg">
<path d="M88.3204 1.22498C88.9384 1.16782 89.548 1.40082 89.9703 1.85564L102.577 15.4331C102.877 15.7565 103.062 16.1703 103.103 16.6098L105.924 47.1181C105.965 47.5576 105.859 47.9982 105.623 48.3713L95.7204 64.0305C95.3887 64.555 94.8322 64.8959 94.2142 64.953L19.1399 71.8962C18.5219 71.9533 17.9124 71.7203 17.4901 71.2655L4.88351 57.6881C4.58319 57.3646 4.3983 56.9509 4.35765 56.5114L1.53612 26.003C1.49547 25.5635 1.60135 25.1229 1.83726 24.7499L11.7399 9.09067C12.0716 8.56612 12.6281 8.22529 13.2461 8.16813L88.3204 1.22498Z" fill="#D9D9D9"/>
<path d="M90.9386 60.2346L91.1227 62.2261L21.1197 68.7003L20.9355 66.7088L90.9386 60.2346ZM97.4811 18.6458L85.9657 6.4641L15.9626 12.9382L6.65499 27.0575L9.1963 54.536L20.9355 66.7088L21.1197 68.7003L20.8939 68.7084C20.4435 68.6991 20.0093 68.5375 19.662 68.2506L19.4958 68.0973L7.75653 55.9245C7.44121 55.5974 7.24664 55.1725 7.2048 54.7202L4.66349 27.2417C4.62688 26.8459 4.7088 26.4491 4.89742 26.1021L4.98499 25.9567L14.2926 11.8374C14.5852 11.3936 15.0405 11.0872 15.555 10.9802L15.7785 10.9467L85.7815 4.4726C86.3932 4.41603 86.9975 4.64359 87.4195 5.09L98.935 17.2717C99.2423 17.5969 99.4314 18.0162 99.4726 18.4616L102.016 45.9634L102.025 46.1303C102.028 46.5194 101.918 46.9028 101.706 47.2318L92.6198 61.3188L92.4849 61.5039C92.1478 61.9144 91.6579 62.1766 91.1227 62.2261L90.9386 60.2346L100.025 46.1476L97.4811 18.6458Z" fill="black"/>
<path d="M80.7193 34.2214L75.142 50.6486L72.8782 50.858L78.4948 35.1098L69.2996 35.9602L69.1248 34.0698L80.6071 33.0079L80.7193 34.2214Z" fill="black"/>
<path d="M64.0681 51.6728L61.9094 51.8724L60.5928 37.6363L56.3034 39.7395L56.121 37.7674L62.3218 34.699L62.4968 34.6828L64.0681 51.6728Z" fill="black"/>
<path d="M52.7783 46.1617C52.8783 47.243 52.8427 48.2153 52.6714 49.0785C52.4995 49.9339 52.2064 50.6671 51.7921 51.2782C51.3786 51.897 50.8471 52.3855 50.1977 52.7437C49.5482 53.1019 48.7878 53.3213 47.9166 53.4019C47.0531 53.4818 46.2657 53.4094 45.5545 53.1849C44.8426 52.9526 44.2224 52.5667 43.6939 52.0271C43.1668 51.5031 42.7403 50.8364 42.4144 50.0271C42.0878 49.2099 41.8745 48.2607 41.7745 47.1794L41.4064 43.2003C41.3064 42.1189 41.3424 41.1506 41.5144 40.2952C41.6856 39.432 41.9819 38.6906 42.4032 38.0711C42.8167 37.4522 43.3482 36.9637 43.9976 36.6055C44.6542 36.2388 45.4142 36.0155 46.2777 35.9356C47.149 35.8551 47.937 35.9352 48.6419 36.176C49.3538 36.4083 49.9736 36.7903 50.5014 37.3221C51.0214 37.8546 51.4447 38.5294 51.7714 39.3466C52.0973 40.1559 52.3103 41.1013 52.4103 42.1826L52.7783 46.1617ZM43.9049 46.5469L50.0518 40.859C49.9378 40.3046 49.7793 39.8211 49.5763 39.4083C49.3805 38.9871 49.1331 38.6451 48.8342 38.3825C48.5423 38.1113 48.1951 37.9198 47.7925 37.808C47.3976 37.6955 46.9474 37.6626 46.4417 37.7093C45.9283 37.7568 45.4807 37.8806 45.0991 38.0806C44.7245 38.2722 44.4151 38.5323 44.1709 38.8608C43.8794 39.2722 43.6801 39.7889 43.5728 40.4108C43.4726 41.0242 43.4592 41.7276 43.5326 42.5211L43.7959 45.3683C43.8139 45.5628 43.8319 45.7573 43.8499 45.9518C43.8679 46.1463 43.8862 46.3446 43.9049 46.5469ZM50.6499 46.8175L50.4276 44.4137C50.4168 44.297 50.3963 44.0753 50.3661 43.7486C50.3352 43.4141 50.3096 43.1379 50.2895 42.9201L44.1521 48.5836C44.2747 49.145 44.4456 49.6352 44.6648 50.0543C44.8833 50.4656 45.1494 50.798 45.4631 51.0514C45.7521 51.2915 46.0897 51.4642 46.4761 51.5697C46.8617 51.6675 47.2879 51.6947 47.7547 51.6516C48.2448 51.6062 48.6736 51.492 49.0411 51.309C49.4086 51.1259 49.7117 50.8821 49.9503 50.5776C50.2729 50.1633 50.4874 49.6414 50.5939 49.0117C50.7083 48.3813 50.7269 47.6499 50.6499 46.8175Z" fill="black"/>
<path d="M38.7815 54.0114L27.6493 55.0409L27.5058 53.4889L32.4999 46.7896C32.9467 46.1913 33.3176 45.6627 33.6125 45.2039C33.9075 44.7451 34.1392 44.3235 34.3076 43.9392C34.4768 43.5626 34.5894 43.2109 34.6455 42.884C34.7008 42.5494 34.7127 42.2109 34.681 41.8686C34.6422 41.4486 34.5358 41.0622 34.362 40.7095C34.1952 40.3483 33.9709 40.0435 33.689 39.7949C33.3993 39.5471 33.0605 39.3627 32.6728 39.2416C32.292 39.1121 31.8683 39.0689 31.4015 39.1121C30.8336 39.1646 30.3472 39.292 29.9422 39.4942C29.545 39.6957 29.224 39.9568 28.979 40.2776C28.727 40.6069 28.5508 40.992 28.4503 41.4328C28.3577 41.8729 28.3358 42.3574 28.3847 42.8864L26.2143 43.0871C26.1481 42.3714 26.2103 41.687 26.401 41.0339C26.5909 40.3729 26.9012 39.7833 27.3319 39.2648C27.7547 38.7471 28.2916 38.317 28.9425 37.9743C29.6012 37.6309 30.3662 37.419 31.2375 37.3384C32.0387 37.2643 32.7695 37.3183 33.4297 37.5005C34.097 37.6741 34.6717 37.9505 35.154 38.3296C35.6363 38.7086 36.0207 39.1752 36.3073 39.7293C36.6017 40.2827 36.7802 40.8978 36.8428 41.5746C36.8896 42.0802 36.8504 42.5899 36.7253 43.1036C36.5995 43.6095 36.415 44.117 36.1717 44.6259C35.9207 45.1355 35.6227 45.6456 35.2776 46.1561C34.9396 46.6581 34.5782 47.1623 34.1935 47.6686L30.0886 53.0382L38.6186 52.2494L38.7815 54.0114Z" fill="black"/>
<path d="M63.6079 26.7813C63.5867 26.5518 63.6385 26.3489 63.7634 26.1725C63.8884 25.9962 64.0928 25.8949 64.3767 25.8687C64.6568 25.8428 64.8763 25.9049 65.0354 26.0549C65.1979 26.2007 65.29 26.3903 65.3116 26.6237C65.3328 26.8532 65.2767 27.0526 65.1433 27.2218C65.0099 27.3911 64.8051 27.4885 64.5289 27.514C64.2488 27.5399 64.0297 27.4817 63.8714 27.3394C63.7166 27.1929 63.6288 27.0069 63.6079 26.7813Z" fill="black"/>
<path d="M56.4478 20.241L56.5892 21.7696L58.993 21.5473L59.0702 22.3816L56.6664 22.6039L56.9836 26.0346C57.0063 26.2796 57.0561 26.479 57.1331 26.6328C57.2101 26.7865 57.3074 26.905 57.4249 26.9883C57.5428 27.0754 57.6736 27.132 57.8172 27.1579C57.9647 27.1835 58.1182 27.1889 58.2777 27.1742C58.3944 27.1634 58.5144 27.1464 58.6378 27.1232C58.7608 27.0962 58.8817 27.0673 59.0005 27.0367C59.1154 27.0065 59.2225 26.977 59.3218 26.9482C59.4247 26.9151 59.5085 26.8877 59.5732 26.8661L59.7956 27.6164C59.7111 27.6791 59.6067 27.7378 59.4823 27.7924C59.3576 27.8432 59.2206 27.8892 59.0714 27.9305C58.9226 27.9756 58.7633 28.0139 58.5936 28.0453C58.4278 28.0763 58.2613 28.0995 58.094 28.115C57.814 28.1409 57.5478 28.1263 57.2956 28.0712C57.0469 28.0118 56.8249 27.9029 56.6298 27.7444C56.4351 27.5898 56.2726 27.3812 56.1424 27.1186C56.0157 26.8518 55.9344 26.5239 55.8984 26.135L55.5811 22.7043L53.9242 22.8575L53.847 22.0232L55.504 21.87L55.3626 20.3413L56.4478 20.241Z" fill="black"/>
<path d="M51.4813 26.9201C51.4694 26.7917 51.4335 26.6793 51.3736 26.5829C51.3133 26.4825 51.2189 26.3951 51.0904 26.3207C50.9619 26.2463 50.7953 26.1833 50.5904 26.1316C50.3852 26.076 50.1321 26.0327 49.8311 26.0017C49.4625 25.9613 49.1236 25.9024 48.8144 25.8251C48.5091 25.7474 48.2446 25.6444 48.0208 25.516C47.7936 25.3919 47.6126 25.2379 47.478 25.0543C47.3429 24.8667 47.2634 24.6426 47.2393 24.382C47.2155 24.1253 47.2537 23.8805 47.3538 23.6476C47.4535 23.4109 47.6045 23.1988 47.8069 23.0114C48.0092 22.824 48.2556 22.6678 48.5462 22.5429C48.8405 22.4176 49.1686 22.3382 49.5304 22.3047C49.9193 22.2688 50.2741 22.287 50.5946 22.3593C50.9151 22.4317 51.1926 22.5472 51.4269 22.706C51.6613 22.8648 51.848 23.0594 51.987 23.2897C52.1295 23.5158 52.2135 23.767 52.2391 24.0431L51.1597 24.143C51.1471 24.0068 51.0999 23.8778 51.018 23.7559C50.9357 23.6302 50.8277 23.5225 50.6939 23.4329C50.5601 23.3432 50.4008 23.2756 50.2161 23.2299C50.0353 23.1838 49.8341 23.1711 49.6124 23.1916C49.3829 23.2128 49.183 23.2568 49.0126 23.3235C48.8461 23.3899 48.7105 23.4711 48.6056 23.5671C48.4968 23.6635 48.4185 23.7708 48.3705 23.889C48.3226 24.0072 48.3042 24.1266 48.3154 24.2471C48.3269 24.3716 48.3605 24.4803 48.4162 24.5732C48.4718 24.6662 48.5616 24.7461 48.6855 24.8131C48.8055 24.8805 48.9637 24.9365 49.16 24.9811C49.3603 25.0253 49.6109 25.0629 49.9119 25.094C50.3084 25.1397 50.6653 25.2028 50.9827 25.2833C51.2997 25.3599 51.57 25.4624 51.7938 25.5907C52.0178 25.723 52.1935 25.8833 52.3207 26.0716C52.4519 26.2595 52.5295 26.4838 52.5536 26.7444C52.5795 27.0245 52.5389 27.2852 52.4318 27.5265C52.3285 27.7675 52.1717 27.9801 51.9612 28.1644C51.7507 28.3486 51.492 28.5 51.1852 28.6186C50.8785 28.7372 50.5384 28.8138 50.165 28.8483C49.7371 28.8879 49.3507 28.8667 49.0057 28.7849C48.6604 28.6991 48.3642 28.5716 48.1171 28.4022C47.8665 28.2371 47.6674 28.0358 47.5199 27.7984C47.3763 27.5606 47.2921 27.3075 47.2673 27.0391L48.3467 26.9393C48.3827 27.1596 48.4583 27.3409 48.5735 27.4832C48.6925 27.6252 48.8342 27.7357 48.9984 27.8146C49.1587 27.894 49.334 27.9444 49.5243 27.9661C49.7146 27.9877 49.9012 27.9901 50.084 27.9732C50.3718 27.9465 50.6197 27.8903 50.8275 27.8044C51.0349 27.7146 51.1934 27.6038 51.3028 27.4721C51.3699 27.3913 51.4187 27.3044 51.4494 27.2114C51.48 27.1183 51.4906 27.0212 51.4813 26.9201Z" fill="black"/>
<path d="M43.0644 29.505C42.621 29.546 42.2055 29.5079 41.8181 29.3908C41.4346 29.2733 41.098 29.0906 40.8083 28.8428C40.5186 28.595 40.2826 28.2912 40.1003 27.9314C39.9179 27.5717 39.8064 27.1721 39.7658 26.7325L39.7431 26.4875C39.696 25.978 39.7356 25.5153 39.8619 25.0996C39.9878 24.6799 40.174 24.3175 40.4204 24.0123C40.6632 23.7113 40.949 23.4711 41.2776 23.2916C41.6101 23.1118 41.9572 23.0051 42.3189 22.9717C42.774 22.9296 43.1782 22.9726 43.5313 23.1008C43.888 23.2247 44.1919 23.4144 44.443 23.6697C44.6945 23.9288 44.8922 24.2421 45.036 24.6093C45.1837 24.9761 45.2779 25.3793 45.3185 25.8189L45.3633 26.3031L40.8532 26.7202L40.857 26.7611C40.9127 27.0658 40.9979 27.3306 41.1129 27.5553C41.2317 27.7797 41.383 27.9737 41.5668 28.1371C41.7556 28.3119 41.9756 28.4426 42.2268 28.5292C42.4781 28.6158 42.7495 28.6456 43.0413 28.6186C43.4263 28.583 43.7614 28.4735 44.0465 28.2903C44.3317 28.107 44.5615 27.8778 44.7362 27.6027L45.4429 28.0552C45.2624 28.3936 44.9736 28.7067 44.5765 28.9944C44.183 29.278 43.679 29.4482 43.0644 29.505ZM42.401 23.8585C42.1831 23.8787 41.9808 23.9386 41.7938 24.0382C41.6066 24.134 41.4421 24.2649 41.3006 24.431C41.1594 24.601 41.0448 24.8038 40.9567 25.0395C40.8722 25.2709 40.822 25.5345 40.8062 25.8302L44.2019 25.5161L44.197 25.4636C44.179 25.2691 44.1229 25.0644 44.0284 24.8496C43.9337 24.6308 43.8126 24.4459 43.6653 24.2947C43.5179 24.1436 43.3384 24.0268 43.1268 23.9444C42.9191 23.8616 42.6771 23.833 42.401 23.8585Z" fill="black"/>
</svg>
