<svg preserveAspectRatio="none" width="100%" height="100%" overflow="visible" style="display: block;" viewBox="0 0 25.4473 7.99219" fill="none" xmlns="http://www.w3.org/2000/svg">
<g id="est.">
<path id="Vector" d="M23.7363 7.17188C23.7363 6.94141 23.8066 6.74414 23.9473 6.58008C24.0879 6.41602 24.3008 6.33398 24.5859 6.33398C24.8672 6.33398 25.0801 6.41602 25.2246 6.58008C25.373 6.74023 25.4473 6.9375 25.4473 7.17188C25.4473 7.40234 25.373 7.5957 25.2246 7.75195C25.0762 7.9082 24.8633 7.98633 24.5859 7.98633C24.3047 7.98633 24.0918 7.9082 23.9473 7.75195C23.8066 7.5918 23.7363 7.39844 23.7363 7.17188Z" fill="var(--fill-0, black)"/>
<path id="Vector_2" d="M17.209 0V1.53516H19.623V2.37305H17.209V5.81836C17.209 6.06445 17.2402 6.26758 17.3027 6.42773C17.3652 6.58789 17.4512 6.71484 17.5605 6.80859C17.6699 6.90625 17.7949 6.97461 17.9355 7.01367C18.0801 7.05273 18.2324 7.07227 18.3926 7.07227C18.5098 7.07227 18.6309 7.06641 18.7559 7.05469C18.8809 7.03906 19.0039 7.02148 19.125 7.00195C19.2422 6.98242 19.3516 6.96289 19.4531 6.94336C19.5586 6.91992 19.6445 6.90039 19.7109 6.88477L19.8633 7.65234C19.7734 7.70703 19.6641 7.75586 19.5352 7.79883C19.4062 7.83789 19.2656 7.87109 19.1133 7.89844C18.9609 7.92969 18.7988 7.95312 18.627 7.96875C18.459 7.98438 18.291 7.99219 18.123 7.99219C17.8418 7.99219 17.5781 7.95312 17.332 7.875C17.0898 7.79297 16.8789 7.66406 16.6992 7.48828C16.5195 7.31641 16.377 7.09375 16.2715 6.82031C16.1699 6.54297 16.1191 6.20898 16.1191 5.81836V2.37305H14.4551V1.53516H16.1191V0H17.209Z" fill="var(--fill-0, black)"/>
<path id="Vector_3" d="M11.6484 6.19336C11.6484 6.06445 11.623 5.94922 11.5723 5.84766C11.5215 5.74219 11.4355 5.64648 11.3145 5.56055C11.1934 5.47461 11.0332 5.39648 10.834 5.32617C10.6348 5.25195 10.3867 5.18555 10.0898 5.12695C9.72656 5.05273 9.39453 4.96289 9.09375 4.85742C8.79688 4.75195 8.54297 4.625 8.33203 4.47656C8.11719 4.33203 7.95117 4.16211 7.83398 3.9668C7.7168 3.76758 7.6582 3.53711 7.6582 3.27539C7.6582 3.01758 7.71875 2.77734 7.83984 2.55469C7.96094 2.32812 8.13086 2.13086 8.34961 1.96289C8.56836 1.79492 8.82812 1.66211 9.12891 1.56445C9.43359 1.4668 9.76758 1.41797 10.1309 1.41797C10.5215 1.41797 10.873 1.46875 11.1855 1.57031C11.498 1.67188 11.7637 1.8125 11.9824 1.99219C12.2012 2.17188 12.3691 2.38281 12.4863 2.625C12.6074 2.86328 12.668 3.12109 12.668 3.39844H11.584C11.584 3.26172 11.5488 3.12891 11.4785 3C11.4082 2.86719 11.3105 2.75 11.1855 2.64844C11.0605 2.54688 10.9082 2.46484 10.7285 2.40234C10.5527 2.33984 10.3535 2.30859 10.1309 2.30859C9.90039 2.30859 9.69727 2.33398 9.52148 2.38477C9.34961 2.43555 9.20703 2.50391 9.09375 2.58984C8.97656 2.67578 8.88867 2.77539 8.83008 2.88867C8.77148 3.00195 8.74219 3.11914 8.74219 3.24023C8.74219 3.36523 8.76562 3.47656 8.8125 3.57422C8.85938 3.67188 8.94141 3.75977 9.05859 3.83789C9.17188 3.91602 9.32422 3.98633 9.51562 4.04883C9.71094 4.11133 9.95703 4.17188 10.2539 4.23047C10.6445 4.3125 10.9941 4.4082 11.3027 4.51758C11.6113 4.62305 11.8711 4.75 12.082 4.89844C12.293 5.05078 12.4531 5.22656 12.5625 5.42578C12.6758 5.625 12.7324 5.85547 12.7324 6.11719C12.7324 6.39844 12.668 6.6543 12.5391 6.88477C12.4141 7.11523 12.2383 7.3125 12.0117 7.47656C11.7852 7.64062 11.5137 7.76758 11.1973 7.85742C10.8809 7.94727 10.5352 7.99219 10.1602 7.99219C9.73047 7.99219 9.34766 7.93555 9.01172 7.82227C8.67578 7.70508 8.39258 7.55078 8.16211 7.35938C7.92773 7.17188 7.74805 6.95312 7.62305 6.70312C7.50195 6.45312 7.44141 6.19336 7.44141 5.92383H8.52539C8.54102 6.14648 8.59961 6.33398 8.70117 6.48633C8.80664 6.63867 8.9375 6.76172 9.09375 6.85547C9.24609 6.94922 9.41602 7.01562 9.60352 7.05469C9.79102 7.09375 9.97656 7.11328 10.1602 7.11328C10.4492 7.11328 10.7012 7.08008 10.916 7.01367C11.1309 6.94336 11.2988 6.84766 11.4199 6.72656C11.4941 6.65234 11.5508 6.57031 11.5898 6.48047C11.6289 6.39062 11.6484 6.29492 11.6484 6.19336Z" fill="var(--fill-0, black)"/>
<path id="Vector_4" d="M3.0293 7.99219C2.58398 7.99219 2.17383 7.91602 1.79883 7.76367C1.42773 7.61133 1.10938 7.39844 0.84375 7.125C0.578125 6.85156 0.371094 6.52734 0.222656 6.15234C0.0742188 5.77734 0 5.36914 0 4.92773V4.68164C0 4.16992 0.0820312 3.71289 0.246094 3.31055C0.410156 2.9043 0.628906 2.56055 0.902344 2.2793C1.17188 2.00195 1.47852 1.78906 1.82227 1.64062C2.16992 1.49219 2.52539 1.41797 2.88867 1.41797C3.3457 1.41797 3.74414 1.49805 4.08398 1.6582C4.42773 1.81445 4.71289 2.03125 4.93945 2.30859C5.16602 2.58984 5.33398 2.91992 5.44336 3.29883C5.55664 3.67773 5.61328 4.08789 5.61328 4.5293V5.01562H1.08398V5.05664C1.11133 5.36523 1.17188 5.63672 1.26562 5.87109C1.36328 6.10547 1.49609 6.3125 1.66406 6.49219C1.83594 6.68359 2.04297 6.83398 2.28516 6.94336C2.52734 7.05273 2.79492 7.10742 3.08789 7.10742C3.47461 7.10742 3.81836 7.0293 4.11914 6.87305C4.41992 6.7168 4.66992 6.50977 4.86914 6.25195L5.53125 6.76758C5.32031 7.08789 5.00391 7.37305 4.58203 7.62305C4.16406 7.86914 3.64648 7.99219 3.0293 7.99219ZM2.88867 2.30859C2.66992 2.30859 2.46289 2.34961 2.26758 2.43164C2.07227 2.50977 1.89648 2.625 1.74023 2.77734C1.58398 2.93359 1.45117 3.125 1.3418 3.35156C1.23633 3.57422 1.16211 3.83203 1.11914 4.125H4.5293V4.07227C4.5293 3.87695 4.49219 3.66797 4.41797 3.44531C4.34375 3.21875 4.24023 3.02344 4.10742 2.85938C3.97461 2.69531 3.80664 2.5625 3.60352 2.46094C3.4043 2.35938 3.16602 2.30859 2.88867 2.30859Z" fill="var(--fill-0, black)"/>
</g>
</svg>
