<svg preserveAspectRatio="none" width="100%" height="100%" overflow="visible" style="display: block;" viewBox="0 0 55.0898 17.543" fill="none" xmlns="http://www.w3.org/2000/svg">
<g id="2017">
<path id="Vector" d="M55.0898 1.46484L48.0234 17.3086H45.75L52.793 2.14453H43.5586V0.246094H55.0898V1.46484Z" fill="var(--fill-0, black)"/>
<path id="Vector_2" d="M36.9023 17.3086H34.7344V3.01172L30.2695 4.71094V2.73047L36.7266 0.246094H36.9023V17.3086Z" fill="var(--fill-0, black)"/>
<path id="Vector_3" d="M26.168 10.7812C26.168 11.8672 26.043 12.832 25.793 13.6758C25.543 14.5117 25.1836 15.2148 24.7148 15.7852C24.2461 16.3633 23.6719 16.8008 22.9922 17.0977C22.3125 17.3945 21.5352 17.543 20.6602 17.543C19.793 17.543 19.0156 17.3984 18.3281 17.1094C17.6406 16.8125 17.0586 16.3711 16.582 15.7852C16.1055 15.2148 15.7422 14.5117 15.4922 13.6758C15.2422 12.832 15.1172 11.8672 15.1172 10.7812V6.78516C15.1172 5.69922 15.2422 4.73828 15.4922 3.90234C15.7422 3.05859 16.1055 2.34766 16.582 1.76953C17.0508 1.19141 17.625 0.753906 18.3047 0.457031C18.9922 0.152344 19.7695 0 20.6367 0C21.5117 0 22.2891 0.152344 22.9688 0.457031C23.6562 0.753906 24.2383 1.19141 24.7148 1.76953C25.1836 2.34766 25.543 3.05859 25.793 3.90234C26.043 4.73828 26.168 5.69922 26.168 6.78516V10.7812ZM17.2969 10.3477L23.9414 5.25C23.8789 4.6875 23.7656 4.19141 23.6016 3.76172C23.4453 3.32422 23.2305 2.96094 22.957 2.67188C22.6914 2.375 22.3633 2.15234 21.9727 2.00391C21.5898 1.85547 21.1445 1.78125 20.6367 1.78125C20.1211 1.78125 19.6641 1.86328 19.2656 2.02734C18.875 2.18359 18.543 2.41406 18.2695 2.71875C17.9414 3.10156 17.6953 3.59766 17.5312 4.20703C17.375 4.80859 17.2969 5.50781 17.2969 6.30469V9.16406C17.2969 9.35938 17.2969 9.55469 17.2969 9.75C17.2969 9.94531 17.2969 10.1445 17.2969 10.3477ZM23.9883 11.2383V8.82422C23.9883 8.70703 23.9883 8.48438 23.9883 8.15625C23.9883 7.82031 23.9883 7.54297 23.9883 7.32422L17.3555 12.3984C17.4258 12.9688 17.5508 13.4727 17.7305 13.9102C17.9102 14.3398 18.1445 14.6953 18.4336 14.9766C18.6992 15.2422 19.0195 15.4453 19.3945 15.5859C19.7695 15.7188 20.1914 15.7852 20.6602 15.7852C21.1523 15.7852 21.5898 15.7109 21.9727 15.5625C22.3555 15.4141 22.6797 15.1992 22.9453 14.918C23.3047 14.5352 23.5664 14.0352 23.7305 13.418C23.9023 12.8008 23.9883 12.0742 23.9883 11.2383Z" fill="var(--fill-0, black)"/>
<path id="Vector_4" d="M11.5078 17.3086H0.328125V15.75L5.91797 9.53906C6.41797 8.98438 6.83594 8.49219 7.17188 8.0625C7.50781 7.63281 7.77734 7.23438 7.98047 6.86719C8.18359 6.50781 8.32812 6.16797 8.41406 5.84766C8.5 5.51953 8.54297 5.18359 8.54297 4.83984C8.54297 4.41797 8.47266 4.02344 8.33203 3.65625C8.19922 3.28125 8.00391 2.95703 7.74609 2.68359C7.48047 2.41016 7.16016 2.19531 6.78516 2.03906C6.41797 1.875 6 1.79297 5.53125 1.79297C4.96094 1.79297 4.46484 1.875 4.04297 2.03906C3.62891 2.20312 3.28516 2.43359 3.01172 2.73047C2.73047 3.03516 2.51953 3.40234 2.37891 3.83203C2.24609 4.26172 2.17969 4.74219 2.17969 5.27344H0C0 4.55469 0.125 3.87891 0.375 3.24609C0.625 2.60547 0.988281 2.04688 1.46484 1.57031C1.93359 1.09375 2.50781 0.714844 3.1875 0.433594C3.875 0.152344 4.65625 0.0117188 5.53125 0.0117188C6.33594 0.0117188 7.05859 0.132812 7.69922 0.375C8.34766 0.609375 8.89453 0.9375 9.33984 1.35938C9.78516 1.78125 10.125 2.28125 10.3594 2.85938C10.6016 3.4375 10.7227 4.06641 10.7227 4.74609C10.7227 5.25391 10.6367 5.75781 10.4648 6.25781C10.293 6.75 10.0625 7.23828 9.77344 7.72266C9.47656 8.20703 9.13281 8.6875 8.74219 9.16406C8.35938 9.63281 7.95312 10.1016 7.52344 10.5703L2.94141 15.5391H11.5078V17.3086Z" fill="var(--fill-0, black)"/>
</g>
</svg>
