<svg preserveAspectRatio="none" width="100%" height="100%" overflow="visible" style="display: block;" viewBox="0 0 97.3698 64.2443" fill="none" xmlns="http://www.w3.org/2000/svg">
<g id="Vector">
<path d="M86.2836 55.7705L86.4678 57.7621L16.4648 64.2362L16.2806 62.2447L86.2836 55.7705ZM92.8262 14.1817L81.3107 2.00002L11.3077 8.47416L2.00003 22.5935L4.54133 50.0719L16.2806 62.2447L16.4648 64.2362L16.239 64.2443C15.7886 64.235 15.3543 64.0734 15.007 63.7865L14.8408 63.6332L3.10156 51.4604C2.78624 51.1334 2.59167 50.7084 2.54983 50.2561L0.00852382 22.7776C-0.0280833 22.3818 0.0538339 21.985 0.242456 21.638L0.330024 21.4926L9.63768 7.37327C9.93025 6.92948 10.3856 6.62312 10.9 6.51607L11.1235 6.48265L81.1265 0.00851376C81.7382 -0.0480601 82.3425 0.179503 82.7645 0.625914L94.28 12.8076C94.5874 13.1328 94.7764 13.5521 94.8177 13.9976L97.3612 41.4993L97.3697 41.6662C97.373 42.0553 97.263 42.4387 97.0508 42.7677L87.9648 56.8547L87.8299 57.0398C87.4928 57.4504 87.003 57.7126 86.4678 57.7621L86.2836 55.7705L95.3697 41.6835L92.8262 14.1817Z" fill="var(--fill-0, black)"/>
<path d="M76.0643 29.7574L70.487 46.1845L68.2232 46.3939L73.8398 30.6457L64.6447 31.4961L64.4698 29.6057L75.9521 28.5438L76.0643 29.7574Z" fill="var(--fill-0, black)"/>
<path d="M59.4132 47.2087L57.2544 47.4083L55.9378 33.1722L51.6484 35.2754L51.466 33.3033L57.6668 30.2349L57.8419 30.2187L59.4132 47.2087Z" fill="var(--fill-0, black)"/>
<path d="M48.1233 41.6976C48.2233 42.7789 48.1877 43.7512 48.0165 44.6144C47.8445 45.4698 47.5514 46.203 47.1372 46.8141C46.7237 47.4329 46.1922 47.9214 45.5427 48.2796C44.8932 48.6378 44.1329 48.8572 43.2616 48.9378C42.3981 49.0177 41.6107 48.9453 40.8995 48.7208C40.1876 48.4885 39.5674 48.1026 39.0389 47.563C38.5119 47.039 38.0854 46.3723 37.7594 45.563C37.4328 44.7458 37.2195 43.7966 37.1195 42.7153L36.7515 38.7362C36.6515 37.6549 36.6874 36.6865 36.8594 35.8311C37.0306 34.9679 37.3269 34.2265 37.7482 33.607C38.1617 32.9881 38.6932 32.4996 39.3427 32.1414C39.9992 31.7747 40.7592 31.5514 41.6227 31.4716C42.494 31.391 43.2821 31.4711 43.9869 31.7119C44.6988 31.9442 45.3187 32.3262 45.8465 32.858C46.3665 33.3905 46.7898 34.0653 47.1164 34.8825C47.4423 35.6918 47.6553 36.6372 47.7553 37.7185L48.1233 41.6976ZM39.25 42.0828L45.3968 36.3949C45.2828 35.8406 45.1243 35.357 44.9214 34.9443C44.7255 34.523 44.4781 34.181 44.1792 33.9184C43.8874 33.6472 43.5401 33.4558 43.1375 33.3439C42.7427 33.2314 42.2924 33.1985 41.7867 33.2452C41.2733 33.2927 40.8258 33.4165 40.4441 33.6165C40.0696 33.8081 39.7602 34.0682 39.5159 34.3967C39.2245 34.8082 39.0251 35.3248 38.9179 35.9467C38.8177 36.5601 38.8043 37.2635 38.8777 38.057L39.141 40.9042C39.159 41.0987 39.177 41.2932 39.1949 41.4877C39.2129 41.6822 39.2313 41.8805 39.25 42.0828ZM45.995 42.3534L45.7727 39.9496C45.7619 39.8329 45.7414 39.6112 45.7111 39.2845C45.6802 38.95 45.6547 38.6738 45.6345 38.456L39.4972 44.1195C39.6197 44.6809 39.7906 45.1711 40.0098 45.5902C40.2283 46.0016 40.4944 46.3339 40.8081 46.5874C41.0971 46.8274 41.4348 47.0002 41.8211 47.1057C42.2068 47.2034 42.633 47.2306 43.0997 47.1875C43.5898 47.1421 44.0186 47.028 44.3861 46.8449C44.7536 46.6618 45.0567 46.418 45.2953 46.1135C45.6179 45.6992 45.8325 45.1773 45.939 44.5476C46.0533 43.9172 46.072 43.1858 45.995 42.3534Z" fill="var(--fill-0, black)"/>
<path d="M34.1266 49.5473L22.9944 50.5768L22.8508 49.0249L27.845 42.3255C28.2918 41.7272 28.6626 41.1986 28.9576 40.7398C29.2525 40.281 29.4842 39.8594 29.6526 39.4751C29.8218 39.0985 29.9344 38.7468 29.9905 38.42C30.0459 38.0853 30.0577 37.7468 30.0261 37.4046C29.9872 36.9845 29.8809 36.5981 29.707 36.2454C29.5402 35.8842 29.3159 35.5794 29.034 35.3308C28.7443 35.083 28.4056 34.8986 28.0178 34.7775C27.637 34.648 27.2133 34.6048 26.7465 34.648C26.1787 34.7005 25.6922 34.8279 25.2872 35.0301C24.8901 35.2316 24.569 35.4927 24.3241 35.8135C24.0721 36.1428 23.8958 36.5279 23.7954 36.9687C23.7027 37.4088 23.6808 37.8933 23.7297 38.4223L21.5593 38.623C21.4931 37.9073 21.5554 37.2229 21.746 36.5698C21.936 35.9088 22.2463 35.3192 22.6769 34.8007C23.0998 34.283 23.6367 33.8529 24.2876 33.5102C24.9462 33.1668 25.7112 32.9549 26.5825 32.8743C27.3838 32.8002 28.1145 32.8542 28.7747 33.0364C29.442 33.21 30.0168 33.4864 30.499 33.8655C30.9813 34.2446 31.3657 34.7111 31.6524 35.2652C31.9468 35.8186 32.1253 36.4337 32.1878 37.1105C32.2346 37.6161 32.1954 38.1258 32.0703 38.6395C31.9445 39.1454 31.76 39.6529 31.5168 40.1618C31.2658 40.6715 30.9677 41.1815 30.6226 41.6921C30.2846 42.1941 29.9233 42.6982 29.5386 43.2046L25.4336 48.5742L33.9636 47.7853L34.1266 49.5473Z" fill="var(--fill-0, black)"/>
<path d="M58.9529 22.3172C58.9317 22.0877 58.9835 21.8848 59.1085 21.7085C59.2334 21.5321 59.4378 21.4309 59.7218 21.4046C60.0018 21.3787 60.2214 21.4408 60.3804 21.5908C60.5429 21.7366 60.635 21.9262 60.6566 22.1596C60.6778 22.3891 60.6217 22.5885 60.4883 22.7577C60.3549 22.927 60.1501 23.0244 59.8739 23.0499C59.5939 23.0758 59.3747 23.0176 59.2164 22.8754C59.0616 22.7288 58.9738 22.5428 58.9529 22.3172Z" fill="var(--fill-0, black)"/>
<path d="M51.7929 15.7769L51.9342 17.3055L54.338 17.0832L54.4152 17.9175L52.0114 18.1398L52.3287 21.5705C52.3513 21.8156 52.4012 22.0149 52.4781 22.1687C52.5551 22.3224 52.6524 22.4409 52.7699 22.5242C52.8878 22.6113 53.0186 22.6679 53.1622 22.6938C53.3097 22.7194 53.4632 22.7248 53.6227 22.7101C53.7394 22.6993 53.8594 22.6823 53.9828 22.6591C54.1059 22.6321 54.2268 22.6032 54.3455 22.5726C54.4604 22.5424 54.5675 22.5129 54.6669 22.4841C54.7697 22.451 54.8535 22.4237 54.9182 22.402L55.1406 23.1523C55.0562 23.215 54.9517 23.2737 54.8273 23.3283C54.7026 23.3791 54.5656 23.4251 54.4164 23.4664C54.2676 23.5115 54.1084 23.5498 53.9386 23.5812C53.7728 23.6122 53.6063 23.6355 53.439 23.6509C53.159 23.6768 52.8928 23.6622 52.6406 23.6071C52.3919 23.5477 52.17 23.4388 51.9749 23.2803C51.7801 23.1257 51.6176 22.9171 51.4874 22.6545C51.3608 22.3877 51.2794 22.0598 51.2435 21.6709L50.9262 18.2402L49.2692 18.3934L49.192 17.5591L50.849 17.4059L50.7076 15.8772L51.7929 15.7769Z" fill="var(--fill-0, black)"/>
<path d="M46.8263 22.456C46.8144 22.3276 46.7785 22.2152 46.7186 22.1188C46.6583 22.0184 46.5639 21.931 46.4354 21.8566C46.307 21.7822 46.1403 21.7192 45.9354 21.6675C45.7302 21.6119 45.4771 21.5687 45.1761 21.5377C44.8075 21.4972 44.4686 21.4383 44.1594 21.361C43.8541 21.2833 43.5896 21.1803 43.3659 21.0519C43.1386 20.9278 42.9577 20.7739 42.823 20.5902C42.688 20.4026 42.6084 20.1785 42.5843 19.9179C42.5605 19.6612 42.5987 19.4164 42.6988 19.1835C42.7985 18.9468 42.9495 18.7347 43.1519 18.5473C43.3542 18.3599 43.6007 18.2037 43.8912 18.0788C44.1856 17.9535 44.5137 17.8741 44.8754 17.8407C45.2644 17.8047 45.6191 17.8229 45.9396 17.8952C46.2601 17.9676 46.5376 18.0831 46.772 18.2419C47.0063 18.4007 47.193 18.5953 47.332 18.8256C47.4745 19.0518 47.5586 19.3029 47.5841 19.5791L46.5047 19.6789C46.4921 19.5427 46.4449 19.4137 46.363 19.2919C46.2808 19.1661 46.1727 19.0584 46.0389 18.9688C45.9051 18.8791 45.7458 18.8115 45.5612 18.7658C45.3804 18.7198 45.1791 18.707 44.9574 18.7275C44.7279 18.7487 44.528 18.7927 44.3576 18.8595C44.1912 18.9259 44.0555 19.007 43.9506 19.1031C43.8418 19.1994 43.7635 19.3067 43.7156 19.4249C43.6677 19.5431 43.6493 19.6625 43.6604 19.7831C43.6719 19.9075 43.7055 20.0162 43.7612 20.1091C43.8169 20.2021 43.9066 20.282 44.0305 20.349C44.1505 20.4164 44.3087 20.4724 44.505 20.517C44.7053 20.5612 44.9559 20.5989 45.2569 20.6299C45.6534 20.6756 46.0104 20.7387 46.3277 20.8192C46.6447 20.8958 46.9151 20.9983 47.1388 21.1266C47.3629 21.2589 47.5385 21.4192 47.6658 21.6075C47.7969 21.7954 47.8745 22.0197 47.8987 22.2803C47.9246 22.5604 47.8839 22.8211 47.7768 23.0624C47.6736 23.3034 47.5167 23.5161 47.3062 23.7003C47.0957 23.8845 46.8371 24.0359 46.5303 24.1545C46.2235 24.2731 45.8834 24.3497 45.51 24.3842C45.0821 24.4238 44.6957 24.4027 44.3508 24.3208C44.0055 24.235 43.7093 24.1075 43.4622 23.9381C43.2115 23.773 43.0124 23.5717 42.8649 23.3343C42.7213 23.0965 42.6371 22.8434 42.6123 22.575L43.6917 22.4752C43.7278 22.6955 43.8034 22.8768 43.9185 23.0191C44.0376 23.1611 44.1792 23.2716 44.3434 23.3506C44.5038 23.4299 44.6791 23.4804 44.8694 23.502C45.0597 23.5236 45.2462 23.526 45.429 23.5091C45.7169 23.4824 45.9647 23.4262 46.1725 23.3403C46.38 23.2505 46.5384 23.1397 46.6478 23.008C46.7149 22.9272 46.7638 22.8403 46.7944 22.7473C46.825 22.6542 46.8356 22.5571 46.8263 22.456Z" fill="var(--fill-0, black)"/>
<path d="M38.4094 25.0409C37.966 25.0819 37.5506 25.0439 37.1631 24.9267C36.7796 24.8092 36.443 24.6265 36.1533 24.3787C35.8636 24.1309 35.6276 23.8271 35.4453 23.4674C35.2629 23.1076 35.1514 22.708 35.1108 22.2685L35.0881 22.0234C35.041 21.5139 35.0806 21.0512 35.2069 20.6355C35.3329 20.2159 35.519 19.8534 35.7654 19.5482C36.0083 19.2472 36.294 19.007 36.6226 18.8275C36.9551 18.6477 37.3022 18.541 37.664 18.5076C38.1191 18.4655 38.5232 18.5085 38.8763 18.6367C39.233 18.7607 39.5369 18.9503 39.7881 19.2056C40.0396 19.4648 40.2372 19.778 40.381 20.1452C40.5287 20.5121 40.6229 20.9153 40.6635 21.3548L40.7083 21.839L36.1983 22.2562L36.202 22.297C36.2577 22.6018 36.343 22.8665 36.4579 23.0913C36.5767 23.3156 36.7281 23.5096 36.9119 23.673C37.1006 23.8478 37.3206 23.9785 37.5719 24.0651C37.8231 24.1517 38.0946 24.1815 38.3863 24.1545C38.7714 24.1189 39.1065 24.0095 39.3916 23.8262C39.6767 23.6429 39.9066 23.4137 40.0812 23.1386L40.788 23.5911C40.6074 23.9295 40.3186 24.2426 39.9216 24.5304C39.528 24.8139 39.024 24.9841 38.4094 25.0409ZM37.746 19.3944C37.5282 19.4146 37.3258 19.4745 37.1389 19.5742C36.9516 19.6699 36.7872 19.8009 36.6456 19.9669C36.5044 20.1369 36.3898 20.3397 36.3017 20.5754C36.2172 20.8068 36.1671 21.0704 36.1513 21.3661L39.5469 21.052L39.5421 20.9995C39.5241 20.805 39.4679 20.6004 39.3735 20.3855C39.2787 20.1667 39.1576 19.9818 39.0103 19.8306C38.8629 19.6795 38.6834 19.5627 38.4718 19.4803C38.2641 19.3975 38.0222 19.3689 37.746 19.3944Z" fill="var(--fill-0, black)"/>
</g>
</svg>
