<svg width="108" height="74" viewBox="0 0 108 74" fill="none" xmlns="http://www.w3.org/2000/svg">
<path d="M88.3205 1.22494C88.9385 1.16779 89.548 1.40078 89.9703 1.8556L102.577 15.4331C102.877 15.7565 103.062 16.1702 103.103 16.6097L105.924 47.1181C105.965 47.5576 105.859 47.9982 105.623 48.3712L95.7204 64.0304C95.3887 64.555 94.8323 64.8958 94.2143 64.953L19.1399 71.8961C18.5219 71.9533 17.9124 71.7203 17.4901 71.2655L4.88354 57.688C4.58322 57.3646 4.39833 56.9509 4.35768 56.5114L1.53615 26.003C1.4955 25.5635 1.60138 25.1229 1.83729 24.7498L11.7399 9.09064C12.0717 8.56608 12.6281 8.22525 13.2461 8.1681L88.3205 1.22494Z" fill="#FFF200"/>
<path d="M90.9386 60.2347L91.1228 62.2262L21.1198 68.7003L20.9356 66.7088L90.9386 60.2347ZM97.4812 18.6459L85.9657 6.46413L15.9627 12.9383L6.65505 27.0576L9.19636 54.536L20.9356 66.7088L21.1198 68.7003L20.894 68.7084C20.4436 68.6991 20.0093 68.5375 19.662 68.2506L19.4958 68.0973L7.75659 55.9245C7.44127 55.5975 7.2467 55.1725 7.20486 54.7202L4.66355 27.2417C4.62695 26.8459 4.70886 26.4491 4.89749 26.1021L4.98505 25.9567L14.2927 11.8374C14.5853 11.3936 15.0406 11.0872 15.5551 10.9802L15.7785 10.9468L85.7815 4.47263C86.3933 4.41605 86.9975 4.64361 87.4196 5.09003L98.9351 17.2718C99.2424 17.5969 99.4315 18.0162 99.4727 18.4617L102.016 45.9634L102.025 46.1304C102.028 46.5194 101.918 46.9028 101.706 47.2318L92.6198 61.3188L92.4849 61.5039C92.1479 61.9145 91.658 62.1767 91.1228 62.2262L90.9386 60.2347L100.025 46.1476L97.4812 18.6459Z" fill="black"/>
<path d="M80.7194 34.2215L75.142 50.6486L72.8783 50.858L78.4948 35.1098L69.2997 35.9602L69.1249 34.0698L80.6071 33.0079L80.7194 34.2215Z" fill="black"/>
<path d="M64.0682 51.6728L61.9094 51.8724L60.5928 37.6363L56.3034 39.7395L56.1211 37.7674L62.3219 34.699L62.4969 34.6828L64.0682 51.6728Z" fill="black"/>
<path d="M52.7783 46.1617C52.8783 47.243 52.8427 48.2153 52.6715 49.0785C52.4995 49.9339 52.2064 50.6671 51.7922 51.2782C51.3787 51.897 50.8472 52.3855 50.1977 52.7437C49.5483 53.102 48.7879 53.3213 47.9166 53.4019C47.0531 53.4818 46.2658 53.4095 45.5546 53.1849C44.8426 52.9526 44.2224 52.5667 43.6939 52.0271C43.1669 51.5031 42.7404 50.8365 42.4145 50.0271C42.0878 49.21 41.8745 48.2607 41.7745 47.1794L41.4065 43.2003C41.3065 42.119 41.3425 41.1506 41.5144 40.2952C41.6857 39.432 41.9819 38.6906 42.4032 38.0711C42.8168 37.4522 43.3482 36.9637 43.9977 36.6055C44.6542 36.2388 45.4142 36.0155 46.2777 35.9357C47.149 35.8551 47.9371 35.9352 48.6419 36.176C49.3539 36.4083 49.9737 36.7903 50.5015 37.3221C51.0215 37.8546 51.4448 38.5294 51.7714 39.3466C52.0974 40.1559 52.3103 41.1013 52.4103 42.1826L52.7783 46.1617ZM43.905 46.5469L50.0519 40.859C49.9378 40.3047 49.7793 39.8211 49.5764 39.4084C49.3805 38.9871 49.1331 38.6452 48.8342 38.3825C48.5424 38.1114 48.1952 37.9199 47.7925 37.808C47.3977 37.6955 46.9474 37.6626 46.4418 37.7093C45.9283 37.7568 45.4808 37.8806 45.0992 38.0807C44.7246 38.2722 44.4152 38.5323 44.171 38.8609C43.8795 39.2723 43.6801 39.7889 43.5729 40.4108C43.4727 41.0242 43.4593 41.7276 43.5327 42.5211L43.796 45.3684C43.814 45.5628 43.832 45.7573 43.85 45.9518C43.868 46.1463 43.8863 46.3447 43.905 46.5469ZM50.65 46.8175L50.4277 44.4137C50.4169 44.297 50.3964 44.0753 50.3662 43.7486C50.3352 43.4141 50.3097 43.1379 50.2895 42.9201L44.1522 48.5836C44.2747 49.145 44.4456 49.6353 44.6648 50.0543C44.8833 50.4657 45.1494 50.798 45.4632 51.0515C45.7521 51.2915 46.0898 51.4643 46.4761 51.5698C46.8618 51.6675 47.288 51.6948 47.7547 51.6516C48.2448 51.6063 48.6736 51.4921 49.0412 51.309C49.4087 51.1259 49.7117 50.8822 49.9503 50.5776C50.2729 50.1634 50.4875 49.6414 50.594 49.0117C50.7083 48.3813 50.727 47.6499 50.65 46.8175Z" fill="black"/>
<path d="M38.7816 54.0114L27.6494 55.0409L27.5059 53.489L32.5 46.7897C32.9468 46.1913 33.3177 45.6627 33.6126 45.2039C33.9075 44.7451 34.1392 44.3235 34.3077 43.9392C34.4768 43.5626 34.5895 43.2109 34.6455 42.8841C34.7009 42.5494 34.7127 42.211 34.6811 41.8687C34.6422 41.4486 34.5359 41.0622 34.362 40.7095C34.1953 40.3484 33.9709 40.0435 33.689 39.795C33.3993 39.5471 33.0606 39.3627 32.6728 39.2417C32.2921 39.1121 31.8683 39.0689 31.4016 39.1121C30.8337 39.1646 30.3473 39.292 29.9423 39.4942C29.5451 39.6957 29.224 39.9568 28.9791 40.2776C28.7271 40.6069 28.5509 40.992 28.4504 41.4328C28.3577 41.8729 28.3358 42.3574 28.3848 42.8864L26.2143 43.0871C26.1482 42.3714 26.2104 41.687 26.4011 41.0339C26.591 40.373 26.9013 39.7833 27.3319 39.2649C27.7548 38.7472 28.2917 38.317 28.9426 37.9743C29.6013 37.631 30.3663 37.419 31.2375 37.3384C32.0388 37.2643 32.7695 37.3183 33.4297 37.5005C34.097 37.6742 34.6718 37.9505 35.1541 38.3296C35.6363 38.7087 36.0208 39.1753 36.3074 39.7293C36.6018 40.2827 36.7803 40.8978 36.8429 41.5746C36.8896 42.0802 36.8505 42.5899 36.7254 43.1036C36.5996 43.6095 36.415 44.117 36.1718 44.6259C35.9208 45.1356 35.6228 45.6457 35.2777 46.1562C34.9397 46.6582 34.5783 47.1623 34.1936 47.6687L30.0886 53.0383L38.6186 52.2494L38.7816 54.0114Z" fill="black"/>
<path d="M63.608 26.7813C63.5867 26.5518 63.6386 26.3489 63.7635 26.1726C63.8884 25.9963 64.0928 25.895 64.3768 25.8687C64.6568 25.8428 64.8764 25.9049 65.0354 26.0549C65.198 26.2007 65.29 26.3903 65.3116 26.6237C65.3328 26.8532 65.2767 27.0526 65.1433 27.2218C65.0099 27.3911 64.8051 27.4885 64.529 27.514C64.2489 27.5399 64.0297 27.4817 63.8714 27.3395C63.7166 27.1929 63.6288 27.0069 63.608 26.7813Z" fill="black"/>
<path d="M56.4479 20.241L56.5893 21.7696L58.9931 21.5473L59.0702 22.3816L56.6664 22.604L56.9837 26.0346C57.0064 26.2797 57.0562 26.4791 57.1332 26.6328C57.2102 26.7865 57.3074 26.905 57.425 26.9883C57.5429 27.0754 57.6736 27.132 57.8173 27.1579C57.9648 27.1835 58.1183 27.189 58.2777 27.1742C58.3944 27.1634 58.5145 27.1464 58.6379 27.1232C58.7609 27.0962 58.8818 27.0673 59.0006 27.0367C59.1155 27.0065 59.2226 26.977 59.3219 26.9482C59.4248 26.9151 59.5085 26.8878 59.5732 26.8661L59.7956 27.6164C59.7112 27.6791 59.6068 27.7378 59.4824 27.7925C59.3576 27.8432 59.2206 27.8892 59.0715 27.9305C58.9226 27.9756 58.7634 28.0139 58.5937 28.0453C58.4279 28.0763 58.2613 28.0996 58.0941 28.115C57.814 28.1409 57.5479 28.1263 57.2956 28.0712C57.0469 28.0118 56.825 27.9029 56.6299 27.7444C56.4351 27.5898 56.2727 27.3812 56.1425 27.1187C56.0158 26.8518 55.9345 26.524 55.8985 26.135L55.5812 22.7043L53.9242 22.8576L53.8471 22.0232L55.504 21.87L55.3627 20.3414L56.4479 20.241Z" fill="black"/>
<path d="M51.4813 26.9201C51.4694 26.7917 51.4335 26.6793 51.3736 26.5829C51.3134 26.4825 51.219 26.3952 51.0905 26.3207C50.962 26.2463 50.7953 26.1833 50.5905 26.1316C50.3853 26.076 50.1321 26.0328 49.8311 26.0018C49.4626 25.9613 49.1237 25.9024 48.8145 25.8251C48.5091 25.7474 48.2446 25.6444 48.0209 25.516C47.7937 25.3919 47.6127 25.238 47.478 25.0543C47.343 24.8667 47.2634 24.6426 47.2393 24.382C47.2156 24.1253 47.2537 23.8805 47.3538 23.6476C47.4535 23.4109 47.6046 23.1988 47.8069 23.0114C48.0093 22.824 48.2557 22.6678 48.5462 22.5429C48.8406 22.4176 49.1687 22.3382 49.5304 22.3048C49.9194 22.2688 50.2741 22.287 50.5947 22.3593C50.9152 22.4317 51.1926 22.5473 51.427 22.706C51.6614 22.8648 51.848 23.0594 51.987 23.2897C52.1296 23.5159 52.2136 23.767 52.2391 24.0432L51.1598 24.143C51.1472 24.0069 51.0999 23.8778 51.018 23.756C50.9358 23.6302 50.8278 23.5225 50.6939 23.4329C50.5601 23.3433 50.4009 23.2756 50.2162 23.2299C50.0354 23.1839 49.8341 23.1711 49.6124 23.1916C49.3829 23.2128 49.183 23.2568 49.0127 23.3236C48.8462 23.39 48.7105 23.4712 48.6056 23.5672C48.4969 23.6635 48.4185 23.7708 48.3706 23.889C48.3227 24.0072 48.3043 24.1266 48.3155 24.2472C48.327 24.3716 48.3606 24.4803 48.4162 24.5733C48.4719 24.6662 48.5617 24.7461 48.6856 24.8131C48.8056 24.8805 48.9637 24.9365 49.1601 24.9811C49.3603 25.0253 49.6109 25.063 49.9119 25.094C50.3085 25.1397 50.6654 25.2028 50.9828 25.2833C51.2998 25.3599 51.5701 25.4624 51.7938 25.5908C52.0179 25.723 52.1936 25.8833 52.3208 26.0716C52.452 26.2596 52.5296 26.4838 52.5537 26.7444C52.5796 27.0245 52.539 27.2852 52.4318 27.5266C52.3286 27.7676 52.1717 27.9802 51.9612 28.1644C51.7507 28.3486 51.4921 28.5 51.1853 28.6186C50.8785 28.7372 50.5384 28.8138 50.165 28.8483C49.7372 28.8879 49.3508 28.8668 49.0058 28.7849C48.6605 28.6992 48.3643 28.5716 48.1172 28.4022C47.8665 28.2371 47.6675 28.0358 47.52 27.7984C47.3764 27.5606 47.2922 27.3075 47.2673 27.0391L48.3467 26.9393C48.3828 27.1596 48.4584 27.3409 48.5736 27.4832C48.6926 27.6252 48.8342 27.7357 48.9985 27.8147C49.1588 27.894 49.3341 27.9445 49.5244 27.9661C49.7147 27.9877 49.9013 27.9901 50.0841 27.9732C50.3719 27.9466 50.6197 27.8903 50.8275 27.8044C51.035 27.7146 51.1934 27.6038 51.3029 27.4721C51.3699 27.3913 51.4188 27.3045 51.4494 27.2114C51.48 27.1183 51.4907 27.0212 51.4813 26.9201Z" fill="black"/>
<path d="M43.0645 29.505C42.621 29.546 42.2056 29.508 41.8182 29.3908C41.4346 29.2733 41.098 29.0906 40.8083 28.8428C40.5187 28.595 40.2827 28.2912 40.1003 27.9315C39.918 27.5717 39.8065 27.1721 39.7658 26.7326L39.7432 26.4875C39.696 25.978 39.7356 25.5153 39.8619 25.0996C39.9879 24.68 40.1741 24.3175 40.4204 24.0123C40.6633 23.7113 40.949 23.4711 41.2776 23.2916C41.6101 23.1118 41.9573 23.0052 42.319 22.9717C42.7741 22.9296 43.1782 22.9727 43.5314 23.1008C43.888 23.2248 44.1919 23.4144 44.4431 23.6697C44.6946 23.9289 44.8922 24.2421 45.036 24.6093C45.1837 24.9762 45.2779 25.3794 45.3186 25.8189L45.3633 26.3032L40.8533 26.7203L40.8571 26.7611C40.9127 27.0659 40.998 27.3306 41.1129 27.5554C41.2318 27.7798 41.3831 27.9737 41.5669 28.1371C41.7557 28.3119 41.9757 28.4426 42.2269 28.5292C42.4781 28.6158 42.7496 28.6456 43.0413 28.6186C43.4264 28.583 43.7615 28.4736 44.0466 28.2903C44.3317 28.107 44.5616 27.8778 44.7362 27.6028L45.443 28.0552C45.2625 28.3936 44.9737 28.7067 44.5766 28.9945C44.1831 29.278 43.679 29.4482 43.0645 29.505ZM42.401 23.8585C42.1832 23.8787 41.9808 23.9386 41.7939 24.0383C41.6066 24.134 41.4422 24.265 41.3006 24.4311C41.1594 24.601 41.0448 24.8039 40.9568 25.0395C40.8723 25.271 40.8221 25.5345 40.8063 25.8302L44.202 25.5161L44.1971 25.4636C44.1791 25.2692 44.1229 25.0645 44.0285 24.8496C43.9337 24.6308 43.8127 24.4459 43.6653 24.2947C43.518 24.1436 43.3385 24.0268 43.1269 23.9444C42.9191 23.8616 42.6772 23.833 42.401 23.8585Z" fill="black"/>
</svg>
