<svg preserveAspectRatio="none" width="100%" height="100%" overflow="visible" style="display: block;" viewBox="0 0 102 64" fill="none" xmlns="http://www.w3.org/2000/svg">
<path id="Union" d="M88.6974 0C89.318 0 89.9035 0.288136 90.2821 0.779915L101.585 15.4606C101.854 15.8104 102 16.2393 102 16.6807V47.3193C102 47.7607 101.854 48.1896 101.585 48.5394L90.2821 63.2201C89.9035 63.7119 89.318 64 88.6974 64H13.3026C12.682 64 12.0965 63.7119 11.7179 63.2201L0.415263 48.5394C0.146005 48.1896 0 47.7607 0 47.3193V16.6807C0 16.2393 0.146005 15.8104 0.415263 15.4606L11.7179 0.779915C12.0965 0.288136 12.682 0 13.3026 0H88.6974Z" fill="var(--fill-0, #D9D9D9)"/>
</svg>
