<svg preserveAspectRatio="none" width="100%" height="100%" overflow="visible" style="display: block;" viewBox="0 0 95.2148 58" fill="none" xmlns="http://www.w3.org/2000/svg">
<g id="Union">
<mask id="path-1-inside-1_1_1837" fill="white">
<path d="M82.8705 0C83.4849 0 84.0652 0.282372 84.4443 0.765818L94.7886 13.9565C95.0648 14.3086 95.2148 14.7432 95.2148 15.1907V42.8093C95.2148 43.2568 95.0648 43.6914 94.7886 44.0435L84.4443 57.2342C84.0652 57.7176 83.4849 58 82.8705 58H12.5683C11.9609 58 11.3865 57.724 11.0069 57.2499L0.438653 44.048C0.154707 43.6933 0 43.2524 0 42.7981V15.2019C0 14.7476 0.154707 14.3067 0.438652 13.952L11.0069 0.750124C11.3865 0.275982 11.9609 0 12.5683 0H82.8705Z"/>
</mask>
<path d="M11.0069 0.750124L12.5683 2L11.0069 0.750124ZM0.438652 13.952L-1.1227 12.7022L0.438652 13.952ZM0.438653 44.048L2 42.7981L0.438653 44.048ZM84.4443 57.2342L86.0181 58.4684L84.4443 57.2342ZM94.7886 44.0435L96.3624 45.2777L94.7886 44.0435ZM94.7886 13.9565L96.3624 12.7223L94.7886 13.9565ZM84.4443 0.765818L86.0181 -0.468364L84.4443 0.765818ZM84.4443 0.765818L82.8705 2L93.2148 15.1907L94.7886 13.9565L96.3624 12.7223L86.0181 -0.468364L84.4443 0.765818ZM95.2148 15.1907H93.2148V42.8093H95.2148H97.2148V15.1907H95.2148ZM94.7886 44.0435L93.2148 42.8093L82.8705 56L84.4443 57.2342L86.0181 58.4684L96.3624 45.2777L94.7886 44.0435ZM82.8705 58V56H12.5683V58V60H82.8705V58ZM11.0069 57.2499L12.5683 56L2 42.7981L0.438653 44.048L-1.12269 45.2978L9.44559 58.4998L11.0069 57.2499ZM0 42.7981H2V15.2019H0H-2V42.7981H0ZM0.438652 13.952L2 15.2019L12.5683 2L11.0069 0.750124L9.44559 -0.499754L-1.1227 12.7022L0.438652 13.952ZM12.5683 0V2H82.8705V0V-2H12.5683V0ZM11.0069 0.750124L12.5683 2L12.5683 2V0V-2C11.3536 -2 10.2047 -1.44804 9.44559 -0.499754L11.0069 0.750124ZM0 15.2019H2V15.2019L0.438652 13.952L-1.1227 12.7022C-1.69059 13.4116 -2 14.2932 -2 15.2019H0ZM0.438653 44.048L2 42.7981H2H0H-2C-2 43.7068 -1.69059 44.5884 -1.12269 45.2978L0.438653 44.048ZM12.5683 58V56H12.5683L11.0069 57.2499L9.44559 58.4998C10.2047 59.448 11.3536 60 12.5683 60V58ZM84.4443 57.2342L82.8705 56V56V58V60C84.0993 60 85.2598 59.4353 86.0181 58.4684L84.4443 57.2342ZM95.2148 42.8093H93.2148V42.8093L94.7886 44.0435L96.3624 45.2777C96.9147 44.5734 97.2148 43.7043 97.2148 42.8093H95.2148ZM94.7886 13.9565L93.2148 15.1907V15.1907H95.2148H97.2148C97.2148 14.2957 96.9147 13.4266 96.3624 12.7223L94.7886 13.9565ZM84.4443 0.765818L86.0181 -0.468364C85.2598 -1.43526 84.0993 -2 82.8705 -2V0V2V2L84.4443 0.765818Z" fill="var(--stroke-0, black)" mask="url(#path-1-inside-1_1_1837)"/>
</g>
</svg>
