<svg preserveAspectRatio="none" width="100%" height="100%" overflow="visible" style="display: block;" viewBox="0 0 24 24" fill="none" xmlns="http://www.w3.org/2000/svg">
<g id="Frame">
<path id="Vector" d="M18 9C18.6296 8.52776 19.0948 7.86939 19.3294 7.11813C19.5641 6.36687 19.5565 5.56082 19.3076 4.81415C19.0587 4.06748 18.5812 3.41804 17.9427 2.95784C17.3042 2.49764 16.5371 2.25 15.75 2.25H9C8.21294 2.25 7.44583 2.49764 6.80734 2.95784C6.16884 3.41804 5.69133 4.06748 5.44244 4.81415C5.19355 5.56082 5.1859 6.36687 5.42057 7.11813C5.65525 7.86939 6.12035 8.52776 6.75 9C6.27326 9.35728 5.88851 9.823 5.62761 10.3586C5.36671 10.8942 5.23717 11.4842 5.24973 12.0798C5.26228 12.6755 5.41657 13.2595 5.6998 13.7837C5.98304 14.3078 6.38707 14.7569 6.87844 15.0938C6.31953 15.5187 5.87834 16.0792 5.59662 16.7223C5.31491 17.3654 5.20201 18.0698 5.2686 18.7687C5.33519 19.4676 5.57907 20.138 5.97716 20.7163C6.37524 21.2947 6.91435 21.7618 7.54344 22.0735C8.17253 22.3853 8.87078 22.5313 9.57207 22.4978C10.2734 22.4642 10.9545 22.2522 11.551 21.8819C12.1474 21.5115 12.6395 20.995 12.9806 20.3814C13.3216 19.7677 13.5004 19.0771 13.5 18.375V15C14.2956 15.5967 15.2958 15.853 16.2803 15.7123C17.2649 15.5717 18.1533 15.0456 18.75 14.25C19.3467 13.4544 19.603 12.4542 19.4623 11.4697C19.3217 10.4851 18.7956 9.59674 18 9ZM18 6C18 6.59674 17.7629 7.16903 17.341 7.59099C16.919 8.01295 16.3467 8.25 15.75 8.25H13.5V3.75H15.75C16.3467 3.75 16.919 3.98705 17.341 4.40901C17.7629 4.83097 18 5.40326 18 6ZM6.75 6C6.75 5.40326 6.98705 4.83097 7.40901 4.40901C7.83097 3.98705 8.40326 3.75 9 3.75H12V8.25H9C8.40326 8.25 7.83097 8.01295 7.40901 7.59099C6.98705 7.16903 6.75 6.59674 6.75 6ZM9 14.25C8.40326 14.25 7.83097 14.0129 7.40901 13.591C6.98705 13.169 6.75 12.5967 6.75 12C6.75 11.4033 6.98705 10.831 7.40901 10.409C7.83097 9.98705 8.40326 9.75 9 9.75H12V14.25H9ZM12 18.375C12 18.8942 11.846 19.4017 11.5576 19.8334C11.2692 20.2651 10.8592 20.6015 10.3795 20.8002C9.89989 20.9989 9.37209 21.0508 8.86289 20.9496C8.35369 20.8483 7.88596 20.5983 7.51884 20.2312C7.15173 19.864 6.90172 19.3963 6.80044 18.8871C6.69915 18.3779 6.75114 17.8501 6.94982 17.3705C7.1485 16.8908 7.48495 16.4808 7.91663 16.1924C8.34831 15.904 8.85582 15.75 9.375 15.75H12V18.375ZM15.75 14.25C15.305 14.25 14.87 14.118 14.5 13.8708C14.13 13.6236 13.8416 13.2722 13.6713 12.861C13.501 12.4499 13.4564 11.9975 13.5432 11.561C13.63 11.1246 13.8443 10.7237 14.159 10.409C14.4737 10.0943 14.8746 9.88005 15.311 9.79323C15.7475 9.70642 16.1999 9.75097 16.611 9.92127C17.0222 10.0916 17.3736 10.38 17.6208 10.75C17.868 11.12 18 11.555 18 12C18 12.5967 17.7629 13.169 17.341 13.591C16.919 14.0129 16.3467 14.25 15.75 14.25Z" fill="var(--fill-0, black)"/>
</g>
</svg>
