<svg preserveAspectRatio="none" width="100%" height="100%" overflow="visible" style="display: block;" viewBox="0 0 98.5489 26.1423" fill="none" xmlns="http://www.w3.org/2000/svg">
<g id="Vector">
<path fill-rule="evenodd" clip-rule="evenodd" d="M2.9345 0.407315C2.46788 0.623658 2.03007 0.91523 1.72808 1.33158C0.67277 2.78651 0.66669 4.58205 0.263619 12.2731L0.0055811 17.1968C-0.110036 19.4029 1.58464 21.285 3.79076 21.4006L94.1609 26.1367C96.367 26.2523 98.2492 24.5577 98.3648 22.3516L98.4255 21.1934C98.6898 16.1494 98.6596 16.0069 96.9937 14.4503L96.3579 13.856C95.6697 13.2127 94.7766 12.833 93.8359 12.7836L47.6989 10.3635C46.9111 10.3222 46.1531 10.0488 45.5202 9.57777L35.735 2.29492C35.1022 1.82392 34.3442 1.55056 33.5564 1.50922L4.90484 0.00549815C4.25376 -0.0286726 3.60419 0.0968245 3.01269 0.371063L2.9345 0.407315Z" fill="#FFF879"/>
<path d="M33.7684 3.5228C34.6398 3.56853 35.4727 3.89774 36.1395 4.46068L40.6795 8.29436L45.3926 11.3998C45.9863 11.7909 46.6735 12.0165 47.3835 12.0537L91.5552 14.3706C92.4111 14.4155 93.2296 14.7348 93.8907 15.2802L94.5057 15.7867C96.1042 17.1048 96.1861 16.2265 95.964 20.4642L95.9465 20.7987C95.8309 23.0048 93.9488 24.6995 91.7427 24.5838L5.86243 20.0831C3.65632 19.9674 1.96164 18.0853 2.07726 15.8792L2.26059 12.3811C2.59456 6.00853 2.59483 4.45234 3.55209 3.24375C3.86092 2.85404 4.30304 2.59949 4.7642 2.41347L4.84811 2.37973C5.38908 2.16157 5.97134 2.06402 6.55385 2.09459L33.7684 3.5228ZM6.44917 4.09185C6.15792 4.07657 5.86633 4.12483 5.59584 4.23391L5.51188 4.26862C5.36531 4.32776 5.26459 4.38034 5.19764 4.42426C5.13326 4.46651 5.11608 4.48949 5.11912 4.48567C4.97528 4.66728 4.80154 4.92846 4.65816 6.11612C4.5075 7.3643 4.42796 9.23969 4.25785 12.4857L4.07452 15.9839C4.01671 17.0869 4.86405 18.028 5.9671 18.0858L91.8473 22.5866C92.9504 22.6444 93.8914 21.7971 93.9493 20.694L93.9668 20.3595C94.0234 19.2798 94.0562 18.6031 94.0549 18.1365C94.0547 18.0618 94.0511 17.998 94.0493 17.9445C93.9222 17.855 93.7508 17.7321 93.5671 17.5926L93.2327 17.3296L92.6178 16.8221C92.2874 16.5497 91.8782 16.3903 91.4506 16.3678L47.2788 14.051C46.2138 13.9951 45.1825 13.6568 44.2919 13.07L39.5788 9.96463L39.4796 9.8988L39.3887 9.82265L34.8498 5.98902C34.5163 5.70748 34.0995 5.54292 33.6637 5.52006L6.44917 4.09185Z" fill="var(--fill-0, black)"/>
</g>
</svg>
