<svg preserveAspectRatio="none" width="100%" height="100%" overflow="visible" style="display: block;" viewBox="0 0 109.948 72.4174" fill="none" xmlns="http://www.w3.org/2000/svg">
<g id="Vector">
<path fill-rule="evenodd" clip-rule="evenodd" d="M2.32874 1.24086C1.45938 1.96531 0.539255 3.23793 0.28334 4.06933C0.0280035 4.90075 -0.0740234 18.4825 0.0574593 34.2508C0.257667 58.2615 0.443483 63.1737 1.2015 64.4739C3.16264 67.8365 1.92765 67.6999 52.8283 70.1952L98.0542 72.4125C99.0793 72.4628 100.084 72.1171 100.862 71.4471L101.484 70.9106C102.492 70.0421 103.49 68.6593 103.701 67.8378C103.913 67.0168 104.844 59.6009 105.772 51.358C106.699 43.1151 108.111 30.6648 108.909 23.6908C110.489 9.8954 110.388 8.35762 107.769 6.31215C106.593 5.39353 101.664 5.04651 55.1907 2.61096L5.47533 0.00548607C4.46886 -0.0472608 3.47957 0.281874 2.7053 0.92707L2.32874 1.24086Z" fill="#FFF879"/>
<path d="M55.0445 5.60741C98.9824 7.9101 103.643 8.23573 104.756 9.07911C107.235 10.9571 107.334 12.3664 105.862 25.0026C105.118 31.3905 103.802 42.794 102.938 50.3442C102.074 57.8945 101.204 64.6877 101.005 65.4395C100.807 66.1919 99.8655 67.4569 98.914 68.2509L98.3833 68.6945C97.6121 69.3383 96.6265 69.6689 95.623 69.6196L52.9155 67.5213C4.79275 65.157 5.95875 65.2838 4.09978 62.2004C3.38117 61.008 3.19743 56.5071 2.97128 34.5096C2.82277 20.0641 2.89923 7.62194 3.13931 6.85942C3.37997 6.09814 4.24769 4.93366 5.06843 4.27129L5.36869 4.02788C6.13611 3.40859 7.10563 3.09504 8.09041 3.14665L55.0445 5.60741ZM7.98574 5.14391C7.49333 5.11811 7.00856 5.27535 6.62485 5.58501L6.32464 5.82745C6.0719 6.03142 5.76214 6.35768 5.4895 6.72344C5.27043 7.01735 5.1425 7.24551 5.08292 7.372C5.07422 7.46647 5.06371 7.60224 5.05345 7.78508C5.03037 8.19661 5.00896 8.77848 4.98989 9.52046C4.95185 11.0006 4.92492 13.064 4.90978 15.5646C4.87951 20.5628 4.897 27.2741 4.97118 34.4893C5.08434 45.4964 5.18736 52.0884 5.34976 56.0758C5.43119 58.0748 5.5253 59.3634 5.63504 60.2047C5.75321 61.1106 5.86359 61.2524 5.81243 61.1675C6.33459 62.0335 6.34182 62.0606 6.6493 62.2166C7.18802 62.4899 8.37676 62.8152 11.3749 63.142C17.2536 63.7828 28.9026 64.3391 53.0134 65.5237L95.7209 67.622C96.2226 67.6467 96.7159 67.4814 97.1015 67.1595L97.6323 66.7159L97.8908 66.484C98.1509 66.2348 98.4135 65.9372 98.6374 65.6362C98.7841 65.439 98.8987 65.2606 98.9786 65.1162C99.0657 64.9588 99.0795 64.8992 99.0715 64.9294C99.0741 64.9151 99.0962 64.8104 99.1367 64.5622C99.1781 64.3084 99.2293 63.9665 99.2899 63.5425C99.4108 62.6957 99.564 61.5508 99.7385 60.1873C100.087 57.462 100.52 53.885 100.951 50.1169C101.815 42.5655 103.131 31.1598 103.875 24.7703C104.621 18.3706 104.93 15.0805 104.795 13.1444C104.732 12.2328 104.577 11.8087 104.44 11.565C104.309 11.3323 104.102 11.1 103.608 10.7205C103.526 10.6945 103.211 10.5993 102.412 10.4837C101.213 10.3103 99.219 10.1233 95.8208 9.88602C89.0461 9.4129 76.9175 8.75647 54.9399 7.60467L7.98574 5.14391Z" fill="var(--fill-0, black)"/>
<path d="M37.1884 35.302C37.401 35.3412 37.5644 35.5128 37.5772 35.7183C37.613 36.2902 37.5977 38.0791 37.7503 38.6812C37.9433 39.4426 38.2336 40.132 38.6298 40.6255C39.0173 41.1078 39.4823 41.3783 40.0613 41.3963C40.5928 41.4127 41.3028 41.22 42.2244 40.6327C42.4567 40.4846 42.779 40.5141 42.9668 40.7132C43.154 40.9122 43.1387 41.2074 42.9432 41.3942C42.5866 41.7349 42.2322 42.1249 41.9362 42.5315C41.5361 43.0811 41.268 43.6268 41.2074 44.1018C41.1506 44.5503 41.2758 44.9273 41.6725 45.2371C42.0479 45.5302 43.87 45.8982 44.9643 46.0427C45.2436 46.0795 45.4534 46.3054 45.4312 46.5618C45.4088 46.8184 45.1628 47.005 44.8812 46.9928C43.7787 46.9451 41.9202 46.9904 41.4995 47.2136C41.0551 47.4497 40.8665 47.7996 40.8444 48.2509C40.8213 48.7292 40.9909 49.3131 41.2894 49.924C41.5104 50.3759 41.7914 50.8222 42.0836 51.2197C42.2436 51.4376 42.2075 51.731 41.9886 51.8945C41.7691 52.058 41.4465 52.031 41.2434 51.8449C40.4379 51.1065 39.7722 50.7924 39.2459 50.7163C38.6728 50.6335 38.1675 50.8195 37.7023 51.2269C37.2264 51.6438 36.8209 52.2726 36.4985 52.9889C36.2436 53.5554 35.9481 55.3204 35.8135 55.8776C35.7652 56.0778 35.5745 56.2184 35.3583 56.22L35.0802 56.1957C34.8675 56.1565 34.7042 55.985 34.6914 55.7795C34.6556 55.2073 34.6711 53.4178 34.5184 52.8156C34.3253 52.0543 34.0352 51.3647 33.6389 50.8714C33.2515 50.3894 32.7862 50.1185 32.2074 50.1005C31.6759 50.0841 30.9658 50.2778 30.0442 50.8651C29.8119 51.0131 29.4896 50.9837 29.3018 50.7846C29.1145 50.5856 29.13 50.2903 29.3254 50.1035C29.6821 49.7627 30.0365 49.372 30.3325 48.9654C30.7325 48.4156 31.001 47.87 31.0612 47.395C31.1179 46.9467 30.993 46.5694 30.5962 46.2597C30.2207 45.9668 28.3983 45.5995 27.3043 45.4551C27.0249 45.4182 26.815 45.1917 26.8374 44.935C26.8601 44.6787 27.106 44.4927 27.3874 44.5049C28.4902 44.5527 30.3485 44.5066 30.7691 44.2832C31.2136 44.0469 31.4024 43.6975 31.4242 43.2459C31.4471 42.7676 31.2778 42.1836 30.9792 41.5729C30.7583 41.1211 30.4771 40.6755 30.185 40.278C30.025 40.0601 30.0611 39.7667 30.28 39.6032C30.4995 39.4398 30.8221 39.4667 31.0252 39.6529C31.8308 40.3913 32.4965 40.7044 33.0228 40.7805C33.5961 40.8634 34.101 40.6776 34.5664 40.2699C35.0423 39.8528 35.4479 39.2243 35.7702 38.508C36.025 37.9415 36.3206 36.1772 36.4551 35.6201C36.5034 35.42 36.6941 35.2793 36.9103 35.2777L37.1884 35.302Z" fill="var(--fill-0, black)"/>
<path d="M66.4177 15.3174C66.746 15.3778 66.9981 15.6427 67.0179 15.9598C67.0731 16.8426 67.0495 19.6035 67.285 20.5328C67.5829 21.7079 68.0309 22.772 68.6425 23.5336C69.2405 24.2779 69.9581 24.6956 70.8518 24.7233C71.6722 24.7487 72.768 24.4512 74.1904 23.5447C74.5489 23.3162 75.0464 23.3617 75.3362 23.669C75.6252 23.9761 75.6014 24.4317 75.2998 24.7201C74.7494 25.2459 74.2024 25.8479 73.7455 26.4753C73.1281 27.3236 72.7142 28.1659 72.6208 28.899C72.533 29.5912 72.7263 30.173 73.3385 30.6512C73.9179 31.1035 76.7301 31.6716 78.4192 31.8945C78.8502 31.9514 79.174 32.2999 79.1398 32.6957C79.1052 33.0918 78.7254 33.3798 78.2909 33.361C76.5893 33.2874 73.7209 33.3572 73.0716 33.7018C72.3856 34.0662 72.0946 34.6062 72.0605 35.3027C72.0249 36.0409 72.2866 36.9421 72.7473 37.8849C73.0883 38.5824 73.5222 39.2712 73.9731 39.8848C74.22 40.2211 74.1643 40.674 73.8264 40.9263C73.4876 41.1785 72.9898 41.1369 72.6764 40.8496C71.433 39.71 70.4056 39.2253 69.5933 39.1079C68.7088 38.98 67.9289 39.2671 67.2109 39.8958C66.4764 40.5394 65.8505 41.5099 65.353 42.6153C64.9596 43.4897 64.5035 46.2138 64.2958 47.0738C64.2212 47.3827 63.9269 47.5998 63.5932 47.6023L63.164 47.5648C62.8358 47.5043 62.5837 47.2395 62.5639 46.9223C62.5087 46.0393 62.5325 43.2774 62.2969 42.3479C61.9989 41.1729 61.5511 40.1085 60.9395 39.3472C60.3416 38.6033 59.6234 38.1851 58.7301 38.1574C57.9098 38.132 56.8138 38.431 55.3914 39.3374C55.0329 39.5659 54.5354 39.5204 54.2456 39.2132C53.9566 38.906 53.9804 38.4504 54.282 38.1621C54.8326 37.6361 55.3795 37.0331 55.8364 36.4054C56.4538 35.557 56.8681 34.7148 56.9611 33.9817C57.0485 33.2898 56.8557 32.7075 56.2434 32.2295C55.6639 31.7774 52.8511 31.2105 51.1626 30.9876C50.7314 30.9307 50.4074 30.5811 50.4421 30.185C50.4771 29.7893 50.8566 29.5023 51.2909 29.5211C52.993 29.5948 55.8611 29.5238 56.5103 29.1789C57.1962 28.8143 57.4876 28.275 57.5214 27.578C57.5567 26.8398 57.2953 25.9384 56.8346 24.9958C56.4936 24.2985 56.0595 23.6108 55.6087 22.9973C55.3618 22.661 55.4175 22.2082 55.7554 21.9559C56.0942 21.7036 56.592 21.7452 56.9054 22.0325C58.1488 23.1722 59.1763 23.6554 59.9886 23.7729C60.8735 23.9008 61.6527 23.6141 62.371 22.9849C63.1054 22.3411 63.7315 21.371 64.2289 20.2654C64.6221 19.3911 65.0784 16.6681 65.286 15.8083C65.3606 15.4994 65.6548 15.2824 65.9886 15.2798L66.4177 15.3174Z" fill="var(--fill-0, black)"/>
</g>
</svg>
