<svg preserveAspectRatio="none" width="100%" height="100%" overflow="visible" style="display: block;" viewBox="0 0 98.4962 21.4242" fill="none" xmlns="http://www.w3.org/2000/svg">
<g id="Group 24">
<path id="image 5 (Traced)" fill-rule="evenodd" clip-rule="evenodd" d="M2.04826 0.50446C1.59359 0.744928 1.17165 1.05901 0.891861 1.49059C-0.0858585 2.99876 0.00204164 4.79216 0.00204164 12.4938L0.00204164 17.4242C0.00204164 19.6333 1.7929 21.4242 4.00204 21.4242H49.2491H94.4962C96.7054 21.4242 98.4962 19.6333 98.4962 17.4242V16.2644C98.4962 11.2135 98.4586 11.0728 96.7135 9.60556L96.0475 9.04533C95.3266 8.43894 94.4148 8.10642 93.4728 8.10638L70.4967 8.10529L47.2724 8.10419C46.4835 8.10415 45.7122 7.87083 45.0556 7.43359L39.9791 4.05322L34.9026 0.672829C34.246 0.2356 33.4747 0.00228547 32.6859 0.00222624L18.4488 0.00115743L3.99486 7.43909e-05C3.34288 2.55381e-05 2.70078 0.159346 2.12444 0.464166L2.04826 0.50446Z" fill="var(--fill-0, #D9D9D9)"/>
<path id="image 5 (Traced)_2" d="M5.75098 3L19.6064 3.00098L33.0029 3.00195C33.6574 3.002 34.294 3.21594 34.8154 3.61133L39.5498 7.20215L39.5967 7.23828L39.6484 7.26855L44.5176 10.1221C45.2844 10.5716 46.1571 10.8086 47.0459 10.8086L69.2783 10.8096L91.2783 10.8105C91.921 10.8106 92.547 11.0169 93.0635 11.3994L93.7031 11.874H93.7041C94.1432 12.1991 94.5511 12.437 94.7158 12.5459C94.8139 12.6107 94.8495 12.6416 94.8633 12.6553C94.8678 12.6598 94.8659 12.6573 94.8682 12.6621C94.8891 12.707 94.9411 12.8654 94.9697 13.3848C94.9973 13.8844 95 14.5939 95 15.665V16C95 17.6569 93.6569 19 92 19H6.00195C4.3451 19 3.00195 17.6569 3.00195 16V12.4971C3.00195 9.27634 2.98214 7.34565 3.07031 6.04688C3.15643 4.77867 3.33772 4.29246 3.62793 3.88379C3.77212 3.68075 4.02288 3.49505 4.40234 3.31836L4.48438 3.28027C4.88099 3.09564 5.3135 2.99997 5.75098 3Z" stroke="var(--stroke-0, black)" stroke-width="2"/>
</g>
</svg>
