<svg preserveAspectRatio="none" width="100%" height="100%" overflow="visible" style="display: block;" viewBox="0 0 109.948 96.1237" fill="none" xmlns="http://www.w3.org/2000/svg">
<g id="Vector">
<path fill-rule="evenodd" clip-rule="evenodd" d="M9.73494 0.407315C9.26832 0.623658 8.83051 0.91523 8.52852 1.33158C7.47321 2.78651 7.46713 4.58205 7.06406 12.2731L6.80602 17.1968C6.69041 19.4029 8.38509 21.285 10.5912 21.4006L100.961 26.1367C103.167 26.2523 105.05 24.5577 105.165 22.3516L105.226 21.1934C105.49 16.1494 105.46 16.0069 103.794 14.4503L103.158 13.856C102.47 13.2127 101.577 12.833 100.636 12.7836L54.4994 10.3635C53.7115 10.3222 52.9535 10.0488 52.3207 9.57777L42.5354 2.29492C41.9026 1.82392 41.1446 1.55056 40.3569 1.50922L11.7053 0.00549815C11.0542 -0.0286726 10.4046 0.0968245 9.81313 0.371063L9.73494 0.407315Z" fill="var(--fill-0, #D9D9D9)"/>
<path fill-rule="evenodd" clip-rule="evenodd" d="M2.32874 24.9472C1.45938 25.6717 0.539255 26.9443 0.28334 27.7757C0.0280035 28.6071 -0.0740234 42.1889 0.0574593 57.9572C0.257667 81.9678 0.443483 86.88 1.2015 88.1803C3.16264 91.5429 1.92765 91.4062 52.8283 93.9016L98.0542 96.1189C99.0793 96.1692 100.084 95.8235 100.862 95.1535L101.484 94.617C102.492 93.7485 103.49 92.3657 103.701 91.5441C103.913 90.7232 104.844 83.3073 105.772 75.0644C106.699 66.8215 108.111 54.3712 108.909 47.3972C110.489 33.6018 110.388 32.064 107.769 30.0185C106.593 29.0999 101.664 28.7529 55.1907 26.3173L5.47533 23.7119C4.46886 23.6591 3.47957 23.9882 2.7053 24.6334L2.32874 24.9472Z" fill="var(--fill-0, #D9D9D9)"/>
</g>
</svg>
