<svg width="115" height="98" viewBox="0 0 115 98" fill="none" xmlns="http://www.w3.org/2000/svg">
<path fill-rule="evenodd" clip-rule="evenodd" d="M12.809 0.924893C12.3424 1.14124 11.9046 1.43281 11.6026 1.84915C10.5473 3.30409 10.5412 5.09963 10.1381 12.7907L9.8801 17.7143C9.76449 19.9204 11.4592 21.8026 13.6653 21.9182L104.035 26.6543C106.242 26.7699 108.124 25.0752 108.239 22.8691L108.3 21.711C108.564 16.667 108.534 16.5245 106.868 14.9679L106.232 14.3736C105.544 13.7303 104.651 13.3505 103.71 13.3012L57.5734 10.8811C56.7856 10.8397 56.0276 10.5664 55.3948 10.0954L45.6095 2.81249C44.9767 2.3415 44.2187 2.06814 43.4309 2.0268L14.7794 0.523076C14.1283 0.488906 13.4787 0.614403 12.8872 0.888642L12.809 0.924893Z" fill="#FFF879"/>
<path d="M43.6429 4.04038C44.5143 4.0861 45.3473 4.41532 46.014 4.97826L50.554 8.81193L55.2671 11.9173C55.8608 12.3084 56.5481 12.534 57.258 12.5713L101.43 14.8882C102.286 14.9331 103.104 15.2524 103.765 15.7978L104.38 16.3043C105.979 17.6224 106.061 16.744 105.839 20.9817L105.821 21.3163C105.705 23.5224 103.823 25.217 101.617 25.1014L15.737 20.6006C13.5308 20.485 11.8362 18.6029 11.9518 16.3968L12.1351 12.8986C12.4691 6.5261 12.4694 4.96992 13.4266 3.76133C13.7354 3.37162 14.1776 3.11706 14.6387 2.93105L14.7226 2.89731C15.2636 2.67915 15.8459 2.5816 16.4284 2.61217L43.6429 4.04038ZM16.3237 4.60943C16.0324 4.59414 15.7409 4.6424 15.4704 4.75148L15.3864 4.7862C15.2398 4.84534 15.1391 4.89792 15.0722 4.94184C15.0078 4.98409 14.9906 5.00707 14.9936 5.00325C14.8498 5.18486 14.6761 5.44604 14.5327 6.6337C14.382 7.88188 14.3025 9.75727 14.1324 13.0033L13.949 16.5014C13.8912 17.6045 14.7386 18.5456 15.8416 18.6034L101.722 23.1042C102.825 23.162 103.766 22.3146 103.824 21.2116L103.841 20.8771C103.898 19.7974 103.931 19.1206 103.929 18.654C103.929 18.5794 103.926 18.5156 103.924 18.4621C103.797 18.3726 103.625 18.2496 103.442 18.1102L103.107 17.8472L102.492 17.3397C102.162 17.0673 101.753 16.9079 101.325 16.8854L57.1534 14.5685C56.0883 14.5127 55.0571 14.1744 54.1664 13.5876L49.4534 10.4822L49.3541 10.4164L49.2633 10.3402L44.7243 6.5066C44.3909 6.22505 43.974 6.0605 43.5382 6.03763L16.3237 4.60943Z" fill="black"/>
<path fill-rule="evenodd" clip-rule="evenodd" d="M5.40282 25.4649C4.53346 26.1893 3.61334 27.4619 3.35742 28.2933C3.10208 29.1248 3.00006 42.7065 3.13154 58.4748C3.33175 82.4855 3.51756 87.3977 4.27559 88.6979C6.23672 92.0605 5.00173 91.9239 55.9024 94.4192L101.128 96.6365C102.153 96.6868 103.158 96.3411 103.936 95.6711L104.558 95.1346C105.566 94.2661 106.564 92.8833 106.775 92.0618C106.987 91.2408 107.918 83.8249 108.846 75.582C109.773 67.3391 111.185 54.8888 111.983 47.9148C113.563 34.1194 113.462 32.5816 110.843 30.5361C109.667 29.6175 104.738 29.2705 58.2648 26.835L8.54941 24.2295C7.54294 24.1767 6.55365 24.5059 5.77938 25.1511L5.40282 25.4649Z" fill="#FFF879"/>
<path d="M58.1186 29.8314C102.056 32.1341 106.717 32.4597 107.83 33.3031C110.309 35.1811 110.408 36.5904 108.936 49.2265C108.192 55.6145 106.876 67.018 106.012 74.5682C105.148 82.1185 104.278 88.9117 104.08 89.6635C103.881 90.4159 102.94 91.6809 101.988 92.4749L101.457 92.9185C100.686 93.5623 99.7006 93.8929 98.6971 93.8436L55.9896 91.7453C7.86683 89.381 9.03283 89.5078 7.17386 86.4244C6.45525 85.232 6.27151 80.7311 6.04536 58.7336C5.89685 44.2881 5.97331 31.8459 6.2134 31.0834C6.45405 30.3221 7.32177 29.1577 8.14251 28.4953L8.44277 28.2519C9.21019 27.6326 10.1797 27.319 11.1645 27.3707L58.1186 29.8314ZM11.0598 29.3679C10.5674 29.3421 10.0826 29.4994 9.69893 29.809L9.39872 30.0514C9.14598 30.2554 8.83622 30.5817 8.56358 30.9474C8.34451 31.2413 8.21658 31.4695 8.15701 31.596C8.1483 31.6905 8.13779 31.8262 8.12753 32.0091C8.10445 32.4206 8.08304 33.0025 8.06397 33.7445C8.02593 35.2246 7.999 37.288 7.98386 39.7886C7.9536 44.7868 7.97109 51.4981 8.04526 58.7132C8.15843 69.7204 8.26144 76.3124 8.42384 80.2998C8.50527 82.2988 8.59938 83.5874 8.70912 84.4287C8.82729 85.3346 8.93767 85.4764 8.88651 85.3915C9.40867 86.2575 9.4159 86.2846 9.72338 86.4406C10.2621 86.7139 11.4508 87.0392 14.449 87.366C20.3277 88.0068 31.9767 88.5631 56.0875 89.7477L98.795 91.846C99.2967 91.8707 99.79 91.7054 100.176 91.3835L100.706 90.9399L100.965 90.708C101.225 90.4588 101.488 90.1612 101.711 89.8602C101.858 89.663 101.973 89.4846 102.053 89.3402C102.14 89.1828 102.154 89.1232 102.146 89.1534C102.148 89.1391 102.17 89.0344 102.211 88.7862C102.252 88.5324 102.303 88.1905 102.364 87.7665C102.485 86.9197 102.638 85.7748 102.813 84.4113C103.161 81.686 103.594 78.109 104.025 74.3409C104.889 66.7895 106.205 55.3838 106.949 48.9943C107.695 42.5946 108.004 39.3045 107.869 37.3684C107.806 36.4568 107.652 36.0327 107.514 35.789C107.383 35.5563 107.176 35.324 106.682 34.9445C106.6 34.9185 106.285 34.8233 105.486 34.7077C104.287 34.5343 102.293 34.3473 98.8949 34.11C92.1202 33.6369 79.9916 32.9805 58.0139 31.8287L11.0598 29.3679Z" fill="black"/>
<path d="M40.2624 59.526C40.4751 59.5652 40.6384 59.7368 40.6513 59.9423C40.6871 60.5142 40.6718 62.3031 40.8243 62.9052C41.0174 63.6666 41.3077 64.356 41.7039 64.8494C42.0914 65.3317 42.5563 65.6023 43.1354 65.6203C43.6669 65.6367 44.3769 65.444 45.2985 64.8567C45.5308 64.7086 45.8531 64.7381 46.0409 64.9372C46.2281 65.1362 46.2127 65.4314 46.0173 65.6182C45.6607 65.9589 45.3063 66.3489 45.0103 66.7555C44.6102 67.3051 44.342 67.8508 44.2815 68.3258C44.2246 68.7743 44.3499 69.1513 44.7465 69.4611C45.122 69.7542 46.944 70.1222 48.0384 70.2667C48.3176 70.3035 48.5275 70.5294 48.5053 70.7858C48.4829 71.0424 48.2368 71.229 47.9553 71.2168C46.8528 71.1691 44.9943 71.2144 44.5736 71.4376C44.1291 71.6737 43.9406 72.0236 43.9185 72.4749C43.8954 72.9532 44.065 73.5371 44.3635 74.148C44.5844 74.5999 44.8655 75.0462 45.1577 75.4437C45.3177 75.6616 45.2816 75.955 45.0626 76.1185C44.8431 76.282 44.5206 76.255 44.3175 76.0689C43.512 75.3305 42.8463 75.0164 42.32 74.9403C41.7469 74.8575 41.2416 75.0435 40.7764 75.4509C40.3004 75.8678 39.8949 76.4966 39.5726 77.2129C39.3177 77.7794 39.0222 79.5444 38.8876 80.1016C38.8392 80.3018 38.6486 80.4424 38.4324 80.444L38.1543 80.4197C37.9416 80.3805 37.7783 80.209 37.7655 80.0035C37.7297 79.4313 37.7451 77.6418 37.5925 77.0396C37.3994 76.2783 37.1093 75.5887 36.713 75.0954C36.3256 74.6134 35.8603 74.3425 35.2815 74.3245C34.75 74.3081 34.0398 74.5018 33.1183 75.0891C32.886 75.2371 32.5637 75.2077 32.3759 75.0086C32.1886 74.8096 32.204 74.5143 32.3994 74.3275C32.7562 73.9867 33.1105 73.596 33.4066 73.1894C33.8066 72.6396 34.075 72.094 34.1353 71.619C34.192 71.1707 34.067 70.7934 33.6703 70.4837C33.2948 70.1908 31.4724 69.8235 30.3783 69.6791C30.099 69.6422 29.8891 69.4157 29.9115 69.159C29.9342 68.9027 30.1801 68.7167 30.4615 68.7289C31.5643 68.7767 33.4226 68.7306 33.8432 68.5072C34.2877 68.2709 34.4765 67.9215 34.4983 67.4699C34.5212 66.9916 34.3519 66.4076 34.0533 65.7969C33.8324 65.3451 33.5511 64.8995 33.2591 64.502C33.0991 64.2841 33.1352 63.9907 33.3541 63.8272C33.5736 63.6638 33.8962 63.6907 34.0992 63.8769C34.9048 64.6153 35.5705 64.9284 36.0969 65.0045C36.6702 65.0874 37.1751 64.9016 37.6405 64.4939C38.1163 64.0768 38.522 63.4483 38.8443 62.732C39.099 62.1655 39.3946 60.4012 39.5292 59.8441C39.5775 59.644 39.7682 59.5033 39.9844 59.5017L40.2624 59.526Z" fill="black"/>
<path d="M69.4918 39.5414C69.8201 39.6018 70.0721 39.8667 70.092 40.1838C70.1472 41.0666 70.1236 43.8275 70.359 44.7568C70.657 45.9319 71.105 46.996 71.7165 47.7576C72.3146 48.5019 73.0322 48.9196 73.9259 48.9473C74.7463 48.9727 75.842 48.6752 77.2644 47.7687C77.623 47.5402 78.1205 47.5857 78.4103 47.893C78.6993 48.2001 78.6755 48.6557 78.3739 48.9441C77.8234 49.4699 77.2765 50.0719 76.8196 50.6993C76.2022 51.5476 75.7883 52.3899 75.6949 53.123C75.6071 53.8152 75.8004 54.397 76.4126 54.8752C76.992 55.3275 79.8042 55.8956 81.4933 56.1185C81.9242 56.1754 82.2481 56.5239 82.2139 56.9197C82.1792 57.3158 81.7995 57.6038 81.365 57.585C79.6634 57.5114 76.795 57.5812 76.1457 57.9258C75.4597 58.2902 75.1687 58.8302 75.1346 59.5267C75.0989 60.2649 75.3607 61.1661 75.8214 62.1089C76.1624 62.8064 76.5962 63.4952 77.0472 64.1088C77.2941 64.4451 77.2384 64.898 76.9005 65.1503C76.5617 65.4025 76.0639 65.3609 75.7505 65.0736C74.5071 63.934 73.4797 63.4493 72.6674 63.3319C71.7829 63.204 71.003 63.4911 70.285 64.1198C69.5505 64.7634 68.9246 65.7339 68.4271 66.8393C68.0337 67.7137 67.5776 70.4378 67.3699 71.2978C67.2952 71.6067 67.001 71.8238 66.6673 71.8263L66.2381 71.7888C65.9099 71.7283 65.6578 71.4635 65.638 71.1463C65.5828 70.2633 65.6066 67.5014 65.371 66.5719C65.073 65.3969 64.6252 64.3325 64.0135 63.5712C63.4156 62.8273 62.6975 62.4091 61.8042 62.3814C60.9839 62.356 59.8879 62.655 58.4655 63.5614C58.107 63.7899 57.6095 63.7444 57.3197 63.4372C57.0307 63.13 57.0544 62.6744 57.356 62.3861C57.9067 61.8601 58.4535 61.2571 58.9105 60.6294C59.5279 59.781 59.9422 58.9388 60.0352 58.2057C60.1226 57.5138 59.9298 56.9315 59.3175 56.4535C58.7379 56.0014 55.9252 55.4345 54.2367 55.2116C53.8055 55.1547 53.4815 54.8051 53.5162 54.409C53.5512 54.0133 53.9307 53.7263 54.365 53.7451C56.0671 53.8188 58.9352 53.7478 59.5844 53.4029C60.2703 53.0383 60.5617 52.499 60.5955 51.802C60.6308 51.0638 60.3694 50.1624 59.9087 49.2198C59.5677 48.5225 59.1336 47.8347 58.6828 47.2213C58.4358 46.885 58.4916 46.4322 58.8295 46.1799C59.1683 45.9276 59.6661 45.9692 59.9795 46.2565C61.2229 47.3962 62.2503 47.8794 63.0627 47.9969C63.9476 48.1248 64.7268 47.8381 65.445 47.2089C66.1795 46.5651 66.8056 45.595 67.303 44.4894C67.6962 43.6151 68.1525 40.8921 68.3601 40.0323C68.4347 39.7234 68.7289 39.5064 69.0627 39.5038L69.4918 39.5414Z" fill="black"/>
</svg>
