<svg preserveAspectRatio="none" width="100%" height="100%" overflow="visible" style="display: block;" viewBox="0 0 103.93 91.2417" fill="none" xmlns="http://www.w3.org/2000/svg">
<g id="Vector">
<path d="M37.6734 1.43369C38.5449 1.47942 39.3778 1.80863 40.0446 2.37157L44.5845 6.20525L49.2976 9.31066C49.8913 9.70176 50.5786 9.92735 51.2886 9.96458L95.4603 12.2815C96.3161 12.3264 97.1347 12.6457 97.7958 13.1911L98.4107 13.6976C100.009 15.0157 100.091 14.1374 99.8691 18.3751L99.8516 18.7096C99.736 20.9157 97.8538 22.6104 95.6477 22.4947L9.76749 17.9939C7.56138 17.8783 5.8667 15.9962 5.98231 13.7901L6.16564 10.292C6.49961 3.91942 6.49989 2.36324 7.45715 1.15464C7.76598 0.764938 8.2081 0.51038 8.66925 0.324366L8.75317 0.290625C9.29414 0.0724663 9.8764 -0.0250842 10.4589 0.00548228L37.6734 1.43369ZM10.3542 2.00274C10.063 1.98746 9.77139 2.03572 9.5009 2.1448L9.41694 2.17952C9.27037 2.23865 9.16965 2.29123 9.1027 2.33516C9.03831 2.3774 9.02114 2.40038 9.02418 2.39656C8.88034 2.57818 8.7066 2.83935 8.56322 4.02702C8.41256 5.2752 8.33302 7.15058 8.1629 10.3966L7.97957 13.8948C7.92177 14.9978 8.7691 15.9389 9.87216 15.9967L95.7524 20.4975C96.8554 20.5553 97.7965 19.708 97.8543 18.6049L97.8718 18.2704C97.9284 17.1907 97.9612 16.514 97.96 16.0473C97.9598 15.9727 97.9561 15.9089 97.9544 15.8554C97.8273 15.7659 97.6558 15.6429 97.4722 15.5035L97.1378 15.2405L96.5229 14.733C96.1925 14.4606 95.7833 14.3012 95.3556 14.2787L51.1839 11.9618C50.1188 11.906 49.0876 11.5677 48.197 10.9809L43.4839 7.87552L43.3847 7.80969L43.2938 7.73354L38.7548 3.89992C38.4214 3.61837 38.0045 3.45382 37.5687 3.43095L10.3542 2.00274Z" fill="var(--fill-0, black)"/>
<path d="M52.1491 27.2247C96.087 29.5274 100.748 29.853 101.861 30.6964C104.34 32.5744 104.438 33.9836 102.966 46.6198C102.222 53.0078 100.907 64.4113 100.042 71.9615C99.1782 79.5118 98.3085 86.305 98.1101 87.0568C97.9114 87.8092 96.9702 89.0742 96.0186 89.8682L95.4879 90.3117C94.7167 90.9556 93.7311 91.2862 92.7277 91.2369L50.0202 89.1385C1.89737 86.7743 3.06337 86.901 1.20439 83.8176C0.485783 82.6252 0.302047 78.1244 0.0758973 56.1269C-0.0726141 41.6813 0.00384907 29.2392 0.24393 28.4767C0.484584 27.7154 1.3523 26.5509 2.17304 25.8886L2.4733 25.6451C3.24072 25.0259 4.21025 24.7123 5.19503 24.7639L52.1491 27.2247ZM5.09035 26.7612C4.59795 26.7354 4.11318 26.8926 3.72947 27.2023L3.42926 27.4447C3.17651 27.6487 2.86675 27.9749 2.59411 28.3407C2.37505 28.6346 2.24711 28.8628 2.18754 28.9893C2.17883 29.0837 2.16833 29.2195 2.15807 29.4024C2.13498 29.8139 2.11357 30.3958 2.0945 31.1377C2.05646 32.6179 2.02954 34.6813 2.0144 37.1819C1.98413 42.1801 2.00162 48.8914 2.0758 56.1065C2.18896 67.1137 2.29197 73.7057 2.45438 77.693C2.53581 79.6921 2.62991 80.9807 2.73965 81.822C2.85783 82.7278 2.96821 82.8696 2.91705 82.7848C3.43921 83.6508 3.44644 83.6779 3.75391 83.8339C4.29263 84.1072 5.48137 84.4324 8.47954 84.7593C14.3582 85.4001 26.0072 85.9564 50.118 87.1409L92.8255 89.2393C93.3272 89.2639 93.8205 89.0987 94.2061 88.7767L94.7369 88.3332L94.9955 88.1013C95.2556 87.8521 95.5181 87.5545 95.742 87.2535C95.8887 87.0563 96.0033 86.8778 96.0832 86.7335C96.1703 86.5761 96.1841 86.5164 96.1761 86.5467C96.1787 86.5323 96.2008 86.4277 96.2413 86.1795C96.2827 85.9257 96.3339 85.5838 96.3945 85.1597C96.5155 84.313 96.6686 83.1681 96.8432 81.8046C97.192 79.0793 97.6242 75.5023 98.0555 71.7341C98.9197 64.1827 100.236 52.7771 100.98 46.3876C101.725 39.9878 102.034 36.6977 101.9 34.7616C101.837 33.8501 101.682 33.426 101.545 33.1823C101.413 32.9496 101.206 32.7172 100.713 32.3378C100.63 32.3118 100.316 32.2166 99.5165 32.101C98.3174 31.9276 96.3236 31.7406 92.9254 31.5033C86.1507 31.0302 74.0221 30.3737 52.0445 29.2219L5.09035 26.7612Z" fill="var(--fill-0, black)"/>
<path d="M34.293 56.9193C34.5057 56.9584 34.669 57.13 34.6818 57.3355C34.7176 57.9075 34.7023 59.6963 34.8549 60.2984C35.0479 61.0598 35.3382 61.7493 35.7344 62.2427C36.1219 62.725 36.5869 62.9956 37.1659 63.0135C37.6974 63.03 38.4074 62.8373 39.329 62.2499C39.5613 62.1019 39.8836 62.1313 40.0714 62.3304C40.2587 62.5294 40.2433 62.8246 40.0479 63.0115C39.6912 63.3522 39.3368 63.7422 39.0408 64.1487C38.6407 64.6983 38.3726 65.2441 38.312 65.7191C38.2552 66.1676 38.3804 66.5445 38.7771 66.8544C39.1525 67.1474 40.9746 67.5155 42.0689 67.6599C42.3482 67.6968 42.558 67.9226 42.5358 68.179C42.5134 68.4357 42.2674 68.6223 41.9858 68.6101C40.8833 68.5624 39.0248 68.6076 38.6041 68.8309C38.1597 69.067 37.9711 69.4169 37.949 69.8682C37.9259 70.3464 38.0955 70.9304 38.394 71.5412C38.615 71.9931 38.8961 72.4394 39.1882 72.837C39.3482 73.0549 39.3121 73.3483 39.0932 73.5118C38.8737 73.6752 38.5511 73.6483 38.3481 73.4621C37.5425 72.7237 36.8768 72.4097 36.3505 72.3336C35.7774 72.2508 35.2721 72.4368 34.8069 72.8441C34.331 73.2611 33.9255 73.8899 33.6031 74.6061C33.3482 75.1727 33.0527 76.9377 32.9181 77.4949C32.8698 77.695 32.6791 77.8356 32.4629 77.8373L32.1848 77.813C31.9722 77.7738 31.8088 77.6022 31.796 77.3967C31.7602 76.8246 31.7757 75.0351 31.623 74.4329C31.4299 73.6715 31.1398 72.9819 30.7435 72.4886C30.3561 72.0067 29.8908 71.7357 29.312 71.7178C28.7805 71.7013 28.0704 71.895 27.1488 72.4823C26.9165 72.6303 26.5942 72.6009 26.4064 72.4018C26.2191 72.2028 26.2346 71.9076 26.43 71.7208C26.7867 71.38 27.1411 70.9893 27.4371 70.5826C27.8371 70.0329 28.1056 69.4873 28.1659 69.0123C28.2225 68.564 28.0976 68.1867 27.7008 67.877C27.3253 67.584 25.5029 67.2168 24.4089 67.0723C24.1295 67.0354 23.9196 66.8089 23.9421 66.5523C23.9647 66.2959 24.2106 66.11 24.492 66.1221C25.5948 66.1699 27.4531 66.1239 27.8738 65.9004C28.3182 65.6642 28.507 65.3147 28.5289 64.8632C28.5517 64.3849 28.3824 63.8008 28.0839 63.1901C27.8629 62.7383 27.5817 62.2927 27.2896 61.8953C27.1296 61.6774 27.1657 61.3839 27.3846 61.2205C27.6041 61.057 27.9267 61.084 28.1298 61.2701C28.9354 62.0086 29.6011 62.3216 30.1274 62.3977C30.7007 62.4806 31.2056 62.2949 31.671 61.8872C32.1469 61.4701 32.5525 60.8415 32.8748 60.1252C33.1296 59.5587 33.4252 57.7944 33.5597 57.2374C33.608 57.0372 33.7987 56.8966 34.0149 56.8949L34.293 56.9193Z" fill="var(--fill-0, black)"/>
<path d="M63.5224 36.9346C63.8506 36.9951 64.1027 37.2599 64.1225 37.5771C64.1777 38.4598 64.1541 41.2208 64.3896 42.1501C64.6875 43.3252 65.1355 44.3893 65.7471 45.1508C66.3451 45.8952 67.0628 46.3128 67.9564 46.3405C68.7768 46.3659 69.8726 46.0685 71.295 45.162C71.6535 44.9335 72.151 44.9789 72.4408 45.2862C72.7298 45.5934 72.706 46.049 72.4044 46.3373C71.854 46.8632 71.307 47.4651 70.8502 48.0926C70.2327 48.9408 69.8188 49.7832 69.7254 50.5163C69.6376 51.2085 69.8309 51.7903 70.4431 52.2685C71.0226 52.7208 73.8348 53.2888 75.5238 53.5118C75.9548 53.5687 76.2786 53.9172 76.2444 54.313C76.2098 54.709 75.8301 54.9971 75.3955 54.9783C73.694 54.9046 70.8255 54.9744 70.1762 55.319C69.4902 55.6834 69.1992 56.2234 69.1651 56.92C69.1295 57.6581 69.3912 58.5594 69.8519 59.5022C70.1929 60.1996 70.6268 60.8885 71.0777 61.5021C71.3246 61.8384 71.269 62.2912 70.931 62.5435C70.5922 62.7958 70.0944 62.7542 69.781 62.4669C68.5376 61.3273 67.5102 60.8425 66.6979 60.7251C65.8134 60.5973 65.0335 60.8844 64.3156 61.5131C63.581 62.1566 62.9551 63.1271 62.4576 64.2325C62.0642 65.107 61.6081 67.8311 61.4004 68.6911C61.3258 69 61.0316 69.217 60.6978 69.2196L60.2687 69.182C59.9404 69.1216 59.6883 68.8567 59.6685 68.5396C59.6133 67.6565 59.6371 64.8946 59.4016 63.9652C59.1035 62.7901 58.6557 61.7257 58.0441 60.9644C57.4462 60.2206 56.728 59.8024 55.8347 59.7747C55.0144 59.7493 53.9184 60.0482 52.496 60.9547C52.1375 61.1831 51.64 61.1377 51.3502 60.8304C51.0612 60.5233 51.085 60.0676 51.3866 59.7793C51.9372 59.2533 52.4841 58.6503 52.941 58.0227C53.5584 57.1742 53.9727 56.3321 54.0657 55.599C54.1531 54.9071 53.9603 54.3248 53.348 53.8468C52.7685 53.3947 49.9557 52.8278 48.2672 52.6048C47.836 52.5479 47.5121 52.1983 47.5467 51.8022C47.5817 51.4065 47.9612 51.1196 48.3955 51.1384C50.0976 51.2121 52.9657 51.141 53.6149 50.7962C54.3008 50.4316 54.5922 49.8922 54.626 49.1952C54.6613 48.4571 54.4 47.5557 53.9392 46.613C53.5982 45.9158 53.1641 45.228 52.7133 44.6146C52.4664 44.2783 52.5221 43.8254 52.86 43.5731C53.1988 43.3208 53.6966 43.3625 54.01 43.6497C55.2534 44.7895 56.2809 45.2727 57.0932 45.3901C57.9781 45.518 58.7574 45.2314 59.4756 44.6021C60.21 43.9584 60.8361 42.9882 61.3335 41.8827C61.7268 41.0084 62.183 38.2853 62.3906 37.4256C62.4652 37.1167 62.7595 36.8996 63.0932 36.8971L63.5224 36.9346Z" fill="var(--fill-0, black)"/>
</g>
</svg>
