<svg preserveAspectRatio="none" width="100%" height="100%" overflow="visible" style="display: block;" viewBox="0 0 98.5489 26.1423" fill="none" xmlns="http://www.w3.org/2000/svg">
<path id="Vector" d="M93.7832 13.7822C94.4887 13.8192 95.1587 14.1044 95.6748 14.5869L96.3105 15.1807C97.1514 15.9663 97.3445 16.201 97.4551 16.7217C97.523 17.0416 97.5559 17.4923 97.5479 18.2197C97.5398 18.9418 97.4931 19.8739 97.4268 21.1406L97.3662 22.2988C97.2795 23.9534 95.8675 25.2244 94.2129 25.1377L94.0459 25.1289C95.6756 24.3755 96.8448 22.7682 96.9453 20.8506L96.9629 20.5166C97.0179 19.4674 97.0562 18.6959 97.0547 18.1279C97.0532 17.5801 97.0177 17.0832 96.8438 16.6543C96.6444 16.1632 96.3157 15.8826 96.0332 15.6738C95.734 15.4528 95.5192 15.327 95.1416 15.0156L94.5273 14.5088C94.1481 14.1959 93.727 13.9427 93.2793 13.7549L93.7832 13.7822ZM6.50098 3.09375L33.7158 4.52148C34.3695 4.55579 34.994 4.80326 35.4941 5.22559L40.0342 9.05859L40.0791 9.09668L40.1289 9.12988L44.8418 12.2344C45.584 12.7234 46.4434 13.0062 47.3311 13.0527L91.5029 15.3691C92.1448 15.4029 92.7591 15.6418 93.2549 16.0508L93.8691 16.5576V16.5586C94.2907 16.9062 94.6859 17.1649 94.8447 17.2822C94.9393 17.3521 94.9733 17.385 94.9863 17.3994C94.9905 17.404 94.9891 17.4011 94.9912 17.4062C95.0098 17.4522 95.0533 17.6134 95.0547 18.1338C95.056 18.6342 95.0219 19.3426 94.9658 20.4121L94.9482 20.7461C94.8615 22.4007 93.4495 23.6717 91.7949 23.585L5.91504 19.084C4.26049 18.9973 2.98951 17.5862 3.07617 15.9316L3.25879 12.4336C3.42734 9.21748 3.50903 7.28847 3.66504 5.99609C3.81742 4.73391 4.0247 4.25819 4.33594 3.86523C4.49052 3.67007 4.74965 3.49738 5.1377 3.34082L5.22168 3.30664C5.6274 3.14299 6.0641 3.07086 6.50098 3.09375ZM1.0791 15.8271C0.979735 17.7251 1.95176 19.4311 3.4668 20.3574C2.00027 20.0943 0.923899 18.7757 1.00391 17.249L1.15137 14.4502L1.0791 15.8271ZM4.85254 1.00391L6.59668 1.09473C5.87155 1.05805 5.14705 1.18052 4.47363 1.45215L4.38965 1.48633C3.85527 1.70191 3.23057 2.03849 2.76758 2.62305C2.12161 3.43862 1.85003 4.34508 1.67969 5.75586C1.59643 6.44549 1.53353 7.29873 1.4707 8.37305C1.56065 6.71823 1.63764 5.50907 1.74512 4.57812C1.92096 3.05532 2.15727 2.44275 2.53711 1.91895C2.70108 1.69288 2.97221 1.49214 3.35547 1.31445L3.43359 1.27832C3.87716 1.07271 4.36431 0.978282 4.85254 1.00391Z" stroke="var(--stroke-0, black)" stroke-width="2"/>
</svg>
