<svg width="115" height="98" viewBox="0 0 115 98" fill="none" xmlns="http://www.w3.org/2000/svg">
<path fill-rule="evenodd" clip-rule="evenodd" d="M12.809 0.925015C12.3424 1.14136 11.9046 1.43293 11.6026 1.84928C10.5473 3.30421 10.5412 5.09975 10.1381 12.7908L9.8801 17.7145C9.76448 19.9206 11.4592 21.8027 13.6653 21.9183L104.035 26.6544C106.242 26.77 108.124 25.0754 108.239 22.8693L108.3 21.7111C108.564 16.6671 108.534 16.5246 106.868 14.968L106.232 14.3737C105.544 13.7304 104.651 13.3507 103.71 13.3013L57.5734 10.8812C56.7856 10.8399 56.0276 10.5665 55.3947 10.0955L45.6095 2.81262C44.9767 2.34162 44.2187 2.06826 43.4309 2.02692L14.7794 0.523198C14.1283 0.489028 13.4787 0.614525 12.8872 0.888764L12.809 0.925015Z" fill="#FFF200"/>
<path fill-rule="evenodd" clip-rule="evenodd" d="M5.40281 25.4649C4.53346 26.1894 3.61333 27.462 3.35741 28.2934C3.10208 29.1248 3.00005 42.7066 3.13153 58.4749C3.33174 82.4855 3.51756 87.3977 4.27558 88.698C6.23671 92.0606 5.00172 91.9239 55.9024 94.4193L101.128 96.6366C102.153 96.6869 103.158 96.3412 103.936 95.6712L104.558 95.1347C105.566 94.2662 106.564 92.8834 106.775 92.0618C106.987 91.2409 107.918 83.825 108.846 75.5821C109.773 67.3392 111.185 54.8889 111.983 47.9149C113.563 34.1195 113.462 32.5817 110.843 30.5362C109.667 29.6176 104.738 29.2706 58.2648 26.835L8.5494 24.2296C7.54293 24.1768 6.55364 24.5059 5.77938 25.1511L5.40281 25.4649Z" fill="#FFF200"/>
<path d="M43.6429 4.0405C44.5143 4.08623 45.3473 4.41545 46.014 4.97838L50.554 8.81206L55.2671 11.9175C55.8608 12.3086 56.5481 12.5342 57.258 12.5714L101.43 14.8883C102.286 14.9332 103.104 15.2525 103.765 15.7979L104.38 16.3044C105.979 17.6225 106.061 16.7442 105.839 20.9819L105.821 21.3164C105.705 23.5225 103.823 25.2172 101.617 25.1016L15.7369 20.6008C13.5308 20.4851 11.8362 18.603 11.9518 16.3969L12.1351 12.8988C12.4691 6.52623 12.4693 4.97005 13.4266 3.76146C13.7354 3.37175 14.1776 3.11719 14.6387 2.93118L14.7226 2.89744C15.2636 2.67928 15.8459 2.58173 16.4284 2.61229L43.6429 4.0405ZM16.3237 4.60955C16.0324 4.59427 15.7408 4.64253 15.4704 4.75161L15.3864 4.78633C15.2398 4.84547 15.1391 4.89805 15.0722 4.94197C15.0078 4.98421 14.9906 5.00719 14.9936 5.00337C14.8498 5.18499 14.6761 5.44616 14.5327 6.63383C14.382 7.88201 14.3025 9.75739 14.1324 13.0034L13.949 16.5016C13.8912 17.6046 14.7386 18.5457 15.8416 18.6035L101.722 23.1043C102.825 23.1621 103.766 22.3148 103.824 21.2117L103.841 20.8772C103.898 19.7975 103.931 19.1208 103.929 18.6542C103.929 18.5795 103.926 18.5158 103.924 18.4622C103.797 18.3727 103.625 18.2498 103.442 18.1103L103.107 17.8473L102.492 17.3398C102.162 17.0674 101.753 16.9081 101.325 16.8856L57.1534 14.5687C56.0883 14.5128 55.0571 14.1745 54.1664 13.5877L49.4533 10.4823L49.3541 10.4165L49.2633 10.3404L44.7243 6.50673C44.3909 6.22518 43.974 6.06063 43.5382 6.03776L16.3237 4.60955Z" fill="black"/>
<path d="M58.1186 29.8315C102.056 32.1342 106.717 32.4598 107.83 33.3032C110.309 35.1812 110.408 36.5905 108.936 49.2266C108.192 55.6146 106.876 67.0181 106.012 74.5683C105.148 82.1186 104.278 88.9118 104.08 89.6636C103.881 90.416 102.94 91.681 101.988 92.475L101.457 92.9185C100.686 93.5624 99.7005 93.893 98.6971 93.8437L55.9896 91.7454C7.86682 89.3811 9.03283 89.5078 7.17385 86.4245C6.45524 85.2321 6.27151 80.7312 6.04536 58.7337C5.89685 44.2882 5.97331 31.846 6.21339 31.0835C6.45404 30.3222 7.32176 29.1577 8.1425 28.4954L8.44276 28.252C9.21018 27.6327 10.1797 27.3191 11.1645 27.3707L58.1186 29.8315ZM11.0598 29.368C10.5674 29.3422 10.0826 29.4994 9.69893 29.8091L9.39872 30.0515C9.14597 30.2555 8.83621 30.5818 8.56357 30.9475C8.34451 31.2414 8.21657 31.4696 8.157 31.5961C8.14829 31.6906 8.13779 31.8263 8.12753 32.0092C8.10444 32.4207 8.08303 33.0026 8.06396 33.7445C8.02592 35.2247 7.999 37.2881 7.98385 39.7887C7.95359 44.7869 7.97108 51.4982 8.04526 58.7133C8.15842 69.7205 8.26143 76.3125 8.42384 80.2998C8.50527 82.2989 8.59937 83.5875 8.70911 84.4288C8.82729 85.3346 8.93767 85.4765 8.88651 85.3916C9.40867 86.2576 9.41589 86.2847 9.72337 86.4407C10.2621 86.714 11.4508 87.0393 14.449 87.3661C20.3277 88.0069 31.9767 88.5632 56.0875 89.7477L98.795 91.8461C99.2967 91.8708 99.79 91.7055 100.176 91.3835L100.706 90.94L100.965 90.7081C101.225 90.4589 101.488 90.1613 101.711 89.8603C101.858 89.6631 101.973 89.4846 102.053 89.3403C102.14 89.1829 102.154 89.1232 102.146 89.1535C102.148 89.1391 102.17 89.0345 102.211 88.7863C102.252 88.5325 102.303 88.1906 102.364 87.7666C102.485 86.9198 102.638 85.7749 102.813 84.4114C103.161 81.6861 103.594 78.1091 104.025 74.3409C104.889 66.7896 106.205 55.3839 106.949 48.9944C107.695 42.5947 108.004 39.3046 107.869 37.3684C107.806 36.4569 107.652 36.0328 107.514 35.7891C107.383 35.5564 107.176 35.3241 106.682 34.9446C106.6 34.9186 106.285 34.8234 105.486 34.7078C104.287 34.5344 102.293 34.3474 98.8949 34.1101C92.1202 33.637 79.9916 32.9806 58.0139 31.8288L11.0598 29.368Z" fill="black"/>
<path d="M40.2624 59.5261C40.4751 59.5653 40.6384 59.7368 40.6513 59.9423C40.687 60.5143 40.6718 62.3032 40.8243 62.9053C41.0173 63.6666 41.3077 64.3561 41.7039 64.8495C42.0914 65.3318 42.5563 65.6024 43.1354 65.6203C43.6669 65.6368 44.3769 65.4441 45.2985 64.8567C45.5308 64.7087 45.8531 64.7381 46.0409 64.9372C46.2281 65.1362 46.2127 65.4315 46.0173 65.6183C45.6606 65.959 45.3063 66.349 45.0103 66.7555C44.6102 67.3051 44.342 67.8509 44.2815 68.3259C44.2246 68.7744 44.3499 69.1513 44.7465 69.4612C45.122 69.7542 46.944 70.1223 48.0384 70.2667C48.3176 70.3036 48.5275 70.5294 48.5053 70.7859C48.4829 71.0425 48.2368 71.2291 47.9553 71.2169C46.8528 71.1692 44.9943 71.2144 44.5736 71.4377C44.1291 71.6738 43.9406 72.0237 43.9185 72.475C43.8954 72.9532 44.065 73.5372 44.3635 74.148C44.5844 74.5999 44.8655 75.0462 45.1577 75.4438C45.3177 75.6617 45.2816 75.9551 45.0626 76.1186C44.8431 76.282 44.5206 76.2551 44.3175 76.0689C43.5119 75.3305 42.8462 75.0165 42.32 74.9404C41.7468 74.8576 41.2416 75.0436 40.7764 75.4509C40.3004 75.8679 39.8949 76.4967 39.5726 77.2129C39.3177 77.7795 39.0221 79.5445 38.8876 80.1017C38.8392 80.3018 38.6486 80.4425 38.4323 80.4441L38.1543 80.4198C37.9416 80.3806 37.7783 80.209 37.7655 80.0035C37.7297 79.4314 37.7451 77.6419 37.5925 77.0397C37.3994 76.2784 37.1092 75.5887 36.7129 75.0954C36.3256 74.6135 35.8602 74.3426 35.2815 74.3246C34.75 74.3081 34.0398 74.5018 33.1183 75.0891C32.886 75.2372 32.5636 75.2077 32.3759 75.0086C32.1886 74.8096 32.204 74.5144 32.3994 74.3276C32.7562 73.9868 33.1105 73.5961 33.4066 73.1894C33.8066 72.6397 34.075 72.0941 34.1353 71.6191C34.192 71.1708 34.067 70.7935 33.6703 70.4838C33.2948 70.1908 31.4723 69.8236 30.3783 69.6791C30.0989 69.6422 29.8891 69.4157 29.9115 69.1591C29.9342 68.9027 30.1801 68.7168 30.4615 68.729C31.5643 68.7767 33.4226 68.7307 33.8432 68.5072C34.2876 68.271 34.4764 67.9215 34.4983 67.47C34.5212 66.9917 34.3519 66.4077 34.0533 65.7969C33.8324 65.3452 33.5511 64.8995 33.259 64.5021C33.099 64.2842 33.1351 63.9908 33.3541 63.8273C33.5736 63.6638 33.8962 63.6908 34.0992 63.8769C34.9048 64.6154 35.5705 64.9284 36.0969 65.0046C36.6702 65.0874 37.1751 64.9017 37.6405 64.494C38.1163 64.0769 38.5219 63.4483 38.8442 62.732C39.099 62.1656 39.3946 60.4012 39.5292 59.8442C39.5775 59.644 39.7681 59.5034 39.9844 59.5018L40.2624 59.5261Z" fill="black"/>
<path d="M69.4918 39.5414C69.8201 39.6019 70.0721 39.8667 70.092 40.1839C70.1472 41.0666 70.1236 43.8276 70.359 44.7569C70.6569 45.932 71.105 46.9961 71.7165 47.7576C72.3146 48.502 73.0322 48.9197 73.9259 48.9473C74.7463 48.9727 75.842 48.6753 77.2644 47.7688C77.623 47.5403 78.1204 47.5857 78.4103 47.893C78.6993 48.2002 78.6755 48.6558 78.3739 48.9441C77.8234 49.47 77.2765 50.0719 76.8196 50.6994C76.2022 51.5477 75.7883 52.39 75.6949 53.1231C75.6071 53.8153 75.8004 54.3971 76.4126 54.8753C76.992 55.3276 79.8042 55.8956 81.4933 56.1186C81.9242 56.1755 82.2481 56.524 82.2139 56.9198C82.1792 57.3158 81.7995 57.6039 81.365 57.5851C79.6634 57.5114 76.7949 57.5812 76.1457 57.9259C75.4597 58.2903 75.1687 58.8302 75.1346 59.5268C75.0989 60.2649 75.3607 61.1662 75.8214 62.109C76.1624 62.8064 76.5962 63.4953 77.0472 64.1089C77.2941 64.4452 77.2384 64.898 76.9005 65.1503C76.5617 65.4026 76.0639 65.361 75.7504 65.0737C74.5071 63.9341 73.4797 63.4494 72.6674 63.3319C71.7829 63.2041 71.003 63.4912 70.285 64.1199C69.5505 64.7634 68.9246 65.7339 68.4271 66.8394C68.0337 67.7138 67.5775 70.4379 67.3698 71.2979C67.2952 71.6068 67.001 71.8238 66.6672 71.8264L66.2381 71.7888C65.9099 71.7284 65.6578 71.4635 65.638 71.1464C65.5828 70.2634 65.6066 67.5014 65.371 66.572C65.073 65.3969 64.6252 64.3325 64.0135 63.5712C63.4156 62.8274 62.6975 62.4092 61.8042 62.3815C60.9838 62.3561 59.8878 62.655 58.4655 63.5615C58.107 63.79 57.6095 63.7445 57.3197 63.4372C57.0306 63.1301 57.0544 62.6744 57.356 62.3861C57.9067 61.8601 58.4535 61.2571 58.9104 60.6295C59.5279 59.781 59.9421 58.9389 60.0352 58.2058C60.1226 57.5139 59.9298 56.9316 59.3175 56.4536C58.7379 56.0015 55.9252 55.4346 54.2367 55.2117C53.8055 55.1547 53.4815 54.8051 53.5162 54.4091C53.5512 54.0134 53.9307 53.7264 54.365 53.7452C56.0671 53.8189 58.9352 53.7478 59.5844 53.403C60.2703 53.0384 60.5617 52.499 60.5954 51.802C60.6308 51.0639 60.3694 50.1625 59.9086 49.2199C59.5677 48.5226 59.1336 47.8348 58.6828 47.2214C58.4358 46.8851 58.4915 46.4322 58.8295 46.1799C59.1683 45.9276 59.6661 45.9693 59.9795 46.2566C61.2229 47.3963 62.2503 47.8795 63.0627 47.9969C63.9475 48.1248 64.7268 47.8382 65.445 47.2089C66.1795 46.5652 66.8055 45.595 67.303 44.4895C67.6962 43.6152 68.1524 40.8921 68.3601 40.0324C68.4347 39.7235 68.7289 39.5064 69.0627 39.5039L69.4918 39.5414Z" fill="black"/>
</svg>
