<svg preserveAspectRatio="none" width="100%" height="100%" overflow="visible" style="display: block;" viewBox="0 0 110 67.6807" fill="none" xmlns="http://www.w3.org/2000/svg">
<g id="Group 23">
<path id="image 5 (Traced)" fill-rule="evenodd" clip-rule="evenodd" d="M1.93652 1.39836C1.10627 2.16732 0.254009 3.48635 0.0419564 4.33C-0.169516 5.17365 0.439409 18.7421 1.39596 34.4819C2.85252 58.4492 3.29516 63.3449 4.12019 64.6038C6.25462 67.8591 5.01418 67.7873 55.9757 67.6153L101.256 67.4626C102.282 67.4592 103.268 67.0614 104.009 66.3516L104.602 65.7832C105.563 64.8632 106.488 63.4301 106.656 62.5986C106.824 61.7677 107.366 54.3132 107.861 46.033C108.355 37.7529 109.114 25.2458 109.546 18.2395C110.401 4.38038 110.22 2.85 107.497 0.944401C106.275 0.0885915 101.335 0 54.7978 0L5.01414 0C4.00629 0 3.03558 0.380459 2.29615 1.06529L1.93652 1.39836Z" fill="var(--fill-0, #D9D9D9)"/>
<path id="image 5 (Traced)_2" d="M7.79004 4H54.8086C76.8116 4 88.9683 4.02058 95.7695 4.13867C99.1754 4.19781 101.21 4.28138 102.457 4.39551C103.756 4.51436 104.021 4.65756 104.072 4.69238C104.673 5.09974 105.035 5.42324 105.292 5.82812C105.55 6.23382 105.757 6.80925 105.878 7.80176C106.127 9.84284 105.98 13.2564 105.573 19.6455C105.165 26.0645 104.447 37.5219 103.979 45.1074C103.746 48.8965 103.501 52.496 103.295 55.2412C103.192 56.6142 103.099 57.7711 103.021 58.6299C102.981 59.0771 102.946 59.4249 102.919 59.6758L102.859 60.1406C102.819 60.3325 102.646 60.7232 102.316 61.2188C102.002 61.6914 101.606 62.1677 101.217 62.5283L100.709 63C100.157 63.5123 99.4319 63.7982 98.6787 63.8008L55.9189 63.9404C31.8037 64.0193 20.0963 64.0737 14.1533 63.7393C11.1526 63.5704 9.77653 63.3062 9.03711 62.9785C8.41619 62.7033 8.25921 62.4125 7.72363 61.6211C7.65389 61.518 7.50871 61.2018 7.34082 60.29C7.17878 59.41 7.0137 58.0914 6.82715 56.0928C6.45458 52.1012 6.0062 45.5074 5.31738 34.5254C4.86545 27.32 4.49632 20.6129 4.26465 15.6133C4.14879 13.1129 4.06707 11.0433 4.02734 9.55371C4.00746 8.80809 3.99843 8.21412 4 7.78711C4.00079 7.57299 4.00423 7.40893 4.00977 7.29297C4.01218 7.24257 4.01405 7.20992 4.01563 7.19141C4.08218 6.95779 4.26194 6.58206 4.54785 6.15332C4.83673 5.72018 5.18192 5.30995 5.49902 5.02539L5.78613 4.76758C6.33661 4.2736 7.05042 4 7.79004 4Z" stroke="var(--stroke-0, black)" stroke-width="2"/>
<g id="Group 19">
<path id="Union" d="M38.531 33.5884C38.7454 33.6164 38.9175 33.7792 38.9411 33.9838C39.0067 34.5531 39.0851 36.3403 39.269 36.9336C39.5016 37.6838 39.8276 38.3571 40.2491 38.8291C40.6613 39.2905 41.1398 39.5364 41.7189 39.524C42.2506 39.5126 42.9495 39.283 43.8391 38.6482C44.0633 38.4882 44.3868 38.5008 44.5847 38.6898C44.7821 38.8787 44.7822 39.1743 44.5968 39.3711C44.2585 39.73 43.925 40.138 43.6507 40.5595C43.2799 41.1293 43.0407 41.6883 43.0051 42.1658C42.9718 42.6167 43.1166 42.9866 43.5289 43.2752C43.9192 43.5482 45.758 43.8204 46.8584 43.9074C47.1392 43.9296 47.3606 44.1441 47.3519 44.4014C47.3429 44.6588 47.107 44.858 46.8252 44.8606C45.7217 44.8707 43.8681 45.0131 43.4597 45.2581C43.0281 45.5171 42.8582 45.8764 42.8598 46.3282C42.8617 46.807 43.0616 47.3813 43.3917 47.9757C43.636 48.4154 43.94 48.8464 44.2526 49.2281C44.4238 49.4374 44.4031 49.7323 44.193 49.907C43.9824 50.0817 43.6588 50.0716 43.4463 49.8964C42.6032 49.2012 41.922 48.9224 41.3924 48.8739C40.8158 48.8212 40.3209 49.0334 39.8777 49.4646C39.4242 49.9059 39.0522 50.555 38.7677 51.2871C38.5428 51.8663 38.3401 53.6443 38.2349 54.2078C38.1971 54.4102 38.0141 54.5606 37.7982 54.5736L37.5192 54.5638C37.3048 54.5358 37.1327 54.373 37.1091 54.1685C37.0435 53.599 36.9653 51.8112 36.7813 51.2178C36.5486 50.4676 36.2228 49.7941 35.8012 49.3222C35.3891 48.8612 34.9103 48.615 34.3313 48.6274C33.7997 48.6387 33.1007 48.8693 32.2111 49.504C31.9869 49.664 31.6635 49.6515 31.4655 49.4625C31.2681 49.2736 31.2681 48.978 31.4534 48.7812C31.7919 48.4222 32.1253 48.0135 32.3996 47.5919C32.7703 47.0219 33.0098 46.463 33.0452 45.9855C33.0783 45.5349 32.9338 45.1646 32.5214 44.8761C32.131 44.6032 30.2919 44.3318 29.1918 44.2448C28.9109 44.2226 28.6894 44.0074 28.6984 43.75C28.7077 43.4928 28.9435 43.2942 29.2251 43.2916C30.3289 43.2816 32.1823 43.1384 32.5906 42.8932C33.0221 42.6341 33.1923 42.2752 33.1905 41.8231C33.1883 41.3443 32.9887 40.7699 32.6586 40.1756C32.4143 39.7361 32.1101 39.3057 31.7976 38.9241C31.6264 38.7149 31.6471 38.42 31.8572 38.2453C32.0679 38.0706 32.3914 38.0806 32.6039 38.2559C33.4471 38.9512 34.1283 39.229 34.6579 39.2774C35.2347 39.3302 35.7292 39.1183 36.1726 38.6868C36.626 38.2453 36.9982 37.5964 37.2825 36.8642C37.5073 36.2852 37.7102 34.5078 37.8154 33.9445C37.8532 33.7421 38.0362 33.5916 38.2521 33.5787L38.531 33.5884Z" fill="var(--fill-0, black)"/>
<path id="Union_2" d="M66.6744 12.1014C67.0054 12.1446 67.271 12.3959 67.3073 12.7116C67.4087 13.5902 67.5296 16.3486 67.8134 17.2643C68.1724 18.4222 68.6755 19.4614 69.3261 20.1899C69.9623 20.902 70.7008 21.2815 71.5947 21.2624C72.4153 21.2448 73.4939 20.8904 74.8669 19.9107C75.213 19.6638 75.7122 19.6831 76.0177 19.9748C76.3224 20.2664 76.3225 20.7227 76.0364 21.0264C75.5142 21.5803 74.9995 22.2101 74.5761 22.8606C74.0039 23.74 73.6347 24.6028 73.5798 25.3398C73.5283 26.0357 73.7518 26.6065 74.3882 27.052C74.9905 27.4734 77.8286 27.8935 79.527 28.0278C79.9603 28.062 80.302 28.3931 80.2886 28.7901C80.2747 29.1875 79.9106 29.495 79.4756 29.4989C77.7725 29.5144 74.9117 29.7343 74.2813 30.1124C73.6153 30.5122 73.353 31.0667 73.3554 31.7641C73.3584 32.5031 73.667 33.3894 74.1764 34.3068C74.5534 34.9854 75.0227 35.6506 75.5052 36.2398C75.7694 36.5627 75.7374 37.0179 75.4132 37.2875C75.088 37.5572 74.5887 37.5416 74.2607 37.2711C72.9594 36.1981 71.908 35.7679 71.0907 35.6931C70.2007 35.6117 69.4369 35.9393 68.7529 36.6047C68.053 37.2858 67.4788 38.2877 67.0398 39.4177C66.6927 40.3115 66.3797 43.0557 66.2173 43.9254C66.159 44.2378 65.8766 44.4699 65.5434 44.4899L65.1129 44.4749C64.7819 44.4317 64.5163 44.1804 64.4799 43.8647C64.3786 42.9858 64.2578 40.2264 63.9739 39.3106C63.6148 38.1528 63.1119 37.1133 62.4612 36.385C61.8252 35.6734 61.0862 35.2934 60.1926 35.3125C59.3721 35.3301 58.2933 35.686 56.9203 36.6656C56.5742 36.9126 56.075 36.8932 55.7695 36.6015C55.4649 36.3099 55.4648 35.8537 55.7508 35.5499C56.2732 34.9959 56.7878 34.3651 57.2112 33.7143C57.7834 32.8347 58.153 31.9721 58.2076 31.2351C58.2586 30.5396 58.0356 29.9682 57.3991 29.5229C56.7967 29.1017 53.9581 28.6828 52.2603 28.5486C51.8267 28.5143 51.4849 28.1821 51.4988 27.7848C51.513 27.3878 51.877 27.0813 52.3116 27.0774C54.0153 27.0619 56.8758 26.8408 57.506 26.4625C58.1719 26.0625 58.4347 25.5086 58.4319 24.8108C58.4285 24.0718 58.1204 23.1853 57.6109 22.2681C57.2339 21.5897 56.7644 20.9255 56.2821 20.3365C56.0179 20.0136 56.0498 19.5585 56.3741 19.2888C56.6992 19.0192 57.1985 19.0347 57.5266 19.3052C58.8279 20.3783 59.8792 20.807 60.6966 20.8818C61.587 20.9632 62.3502 20.6362 63.0345 19.9702C63.7342 19.2889 64.3086 18.2873 64.7475 17.1573C65.0945 16.2636 65.4076 13.5204 65.5699 12.6509C65.6283 12.3385 65.9107 12.1064 66.2439 12.0864L66.6744 12.1014Z" fill="var(--fill-0, black)"/>
</g>
</g>
</svg>
