<svg preserveAspectRatio="none" width="100%" height="100%" overflow="visible" style="display: block;" viewBox="0 0 15 17" fill="none" xmlns="http://www.w3.org/2000/svg">
<path id="Union" d="M7.60468 0.5C7.76615 0.515611 7.89941 0.635015 7.92244 0.79015C7.98655 1.22194 8.09209 2.58084 8.24544 3.02775C8.43944 3.59288 8.70144 4.09696 9.02975 4.44518C9.35082 4.78556 9.71595 4.96008 10.1498 4.93525C10.548 4.91243 11.0659 4.719 11.7162 4.21195C11.8801 4.08414 12.1229 4.08509 12.2762 4.22375C12.4291 4.36238 12.4369 4.58749 12.3031 4.74228C12.0589 5.02458 11.8196 5.34417 11.625 5.67242C11.362 6.11619 11.1972 6.54828 11.1831 6.91285C11.1699 7.25709 11.2881 7.53489 11.6048 7.74374C11.9045 7.94126 13.29 8.09963 14.1172 8.13662C14.3282 8.14605 14.4998 8.30353 14.5 8.49965C14.5 8.69593 14.3284 8.85394 14.1172 8.86338C13.2903 8.90038 11.9045 9.05814 11.6048 9.25557C11.2881 9.46431 11.1701 9.7424 11.1831 10.0865C11.1971 10.451 11.362 10.883 11.625 11.3269C11.8196 11.6552 12.0588 11.9753 12.3031 12.2577C12.4369 12.4125 12.4291 12.6376 12.2762 12.7762C12.1229 12.9149 11.8801 12.9159 11.7162 12.788C11.066 12.281 10.548 12.0869 10.1498 12.0641C9.71613 12.0392 9.35072 12.214 9.02975 12.5541C8.70139 12.9022 8.43949 13.4065 8.24544 13.9716C8.09201 14.4185 7.98657 15.7779 7.92244 16.2098C7.89941 16.365 7.76616 16.4844 7.60468 16.5H7.39532C7.23384 16.4844 7.10059 16.365 7.07756 16.2098C7.01343 15.7779 6.90799 14.4185 6.75456 13.9716C6.56051 13.4065 6.29861 12.9022 5.97025 12.5541C5.64928 12.214 5.28387 12.0392 4.85022 12.0641C4.45199 12.0869 3.93404 12.281 3.28383 12.788C3.11992 12.9159 2.87715 12.9149 2.72382 12.7762C2.57089 12.6376 2.5631 12.4125 2.6969 12.2577C2.94121 11.9753 3.18043 11.6552 3.37505 11.3269C3.63803 10.883 3.80293 10.451 3.81693 10.0865C3.82994 9.7424 3.71193 9.46431 3.39523 9.25557C3.0955 9.05814 1.70972 8.90038 0.882812 8.86338C0.671636 8.85394 0.5 8.69593 0.5 8.49965C0.500196 8.30353 0.671757 8.14605 0.882812 8.13662C1.70999 8.09963 3.09555 7.94126 3.39523 7.74374C3.71188 7.53489 3.83011 7.25709 3.81693 6.91285C3.80275 6.54828 3.63805 6.11619 3.37505 5.67242C3.18044 5.34417 2.94114 5.02458 2.6969 4.74228C2.5631 4.58749 2.57089 4.36238 2.72382 4.22375C2.87715 4.08509 3.11993 4.08414 3.28383 4.21195C3.93406 4.719 4.45197 4.91243 4.85022 4.93525C5.28405 4.96008 5.64918 4.78556 5.97025 4.44518C6.29856 4.09696 6.56056 3.59288 6.75456 3.02775C6.90791 2.58084 7.01345 1.22194 7.07756 0.79015C7.10059 0.635015 7.23385 0.51561 7.39532 0.5H7.60468Z" stroke="var(--stroke-0, #FF00A2)"/>
</svg>
