<svg preserveAspectRatio="none" width="100%" height="100%" overflow="visible" style="display: block;" viewBox="0 0 16 16" fill="none" xmlns="http://www.w3.org/2000/svg">
<g id="Frame">
<path id="Vector" d="M12 6C12.4198 5.68518 12.7298 5.24626 12.8863 4.74542C13.0427 4.24458 13.0376 3.70721 12.8717 3.20943C12.7058 2.71165 12.3874 2.2787 11.9618 1.97189C11.5361 1.66509 11.0247 1.5 10.5 1.5H6C5.4753 1.5 4.96389 1.66509 4.53823 1.97189C4.11256 2.2787 3.79422 2.71165 3.6283 3.20943C3.46237 3.70721 3.45727 4.24458 3.61372 4.74542C3.77017 5.24626 4.08024 5.68518 4.5 6C4.18218 6.23819 3.92568 6.54867 3.75175 6.90573C3.57781 7.26279 3.49145 7.65615 3.49982 8.05323C3.50819 8.45032 3.61105 8.83969 3.79987 9.18911C3.98869 9.53852 4.25805 9.83792 4.58563 10.0625C4.21303 10.3458 3.9189 10.7195 3.73109 11.1482C3.54328 11.5769 3.46801 12.0465 3.5124 12.5125C3.5568 12.9784 3.71939 13.4253 3.98478 13.8109C4.25017 14.1964 4.60957 14.5079 5.02897 14.7157C5.44836 14.9235 5.91386 15.0209 6.38139 14.9985C6.84892 14.9761 7.303 14.8348 7.70064 14.5879C8.09829 14.341 8.42633 13.9967 8.65371 13.5876C8.88109 13.1785 9.00028 12.7181 9 12.25V10C9.53044 10.3978 10.1972 10.5686 10.8536 10.4749C11.5099 10.3811 12.1022 10.0304 12.5 9.5C12.8978 8.96957 13.0686 8.30282 12.9749 7.64645C12.8811 6.99007 12.5304 6.39782 12 6ZM12 4C12 4.39782 11.842 4.77936 11.5607 5.06066C11.2794 5.34196 10.8978 5.5 10.5 5.5H9V2.5H10.5C10.8978 2.5 11.2794 2.65804 11.5607 2.93934C11.842 3.22064 12 3.60218 12 4ZM4.5 4C4.5 3.60218 4.65804 3.22064 4.93934 2.93934C5.22065 2.65804 5.60218 2.5 6 2.5H8V5.5H6C5.60218 5.5 5.22065 5.34196 4.93934 5.06066C4.65804 4.77936 4.5 4.39782 4.5 4ZM6 9.5C5.60218 9.5 5.22065 9.34196 4.93934 9.06066C4.65804 8.77936 4.5 8.39782 4.5 8C4.5 7.60218 4.65804 7.22064 4.93934 6.93934C5.22065 6.65804 5.60218 6.5 6 6.5H8V9.5H6ZM8 12.25C8 12.5961 7.89737 12.9345 7.70508 13.2222C7.51278 13.51 7.23947 13.7343 6.9197 13.8668C6.59993 13.9992 6.24806 14.0339 5.9086 13.9664C5.56913 13.8989 5.25731 13.7322 5.01257 13.4874C4.76783 13.2427 4.60115 12.9309 4.53363 12.5914C4.46611 12.2519 4.50076 11.9001 4.63322 11.5803C4.76567 11.2605 4.98997 10.9872 5.27776 10.7949C5.56554 10.6026 5.90389 10.5 6.25 10.5H8V12.25ZM10.5 9.5C10.2033 9.5 9.91332 9.41203 9.66665 9.2472C9.41998 9.08238 9.22772 8.84811 9.11418 8.57403C9.00065 8.29994 8.97095 7.99834 9.02883 7.70736C9.0867 7.41639 9.22956 7.14912 9.43934 6.93934C9.64912 6.72956 9.9164 6.5867 10.2074 6.52882C10.4983 6.47094 10.7999 6.50065 11.074 6.61418C11.3481 6.72771 11.5824 6.91997 11.7472 7.16664C11.912 7.41332 12 7.70333 12 8C12 8.39782 11.842 8.77936 11.5607 9.06066C11.2794 9.34196 10.8978 9.5 10.5 9.5Z" fill="var(--fill-0, black)"/>
</g>
</svg>
