<svg preserveAspectRatio="none" width="100%" height="100%" overflow="visible" style="display: block;" viewBox="0 0 139 82" fill="none" xmlns="http://www.w3.org/2000/svg">
<path id="Union" fill-rule="evenodd" clip-rule="evenodd" d="M47.1362 0C77.8671 1.01958e-07 103.18 0.0647995 103.387 0.143955C103.681 0.256113 103.765 0.660531 103.771 1.98066C103.779 3.80943 104.09 4.50286 104.9 4.50289C106.047 4.50289 106.143 4.32623 106.143 2.22599V0.236994H127.737L128.007 2.33661C128.156 3.49124 128.493 5.05971 128.757 5.8221C129.38 7.62703 130.893 9.92085 132.093 10.8811C133.242 11.8007 135.206 12.7156 136.426 12.8998C136.917 12.9739 137.697 13.0934 138.159 13.1654L139 13.296L138.865 18.3485L138.098 18.5043C136.964 18.7347 136.194 19.3247 135.656 20.3755C135.02 21.6159 135.051 22.6155 135.763 23.8256C136.356 24.8327 137.529 25.5954 138.485 25.5954C138.963 25.5954 138.984 25.711 138.984 28.2944V30.9935L138.146 31.1502C137.024 31.3597 135.721 32.5417 135.387 33.6523C134.797 35.6115 135.973 37.6943 137.948 38.1896L138.999 38.453L138.865 43.7067L138.098 43.8627C134.478 44.5981 134.213 49.772 137.743 50.7957L138.865 51.1211L138.999 56.3637L138.218 56.5287C135.708 57.0589 134.464 59.6992 135.696 61.8826C136.207 62.7883 137.695 63.7514 138.583 63.7514C138.935 63.7514 138.984 64.0723 138.984 66.3584V68.9653H137.906C136.637 68.9653 134.311 69.6997 133.075 70.49C132.096 71.1167 130.479 72.7665 129.846 73.783C129.048 75.0665 128.238 77.6144 127.952 79.7407L127.664 81.8815H106.262L106.192 79.9967C106.116 77.9685 105.906 77.4971 105.08 77.4971C104.549 77.4972 103.71 78.2053 103.782 78.5932C103.803 78.7072 103.807 79.5206 103.791 80.4003L103.764 82H79.4305C66.0471 81.9998 40.731 81.9289 23.1724 81.8424L11.2474 81.6848L11.088 80.1242C10.7344 76.6596 9.37773 73.509 7.42539 71.6197C5.84168 70.0866 3.34509 68.9784 1.44343 68.9644C0.0486497 68.954 -0.00920507 68.8335 0.0662336 66.1019C0.132388 63.7089 0.151828 63.6306 0.697198 63.5536C2.28807 63.3296 3.81116 61.6002 3.81925 60.0093C3.82401 59.0365 3.08926 57.5846 2.3556 57.1177C2.0503 56.9234 1.42557 56.6538 0.967479 56.5183L0.13456 56.272L0.000464439 51.0093L0.845934 50.8515C2.70663 50.5038 4.07349 48.4467 3.71351 46.5353C3.4941 45.3703 2.06183 43.9677 0.862899 43.7437L0 43.5826L0.13456 38.2933L0.880561 38.1417C2.49713 37.8132 3.8232 36.2413 3.8232 34.6535C3.82317 32.9637 2.54089 31.3978 0.880561 31.0606L0.13456 30.909L0.000464439 25.6509L0.833849 25.4952C2.4492 25.1935 3.82315 23.4947 3.8232 21.7993C3.8232 20.2994 2.38789 18.6391 0.841518 18.3499L0.0155706 18.1958V15.7263C0.0155706 13.9522 0.0993383 13.2337 0.313042 13.1752C0.477032 13.1303 1.32147 12.9855 2.19013 12.853C7.09958 12.105 10.5759 7.83077 11.095 1.90452L11.2618 0H47.1362ZM105.846 64.2914C105.222 63.8108 104.754 63.7992 104.266 64.252C103.801 64.6833 103.764 64.9658 103.764 68.0423C103.764 69.8804 103.874 71.5714 104.01 71.825C104.289 72.3444 105.405 72.4493 105.858 71.9988C106.268 71.5897 106.257 64.6093 105.846 64.2914ZM105.769 50.6152C105.268 50.1161 104.813 50.1461 104.24 50.7168C103.808 51.1467 103.764 51.5067 103.764 54.5904C103.764 57.5827 103.816 58.037 104.199 58.3823C104.71 58.843 105.455 58.8914 105.858 58.4901C106.055 58.2937 106.143 57.0877 106.143 54.5966C106.143 51.632 106.077 50.9211 105.769 50.6152ZM105.747 37.0317C105.175 36.6146 104.79 36.6597 104.24 37.2081C103.808 37.638 103.764 37.998 103.764 41.0817C103.764 44.1972 103.804 44.518 104.247 44.9169C104.629 45.2619 104.864 45.3052 105.377 45.1259L106.024 44.8995L106.09 41.1146C106.148 37.7636 106.109 37.2953 105.747 37.0317ZM105.683 23.4708C104.163 22.6607 103.764 23.5079 103.764 27.5441C103.764 30.4933 103.81 30.8552 104.24 31.2832C104.813 31.8539 105.268 31.8839 105.769 31.3848C106.077 31.0784 106.143 30.3645 106.143 27.3643C106.143 23.9999 106.107 23.6971 105.683 23.4708ZM105.858 10.0012C105.403 9.5488 104.537 9.67052 104.134 10.2435C103.842 10.6583 103.764 11.4636 103.764 14.0354C103.764 16.9846 103.81 17.3466 104.24 17.7746C104.83 18.363 105.242 18.3741 105.749 17.8151C106.079 17.4525 106.143 16.8026 106.143 13.8336C106.143 11.3902 106.054 10.1971 105.858 10.0012ZM114.461 13.0877C114.258 13.0496 114.017 13.093 113.925 13.1844C113.87 13.2402 113.82 13.7396 113.79 14.4566H114.913L114.902 14.281C114.851 13.4942 114.719 13.1365 114.461 13.0877ZM121.595 13.0347C121.01 13.0347 121.015 13.427 121.613 14.4032C121.624 14.421 121.634 14.4389 121.645 14.4566H122.921C122.343 13.5094 121.9 13.0347 121.595 13.0347Z" fill="var(--fill-0, #D9D9D9)"/>
</svg>
