<svg preserveAspectRatio="none" width="100%" height="100%" overflow="visible" style="display: block;" viewBox="0 0 112.379 76.4793" fill="none" xmlns="http://www.w3.org/2000/svg">
<g id="Vector">
<path fill-rule="evenodd" clip-rule="evenodd" d="M35.9503 18.5118C34.3353 19.115 32.7661 20.613 32.2074 22.0847C31.7725 23.2312 31.6563 24.5792 31.9509 25.0625C32.1726 25.426 32.3246 25.4374 35.0465 25.2947C38.2601 25.1263 38.7513 25.2467 38.802 26.2147C38.8557 27.239 38.5657 27.3495 35.3865 27.5161C33.015 27.6404 32.4528 27.7219 32.2226 27.9751C32.0687 28.1446 31.9483 28.386 31.9548 28.5116C31.9852 29.0915 32.4541 29.1626 35.2724 29.0149C38.4527 28.8482 38.9464 28.9703 38.9971 29.9365C39.0508 30.9608 38.7607 31.0713 35.5815 31.2379C33.21 31.3622 32.6478 31.4437 32.4176 31.6969C32.2638 31.8664 32.1433 32.1078 32.1499 32.2334C32.1803 32.8133 32.6491 32.8844 35.4674 32.7367C38.6477 32.57 39.1415 32.6921 39.1921 33.6583C39.2458 34.6826 38.9558 34.7931 35.7766 34.9597C33.4051 35.084 32.8429 35.1655 32.6127 35.4187C32.4588 35.5882 32.3384 35.8296 32.3449 35.9552C32.3753 36.5351 32.8442 36.6062 35.6625 36.4585C38.8428 36.2918 39.3365 36.4139 39.3872 37.3801C39.4405 38.3973 39.1401 38.5155 36.0939 38.6751C32.6223 38.8571 32.3975 38.9746 32.6556 40.4752C33.0125 42.5492 34.3404 44.1889 36.3561 45.0446L37.644 45.5914L46.8618 45.1083L48.0855 44.4299C50.0007 43.3682 51.1499 41.5987 51.2881 39.4987C51.3879 37.9794 51.1521 37.8859 47.6805 38.0679C44.6343 38.2275 44.3232 38.1414 44.2699 37.1242C44.2193 36.158 44.6975 35.985 47.8779 35.8183C50.6961 35.6706 51.155 35.5509 51.1246 34.971C51.118 34.8454 50.9729 34.6179 50.8023 34.4654C50.5468 34.2377 49.9792 34.2154 47.6077 34.3397C44.4285 34.5063 44.1285 34.4267 44.0748 33.4024C44.0242 32.4362 44.5025 32.2632 47.6828 32.0965C50.5011 31.9488 50.9599 31.8291 50.9295 31.2492C50.923 31.1236 50.7779 30.8961 50.6072 30.7436C50.3518 30.5159 49.7842 30.4936 47.4127 30.6179C44.2335 30.7845 43.9335 30.7049 43.8798 29.6806C43.8291 28.7145 44.3074 28.5414 47.4878 28.3747C50.4069 28.2218 50.7654 28.1169 50.7293 27.4277C50.6988 26.8461 50.0365 26.7484 47.1495 26.8997C44.0444 27.0624 43.7382 26.9792 43.6847 25.9588C43.634 24.9908 44.1099 24.8197 47.3235 24.6513C50.0454 24.5087 50.1954 24.4814 50.3779 24.0968C50.6204 23.5853 50.3639 22.2569 49.8115 21.1621C49.2826 20.1148 48.0012 18.9366 46.7706 18.3669C45.8058 17.9201 45.8043 17.92 41.1088 18.1297C38.5256 18.2449 36.2042 18.417 35.9503 18.5118ZM64.4548 19.8349C64.2589 20.0504 64.1055 20.3565 64.1138 20.5152C64.1339 20.8997 64.7174 21.8737 64.9211 21.8631C65.0101 21.8584 65.5763 22.3954 66.1796 23.0567C70.9616 28.2977 71.4554 35.4276 67.4428 41.2925C66.9718 41.9809 66.5948 42.703 66.605 42.8971C66.6307 43.3889 67.5042 44.1198 68.0332 44.0921C69.2295 44.0294 71.683 39.6926 72.385 36.4C72.7801 34.5468 72.6748 30.6504 72.1779 28.7369C71.3503 25.5502 69.6645 22.7212 67.2625 20.4892C66.2617 19.5592 65.9632 19.3826 65.4383 19.4102C65.0612 19.4299 64.6688 19.5994 64.4548 19.8349ZM14.4618 23.0287C13.8346 23.5725 12.5869 25.5399 11.9616 26.9711C11.3599 28.3476 10.8615 30.1545 10.6424 31.7521C10.4316 33.2888 10.8195 37.488 11.3069 38.9478C12.2334 41.7235 13.7728 44.1142 15.946 46.1533C17.0483 47.1875 17.3449 47.3705 17.8737 47.3428C18.5521 47.3072 19.1611 46.6963 19.1289 46.0835C19.1191 45.895 18.567 45.1986 17.9023 44.5357C14.7248 41.3677 13.3855 38.506 13.1885 34.4641C13.023 31.0696 13.7586 28.5111 15.7758 25.465C16.7476 23.9974 16.7926 23.4832 16.0014 22.8874C15.4685 22.4863 15.0421 22.5255 14.4618 23.0287ZM60.6967 23.3226C60.4968 23.6034 60.3411 23.9863 60.3509 24.1733C60.3607 24.3603 60.8741 25.0149 61.4917 25.6278C64.9721 29.0818 65.6778 34.4085 63.1587 38.2091C62.0971 39.8104 62.0316 40.0069 62.342 40.6524C62.6318 41.255 63.2254 41.4715 63.9677 41.2451C64.9159 40.9558 66.6252 37.671 67.059 35.3046C67.3003 33.988 67.2062 31.1939 66.8754 29.8504C66.3366 27.6623 64.9403 25.344 63.187 23.7261C61.9552 22.5893 61.2947 22.4823 60.6967 23.3226ZM18.6183 26.0158C17.8081 26.9778 16.8031 28.99 16.3931 30.4708C15.8985 32.2577 16.0705 36.4377 16.7034 38.0119C17.5975 40.2356 19.5574 42.9465 20.7819 43.6533C21.4315 44.0283 22.14 43.9632 22.5709 43.489C23.1592 42.8417 22.9773 42.2791 21.7981 41.1C19.6805 38.9824 18.8096 37.1234 18.6432 34.3648C18.4876 31.7828 18.9568 30.0823 20.4191 27.9283C21.2341 26.7277 21.2691 26.4504 20.6882 25.7925C20.0926 25.118 19.3026 25.2033 18.6183 26.0158ZM23.1507 29.0087C22.8501 29.2873 22.3559 30.088 22.0525 30.7878C21.5304 31.9928 21.5069 32.1691 21.6087 34.1116C21.7087 36.0209 21.761 36.2455 22.3638 37.3529C23.6683 39.7497 25.2642 40.644 26.1119 39.453C26.6163 38.7443 26.5451 38.3545 25.7701 37.584C23.8351 35.6602 23.509 33.3539 24.8446 31.043C25.5543 29.8155 25.5667 29.4711 24.9217 28.8959C24.3034 28.344 23.8359 28.3738 23.1507 29.0087ZM57.2058 27.2039C56.616 27.8529 56.6824 28.3193 57.4769 29.1102C59.4101 31.0347 59.7174 33.2809 58.3806 35.7131C57.6712 37.0037 57.7464 37.5904 58.6794 38.0455C59.1539 38.2768 59.2602 38.2714 59.7099 37.9924C60.3937 37.5681 61.2886 36.0323 61.5886 34.768C61.9872 33.0882 61.6773 30.782 60.8575 29.3298C60.0758 27.9447 58.731 26.6659 58.0916 26.6994C57.8446 26.7124 57.4462 26.9394 57.2058 27.2039Z" fill="var(--fill-0, black)"/>
<path d="M28.0288 32.9256C27.3396 33.684 27.3627 34.75 28.0849 35.5155C28.573 36.0327 28.5867 36.1087 28.7517 39.1801C28.9022 41.9841 28.9732 42.4444 29.4224 43.5231C30.5322 46.1882 32.917 48.2831 35.613 48.9611C36.2676 49.1257 37.57 49.2775 38.5074 49.2983L40.2119 49.3364L40.744 60.4808L40.7563 60.852C40.7993 62.1422 41.8929 63.1459 43.182 63.0784C44.4712 63.0108 45.4539 61.8983 45.3617 60.6107L45.3352 60.2402L44.6995 49.1013L46.3727 48.8876C49.2647 48.5183 50.8507 47.7726 52.5899 45.9645C53.7466 44.7619 54.4423 43.5631 54.8698 42.0355C55.1506 41.0315 55.1754 40.4011 55.0371 37.7618C54.8783 34.731 54.8842 34.6536 55.3154 34.0884C55.6246 33.6829 55.7442 33.2889 55.7169 32.7664C55.6092 30.7112 52.6584 30.3646 52.1126 32.3432C51.9091 33.081 52.0676 33.6516 52.6281 34.1986C52.9913 34.5532 53.0265 34.8084 53.1253 37.8113C53.2303 40.9959 53.2241 41.061 52.701 42.3207C52.0257 43.9469 50.8575 45.2324 49.296 46.0679L48.0685 46.7245L36.6129 47.3249L35.3235 46.8002C33.6832 46.1324 32.387 44.9761 31.5454 43.4294C30.8936 42.2313 30.8806 42.1672 30.6521 38.989C30.4365 35.9923 30.4448 35.7348 30.769 35.3442C31.2692 34.7416 31.3672 34.1576 31.0877 33.4451C30.5884 32.1725 28.9639 31.8966 28.0288 32.9256Z" fill="var(--fill-0, black)"/>
<path d="M104.225 56.4617C103.615 56.4937 103.326 56.8087 103.357 57.4066L103.49 59.9479C103.521 60.5458 103.842 60.8288 104.453 60.7968L109.335 60.541C109.945 60.509 110.234 60.194 110.203 59.5961L110.07 57.0548C110.039 56.4569 109.718 56.1739 109.108 56.2059L104.225 56.4617ZM108.967 53.5151C110.034 53.4592 110.825 53.6576 111.338 54.1103C111.841 54.5537 112.12 55.2985 112.175 56.3449L112.37 60.0821C112.425 61.1285 112.226 61.9034 111.773 62.4068C111.31 62.9008 110.544 63.1757 109.476 63.2317L104.594 63.4876C103.526 63.5435 102.74 63.3499 102.238 62.9065C101.724 62.4538 101.44 61.7042 101.385 60.6578L101.19 56.9206C101.135 55.8742 101.339 55.104 101.803 54.6101C102.256 54.1067 103.016 53.827 104.084 53.771L108.967 53.5151Z" fill="var(--fill-0, black)"/>
<path d="M111.309 42.7427L111.458 45.5829L105.238 49.5064L111.646 49.1706L111.787 51.8613L101.107 52.4211L100.958 49.5808L107.178 45.6573L100.77 45.9932L100.629 43.3024L111.309 42.7427Z" fill="var(--fill-0, black)"/>
<path d="M110.882 34.5916L111.034 37.5066L100.147 34.1049L99.9902 31.1152L110.462 26.5941L110.615 29.5091L108.743 30.2817L108.939 34.0189L110.882 34.5916ZM106.921 33.4502L106.795 31.0584L103.272 32.4422L106.921 33.4502Z" fill="var(--fill-0, black)"/>
<path d="M110.165 20.9143L110.447 26.2957L108.311 26.4077L108.24 25.0623L101.832 25.3981L101.903 26.7435L99.767 26.8555L99.4849 21.474L101.621 21.362L101.691 22.7074L108.099 22.3716L108.029 21.0262L110.165 20.9143Z" fill="var(--fill-0, black)"/>
<path d="M99.4145 20.1298L99.0855 13.8513C99.0306 12.8049 99.235 12.0348 99.6987 11.5408C100.152 11.0374 100.912 10.7577 101.98 10.7017L103.353 10.6297C104.197 10.5855 104.861 10.6906 105.343 10.9452C105.825 11.1897 106.158 11.607 106.342 12.1969L109.601 10.1524L109.753 13.0674L106.64 14.9544L106.749 17.0472L109.953 16.8793L110.094 19.57L99.4145 20.1298ZM102.121 13.3925C101.511 13.4244 101.221 13.7394 101.253 14.3373L101.409 17.3271L104.613 17.1592L104.457 14.1694C104.425 13.5715 104.105 13.2885 103.494 13.3205L102.121 13.3925Z" fill="var(--fill-0, black)"/>
<path d="M107.302 0.00139527C107.853 -0.0275091 108.324 0.396161 108.353 0.947689C108.382 1.49922 107.958 1.96975 107.406 1.99865L1.05236 7.57243C0.500833 7.60134 0.0302996 7.17767 0.00139527 6.62614C-0.0275091 6.07461 0.396161 5.60408 0.947689 5.57517L107.302 0.00139527Z" fill="var(--fill-0, black)"/>
<path d="M110.913 68.9068C111.464 68.8779 111.935 69.3016 111.964 69.8531C111.993 70.4047 111.569 70.8752 111.018 70.9041L4.66354 76.4779C4.11201 76.5068 3.64148 76.0831 3.61258 75.5316C3.58367 74.9801 4.00734 74.5095 4.55887 74.4806L110.913 68.9068Z" fill="var(--fill-0, black)"/>
</g>
</svg>
