<svg preserveAspectRatio="none" width="100%" height="100%" overflow="visible" style="display: block;" viewBox="0 0 53 11" fill="none" xmlns="http://www.w3.org/2000/svg">
<g id="ON AIR">
<path d="M7.03548 3.05556C7.03548 2.44444 6.7361 2.13889 6.13733 2.13889H3.59259C2.99382 2.13889 2.69444 2.44444 2.69444 3.05556V7.94445C2.69444 8.55556 2.99382 8.86111 3.59259 8.86111H6.13733C6.7361 8.86111 7.03548 8.55556 7.03548 7.94445V3.05556ZM9.72992 7.94445C9.72992 9.01389 9.49041 9.79306 9.0114 10.2819C8.54237 10.7606 7.78394 11 6.7361 11H2.99382C1.94598 11 1.18256 10.7606 0.703548 10.2819C0.234516 9.79306 0 9.01389 0 7.94445V3.05556C0 1.98611 0.234516 1.21204 0.703548 0.733333C1.18256 0.244444 1.94598 0 2.99382 0H6.7361C7.78394 0 8.54237 0.244444 9.0114 0.733333C9.49041 1.21204 9.72992 1.98611 9.72992 3.05556V7.94445Z" fill="var(--fill-0, black)"/>
<path d="M20.365 10.8472H17.5209L13.9283 4.43056V10.8472H11.2338V0.152778H14.078L17.6706 6.56945V0.152778H20.365V10.8472Z" fill="var(--fill-0, black)"/>
<path d="M28.5273 10.8472H25.6083L29.5751 0.152778H32.5689L36.5357 10.8472H33.6168L32.9431 8.9375H29.2009L28.5273 10.8472ZM29.8745 6.95139H32.2695L31.072 3.36111L29.8745 6.95139Z" fill="var(--fill-0, black)"/>
<path d="M42.2234 10.8472H36.8345V8.70833H38.1818V2.29167H36.8345V0.152778H42.2234V2.29167H40.8762V8.70833H42.2234V10.8472Z" fill="var(--fill-0, black)"/>
<path d="M43.5695 0.152778H49.8565C50.9043 0.152778 51.6628 0.397222 52.1318 0.886112C52.6108 1.36482 52.8503 2.13889 52.8503 3.20833V4.58333C52.8503 5.4287 52.7106 6.08565 52.4312 6.55417C52.1617 7.02269 51.7276 7.33333 51.1289 7.48611L53 10.8472H50.081L48.3596 7.63889H46.2639V10.8472H43.5695V0.152778ZM50.1559 3.20833C50.1559 2.59722 49.8565 2.29167 49.2577 2.29167H46.2639V5.5H49.2577C49.8565 5.5 50.1559 5.19445 50.1559 4.58333V3.20833Z" fill="var(--fill-0, black)"/>
</g>
</svg>
