<svg width="144" height="90" viewBox="0 0 144 90" fill="none" xmlns="http://www.w3.org/2000/svg">
<path fill-rule="evenodd" clip-rule="evenodd" d="M47.0716 4.80785C77.7604 3.19952 103.042 1.93945 103.253 2.00766C103.552 2.1043 103.657 2.50375 103.732 3.82176C103.836 5.64759 104.183 6.32381 104.992 6.28142C106.137 6.22142 106.224 6.03995 106.114 3.94259L106.01 1.95632L127.574 0.826211L127.954 2.9088C128.163 4.05405 128.582 5.60273 128.885 6.35029C129.602 8.12012 131.233 10.3316 132.481 11.2278C133.677 12.0859 135.686 12.8968 136.914 13.0169C137.408 13.0652 138.193 13.1437 138.659 13.1915L139.505 13.2778L139.635 18.3305L138.877 18.5262C137.757 18.8156 137.019 19.4452 136.536 20.5227C135.966 21.7946 136.05 22.7912 136.824 23.9624C137.469 24.9372 138.68 25.6373 139.634 25.5873C140.112 25.5623 140.139 25.6767 140.275 28.2565L140.416 30.9519L139.587 31.1522C138.478 31.4202 137.238 32.6688 136.962 33.7953C136.476 35.7827 137.76 37.8011 139.758 38.1924L140.821 38.4004L140.962 43.6539L140.204 43.8499C136.628 44.7737 136.634 49.9544 140.213 50.7919L141.35 51.0581L141.759 56.2865L140.987 56.4922C138.508 57.1531 137.404 59.8548 138.749 61.9707C139.307 62.8485 140.843 63.7324 141.73 63.6859C142.081 63.6676 142.147 63.9854 142.267 66.2683L142.403 68.8717L141.326 68.9281C140.059 68.9945 137.774 69.8497 136.582 70.7036C135.637 71.3806 134.108 73.1128 133.53 74.161C132.8 75.4845 132.125 78.0713 131.95 80.2096L131.775 82.3626L110.402 83.4827L110.233 81.6041C110.051 79.5827 109.817 79.1229 108.992 79.1662C108.462 79.1941 107.661 79.9451 107.753 80.3287C107.78 80.4415 107.827 81.2535 107.857 82.1328L107.913 83.7318L83.6132 85.0053C70.2481 85.7055 44.963 86.9597 27.4239 87.7922L15.5071 88.2589L15.2662 86.7088C14.7317 83.2675 13.2121 80.1922 11.1635 78.4077C9.50174 76.9596 6.95057 75.9836 5.05078 76.0691C3.65737 76.1317 3.59329 76.0144 3.52566 73.2826C3.46648 70.8894 3.4818 70.8102 4.02239 70.7047C5.59936 70.3978 7.02986 68.5911 6.95467 67.0019C6.90851 66.0302 6.09879 64.6188 5.34169 64.1909C5.02664 64.0128 4.38866 63.7763 3.9241 63.6649L3.07944 63.4626L2.6701 58.2141L3.50614 58.0123C5.3461 57.5677 6.60342 55.4418 6.1439 53.552C5.86381 52.4 4.3601 51.0743 3.1511 50.9134L2.28095 50.7977L2.1385 45.5086L2.87555 45.3181C4.47271 44.9055 5.7147 43.2663 5.6316 41.6806C5.54312 39.9932 4.18066 38.4966 2.50495 38.2467L1.75204 38.1344L1.34294 32.8905L2.16703 32.6913C3.76438 32.3055 5.04754 30.5372 4.95886 28.8441C4.88036 27.3462 3.36012 25.7633 1.80074 25.5555L0.967854 25.4448L0.838613 22.9787C0.745761 21.207 0.791812 20.4851 1.00216 20.4155C1.16358 20.3621 1.99927 20.1733 2.85982 19.9955C7.72339 18.9917 10.9713 14.5413 11.1795 8.59601L11.2464 6.68537L47.0716 4.80785ZM109.066 65.9385C108.418 65.4912 107.949 65.5041 107.485 65.9819C107.044 66.4369 107.021 66.721 107.182 69.7933C107.279 71.6288 107.477 73.3118 107.626 73.5579C107.932 74.062 109.053 74.1083 109.481 73.6347C109.869 73.2047 109.493 66.2344 109.066 65.9385ZM108.273 52.285C107.747 51.8128 107.293 51.8667 106.751 52.4665C106.342 52.9185 106.317 53.2803 106.478 56.3597C106.635 59.3479 106.711 59.7989 107.111 60.1237C107.646 60.557 108.392 60.5663 108.774 60.1446C108.96 59.9381 108.986 58.7291 108.855 56.2414C108.7 53.2809 108.596 52.5745 108.273 52.285ZM107.541 38.7214C106.947 38.3348 106.565 38.4 106.044 38.9764C105.635 39.4283 105.61 39.7901 105.771 42.8696C105.935 45.9809 105.992 46.2991 106.454 46.6742C106.855 46.9988 107.092 47.0297 107.594 46.8238L108.229 46.5639L108.097 42.7807C107.979 39.4312 107.916 38.9656 107.541 38.7214ZM106.767 25.1823C105.206 24.453 104.852 25.3199 105.063 29.3505C105.217 32.2957 105.282 32.6547 105.734 33.0597C106.336 33.5995 106.792 33.6057 107.267 33.081C107.558 32.7589 107.587 32.0425 107.43 29.0464C107.254 25.6867 107.202 25.3862 106.767 25.1823ZM106.236 11.7221C105.759 11.2941 104.9 11.461 104.527 12.0543C104.258 12.4837 104.221 13.2921 104.356 15.8604C104.51 18.8055 104.575 19.1646 105.027 19.5695C105.648 20.1262 106.059 20.1158 106.537 19.5309C106.847 19.1516 106.877 18.4992 106.722 15.5343C106.594 13.0942 106.443 11.9075 106.236 11.7221ZM114.989 14.3541C114.784 14.3266 114.546 14.3826 114.459 14.4787C114.406 14.5373 114.383 15.0386 114.39 15.7563L115.513 15.6975L115.492 15.5227C115.4 14.7396 115.249 14.3893 114.989 14.3541ZM122.11 13.9278C121.526 13.9584 121.552 14.3499 122.2 15.2935C122.212 15.3107 122.223 15.3281 122.235 15.3452L123.509 15.2784C122.882 14.3627 122.415 13.9119 122.11 13.9278Z" fill="#FF82D1"/>
<path fill-rule="evenodd" clip-rule="evenodd" d="M51.1548 24.6935C49.5398 25.2967 47.9706 26.7947 47.412 28.2664C46.977 29.4129 46.8608 30.7608 47.1554 31.2442C47.3771 31.6076 47.5291 31.6191 50.251 31.4764C53.4646 31.308 53.9558 31.4284 54.0066 32.3964C54.0602 33.4206 53.7702 33.5312 50.591 33.6978C48.2195 33.8221 47.6573 33.9036 47.4271 34.1568C47.2733 34.3262 47.1528 34.5677 47.1594 34.6933C47.1898 35.2731 47.6586 35.3443 50.4769 35.1966C53.6572 35.0299 54.151 35.152 54.2016 36.1182C54.2553 37.1424 53.9652 37.253 50.786 37.4196C48.4145 37.5439 47.8524 37.6254 47.6221 37.8786C47.4683 38.048 47.3478 38.2895 47.3544 38.4151C47.3848 38.9949 47.8537 39.0661 50.6719 38.9184C53.8523 38.7517 54.346 38.8738 54.3967 39.84C54.4503 40.8642 54.1603 40.9748 50.9811 41.1414C48.6096 41.2657 48.0474 41.3472 47.8172 41.6004C47.6634 41.7698 47.5429 42.0113 47.5495 42.1369C47.5799 42.7167 48.0487 42.7879 50.867 42.6402C54.0473 42.4735 54.5411 42.5956 54.5917 43.5618C54.645 44.579 54.3446 44.6971 51.2984 44.8568C47.8268 45.0387 47.6021 45.1563 47.8602 46.6569C48.2171 48.7309 49.5449 50.3706 51.5606 51.2263L52.8485 51.7731L62.0663 51.29L63.29 50.6116C65.2053 49.5498 66.3545 47.7803 66.4926 45.6804C66.5924 44.1611 66.3567 44.0676 62.8851 44.2496C59.8388 44.4092 59.5277 44.3231 59.4744 43.3059C59.4238 42.3397 59.9021 42.1667 63.0824 42C65.9007 41.8523 66.3595 41.7325 66.3291 41.1527C66.3225 41.0271 66.1775 40.7996 66.0068 40.6471C65.7514 40.4194 65.1838 40.3971 62.8123 40.5214C59.6331 40.688 59.333 40.6083 59.2794 39.5841C59.2287 38.6179 59.707 38.4449 62.8873 38.2782C65.7056 38.1305 66.1645 38.0107 66.1341 37.4309C66.1275 37.3053 65.9824 37.0778 65.8117 36.9253C65.5563 36.6976 64.9887 36.6753 62.6172 36.7996C59.438 36.9662 59.138 36.8865 59.0843 35.8623C59.0337 34.8961 59.512 34.7231 62.6923 34.5564C65.6114 34.4034 65.9699 34.2986 65.9338 33.6093C65.9033 33.0278 65.241 32.93 62.354 33.0813C59.249 33.2441 58.9427 33.1608 58.8893 32.1405C58.8385 31.1725 59.3145 31.0014 62.528 30.833C65.25 30.6904 65.3999 30.6631 65.5824 30.2785C65.8249 29.767 65.5685 28.4386 65.016 27.3438C64.4871 26.2965 63.2057 25.1183 61.9752 24.5485C61.0104 24.1018 61.0089 24.1017 56.3134 24.3114C53.7301 24.4266 51.4088 24.5987 51.1548 24.6935ZM79.6593 26.0166C79.4634 26.2321 79.31 26.5381 79.3183 26.6969C79.3385 27.0813 79.9219 28.0554 80.1256 28.0447C80.2147 28.0401 80.7808 28.5771 81.3842 29.2383C86.1661 34.4794 86.6599 41.6093 82.6474 47.4741C82.1763 48.1626 81.7993 48.8847 81.8095 49.0788C81.8353 49.5706 82.7087 50.3015 83.2378 50.2738C84.434 50.2111 86.8876 45.8743 87.5895 42.5817C87.9847 40.7285 87.8793 36.832 87.3824 34.9185C86.5548 31.7319 84.869 28.9029 82.467 26.6709C81.4662 25.7409 81.1677 25.5643 80.6428 25.5918C80.2657 25.6116 79.8733 25.7811 79.6593 26.0166ZM29.6663 29.2104C29.0391 29.7542 27.7914 31.7216 27.1661 33.1528C26.5645 34.5293 26.066 36.3362 25.8469 37.9337C25.6361 39.4704 26.024 43.6697 26.5114 45.1295C27.438 47.9052 28.9773 50.2958 31.1505 52.3349C32.2529 53.3692 32.5494 53.5522 33.0783 53.5244C33.7566 53.4889 34.3656 52.878 34.3335 52.2652C34.3236 52.0767 33.7715 51.3803 33.1069 50.7174C29.9293 47.5494 28.59 44.6877 28.393 40.6458C28.2276 37.2512 28.9631 34.6928 30.9804 31.6466C31.9522 30.179 31.9971 29.6648 31.2059 29.0691C30.673 28.668 30.2467 28.7071 29.6663 29.2104ZM75.9013 29.5042C75.7013 29.7851 75.5457 30.168 75.5555 30.355C75.5653 30.542 76.0787 31.1966 76.6962 31.8095C80.1767 35.2635 80.8824 40.5902 78.3633 44.3908C77.3017 45.992 77.2361 46.1886 77.5465 46.834C77.8363 47.4367 78.4299 47.6532 79.1722 47.4268C80.1205 47.1375 81.8298 43.8527 82.2635 41.4863C82.5048 40.1697 82.4108 37.3756 82.0799 36.032C81.5412 33.844 80.1448 31.5257 78.3916 29.9078C77.1597 28.771 76.4992 28.664 75.9013 29.5042ZM33.8228 32.1974C33.0126 33.1595 32.0076 35.1716 31.5977 36.6525C31.103 38.4394 31.275 42.6194 31.9079 44.1936C32.802 46.4173 34.7619 49.1282 35.9864 49.835C36.636 50.21 37.3446 50.1449 37.7754 49.6707C38.3637 49.0234 38.1819 48.4608 37.0026 47.2817C34.885 45.1641 34.0142 43.3051 33.8478 40.5465C33.6921 37.9645 34.1613 36.264 35.6237 34.1099C36.4387 32.9094 36.4737 32.6321 35.8927 31.9742C35.2971 31.2997 34.5071 31.3849 33.8228 32.1974ZM38.3553 35.1903C38.0546 35.469 37.5605 36.2697 37.2571 36.9695C36.7349 38.1745 36.7114 38.3507 36.8132 40.2933C36.9133 42.2026 36.9655 42.4271 37.5684 43.5346C38.8728 45.9314 40.4687 46.8257 41.3164 45.6346C41.8209 44.926 41.7496 44.5362 40.9746 43.7656C39.0396 41.8419 38.7135 39.5356 40.0492 37.2247C40.7588 35.9972 40.7713 35.6528 40.1263 35.0776C39.5079 34.5257 39.0404 34.5554 38.3553 35.1903ZM72.4104 33.3856C71.8205 34.0346 71.8869 34.5009 72.6815 35.2919C74.6146 37.2163 74.9219 39.4626 73.5851 41.8948C72.8757 43.1854 72.9509 43.772 73.884 44.2272C74.3584 44.4585 74.4647 44.4531 74.9144 44.1741C75.5982 43.7497 76.4932 42.214 76.7932 40.9497C77.1917 39.2699 76.8818 36.9637 76.062 35.5114C75.2803 34.1264 73.9356 32.8476 73.2961 32.8811C73.0492 32.894 72.6507 33.1211 72.4104 33.3856Z" fill="black"/>
<path d="M43.2333 39.1073C42.5441 39.8657 42.5672 40.9317 43.2894 41.6971C43.7775 42.2144 43.7913 42.2904 43.9562 45.3618C44.1067 48.1658 44.1777 48.6261 44.6269 49.7048C45.7368 52.3699 48.1215 54.4647 50.8176 55.1428C51.4721 55.3074 52.7745 55.4592 53.7119 55.48L55.4164 55.5181L55.9485 66.6625L55.9609 67.0337C56.0038 68.3239 57.0974 69.3276 58.3866 69.26C59.6757 69.1925 60.6584 68.08 60.5662 66.7923L60.5397 66.4219L59.904 55.2829L61.5773 55.0693C64.4692 54.7 66.0553 53.9542 67.7945 52.1462C68.9511 50.9436 69.6468 49.7448 70.0743 48.2172C70.3552 47.2132 70.38 46.5828 70.2416 43.9435C70.0828 40.9127 70.0887 40.8353 70.5199 40.2701C70.8291 39.8646 70.9488 39.4706 70.9214 38.948C70.8137 36.8929 67.8629 36.5463 67.3171 38.5249C67.1136 39.2627 67.2722 39.8333 67.8326 40.3803C68.1958 40.7348 68.231 40.9901 68.3298 43.993C68.4348 47.1776 68.4286 47.2427 67.9056 48.5024C67.2302 50.1285 66.0621 51.4141 64.5005 52.2496L63.273 52.9062L51.8174 53.5065L50.528 52.9818C48.8877 52.3141 47.5916 51.1578 46.7499 49.6111C46.0981 48.4129 46.0851 48.3489 45.8566 45.1707C45.641 42.174 45.6493 41.9164 45.9735 41.5259C46.4737 40.9233 46.5717 40.3393 46.2922 39.6267C45.7929 38.3542 44.1684 38.0782 43.2333 39.1073Z" fill="black"/>
<path d="M119.43 62.6434C118.82 62.6754 118.53 62.9904 118.561 63.5883L118.695 66.1296C118.726 66.7275 119.047 67.0105 119.657 66.9785L124.539 66.7226C125.15 66.6907 125.439 66.3757 125.408 65.7778L125.274 63.2365C125.243 62.6386 124.922 62.3556 124.312 62.3876L119.43 62.6434ZM124.171 59.6968C125.239 59.6408 126.03 59.8392 126.543 60.292C127.046 60.7353 127.324 61.4802 127.379 62.5266L127.575 66.2638C127.63 67.3102 127.431 68.0851 126.978 68.5885C126.514 69.0825 125.748 69.3574 124.68 69.4134L119.798 69.6693C118.73 69.7252 117.945 69.5315 117.442 69.0882C116.929 68.6354 116.645 67.8859 116.59 66.8395L116.394 63.1023C116.339 62.0559 116.544 61.2857 117.007 60.7917C117.46 60.2883 118.221 60.0086 119.289 59.9527L124.171 59.6968Z" fill="black"/>
<path d="M126.513 48.9244L126.662 51.7646L120.442 55.6881L126.85 55.3523L126.991 58.043L116.311 58.6027L116.162 55.7625L122.382 51.839L115.974 52.1748L115.833 49.4841L126.513 48.9244Z" fill="black"/>
<path d="M126.086 40.7733L126.239 43.6883L115.351 40.2866L115.195 37.2969L125.667 32.7758L125.82 35.6908L123.948 36.4634L124.144 40.2006L126.086 40.7733ZM122.125 39.6318L122 37.2401L118.477 38.6238L122.125 39.6318Z" fill="black"/>
<path d="M125.369 27.0959L125.651 32.4774L123.515 32.5894L123.445 31.244L117.037 31.5798L117.107 32.9252L114.972 33.0371L114.689 27.6556L116.825 27.5437L116.896 28.8891L123.304 28.5533L123.233 27.2079L125.369 27.0959Z" fill="black"/>
<path d="M114.619 26.3114L114.29 20.033C114.235 18.9866 114.44 18.2164 114.903 17.7225C115.356 17.2191 116.117 16.9394 117.185 16.8834L118.558 16.8114C119.402 16.7672 120.065 16.8723 120.548 17.1268C121.03 17.3714 121.363 17.7886 121.547 18.3786L124.805 16.3341L124.958 19.2491L121.844 21.1361L121.954 23.2289L125.158 23.061L125.299 25.7517L114.619 26.3114ZM117.326 19.5741C116.715 19.6061 116.426 19.9211 116.457 20.519L116.614 23.5087L119.818 23.3408L119.661 20.3511C119.63 19.7532 119.309 19.4702 118.699 19.5022L117.326 19.5741Z" fill="black"/>
<path d="M122.506 6.18307C123.058 6.15417 123.528 6.57784 123.557 7.12937C123.586 7.6809 123.162 8.15143 122.611 8.18033L16.2569 13.7541C15.7054 13.783 15.2348 13.3593 15.2059 12.8078C15.177 12.2563 15.6007 11.7858 16.1522 11.7569L122.506 6.18307Z" fill="black"/>
<path d="M126.117 75.0885C126.669 75.0596 127.139 75.4833 127.168 76.0348C127.197 76.5863 126.774 77.0569 126.222 77.0858L19.8681 82.6595C19.3165 82.6885 18.846 82.2648 18.8171 81.7133C18.7882 81.1617 19.2119 80.6912 19.7634 80.6623L126.117 75.0885Z" fill="black"/>
</svg>
