<svg preserveAspectRatio="none" width="100%" height="100%" overflow="visible" style="display: block;" viewBox="0 0 141.61 87.4327" fill="none" xmlns="http://www.w3.org/2000/svg">
<path id="Union" fill-rule="evenodd" clip-rule="evenodd" d="M46.2787 3.98164C76.9674 2.37331 102.249 1.11324 102.46 1.18145C102.759 1.27809 102.864 1.67754 102.94 2.99555C103.043 4.82138 103.39 5.4976 104.199 5.45521C105.344 5.39521 105.431 5.21374 105.321 3.11638L105.217 1.13011L126.781 0L127.161 2.08258C127.37 3.22784 127.789 4.77652 128.092 5.52408C128.809 7.29391 130.44 9.50541 131.688 10.4016C132.884 11.2597 134.893 12.0706 136.121 12.1906C136.615 12.239 137.4 12.3175 137.866 12.3653L138.712 12.4516L138.842 17.5043L138.084 17.7C136.964 17.9894 136.226 18.619 135.743 19.6965C135.173 20.9684 135.257 21.965 136.031 23.1362C136.676 24.1109 137.887 24.8111 138.841 24.7611C139.319 24.7361 139.346 24.8505 139.482 27.4303L139.623 30.1257L138.794 30.326C137.685 30.594 136.445 31.8426 136.169 32.9691C135.683 34.9565 136.967 36.9749 138.965 37.3662L140.028 37.5742L140.169 42.8277L139.411 43.0236C135.835 43.9475 135.841 49.1282 139.42 49.9657L140.557 50.2319L140.966 55.4603L140.194 55.666C137.715 56.3268 136.611 59.0286 137.956 61.1445C138.514 62.0223 140.05 62.9062 140.937 62.8597C141.288 62.8413 141.354 63.1592 141.474 65.4421L141.61 68.0455L140.533 68.1019C139.266 68.1683 136.981 69.0234 135.789 69.8774C134.844 70.5544 133.315 72.2866 132.737 73.3348C132.007 74.6583 131.332 77.2451 131.157 79.3834L130.982 81.5364L109.609 82.6565L109.44 80.7779C109.258 78.7565 109.024 78.2967 108.199 78.34C107.669 78.3678 106.868 79.1189 106.96 79.5025C106.987 79.6153 107.034 80.4273 107.064 81.3066L107.12 82.9056L82.8202 84.1791C69.4552 84.8793 44.1701 86.1335 26.631 86.966L14.7141 87.4327L14.4732 85.8826C13.9388 82.4413 12.4191 79.366 10.3705 77.5815C8.70877 76.1334 6.1576 75.1574 4.25781 75.2429C2.8644 75.3055 2.80032 75.1882 2.73269 72.4564C2.67351 70.0632 2.68883 69.984 3.22942 69.8785C4.8064 69.5716 6.23689 67.7649 6.1617 66.1757C6.11554 65.204 5.30582 63.7926 4.54872 63.3647C4.23367 63.1866 3.59569 62.9501 3.13113 62.8387L2.28647 62.6364L1.87713 57.3879L2.71318 57.186C4.55313 56.7415 5.81045 54.6156 5.35093 52.7258C5.07085 51.5738 3.56713 50.2481 2.35813 50.0872L1.48798 49.9715L1.34553 44.6823L2.08258 44.4919C3.67974 44.0793 4.92173 42.4401 4.83863 40.8544C4.75016 39.167 3.38769 37.6704 1.71198 37.4205L0.959069 37.3081L0.549971 32.0643L1.37406 31.8651C2.97141 31.4793 4.25457 29.711 4.16589 28.0179C4.08739 26.52 2.56715 24.9371 1.00777 24.7293L0.174885 24.6186L0.0456438 22.1525C-0.0472074 20.3808 -0.00115703 19.6589 0.20919 19.5893C0.370609 19.5359 1.20631 19.3471 2.06685 19.1693C6.93042 18.1654 10.1783 13.7151 10.3865 7.7698L10.4535 5.85916L46.2787 3.98164ZM108.273 65.1123C107.625 64.665 107.156 64.6779 106.692 65.1557C106.251 65.6107 106.228 65.8948 106.389 68.9671C106.486 70.8026 106.684 72.4856 106.833 72.7317C107.139 73.2358 108.26 73.2821 108.688 72.8085C109.076 72.3785 108.7 65.4082 108.273 65.1123ZM107.481 51.4588C106.954 50.9866 106.5 51.0405 105.958 51.6403C105.549 52.0922 105.524 52.4541 105.685 55.5335C105.842 58.5217 105.918 58.9727 106.318 59.2975C106.853 59.7308 107.599 59.7401 107.981 59.3184C108.167 59.1119 108.193 57.9029 108.062 55.4152C107.907 52.4547 107.803 51.7483 107.481 51.4588ZM106.748 37.8951C106.154 37.5086 105.772 37.5738 105.251 38.1502C104.842 38.6021 104.817 38.9639 104.978 42.0434C105.142 45.1546 105.199 45.4729 105.661 45.848C106.062 46.1726 106.299 46.2035 106.801 45.9976L107.436 45.7377L107.304 41.9544C107.186 38.605 107.123 38.1394 106.748 37.8951ZM105.974 24.3561C104.413 23.6268 104.059 24.4937 104.27 28.5243C104.424 31.4694 104.489 31.8285 104.941 32.2334C105.543 32.7733 105.999 32.7795 106.474 32.2548C106.765 31.9327 106.794 31.2163 106.637 28.2202C106.461 24.8605 106.409 24.5599 105.974 24.3561ZM105.443 10.8959C104.966 10.4679 104.107 10.6348 103.734 11.2281C103.465 11.6575 103.428 12.4659 103.563 15.0342C103.717 17.9793 103.782 18.3384 104.234 18.7433C104.855 19.3 105.266 19.2896 105.744 18.7047C106.054 18.3254 106.084 17.673 105.929 14.7081C105.801 12.268 105.65 11.0812 105.443 10.8959ZM114.196 13.5279C113.991 13.5004 113.753 13.5564 113.666 13.6525C113.613 13.7111 113.59 14.2124 113.597 14.9301L114.72 14.8713L114.699 14.6965C114.607 13.9134 114.456 13.5631 114.196 13.5279ZM121.317 13.1016C120.733 13.1322 120.759 13.5237 121.407 14.4673C121.419 14.4845 121.43 14.5018 121.442 14.519L122.716 14.4522C122.089 13.5365 121.622 13.0857 121.317 13.1016Z" fill="var(--fill-0, #FF82D1)"/>
</svg>
