<svg preserveAspectRatio="none" width="100%" height="100%" overflow="visible" style="display: block;" viewBox="0 0 62 45" fill="none" xmlns="http://www.w3.org/2000/svg">
<g id="image 4 (Traced)">
<path fill-rule="evenodd" clip-rule="evenodd" d="M26.1124 0.116055C24.4681 0.633908 22.8226 2.04771 22.1877 3.48816C21.6933 4.61033 21.5068 5.95034 21.7757 6.44844C21.978 6.82299 22.1292 6.84237 24.8549 6.84237C28.0729 6.84237 28.5571 6.98828 28.5571 7.95765C28.5571 8.98329 28.2617 9.07851 25.0781 9.07851C22.7034 9.07851 22.1377 9.1305 21.8945 9.37126C21.7321 9.53245 21.5991 9.76724 21.5991 9.89303C21.5991 10.4737 22.0636 10.5693 24.8857 10.5693C28.0704 10.5693 28.5571 10.717 28.5571 11.6845C28.5571 12.7102 28.2617 12.8054 25.0781 12.8054C22.7034 12.8054 22.1377 12.8574 21.8945 13.0982C21.7321 13.2594 21.5991 13.4941 21.5991 13.6199C21.5991 14.2006 22.0636 14.2962 24.8857 14.2962C28.0704 14.2962 28.5571 14.4439 28.5571 15.4115C28.5571 16.4371 28.2617 16.5323 25.0781 16.5323C22.7034 16.5323 22.1377 16.5843 21.8945 16.8251C21.7321 16.9863 21.5991 17.221 21.5991 17.3468C21.5991 17.9275 22.0636 18.0231 24.8857 18.0231C28.0704 18.0231 28.5571 18.1709 28.5571 19.1384C28.5571 20.1569 28.251 20.2592 25.2005 20.2592C21.7242 20.2592 21.4936 20.3649 21.6728 21.8769C21.9207 23.9667 23.1609 25.6737 25.1291 26.6337L26.3866 27.2472H31.0018H35.617L36.8746 26.6337C38.8427 25.6737 40.083 23.9667 40.3308 21.8769C40.51 20.3649 40.2795 20.2592 36.8031 20.2592C33.7527 20.2592 33.4465 20.1569 33.4465 19.1384C33.4465 18.1709 33.9332 18.0231 37.1179 18.0231C39.94 18.0231 40.4045 17.9275 40.4045 17.3468C40.4045 17.221 40.2716 16.9863 40.1091 16.8251C39.8659 16.5843 39.3003 16.5323 36.9255 16.5323C33.742 16.5323 33.4465 16.4371 33.4465 15.4115C33.4465 14.4439 33.9332 14.2962 37.1179 14.2962C39.94 14.2962 40.4045 14.2006 40.4045 13.6199C40.4045 13.4941 40.2716 13.2594 40.1091 13.0982C39.8659 12.8574 39.3003 12.8054 36.9255 12.8054C33.742 12.8054 33.4465 12.7102 33.4465 11.6845C33.4465 10.717 33.9332 10.5693 37.1179 10.5693C40.041 10.5693 40.4045 10.4834 40.4045 9.79315C40.4045 9.21082 39.7482 9.07851 36.8573 9.07851C33.748 9.07851 33.4465 8.97938 33.4465 7.95765C33.4465 6.98828 33.9308 6.84237 37.1487 6.84237C39.8744 6.84237 40.0256 6.82299 40.2279 6.44844C40.4969 5.95034 40.3103 4.61033 39.8159 3.48816C39.3426 2.41462 38.1246 1.17096 36.9255 0.537568C35.9854 0.0409583 35.9839 0.040772 31.2839 0.00443466C28.6981 -0.0156906 26.371 0.0346224 26.1124 0.116055ZM54.5086 2.92912C54.3017 3.1341 54.1325 3.4317 54.1325 3.59065C54.1325 3.97564 54.6641 4.97892 54.8681 4.97892C54.9573 4.97892 55.4946 5.54485 56.0625 6.23675C60.5636 11.7209 60.6835 18.8668 56.3696 24.5137C55.8631 25.1765 55.4489 25.8779 55.4489 26.0723C55.4489 26.5648 56.2829 27.3403 56.8126 27.3403C58.0105 27.3403 60.6877 23.1379 61.561 19.8865C62.0526 18.0566 62.1513 14.16 61.7553 12.2231C61.0956 8.99745 59.5601 6.08413 57.2782 3.72947C56.3274 2.74837 56.0386 2.55643 55.513 2.55643C55.1354 2.55643 54.7346 2.70513 54.5086 2.92912ZM4.41696 3.50213C3.76216 4.01235 2.41324 5.91176 1.71387 7.30823C1.04101 8.65141 0.44864 10.4297 0.146249 12.0136C-0.144671 13.5372 0.0228857 17.751 0.43322 19.2343C1.21327 22.0547 2.62537 24.5226 4.68889 26.6727C5.7356 27.7632 6.02219 27.9614 6.55175 27.9614C7.231 27.9614 7.87114 27.3832 7.87114 26.7696C7.87114 26.5808 7.35625 25.8565 6.72721 25.1597C3.71984 21.8297 2.53209 18.9019 2.54695 14.8552C2.55936 11.4566 3.4278 8.94024 5.6017 6.00382C6.64898 4.58908 6.72081 4.07794 5.96183 3.44157C5.45069 3.01316 5.02287 3.02993 4.41696 3.50213ZM50.5732 6.21532C50.3588 6.48533 50.1833 6.85951 50.1833 7.04679C50.1833 7.23407 50.6618 7.9146 51.2464 8.55898C54.5413 12.1905 54.9673 17.5468 52.2527 21.2103C51.1088 22.7538 51.033 22.9467 51.3092 23.6075C51.567 24.2245 52.1485 24.4717 52.9017 24.2845C53.8637 24.0452 55.7426 20.8544 56.2996 18.5139C56.6095 17.2117 56.6618 14.4166 56.4017 13.0575C55.9782 10.8443 54.7051 8.45612 53.0389 6.74864C51.8683 5.54895 51.2143 5.40751 50.5732 6.21532ZM8.41142 6.70261C7.55201 7.62092 6.44306 9.57773 5.95618 11.0351C5.3687 12.7937 5.32169 16.9769 5.87137 18.5821C6.64785 20.8496 8.46314 23.6593 9.64901 24.4293C10.278 24.8377 10.9891 24.8098 11.4442 24.3588C12.0655 23.7431 11.9134 23.1718 10.7975 21.9326C8.79355 19.7071 8.02121 17.8051 7.99939 15.0416C7.97908 12.4549 8.53666 10.7813 10.1097 8.70675C10.9864 7.55048 11.0359 7.27544 10.4902 6.58801C9.93071 5.88325 9.13731 5.92704 8.41142 6.70261ZM12.781 9.92862C12.4662 10.1912 11.9309 10.9649 11.5912 11.6478C11.0068 12.8239 10.974 12.9987 10.974 14.9439C10.974 16.8558 11.0145 17.0828 11.5585 18.2202C12.7357 20.682 14.2827 21.6587 15.1915 20.5136C15.7324 19.8323 15.6816 19.4393 14.948 18.6293C13.1164 16.6069 12.9114 14.2867 14.3662 12.0489C15.1391 10.8602 15.1695 10.5169 14.5555 9.90868C13.9669 9.32523 13.4985 9.33045 12.781 9.92862ZM46.8839 9.90868C46.2609 10.5259 46.3028 10.9951 47.0549 11.8265C48.8846 13.8495 49.074 16.1088 47.6117 18.4677C46.8358 19.7194 46.8802 20.3092 47.7881 20.8125C48.2498 21.0683 48.3562 21.0685 48.82 20.8134C49.525 20.4254 50.4991 18.9386 50.8648 17.6918C51.3508 16.0351 51.162 13.7159 50.4194 12.2227C49.7111 10.7987 48.4352 9.4512 47.7949 9.4512C47.5476 9.4512 47.1378 9.65711 46.8839 9.90868Z" fill="var(--fill-0, black)"/>
<path d="M17.4474 14.0955C16.7195 14.8168 16.6867 15.8825 17.3679 16.6847C17.8282 17.2268 17.838 17.3034 17.842 20.3792C17.8455 23.1873 17.8924 23.6507 18.2845 24.7514C19.2533 27.471 21.5252 29.6877 24.182 30.506C24.8271 30.7046 26.1197 30.9243 27.0547 30.9942L28.7549 31.1215L28.703 42.2784L28.696 42.6497C28.6713 43.9404 29.7109 45 31.0018 45C32.2927 45 33.3323 43.9404 33.3077 42.6497L33.3006 42.2784L33.2487 31.1215L34.9308 30.9957C37.8382 30.7782 39.4611 30.1165 41.2925 28.4019C42.5105 27.2615 43.268 26.1008 43.7748 24.5977C44.1079 23.6097 44.1656 22.9815 44.1656 20.3386C44.1656 17.3036 44.1756 17.2266 44.6357 16.6847C44.9658 16.296 45.1059 15.9088 45.1059 15.3855C45.1059 13.3276 42.1773 12.827 41.5287 14.7743C41.2869 15.5005 41.4153 16.0786 41.9464 16.6542C42.2905 17.0273 42.3123 17.284 42.2539 20.2879C42.192 23.4737 42.1824 23.5383 41.5942 24.769C40.8346 26.3576 39.6008 27.5802 37.9976 28.3328L36.7375 28.9243H31.0018H25.2662L24.006 28.3328C22.4028 27.5802 21.169 26.3576 20.4095 24.769C19.8212 23.5383 19.8116 23.4737 19.7498 20.2879C19.6913 17.284 19.7131 17.0273 20.0572 16.6542C20.5883 16.0786 20.7168 15.5005 20.4749 14.7743C20.043 13.4774 18.4351 13.1168 17.4474 14.0955Z" fill="var(--fill-0, black)"/>
</g>
</svg>
