<svg preserveAspectRatio="none" width="100%" height="100%" overflow="visible" style="display: block;" viewBox="0 0 20 20" fill="none" xmlns="http://www.w3.org/2000/svg">
<g id="Frame">
<path id="Vector" d="M17.2008 7.8125L15.8484 5.46875C15.5584 4.96648 15.0807 4.59997 14.5205 4.44981C13.9603 4.29964 13.3633 4.37811 12.8609 4.66797C12.5808 4.82984 12.3405 5.05249 12.1578 5.31953L10.7969 2.96875C10.6048 2.63653 10.3287 2.36068 9.99629 2.16891C9.66388 1.97713 9.28688 1.87618 8.90312 1.87618C8.51937 1.87618 8.14237 1.97713 7.80996 2.16891C7.47756 2.36068 7.20146 2.63653 7.00937 2.96875C6.6099 2.6542 6.11333 2.48864 5.60502 2.50051C5.09671 2.51238 4.60841 2.70095 4.22406 3.0338C3.83971 3.36666 3.5833 3.823 3.49893 4.3244C3.41455 4.8258 3.50747 5.34093 3.76172 5.78125L3.88594 5.99688C3.56269 6.02194 3.24923 6.1194 2.96875 6.28203C2.4664 6.57223 2.09991 7.05009 1.94988 7.61049C1.79985 8.1709 1.87858 8.76795 2.16875 9.27031L5.29375 14.6859C5.74335 15.4692 6.34374 16.1556 7.06022 16.7053C7.7767 17.2551 8.59505 17.6575 9.46797 17.8891C10.052 18.0451 10.654 18.1239 11.2586 18.1234C12.4644 18.1214 13.6485 17.8022 14.692 17.198C15.7355 16.5937 16.6017 15.7256 17.2037 14.6809C17.8057 13.6361 18.1224 12.4513 18.1219 11.2455C18.1213 10.0397 17.8037 8.85521 17.2008 7.81094V7.8125ZM16.6805 12.7063C16.3923 13.7806 15.7921 14.7454 14.9557 15.4787C14.1194 16.212 13.0843 16.6809 11.9815 16.8261C10.8787 16.9712 9.75761 16.7861 8.75996 16.2942C7.76231 15.8023 6.93289 15.0257 6.37656 14.0625L3.25156 8.64688C3.1326 8.43192 3.10278 8.17885 3.1685 7.94213C3.23423 7.7054 3.39025 7.50394 3.603 7.38108C3.81576 7.25822 4.06824 7.22378 4.30612 7.28518C4.544 7.34658 4.74828 7.4989 4.875 7.70938L6.37734 10.3125C6.41717 10.3858 6.47129 10.4505 6.53649 10.5026C6.6017 10.5547 6.67668 10.5932 6.75701 10.6158C6.83735 10.6385 6.9214 10.6448 7.00421 10.6344C7.08703 10.624 7.16693 10.5972 7.2392 10.5555C7.31147 10.5137 7.37465 10.4579 7.42501 10.3914C7.47536 10.3248 7.51188 10.2488 7.5324 10.1679C7.55292 10.087 7.55704 10.0028 7.54449 9.92033C7.53195 9.83781 7.50301 9.75865 7.45938 9.6875L4.84375 5.15625C4.77951 5.04954 4.73717 4.93111 4.71921 4.80785C4.70126 4.6846 4.70804 4.55901 4.73917 4.43841C4.77029 4.3178 4.82514 4.20462 4.9005 4.10545C4.97586 4.00628 5.07023 3.92313 5.17809 3.86084C5.28595 3.79855 5.40514 3.75838 5.5287 3.74268C5.65226 3.72697 5.77771 3.73604 5.89772 3.76936C6.01774 3.80269 6.12991 3.85959 6.22768 3.93674C6.32546 4.0139 6.40688 4.10977 6.46719 4.21875L8.90625 8.4375C8.94608 8.51085 9.00019 8.57547 9.0654 8.62756C9.13061 8.67966 9.20559 8.71816 9.28592 8.74081C9.36625 8.76345 9.4503 8.76978 9.53312 8.75941C9.61593 8.74905 9.69583 8.7222 9.76811 8.68045C9.84038 8.63871 9.90355 8.58291 9.95391 8.51635C10.0043 8.4498 10.0408 8.37383 10.0613 8.29293C10.0818 8.21203 10.0859 8.12784 10.0734 8.04533C10.0609 7.96281 10.0319 7.88365 9.98828 7.8125L8.09141 4.53125C8.02716 4.42454 7.98483 4.30611 7.96687 4.18285C7.94891 4.0596 7.95569 3.93401 7.98682 3.81341C8.01795 3.6928 8.07279 3.57962 8.14816 3.48045C8.22352 3.38128 8.31789 3.29813 8.42575 3.23584C8.53361 3.17355 8.6528 3.13338 8.77636 3.11768C8.89991 3.10197 9.02536 3.11104 9.14538 3.14436C9.26539 3.17769 9.37756 3.23459 9.47534 3.31174C9.57311 3.3889 9.65453 3.48477 9.71484 3.59375L12.3258 8.11719C11.7176 8.73474 11.3422 9.54389 11.2633 10.407C11.1844 11.2702 11.4069 12.134 11.893 12.8516C11.9862 12.9887 12.1301 13.0832 12.293 13.1143C12.456 13.1454 12.6246 13.1104 12.7617 13.0172C12.8989 12.9239 12.9934 12.78 13.0245 12.6171C13.0555 12.4542 13.0206 12.2856 12.9273 12.1484C12.5684 11.6169 12.4275 10.9676 12.5338 10.3351C12.6401 9.70255 12.9855 9.13505 13.4984 8.75C13.6207 8.65833 13.7052 8.52504 13.7358 8.37533C13.7665 8.22562 13.7412 8.06986 13.6648 7.9375L13.143 7.03125C13.0766 6.92453 13.0324 6.80555 13.0129 6.68139C12.9934 6.55724 12.9991 6.43043 13.0296 6.30851C13.0601 6.1866 13.1149 6.07206 13.1905 5.97172C13.2662 5.87137 13.3613 5.78726 13.4701 5.72439C13.5789 5.66152 13.6992 5.62117 13.824 5.60574C13.9487 5.59031 14.0752 5.60011 14.1961 5.63457C14.317 5.66903 14.4297 5.72743 14.5275 5.80632C14.6253 5.8852 14.7063 5.98295 14.7656 6.09375L16.118 8.4375C16.489 9.07633 16.7298 9.78236 16.8263 10.5148C16.9229 11.2472 16.8733 11.9915 16.6805 12.7047V12.7063ZM14.3945 2.47734C14.4366 2.3173 14.5404 2.18046 14.6832 2.09683C14.826 2.0132 14.9961 1.98962 15.1562 2.03125C15.7532 2.18856 16.3129 2.46296 16.8028 2.8385C17.2927 3.21403 17.7031 3.68321 18.0102 4.21875L18.0359 4.26328C18.0796 4.33443 18.1085 4.41359 18.1211 4.49611C18.1336 4.57862 18.1295 4.66281 18.109 4.74371C18.0884 4.82461 18.0519 4.90058 18.0016 4.96714C17.9512 5.03369 17.888 5.08949 17.8158 5.13124C17.7435 5.17298 17.6636 5.19983 17.5808 5.21019C17.498 5.22056 17.4139 5.21423 17.3336 5.19159C17.2532 5.16894 17.1783 5.13044 17.1131 5.07835C17.0478 5.02625 16.9937 4.96163 16.9539 4.88828L16.9281 4.84375C16.7028 4.45127 16.4016 4.10754 16.0422 3.83259C15.6827 3.55763 15.2721 3.35693 14.8344 3.24219C14.6748 3.19883 14.5389 3.09399 14.4564 2.95063C14.374 2.80727 14.3517 2.63708 14.3945 2.47734ZM6.31953 18.5156C6.21692 18.6457 6.06688 18.7297 5.90237 18.7492C5.73785 18.7686 5.57234 18.722 5.44219 18.6195C4.50738 17.8812 3.72244 16.9708 3.12969 15.9375C3.08865 15.8664 3.06202 15.7879 3.05131 15.7065C3.04061 15.6251 3.04603 15.5424 3.06729 15.4631C3.08855 15.3838 3.12521 15.3095 3.17519 15.2444C3.22518 15.1793 3.2875 15.1246 3.35859 15.0836C3.42969 15.0426 3.50818 15.0159 3.58957 15.0052C3.67096 14.9945 3.75366 14.9999 3.83295 15.0212C3.91225 15.0425 3.98658 15.0791 4.0517 15.1291C4.11682 15.1791 4.17146 15.2414 4.2125 15.3125C4.72626 16.207 5.40615 16.995 6.21562 17.6344C6.28058 17.6852 6.33484 17.7484 6.37525 17.8203C6.41567 17.8922 6.44145 17.9714 6.45111 18.0534C6.46077 18.1353 6.45411 18.2183 6.43153 18.2976C6.40895 18.377 6.37088 18.4511 6.31953 18.5156Z" fill="var(--fill-0, #FF00A2)"/>
</g>
</svg>
