<svg width="155" height="112" viewBox="0 0 155 112" fill="none" xmlns="http://www.w3.org/2000/svg">
<path d="M153.613 71.7805C147.389 101.058 108.167 117.528 66.0069 108.567C23.8469 99.6052 -5.28566 68.6063 0.937527 39.3285C7.16071 10.0507 46.3831 -6.41905 88.5431 2.54234C130.703 11.5037 159.836 42.5027 153.613 71.7805Z" fill="#7CFF98"/>
<path d="M145.745 70.1083C148.442 57.4236 143.525 44.1598 132.967 32.9262C122.416 21.6992 106.354 12.663 87.2549 8.60339C68.1561 4.54383 49.8068 6.26565 35.6015 12.2304C21.3878 18.1988 11.501 28.3159 8.80477 41.0007C6.10855 53.6854 11.0256 66.9491 21.5829 78.1828C32.134 89.4097 48.1966 98.446 67.2953 102.506L66.8795 104.462C27.984 96.1944 1.10715 67.5956 6.84847 40.5848C12.5898 13.574 48.7751 -1.62041 87.6707 6.6471C126.566 14.9146 153.443 43.5133 147.702 70.5241C141.96 97.5349 105.775 112.729 66.8795 104.462L67.2953 102.506C86.3941 106.565 104.743 104.843 118.949 98.8785C133.162 92.9101 143.049 82.793 145.745 70.1083Z" fill="black"/>
<path fill-rule="evenodd" clip-rule="evenodd" d="M100.947 17.7288C99.152 18.3609 96.8374 19.6465 95.0706 20.9929C94.5354 21.4007 93.5253 22.15 92.8262 22.6577C92.1268 23.1657 90.7774 24.2536 89.8274 25.0755C88.319 26.3806 87.9149 26.5932 86.6385 26.7517C85.8347 26.8517 82.7854 27.4098 79.8623 27.9918C76.9392 28.5738 70.745 29.6871 66.0973 30.4661C55.719 32.2057 55.6433 32.238 54.3553 35.5218C53.08 38.7726 47.481 49.1791 44.7971 53.2861C43.5755 55.1559 41.0784 60.3704 40.3713 62.5286C39.9365 63.8562 39.8494 64.4644 40.049 64.7823C40.4329 65.3937 41.3747 65.469 42.1666 64.9515C43.4589 64.1065 43.1418 64.8396 41.6354 66.1793C39.8276 67.7869 31.1001 77.2001 31.1001 77.5421C31.1001 78.0186 31.5694 78.0427 33.113 77.6453C38.9943 76.1316 43.2449 73.9858 48.9981 69.6264C50.8128 68.2514 50.8245 68.2469 52.32 68.4158L53.8206 68.5852L54.2833 70.3481C54.5378 71.3177 55.2787 74.5824 55.9295 77.6031C57.128 83.1639 57.399 84.0328 58.0028 84.2486C58.451 84.4087 59.2671 83.9715 59.2706 83.569C59.2722 83.3919 59.7423 83.0504 60.3154 82.8102C61.1916 82.4432 61.482 82.1049 62.1365 80.6891C62.5649 79.7627 63.0039 78.6467 63.112 78.2092L63.3087 77.4138L63.9037 78.7395C66.1382 83.7162 67.2718 85.6316 68.2965 86.1602C69.1142 86.5821 69.243 86.5142 69.7974 85.368C70.0092 84.9305 70.3594 84.2536 70.576 83.8639C71.5603 82.0917 71.5937 76.5306 70.6392 73.3042C69.7232 70.2079 69.6345 70.5541 71.5797 69.6378C71.7011 69.5805 71.7391 70.6029 71.6639 71.9098C71.4736 75.211 71.7691 75.6992 75.234 77.8115C76.0714 78.3219 77.741 79.361 78.9445 80.1204C81.3922 81.6651 83.4077 82.2582 84.6317 81.7939C85.2915 81.5436 85.3497 81.4243 85.1858 80.6573C85.0851 80.1858 85.0176 79.1738 85.0359 78.4081C85.0792 76.5839 84.412 75.1326 82.6929 73.3142C81.3244 71.8666 81.12 71.3845 81.5731 70.6703C81.9327 70.1031 89.5029 73.9172 91.2557 75.5486C92.7191 76.9108 95.4078 78.7419 97.4335 79.7561C98.1823 80.131 99.7368 81.1173 100.888 81.9477C106.015 85.6456 112.925 87.7426 121.062 88.0692C124.407 88.2037 125.778 88.13 129.466 87.6182C133.849 87.0095 133.895 87.0087 138.091 87.4613C137.864 87.3955 140.411 87.7113 138.091 87.4613C138.374 87.5429 138.378 85.2823 138.6 86.6C138.779 87.6614 137.6 86.6 137.6 87.6182L138.227 87.3382L138.6 86.9364C138.6 86.9364 134.192 85.3475 140.1 86.1C134.192 85.3475 134.182 85.3023 131.813 85.1212C131.156 85.0708 129.262 85.1909 127.605 85.3882C124.404 85.7689 115.072 85.6241 115.072 85.1938C115.072 85.0708 114.557 84.9703 113.926 84.9703C112.262 84.9703 105.235 83.0311 105.595 82.6713C105.652 82.6151 105.983 82.6771 106.332 82.8089C106.682 82.9407 108.402 83.2689 110.156 83.5383C112.632 83.9188 114.89 84.0298 120.254 84.0351C126.587 84.0418 127.379 83.9909 129.754 83.424C133.537 82.5212 133.17 82.168 128.558 82.2706C125.066 82.3483 117.963 82.3565 116.401 82.2844C113.407 82.1463 108.294 81.7128 107.1 81.4956C102.811 80.7161 96.8528 78.3076 93.6364 76.0536L91.7935 74.7624L94.9956 74.7534C97.5398 74.7463 98.5804 74.624 100.058 74.1595C101.081 73.8379 102.094 73.4606 102.309 73.3214C103.049 72.8418 102.367 72.7383 101.046 73.1297C99.4873 73.5918 92.0619 73.7268 90.6602 73.3187C90.168 73.1756 88.2446 72.2176 86.3856 71.1899C82.163 68.8562 79.6375 67.9298 75.4482 67.1778L72.156 66.5871L63.7102 67.0622C55.4552 67.5268 53.054 67.4912 50.8973 66.8721C49.8782 66.5797 49.9486 66.5598 52.6118 66.3869C55.1679 66.2212 55.4368 66.1518 55.9874 65.5128C57.2048 64.1009 57.4452 61.9 56.5776 60.1119C55.9244 58.7658 55.3265 58.4675 53.2052 58.429C51.8127 58.4036 51.7673 58.3845 52.6246 58.1835C56.99 57.1598 58.3998 57.0447 67.5057 56.9697C72.548 56.9283 77.69 56.8212 78.9323 56.7316C81.4514 56.5503 84.5464 55.9261 85.6099 55.3847C86.6468 54.8568 89.1444 52.5026 90.2238 51.0354C91.286 49.5917 92.5753 46.2692 92.8432 44.2862L93.0202 42.9751L92.2121 43.7477C90.9591 44.9454 90.1037 46.612 89.9581 48.1395C89.8856 48.8994 89.6788 49.712 89.4986 49.9454C88.3228 51.4691 86.8094 53.1472 86.705 53.043C86.452 52.7906 87.3024 50.0564 88.0602 48.6865C88.4915 47.9067 88.7349 47.1908 88.6007 47.0956C88.4668 47.0005 88.2069 46.345 88.0238 45.639C87.8405 44.9326 87.5136 44.1786 87.2973 43.9627C87.0813 43.7472 86.9 43.3704 86.895 43.1257C86.8881 42.8049 86.7794 42.8656 86.5057 43.3434L86.1259 44.0062L86.1129 43.3434C86.0933 42.348 85.8132 41.4874 85.5089 41.4874C85.1653 41.4874 85.405 45.1906 85.764 45.4282C86.2559 45.754 86.1201 49.4424 85.5719 50.6427C85.2915 51.2567 84.9482 52.2661 84.8084 52.886C84.6689 53.5059 84.4112 54.1478 84.2358 54.3125C83.9886 54.5445 83.9472 54.0948 84.0511 52.3141C84.125 51.0505 84.0856 49.917 83.9642 49.7953C83.8425 49.6736 83.7224 48.2898 83.6974 46.7199C83.6533 43.959 83.4147 42.9804 83.0849 44.208C82.9972 44.5347 82.9238 45.2131 82.922 45.7159C82.9175 46.8191 82.4171 50.8527 82.1471 51.9604C81.9595 52.7307 81.9417 52.7118 81.5883 51.3639C81.3876 50.5984 81.1264 49.9719 81.0079 49.9719C80.6364 49.9719 80.773 52.5103 81.2024 53.5852L81.6124 54.6118L81.051 53.949C80.2288 52.9783 79.5312 51.3559 79.0548 49.3056C78.8236 48.311 78.4622 47.1651 78.252 46.7592C78.0415 46.3532 77.8693 45.9614 77.8693 45.8882C77.8693 45.7681 83.0559 41.4177 91.9059 34.1141C93.7071 32.628 95.3214 31.4179 95.4933 31.4251C95.6655 31.4323 97.0022 32.5745 98.4637 33.963L101.121 36.4879L98.8623 35.044C97.62 34.2499 96.3445 33.5208 96.028 33.4235C94.7397 33.0276 95.3084 33.7777 97.4864 35.3476C98.7547 36.2618 100.236 37.3311 100.779 37.724C101.322 38.117 101.77 38.5733 101.776 38.7382C101.781 38.9034 102.174 39.3384 102.649 39.7054C103.124 40.0726 103.752 40.5979 104.044 40.8728C104.336 41.148 105.509 42.0153 106.651 42.8001C107.792 43.5849 108.869 44.4236 109.043 44.6638C109.216 44.904 110.196 45.649 111.219 46.319C112.242 46.9893 113.856 48.0894 114.806 48.7642C115.756 49.4387 116.952 50.2733 117.464 50.6188C117.975 50.9646 119.649 52.159 121.184 53.2734C124.746 55.8601 128.775 58.5932 131.149 60.0329C135.146 62.457 140.694 64.6381 143.793 65.0042L145.1 65.1588V61.5805L144.369 61.7563C143.657 61.9278 143.417 62.141 142.813 63.139C142.528 63.6099 142.462 63.6101 140.687 63.1424C137.831 62.3897 134.769 60.674 126.366 55.1172C124.818 54.0937 118.241 48.9803 114.291 45.7296C112.784 44.4901 109.384 41.6974 106.735 39.5233C102.65 36.1711 99.0571 33.1016 96.8911 31.1133C96.2616 30.5356 96.4755 30.2264 98.5727 28.6804C102.827 25.5451 106.424 20.1919 105.555 18.2901C105.234 17.5864 104.292 17.0906 103.296 17.1001C102.977 17.1033 101.92 17.386 100.947 17.7288ZM100.324 19.0004C100.032 19.1648 98.6715 20.2052 97.3014 21.3124C95.9313 22.4194 93.794 24.0608 92.5519 24.9597C90.3219 26.5736 87.719 28.8108 85.3372 31.161C84.6647 31.8247 83.5162 32.8351 82.7854 33.406C81.1905 34.6521 79.7279 35.9189 76.8218 38.5709C75.6233 39.6646 74.187 40.8659 73.6303 41.2406C73.0733 41.6152 72.0176 42.4888 71.2836 43.1822C70.5499 43.8753 69.4296 44.8176 68.794 45.2763C68.1586 45.7349 66.659 46.9193 65.4622 47.9083C64.265 48.8975 63.205 49.7067 63.1064 49.7067C62.938 49.7067 59.9756 52.1312 59.4008 52.7397C59.2546 52.8945 58.6567 53.3728 58.0721 53.8026C57.4875 54.2324 56.512 55.0806 55.9043 55.6875C55.2965 56.2944 54.5192 56.8607 54.177 56.9464C53.5647 57.0991 53.5658 57.0922 54.2517 56.5195C54.9 55.9781 59.1361 52.3793 62.7392 49.309C63.5951 48.5799 66.4823 46.1125 69.1556 43.8259C81.5194 33.2501 84.5605 30.6745 87.0371 28.6801C88.4987 27.5032 90.4718 25.8691 91.4218 25.0488C94.2651 22.5936 97.6206 20.084 99.0141 19.37C100.295 18.714 101.376 18.4089 100.324 19.0004ZM101.612 21.9731C101.342 22.3433 101.03 22.6495 100.918 22.6543C100.806 22.6588 99.6848 23.6767 98.4255 24.9162C97.1664 26.1557 96.0543 27.1699 95.9544 27.1699C95.8547 27.1699 95.4293 27.5278 95.0092 27.9653C94.5891 28.4028 94.1458 28.7607 94.0241 28.7607C93.9024 28.7607 92.8913 29.6556 91.777 30.7493C90.6631 31.843 89.6079 32.7378 89.4319 32.7378C89.2563 32.7378 88.896 32.9764 88.6316 33.2681C88.3671 33.5597 87.9523 33.7984 87.71 33.7984C87.4676 33.7984 86.9258 34.1563 86.5057 34.5938C86.0856 35.0313 85.582 35.3892 85.3864 35.3892C85.1908 35.3892 84.5329 35.9261 83.9243 36.5823C83.3158 37.2385 82.7046 37.7755 82.5662 37.7755C82.428 37.7755 81.3074 38.7 80.076 39.8303C78.8446 40.9606 77.6238 42.0063 77.3631 42.1542C77.1024 42.3019 75.884 43.3264 74.6555 44.4302C72.1624 46.6704 68.0821 49.8589 66.8004 50.5684C65.8991 51.0674 64.8483 51.1857 64.8483 50.7885C64.8483 50.6543 65.6256 49.9751 66.5756 49.2791C67.5256 48.5831 68.3029 47.9329 68.3029 47.834C68.3029 47.7354 69.1551 46.953 70.1965 46.0955C71.2379 45.2381 72.5831 44.0794 73.186 43.5208C73.7887 42.9621 74.7305 42.2738 75.2784 41.9909C75.8263 41.708 76.2749 41.3548 76.2749 41.2058C76.2749 40.801 76.9361 40.1914 79.8623 37.8977C81.3239 36.752 82.5795 35.7448 82.6525 35.6591C82.7256 35.5735 83.1441 35.2291 83.5826 34.8939C84.0211 34.5585 85.194 33.5544 86.1889 32.6622C90.6968 28.6207 101.468 20.8399 102.011 21.2334C102.062 21.2703 101.882 21.6033 101.612 21.9731ZM85.5639 28.569C84.6684 29.3814 80.465 32.9335 76.8728 35.9134C75.3241 37.1982 75.2093 37.2492 75.1705 36.6717C75.1036 35.6657 75.2176 34.874 75.5386 34.1141C75.7044 33.7217 75.8617 33.1941 75.888 32.9414C75.9146 32.6888 76.0836 32.3051 76.2635 32.0887C76.7936 31.4513 76.4785 31.0873 75.8046 31.5582C75.1344 32.0267 74.4148 33.5383 74.4148 34.4779C74.4148 34.816 74.3122 35.1559 74.187 35.2333C74.0616 35.3105 73.8041 36.1228 73.6146 37.0386C73.3242 38.4423 73.0861 38.8824 72.096 39.8441C71.4502 40.4714 70.6615 41.0831 70.3432 41.2034C69.3701 41.5709 66.0059 41.8154 64.5911 41.621C63.4105 41.459 63.2539 41.3636 63.2539 40.8049C63.2539 39.3289 61.5841 36.2525 60.4555 35.6498C59.3718 35.0713 59.404 35.5586 60.5341 36.8398C61.2912 37.6978 61.6508 38.3839 61.7743 39.2067C62.1235 41.5298 60.8081 44.8931 58.1861 48.381C57.2542 49.6206 56.0656 51.3307 55.5444 52.1815C53.8496 54.9488 51.7713 57.3512 50.779 57.6893C47.1531 58.9251 44.3868 60.9179 44.3868 62.2945C44.3868 62.6453 44.2972 62.9825 44.1875 63.044C43.0207 63.6971 41.2769 63.1644 41.9463 62.3595C42.862 61.2586 44.9183 56.3283 44.9183 55.2336C44.9183 54.9366 45.1869 54.3172 45.5151 53.8572C47.4704 51.1181 53.5677 39.7168 55.0016 36.1191C55.6986 34.37 56.9366 33.1472 58.4008 32.7625C58.9509 32.6177 60.776 32.3067 62.4567 32.071C65.5004 31.6444 68.9515 31.0762 71.226 30.6276C71.8837 30.4979 73.1392 30.2646 74.0162 30.1095C76.2372 29.7163 80.5224 28.836 83.0511 28.2538C84.2204 27.9844 85.476 27.7529 85.8413 27.7394C86.4879 27.7153 86.4804 27.7375 85.5639 28.569ZM91.9782 42.1956C91.1276 43.4773 90.9886 43.8737 91.3901 43.8737C91.6466 43.8737 92.7478 42.5 93.2497 41.5537C93.5091 41.065 93.4972 40.9571 93.1833 40.9571C92.9729 40.9571 92.4305 41.5145 91.9782 42.1956ZM67.9043 43.4375C63.2401 47.465 56.9536 52.8508 56.305 53.3752L55.5386 53.9943L56.1365 52.9775C56.4652 52.418 57.6956 50.6817 58.8706 49.1187C60.0455 47.5557 61.3398 45.6467 61.7467 44.8764C62.9932 42.5167 63.069 42.4544 64.5069 42.606C65.2063 42.6797 66.4361 42.654 67.2399 42.5488C68.0438 42.4435 68.8211 42.3425 68.9672 42.3239C69.1134 42.3054 68.6351 42.8067 67.9043 43.4375ZM77.5775 47.36C78.0404 48.6849 77.9554 49.7067 77.3822 49.7067C77.1141 49.7067 76.8162 49.7852 76.7203 49.8809C76.6241 49.9769 75.9167 50.1031 75.1479 50.1614C74.3794 50.22 73.5711 50.2906 73.3518 50.3187C72.472 50.4311 72.8892 49.8573 74.8655 48.2373C76.006 47.3022 77.0171 46.5346 77.1125 46.5312C77.2079 46.5277 77.417 46.9008 77.5775 47.36ZM72.6211 51.8241C73.0229 51.8263 73.3518 51.9472 73.3518 52.093C73.3518 52.2388 73.2267 52.3581 73.0739 52.3581C72.5746 52.3581 68.7506 54.2412 67.3029 55.1999C66.5254 55.7151 65.8323 56.0796 65.7627 56.0102C65.6931 55.941 66.8044 54.9112 68.2319 53.7217C70.1011 52.1646 70.9762 51.5959 71.3588 51.69C71.6511 51.7618 72.2193 51.8223 72.6211 51.8241ZM76.8635 52.7203C77.3923 53.1212 78.4911 55.5377 78.253 55.7763C78.1645 55.8649 75.74 55.9667 72.8653 56.0025C67.9356 56.0635 67.684 56.043 68.4358 55.6422C68.8742 55.4083 69.7711 54.9019 70.4288 54.5166C72.1151 53.5293 74.9569 52.3868 75.7434 52.3804C76.1088 52.3775 76.6129 52.5305 76.8635 52.7203ZM89.9602 54.094C89.8141 54.137 89.1266 54.2488 88.4323 54.3422C87.7379 54.4355 87.17 54.6017 87.17 54.712C87.17 54.9782 94.914 55.8148 95.6352 55.6265C95.9451 55.5456 96.6931 55.6771 97.2979 55.9184C97.9025 56.16 98.451 56.3037 98.5169 56.2379C98.5828 56.1722 99.5312 56.5251 100.624 57.0222C102.809 58.0154 102.848 58.0276 102.848 57.6965C102.848 57.4149 99.6933 55.2747 99.2785 55.2747C99.1145 55.2747 98.7757 55.036 98.5254 54.7444C98.2293 54.3994 97.7213 54.2064 97.0713 54.1921C96.5217 54.1799 94.7567 54.1354 93.149 54.0927C91.5413 54.0503 90.1064 54.0508 89.9602 54.094ZM82.3868 55.306C82.3868 55.4518 82.2672 55.4974 82.1211 55.4072C81.9749 55.3171 81.8553 55.1241 81.8553 54.9782C81.8553 54.8324 81.9749 54.7868 82.1211 54.877C82.2672 54.9671 82.3868 55.1601 82.3868 55.306ZM63.1011 58.3089C62.9117 59.0619 63.1091 61.8472 63.3706 62.1078C63.7198 62.4565 63.8574 61.7963 63.8117 59.9896C63.7596 57.9314 63.4062 57.0956 63.1011 58.3089ZM65.8079 58.4086C65.7064 58.5727 65.9578 59.93 66.3524 61.3445C66.6293 62.3382 67.0404 60.5494 66.8137 59.3363C66.6646 58.5377 66.0686 57.9878 65.8079 58.4086ZM42.8253 59.0574C42.5628 59.3172 42.5325 59.2868 42.6765 58.9089C42.7764 58.6475 42.925 58.5004 43.0068 58.582C43.0887 58.6634 43.0071 58.8774 42.8253 59.0574ZM62.0988 60.1055C61.9152 60.806 62.1511 61.9032 62.4854 61.9032C62.6159 61.9032 62.7225 61.3662 62.7225 60.71C62.7225 59.4554 62.3611 59.1051 62.0988 60.1055ZM64.9849 61.1401C65.1242 62.3359 65.0848 62.8179 64.8356 62.9717C64.4909 63.184 63.5202 65.477 63.5199 66.0791C63.5194 66.8708 64.9924 66.2578 65.5903 65.2174C65.8868 64.7014 65.8953 64.7033 65.9033 65.2837C65.9126 65.9839 66.7228 66.1043 67.2399 65.4825C67.422 65.2638 67.7953 65.0848 68.0696 65.0848C68.4469 65.0848 68.5686 64.8907 68.5686 64.2894C68.5686 63.4285 68.1522 63.2037 67.9545 63.958C67.8631 64.3072 67.8254 64.2743 67.8022 63.8254C67.7669 63.14 67.7706 63.1414 66.8435 63.4932C66.443 63.6451 66.2116 63.6528 66.299 63.5115C66.383 63.3763 66.3298 63.1907 66.1813 63.0989C66.0327 63.0075 65.9113 62.596 65.9113 62.185C65.9113 61.4158 65.2283 59.5169 64.9514 59.5169C64.8661 59.5169 64.881 60.2474 64.9849 61.1401ZM53.0415 60.8723C53.3734 61.4081 52.5215 61.6298 50.1001 61.6375C47.4605 61.646 46.4423 61.8247 46.5855 62.2539C46.7327 62.6946 47.9009 62.9131 50.5595 62.9971C52.9631 63.073 53.0072 63.0634 53.1661 62.4226L53.328 61.7706L53.5304 62.3823C53.6559 62.7611 53.9011 62.9595 54.1751 62.903C54.5134 62.8338 54.6011 62.5644 54.5482 61.7613C54.4645 60.4966 54.8565 60.9964 55.127 62.4997C55.2335 63.0912 55.457 63.494 55.6786 63.494C55.976 63.494 55.9962 63.6523 55.7783 64.2759C55.385 65.4011 54.3747 65.6379 50.4992 65.513L47.1993 65.4067L46.3245 64.4543C45.8202 63.9052 45.4497 63.2193 45.4497 62.8351C45.4497 62.1394 46.2714 61.1157 46.8448 61.0966C48.6739 61.0359 52.2496 60.7668 52.3368 60.6835C52.5395 60.4892 52.8568 60.574 53.0415 60.8723ZM144.464 63.118C144.375 63.3487 144.303 63.5873 144.303 63.6483C144.303 63.7093 144.119 63.7591 143.895 63.7591C143.569 63.7591 143.544 63.652 143.771 63.2289C144.107 62.6031 144.699 62.5085 144.464 63.118ZM41.7295 64.0399C41.7295 64.1773 41.5538 64.2894 41.3391 64.2894C41.1021 64.2894 41.0088 64.1338 41.1013 63.8933C41.258 63.4852 41.7295 63.5955 41.7295 64.0399ZM45.328 64.8377C45.4245 64.9934 45.0429 65.5149 44.4801 65.9964C42.5822 67.6204 40.7526 69.4559 40.4335 70.0562C40.0529 70.7721 39.7248 70.8177 39.4792 70.1888C39.341 69.8345 39.9472 69.1155 42.0417 67.1492C43.5508 65.7328 44.868 64.5694 44.969 64.5641C45.07 64.5588 45.2316 64.6818 45.328 64.8377ZM46.2469 67.3372C46.2469 67.5276 43.672 70.1225 43.483 70.1225C43.0608 70.1225 43.4371 69.5455 44.5861 68.4306C45.733 67.3181 46.2469 66.9798 46.2469 67.3372ZM70.9602 68.2458C70.9602 68.3805 70.5287 68.6327 70.0012 68.8063C69.1413 69.0895 68.9842 69.064 68.4807 68.5616L67.9192 68.0014H69.4397C70.276 68.0014 70.9602 68.1114 70.9602 68.2458ZM67.4541 69.1099C67.8453 69.5736 68.2978 70.3195 68.4599 70.767C68.6218 71.2146 69.0164 72.2966 69.3366 73.1716C71.0426 77.8349 70.7051 84.4103 68.774 84.1248C68.3409 84.0609 68.1153 83.686 67.7674 82.4515C66.9487 79.5471 65.2459 77.0161 64.1109 77.0161C63.6196 77.0161 63.5784 76.778 63.4562 73.2379C63.3847 71.1597 63.2404 69.2592 63.1357 69.0139C62.9834 68.6571 63.1216 68.5468 63.8306 68.4598C66.2937 68.1578 66.7149 68.2334 67.4541 69.1099ZM73.2171 69.7038C72.8249 70.3717 72.4823 70.9179 72.456 70.9179C72.4295 70.9179 72.4521 70.4539 72.5063 69.8868C72.5769 69.1465 72.7664 68.7817 73.1775 68.5939C73.4927 68.45 73.7908 68.3678 73.8402 68.4113C73.8897 68.4545 73.6093 69.0362 73.2171 69.7038ZM61.8315 68.8631C61.8126 69.0455 62.0135 70.3431 62.2784 71.747C62.8327 74.6863 62.6143 77.3942 61.6407 79.6524C60.9883 81.1655 59.7842 82.4056 59.0949 82.2744C58.6663 82.1927 58.5839 81.8257 58.4497 79.3997C58.285 76.4169 57.5181 74.1481 56.5936 73.9068C56.2773 73.8244 55.9266 73.0435 55.4445 71.348C55.0627 70.0058 54.7504 68.8233 54.7504 68.7199C54.7504 68.6162 56.3515 68.5316 58.3083 68.5316C60.996 68.5316 61.8578 68.6128 61.8315 68.8631ZM76.1596 68.8103C78.8509 69.2862 80.2609 69.8359 80.2609 70.4088C80.2609 71.0765 80.1881 71.0605 78.8687 70.1071C77.3198 68.9874 77.1912 69.6468 78.6955 70.9953C82.7126 74.5959 84.2469 76.5094 84.2469 77.9178C84.2469 78.3031 84.0213 78.2222 82.9847 77.4655C80.3114 75.5136 78.3495 75.1771 77.2491 76.4818L76.5818 77.2733L74.7674 76.182C72.6389 74.9019 72.5871 74.8581 73.0149 74.7057C73.1951 74.6413 73.4624 74.1505 73.6088 73.6152C73.7552 73.0796 74.2354 72.2237 74.6757 71.7133C75.6156 70.6241 75.669 70.246 74.9462 69.7958C74.5192 69.5296 74.166 68.5316 74.4987 68.5316C74.545 68.5316 75.2925 68.6571 76.1596 68.8103ZM42.7924 70.6528C42.6359 70.9444 42.3476 71.183 42.1512 71.183C41.9551 71.183 41.6444 71.3636 41.4611 71.5839C41.2025 71.8949 41.0436 71.9154 40.7539 71.6757C40.4425 71.418 40.5012 71.287 41.1047 70.8919C41.503 70.6313 41.9181 70.4727 42.0268 70.5395C42.1352 70.6066 42.2992 70.5401 42.3911 70.3919C42.7143 69.8701 43.0834 70.11 42.7924 70.6528ZM38.2709 73.9344C37.1934 74.9867 36.3329 75.5385 34.9713 76.0505C33.9583 76.4315 33.0657 76.6796 32.9881 76.602C32.9103 76.5243 33.201 76.1274 33.6341 75.7196C34.0673 75.3121 35.2485 74.0569 36.259 72.9303L38.0961 70.8824L39.7285 72.5109L38.2709 73.9344ZM40.5336 73.8344C40.4433 73.9803 40.2498 74.0996 40.1037 74.0996C39.9575 74.0996 39.9118 73.9803 40.0022 73.8344C40.0925 73.6886 40.286 73.5693 40.4321 73.5693C40.5783 73.5693 40.624 73.6886 40.5336 73.8344ZM57.0031 76.0356C57.2792 76.7568 57.408 77.7463 57.3562 78.7504L57.2749 80.3304L56.7945 77.9441C56.5303 76.6317 56.2484 75.3341 56.1681 75.0607C55.8864 74.1017 56.567 74.8961 57.0031 76.0356ZM80.9322 77.1635C82.4803 77.8942 84.5889 80.022 84.4476 80.7106C84.2379 81.7292 80.613 80.6204 78.3779 78.8541C77.2212 77.9399 77.1372 77.6768 77.7776 76.9708C78.3774 76.3095 79.2336 76.3617 80.9322 77.1635ZM66.1504 80.3304C66.4302 80.9137 66.7436 81.6892 66.8467 82.0538C67.1865 83.2567 66.5395 82.2712 65.5408 80.0652C64.5698 77.92 65.1058 78.1533 66.1504 80.3304ZM137.394 82.8473C136.882 82.9629 135.776 83.1384 134.936 83.2373C131.993 83.5844 133.45 83.8392 138.201 83.8082C141.458 83.7872 140.971 83.3996 141.1 83.6C141.205 83.762 140.625 83.7596 141.1 83.8275C141.921 83.9444 141.6 84.0463 141.6 83.2373C141.6 82.579 142.563 82.2238 142.1 82.1C141.257 81.8746 138.51 82.5952 137.394 82.8473Z" fill="black"/>
<path d="M67.2953 102.506C48.1966 98.446 32.134 89.4097 21.5829 78.1828C11.0256 66.9491 6.10855 53.6854 8.80477 41.0007C11.501 28.3159 21.3878 18.1988 35.6015 12.2304C49.8068 6.26565 68.1561 4.54383 87.2549 8.60339C106.354 12.663 122.416 21.6992 132.967 32.9262C143.525 44.1598 148.442 57.4236 145.745 70.1083C143.049 82.793 133.162 92.9101 118.949 98.8785C104.743 104.843 86.3941 106.565 67.2953 102.506ZM67.2953 102.506L66.8795 104.462M66.8795 104.462C27.984 96.1944 1.10715 67.5956 6.84847 40.5848C12.5898 13.574 48.7751 -1.62041 87.6707 6.6471C126.566 14.9146 153.443 43.5133 147.702 70.5241C141.96 97.5349 105.775 112.729 66.8795 104.462ZM138.091 87.4613C133.895 87.0087 133.849 87.0095 129.466 87.6182C125.778 88.13 124.407 88.2037 121.062 88.0692C112.925 87.7426 106.015 85.6456 100.888 81.9477C99.7368 81.1173 98.1823 80.131 97.4335 79.7561C95.4078 78.7419 92.7191 76.9108 91.2557 75.5486C89.5029 73.9172 81.9327 70.1031 81.5731 70.6703C81.12 71.3845 81.3244 71.8666 82.6929 73.3142C84.412 75.1326 85.0792 76.5839 85.0359 78.4081C85.0176 79.1738 85.0851 80.1858 85.1858 80.6573C85.3497 81.4243 85.2915 81.5436 84.6317 81.7939C83.4077 82.2582 81.3922 81.6651 78.9445 80.1204C77.741 79.361 76.0714 78.3219 75.234 77.8115C71.7691 75.6992 71.4736 75.211 71.6639 71.9098C71.7391 70.6029 71.7011 69.5805 71.5797 69.6378C69.6345 70.5541 69.7232 70.2079 70.6392 73.3042C71.5937 76.5306 71.5603 82.0917 70.576 83.8639C70.3594 84.2536 70.0092 84.9305 69.7974 85.368C69.243 86.5142 69.1142 86.5821 68.2965 86.1602C67.2718 85.6316 66.1382 83.7162 63.9037 78.7395L63.3087 77.4138L63.112 78.2092C63.0039 78.6467 62.5649 79.7627 62.1365 80.6891C61.482 82.1049 61.1916 82.4432 60.3154 82.8102C59.7423 83.0504 59.2722 83.3919 59.2706 83.569C59.2671 83.9715 58.451 84.4087 58.0028 84.2486C57.399 84.0328 57.128 83.1639 55.9295 77.6031C55.2787 74.5824 54.5378 71.3177 54.2833 70.3481L53.8206 68.5852L52.32 68.4158C50.8245 68.2469 50.8128 68.2514 48.9981 69.6264C43.2449 73.9858 38.9943 76.1316 33.113 77.6453C31.5694 78.0427 31.1001 78.0186 31.1001 77.5421C31.1001 77.2001 39.8276 67.7869 41.6354 66.1793C43.1418 64.8396 43.4589 64.1065 42.1666 64.9515C41.3747 65.469 40.4329 65.3937 40.049 64.7823C39.8494 64.4644 39.9365 63.8562 40.3713 62.5286C41.0784 60.3704 43.5755 55.1559 44.7971 53.2861C47.481 49.1791 53.08 38.7726 54.3553 35.5218C55.6433 32.238 55.719 32.2057 66.0973 30.4661C70.745 29.6871 76.9392 28.5738 79.8623 27.9918C82.7854 27.4098 85.8347 26.8517 86.6385 26.7517C87.9149 26.5932 88.319 26.3806 89.8274 25.0755C90.7774 24.2536 92.1268 23.1657 92.8262 22.6577C93.5253 22.15 94.5354 21.4007 95.0706 20.9929C96.8374 19.6465 99.152 18.3609 100.947 17.7288C101.92 17.386 102.977 17.1033 103.296 17.1001C104.292 17.0906 105.234 17.5864 105.555 18.2901C106.424 20.1919 102.827 25.5451 98.5727 28.6804C96.4755 30.2264 96.2616 30.5356 96.8911 31.1133C99.0571 33.1016 102.65 36.1711 106.735 39.5233C109.384 41.6974 112.784 44.4901 114.291 45.7296C118.241 48.9803 124.818 54.0937 126.366 55.1172C134.769 60.674 137.831 62.3897 140.687 63.1424C142.462 63.6101 142.528 63.6099 142.813 63.139C143.417 62.141 143.657 61.9278 144.369 61.7563L145.1 61.5805V65.1588L143.793 65.0042C140.694 64.6381 135.146 62.457 131.149 60.0329C128.775 58.5932 124.746 55.8601 121.184 53.2734C119.649 52.159 117.975 50.9646 117.464 50.6188C116.952 50.2733 115.756 49.4387 114.806 48.7642C113.856 48.0894 112.242 46.9893 111.219 46.319C110.196 45.649 109.216 44.904 109.043 44.6638C108.869 44.4236 107.792 43.5849 106.651 42.8001C105.509 42.0153 104.336 41.148 104.044 40.8728C103.752 40.5979 103.124 40.0726 102.649 39.7054C102.174 39.3384 101.781 38.9034 101.776 38.7382C101.77 38.5733 101.322 38.117 100.779 37.724C100.236 37.3311 98.7547 36.2618 97.4864 35.3476C95.3084 33.7777 94.7397 33.0276 96.028 33.4235C96.3445 33.5208 97.62 34.2499 98.8623 35.044L101.121 36.4879L98.4637 33.963C97.0022 32.5745 95.6655 31.4323 95.4933 31.4251C95.3214 31.4179 93.7071 32.628 91.9059 34.1141C83.0559 41.4177 77.8693 45.7681 77.8693 45.8882C77.8693 45.9614 78.0415 46.3532 78.252 46.7592C78.4622 47.1651 78.8236 48.311 79.0548 49.3056C79.5312 51.3559 80.2288 52.9783 81.051 53.949L81.6124 54.6118L81.2024 53.5852C80.773 52.5103 80.6364 49.9719 81.0079 49.9719C81.1264 49.9719 81.3876 50.5984 81.5883 51.3639C81.9417 52.7118 81.9595 52.7307 82.1471 51.9604C82.4171 50.8527 82.9175 46.8191 82.922 45.7159C82.9238 45.2131 82.9972 44.5347 83.0849 44.208C83.4147 42.9804 83.6533 43.959 83.6974 46.7199C83.7224 48.2898 83.8425 49.6736 83.9642 49.7953C84.0856 49.917 84.125 51.0505 84.0511 52.3141C83.9472 54.0948 83.9886 54.5445 84.2358 54.3125C84.4112 54.1478 84.6689 53.5059 84.8084 52.886C84.9482 52.2661 85.2915 51.2567 85.5719 50.6427C86.1201 49.4424 86.2559 45.754 85.764 45.4282C85.405 45.1906 85.1653 41.4874 85.5089 41.4874C85.8132 41.4874 86.0933 42.348 86.1129 43.3434L86.1259 44.0062L86.5057 43.3434C86.7794 42.8656 86.8881 42.8049 86.895 43.1257C86.9 43.3704 87.0813 43.7472 87.2973 43.9627C87.5136 44.1786 87.8405 44.9326 88.0238 45.639C88.2069 46.345 88.4668 47.0005 88.6007 47.0956C88.7349 47.1908 88.4915 47.9067 88.0602 48.6865C87.3024 50.0564 86.452 52.7906 86.705 53.043C86.8094 53.1472 88.3228 51.4691 89.4986 49.9454C89.6788 49.712 89.8856 48.8994 89.9581 48.1395C90.1037 46.612 90.9591 44.9454 92.2121 43.7477L93.0202 42.9751L92.8432 44.2862C92.5753 46.2692 91.286 49.5917 90.2238 51.0354C89.1444 52.5026 86.6468 54.8568 85.6099 55.3847C84.5464 55.9261 81.4514 56.5503 78.9323 56.7316C77.69 56.8212 72.548 56.9283 67.5057 56.9697C58.3998 57.0447 56.99 57.1598 52.6246 58.1835C51.7673 58.3845 51.8127 58.4036 53.2052 58.429C55.3265 58.4675 55.9244 58.7658 56.5776 60.1119C57.4452 61.9 57.2048 64.1009 55.9874 65.5128C55.4368 66.1518 55.1679 66.2212 52.6118 66.3869C49.9486 66.5598 49.8782 66.5797 50.8973 66.8721C53.054 67.4912 55.4552 67.5268 63.7102 67.0622L72.156 66.5871L75.4482 67.1778C79.6375 67.9298 82.163 68.8562 86.3856 71.1899C88.2446 72.2176 90.168 73.1756 90.6602 73.3187C92.0619 73.7268 99.4873 73.5918 101.046 73.1297C102.367 72.7383 103.049 72.8418 102.309 73.3214C102.094 73.4606 101.081 73.8379 100.058 74.1595C98.5804 74.624 97.5398 74.7463 94.9956 74.7534L91.7935 74.7624L93.6364 76.0536C96.8528 78.3076 102.811 80.7161 107.1 81.4956C108.294 81.7128 113.407 82.1463 116.401 82.2844C117.963 82.3565 125.066 82.3483 128.558 82.2706C133.17 82.168 133.537 82.5212 129.754 83.424C127.379 83.9909 126.587 84.0418 120.254 84.0351C114.89 84.0298 112.632 83.9188 110.156 83.5383C108.402 83.2689 106.682 82.9407 106.332 82.8089C105.983 82.6771 105.652 82.6151 105.595 82.6713C105.235 83.0311 112.262 84.9703 113.926 84.9703C114.557 84.9703 115.072 85.0708 115.072 85.1938C115.072 85.6241 124.404 85.7689 127.605 85.3882C129.262 85.1909 131.156 85.0708 131.813 85.1212C134.182 85.3023 134.192 85.3475 140.1 86.1C134.192 85.3475 138.6 86.9364 138.6 86.9364L138.227 87.3382L137.6 87.6182C137.6 86.6 138.779 87.6614 138.6 86.6C138.378 85.2823 138.374 87.5429 138.091 87.4613ZM138.091 87.4613C140.411 87.7113 137.864 87.3955 138.091 87.4613ZM153.613 71.7805C147.389 101.058 108.167 117.528 66.0069 108.567C23.8469 99.6052 -5.28566 68.6063 0.937527 39.3285C7.16071 10.0507 46.3831 -6.41905 88.5431 2.54234C130.703 11.5037 159.836 42.5027 153.613 71.7805ZM100.324 19.0004C100.032 19.1648 98.6715 20.2052 97.3014 21.3124C95.9313 22.4194 93.794 24.0608 92.5519 24.9597C90.3219 26.5736 87.719 28.8108 85.3372 31.161C84.6647 31.8247 83.5162 32.8351 82.7854 33.406C81.1905 34.6521 79.7279 35.9189 76.8218 38.5709C75.6233 39.6646 74.187 40.8659 73.6303 41.2406C73.0733 41.6152 72.0176 42.4888 71.2836 43.1822C70.5499 43.8753 69.4296 44.8176 68.794 45.2763C68.1586 45.7349 66.659 46.9193 65.4622 47.9083C64.265 48.8975 63.205 49.7067 63.1064 49.7067C62.938 49.7067 59.9756 52.1312 59.4008 52.7397C59.2546 52.8945 58.6567 53.3728 58.0721 53.8026C57.4875 54.2324 56.512 55.0806 55.9043 55.6875C55.2965 56.2944 54.5192 56.8607 54.177 56.9464C53.5647 57.0991 53.5658 57.0922 54.2517 56.5195C54.9 55.9781 59.1361 52.3793 62.7392 49.309C63.5951 48.5799 66.4823 46.1125 69.1556 43.8259C81.5194 33.2501 84.5605 30.6745 87.0371 28.6801C88.4987 27.5032 90.4718 25.8691 91.4218 25.0488C94.2651 22.5936 97.6206 20.084 99.0141 19.37C100.295 18.714 101.376 18.4089 100.324 19.0004ZM101.612 21.9731C101.342 22.3433 101.03 22.6495 100.918 22.6543C100.806 22.6588 99.6848 23.6767 98.4255 24.9162C97.1664 26.1557 96.0543 27.1699 95.9544 27.1699C95.8547 27.1699 95.4293 27.5278 95.0092 27.9653C94.5891 28.4028 94.1458 28.7607 94.0241 28.7607C93.9024 28.7607 92.8913 29.6556 91.777 30.7493C90.6631 31.843 89.6079 32.7378 89.4319 32.7378C89.2563 32.7378 88.896 32.9764 88.6316 33.2681C88.3671 33.5597 87.9523 33.7984 87.71 33.7984C87.4676 33.7984 86.9258 34.1563 86.5057 34.5938C86.0856 35.0313 85.582 35.3892 85.3864 35.3892C85.1908 35.3892 84.5329 35.9261 83.9243 36.5823C83.3158 37.2385 82.7046 37.7755 82.5662 37.7755C82.428 37.7755 81.3074 38.7 80.076 39.8303C78.8446 40.9606 77.6238 42.0063 77.3631 42.1542C77.1024 42.3019 75.884 43.3264 74.6555 44.4302C72.1624 46.6704 68.0821 49.8589 66.8004 50.5684C65.8991 51.0674 64.8483 51.1857 64.8483 50.7885C64.8483 50.6543 65.6256 49.9751 66.5756 49.2791C67.5256 48.5831 68.3029 47.9329 68.3029 47.834C68.3029 47.7354 69.1551 46.953 70.1965 46.0955C71.2379 45.2381 72.5831 44.0794 73.186 43.5208C73.7887 42.9621 74.7305 42.2738 75.2784 41.9909C75.8263 41.708 76.2749 41.3548 76.2749 41.2058C76.2749 40.801 76.9361 40.1914 79.8623 37.8977C81.3239 36.752 82.5795 35.7448 82.6525 35.6591C82.7256 35.5735 83.1441 35.2291 83.5826 34.8939C84.0211 34.5585 85.194 33.5544 86.1889 32.6622C90.6968 28.6207 101.468 20.8399 102.011 21.2334C102.062 21.2703 101.882 21.6033 101.612 21.9731ZM85.5639 28.569C84.6684 29.3814 80.465 32.9335 76.8728 35.9134C75.3241 37.1982 75.2093 37.2492 75.1705 36.6717C75.1036 35.6657 75.2176 34.874 75.5386 34.1141C75.7044 33.7217 75.8617 33.1941 75.888 32.9414C75.9146 32.6888 76.0836 32.3051 76.2635 32.0887C76.7936 31.4513 76.4785 31.0873 75.8046 31.5582C75.1344 32.0267 74.4148 33.5383 74.4148 34.4779C74.4148 34.816 74.3122 35.1559 74.187 35.2333C74.0616 35.3105 73.8041 36.1228 73.6146 37.0386C73.3242 38.4423 73.0861 38.8824 72.096 39.8441C71.4502 40.4714 70.6615 41.0831 70.3432 41.2034C69.3701 41.5709 66.0059 41.8154 64.5911 41.621C63.4105 41.459 63.2539 41.3636 63.2539 40.8049C63.2539 39.3289 61.5841 36.2525 60.4555 35.6498C59.3718 35.0713 59.404 35.5586 60.5341 36.8398C61.2912 37.6978 61.6508 38.3839 61.7743 39.2067C62.1235 41.5298 60.8081 44.8931 58.1861 48.381C57.2542 49.6206 56.0656 51.3307 55.5444 52.1815C53.8496 54.9488 51.7713 57.3512 50.779 57.6893C47.1531 58.9251 44.3868 60.9179 44.3868 62.2945C44.3868 62.6453 44.2972 62.9825 44.1875 63.044C43.0207 63.6971 41.2769 63.1644 41.9463 62.3595C42.862 61.2586 44.9183 56.3283 44.9183 55.2336C44.9183 54.9366 45.1869 54.3172 45.5151 53.8572C47.4704 51.1181 53.5677 39.7168 55.0016 36.1191C55.6986 34.37 56.9366 33.1472 58.4008 32.7625C58.9509 32.6177 60.776 32.3067 62.4567 32.071C65.5004 31.6444 68.9515 31.0762 71.226 30.6276C71.8837 30.4979 73.1392 30.2646 74.0162 30.1095C76.2372 29.7163 80.5224 28.836 83.0511 28.2538C84.2204 27.9844 85.476 27.7529 85.8413 27.7394C86.4879 27.7153 86.4804 27.7375 85.5639 28.569ZM91.9782 42.1956C91.1276 43.4773 90.9886 43.8737 91.3901 43.8737C91.6466 43.8737 92.7478 42.5 93.2497 41.5537C93.5091 41.065 93.4972 40.9571 93.1833 40.9571C92.9729 40.9571 92.4305 41.5145 91.9782 42.1956ZM67.9043 43.4375C63.2401 47.465 56.9536 52.8508 56.305 53.3752L55.5386 53.9943L56.1365 52.9775C56.4652 52.418 57.6956 50.6817 58.8706 49.1187C60.0455 47.5557 61.3398 45.6467 61.7467 44.8764C62.9932 42.5167 63.069 42.4544 64.5069 42.606C65.2063 42.6797 66.4361 42.654 67.2399 42.5488C68.0438 42.4435 68.8211 42.3425 68.9672 42.3239C69.1134 42.3054 68.6351 42.8067 67.9043 43.4375ZM77.5775 47.36C78.0404 48.6849 77.9554 49.7067 77.3822 49.7067C77.1141 49.7067 76.8162 49.7852 76.7203 49.8809C76.6241 49.9769 75.9167 50.1031 75.1479 50.1614C74.3794 50.22 73.5711 50.2906 73.3518 50.3187C72.472 50.4311 72.8892 49.8573 74.8655 48.2373C76.006 47.3022 77.0171 46.5346 77.1125 46.5312C77.2079 46.5277 77.417 46.9008 77.5775 47.36ZM72.6211 51.8241C73.0229 51.8263 73.3518 51.9472 73.3518 52.093C73.3518 52.2388 73.2267 52.3581 73.0739 52.3581C72.5746 52.3581 68.7506 54.2412 67.3029 55.1999C66.5254 55.7151 65.8323 56.0796 65.7627 56.0102C65.6931 55.941 66.8044 54.9112 68.2319 53.7217C70.1011 52.1646 70.9762 51.5959 71.3588 51.69C71.6511 51.7618 72.2193 51.8223 72.6211 51.8241ZM76.8635 52.7203C77.3923 53.1212 78.4911 55.5377 78.253 55.7763C78.1645 55.8649 75.74 55.9667 72.8653 56.0025C67.9356 56.0635 67.684 56.043 68.4358 55.6422C68.8742 55.4083 69.7711 54.9019 70.4288 54.5166C72.1151 53.5293 74.9569 52.3868 75.7434 52.3804C76.1088 52.3775 76.6129 52.5305 76.8635 52.7203ZM89.9602 54.094C89.8141 54.137 89.1266 54.2488 88.4323 54.3422C87.7379 54.4355 87.17 54.6017 87.17 54.712C87.17 54.9782 94.914 55.8148 95.6352 55.6265C95.9451 55.5456 96.6931 55.6771 97.2979 55.9184C97.9025 56.16 98.451 56.3037 98.5169 56.2379C98.5828 56.1722 99.5312 56.5251 100.624 57.0222C102.809 58.0154 102.848 58.0276 102.848 57.6965C102.848 57.4149 99.6933 55.2747 99.2785 55.2747C99.1145 55.2747 98.7757 55.036 98.5254 54.7444C98.2293 54.3994 97.7213 54.2064 97.0713 54.1921C96.5217 54.1799 94.7567 54.1354 93.149 54.0927C91.5413 54.0503 90.1064 54.0508 89.9602 54.094ZM82.3868 55.306C82.3868 55.4518 82.2672 55.4974 82.1211 55.4072C81.9749 55.3171 81.8553 55.1241 81.8553 54.9782C81.8553 54.8324 81.9749 54.7868 82.1211 54.877C82.2672 54.9671 82.3868 55.1601 82.3868 55.306ZM63.1011 58.3089C62.9117 59.0619 63.1091 61.8472 63.3706 62.1078C63.7198 62.4565 63.8574 61.7963 63.8117 59.9896C63.7596 57.9314 63.4062 57.0956 63.1011 58.3089ZM65.8079 58.4086C65.7064 58.5727 65.9578 59.93 66.3524 61.3445C66.6293 62.3382 67.0404 60.5494 66.8137 59.3363C66.6646 58.5377 66.0686 57.9878 65.8079 58.4086ZM42.8253 59.0574C42.5628 59.3172 42.5325 59.2868 42.6765 58.9089C42.7764 58.6475 42.925 58.5004 43.0068 58.582C43.0887 58.6634 43.0071 58.8774 42.8253 59.0574ZM62.0988 60.1055C61.9152 60.806 62.1511 61.9032 62.4854 61.9032C62.6159 61.9032 62.7225 61.3662 62.7225 60.71C62.7225 59.4554 62.3611 59.1051 62.0988 60.1055ZM64.9849 61.1401C65.1242 62.3359 65.0848 62.8179 64.8356 62.9717C64.4909 63.184 63.5202 65.477 63.5199 66.0791C63.5194 66.8708 64.9924 66.2578 65.5903 65.2174C65.8868 64.7014 65.8953 64.7033 65.9033 65.2837C65.9126 65.9839 66.7228 66.1043 67.2399 65.4825C67.422 65.2638 67.7953 65.0848 68.0696 65.0848C68.4469 65.0848 68.5686 64.8907 68.5686 64.2894C68.5686 63.4285 68.1522 63.2037 67.9545 63.958C67.8631 64.3072 67.8254 64.2743 67.8022 63.8254C67.7669 63.14 67.7706 63.1414 66.8435 63.4932C66.443 63.6451 66.2116 63.6528 66.299 63.5115C66.383 63.3763 66.3298 63.1907 66.1813 63.0989C66.0327 63.0075 65.9113 62.596 65.9113 62.185C65.9113 61.4158 65.2283 59.5169 64.9514 59.5169C64.8661 59.5169 64.881 60.2474 64.9849 61.1401ZM53.0415 60.8723C53.3734 61.4081 52.5215 61.6298 50.1001 61.6375C47.4605 61.646 46.4423 61.8247 46.5855 62.2539C46.7327 62.6946 47.9009 62.9131 50.5595 62.9971C52.9631 63.073 53.0072 63.0634 53.1661 62.4226L53.328 61.7706L53.5304 62.3823C53.6559 62.7611 53.9011 62.9595 54.1751 62.903C54.5134 62.8338 54.6011 62.5644 54.5482 61.7613C54.4645 60.4966 54.8565 60.9964 55.127 62.4997C55.2335 63.0912 55.457 63.494 55.6786 63.494C55.976 63.494 55.9962 63.6523 55.7783 64.2759C55.385 65.4011 54.3747 65.6379 50.4992 65.513L47.1993 65.4067L46.3245 64.4543C45.8202 63.9052 45.4497 63.2193 45.4497 62.8351C45.4497 62.1394 46.2714 61.1157 46.8448 61.0966C48.6739 61.0359 52.2496 60.7668 52.3368 60.6835C52.5395 60.4892 52.8568 60.574 53.0415 60.8723ZM144.464 63.118C144.375 63.3487 144.303 63.5873 144.303 63.6483C144.303 63.7093 144.119 63.7591 143.895 63.7591C143.569 63.7591 143.544 63.652 143.771 63.2289C144.107 62.6031 144.699 62.5085 144.464 63.118ZM41.7295 64.0399C41.7295 64.1773 41.5538 64.2894 41.3391 64.2894C41.1021 64.2894 41.0088 64.1338 41.1013 63.8933C41.258 63.4852 41.7295 63.5955 41.7295 64.0399ZM45.328 64.8377C45.4245 64.9934 45.0429 65.5149 44.4801 65.9964C42.5822 67.6204 40.7526 69.4559 40.4335 70.0562C40.0529 70.7721 39.7248 70.8177 39.4792 70.1888C39.341 69.8345 39.9472 69.1155 42.0417 67.1492C43.5508 65.7328 44.868 64.5694 44.969 64.5641C45.07 64.5588 45.2316 64.6818 45.328 64.8377ZM46.2469 67.3372C46.2469 67.5276 43.672 70.1225 43.483 70.1225C43.0608 70.1225 43.4371 69.5455 44.5861 68.4306C45.733 67.3181 46.2469 66.9798 46.2469 67.3372ZM70.9602 68.2458C70.9602 68.3805 70.5287 68.6327 70.0012 68.8063C69.1413 69.0895 68.9842 69.064 68.4807 68.5616L67.9192 68.0014H69.4397C70.276 68.0014 70.9602 68.1114 70.9602 68.2458ZM67.4541 69.1099C67.8453 69.5736 68.2978 70.3195 68.4599 70.767C68.6218 71.2146 69.0164 72.2966 69.3366 73.1716C71.0426 77.8349 70.7051 84.4103 68.774 84.1248C68.3409 84.0609 68.1153 83.686 67.7674 82.4515C66.9487 79.5471 65.2459 77.0161 64.1109 77.0161C63.6196 77.0161 63.5784 76.778 63.4562 73.2379C63.3847 71.1597 63.2404 69.2592 63.1357 69.0139C62.9834 68.6571 63.1216 68.5468 63.8306 68.4598C66.2937 68.1578 66.7149 68.2334 67.4541 69.1099ZM73.2171 69.7038C72.8249 70.3717 72.4823 70.9179 72.456 70.9179C72.4295 70.9179 72.4521 70.4539 72.5063 69.8868C72.5769 69.1465 72.7664 68.7817 73.1775 68.5939C73.4927 68.45 73.7908 68.3678 73.8402 68.4113C73.8897 68.4545 73.6093 69.0362 73.2171 69.7038ZM61.8315 68.8631C61.8126 69.0455 62.0135 70.3431 62.2784 71.747C62.8327 74.6863 62.6143 77.3942 61.6407 79.6524C60.9883 81.1655 59.7842 82.4056 59.0949 82.2744C58.6663 82.1927 58.5839 81.8257 58.4497 79.3997C58.285 76.4169 57.5181 74.1481 56.5936 73.9068C56.2773 73.8244 55.9266 73.0435 55.4445 71.348C55.0627 70.0058 54.7504 68.8233 54.7504 68.7199C54.7504 68.6162 56.3515 68.5316 58.3083 68.5316C60.996 68.5316 61.8578 68.6128 61.8315 68.8631ZM76.1596 68.8103C78.8509 69.2862 80.2609 69.8359 80.2609 70.4088C80.2609 71.0765 80.1881 71.0605 78.8687 70.1071C77.3198 68.9874 77.1912 69.6468 78.6955 70.9953C82.7126 74.5959 84.2469 76.5094 84.2469 77.9178C84.2469 78.3031 84.0213 78.2222 82.9847 77.4655C80.3114 75.5136 78.3495 75.1771 77.2491 76.4818L76.5818 77.2733L74.7674 76.182C72.6389 74.9019 72.5871 74.8581 73.0149 74.7057C73.1951 74.6413 73.4624 74.1505 73.6088 73.6152C73.7552 73.0796 74.2354 72.2237 74.6757 71.7133C75.6156 70.6241 75.669 70.246 74.9462 69.7958C74.5192 69.5296 74.166 68.5316 74.4987 68.5316C74.545 68.5316 75.2925 68.6571 76.1596 68.8103ZM42.7924 70.6528C42.6359 70.9444 42.3476 71.183 42.1512 71.183C41.9551 71.183 41.6444 71.3636 41.4611 71.5839C41.2025 71.8949 41.0436 71.9154 40.7539 71.6757C40.4425 71.418 40.5012 71.287 41.1047 70.8919C41.503 70.6313 41.9181 70.4727 42.0268 70.5395C42.1352 70.6066 42.2992 70.5401 42.3911 70.3919C42.7143 69.8701 43.0834 70.11 42.7924 70.6528ZM38.2709 73.9344C37.1934 74.9867 36.3329 75.5385 34.9713 76.0505C33.9583 76.4315 33.0657 76.6796 32.9881 76.602C32.9103 76.5243 33.201 76.1274 33.6341 75.7196C34.0673 75.3121 35.2485 74.0569 36.259 72.9303L38.0961 70.8824L39.7285 72.5109L38.2709 73.9344ZM40.5336 73.8344C40.4433 73.9803 40.2498 74.0996 40.1037 74.0996C39.9575 74.0996 39.9118 73.9803 40.0022 73.8344C40.0925 73.6886 40.286 73.5693 40.4321 73.5693C40.5783 73.5693 40.624 73.6886 40.5336 73.8344ZM57.0031 76.0356C57.2792 76.7568 57.408 77.7463 57.3562 78.7504L57.2749 80.3304L56.7945 77.9441C56.5303 76.6317 56.2484 75.3341 56.1681 75.0607C55.8864 74.1017 56.567 74.8961 57.0031 76.0356ZM80.9322 77.1635C82.4803 77.8942 84.5889 80.022 84.4476 80.7106C84.2379 81.7292 80.613 80.6204 78.3779 78.8541C77.2212 77.9399 77.1372 77.6768 77.7776 76.9708C78.3774 76.3095 79.2336 76.3617 80.9322 77.1635ZM66.1504 80.3304C66.4302 80.9137 66.7436 81.6892 66.8467 82.0538C67.1865 83.2567 66.5395 82.2712 65.5408 80.0652C64.5698 77.92 65.1058 78.1533 66.1504 80.3304ZM137.394 82.8473C136.882 82.9629 135.776 83.1384 134.936 83.2373C131.993 83.5844 133.45 83.8392 138.201 83.8082C141.458 83.7872 140.971 83.3996 141.1 83.6C141.205 83.762 140.625 83.7596 141.1 83.8275C141.921 83.9444 141.6 84.0463 141.6 83.2373C141.6 82.579 142.563 82.2238 142.1 82.1C141.257 81.8746 138.51 82.5952 137.394 82.8473Z" stroke="black" stroke-width="0.2"/>
</svg>
