<svg width="155" height="111" viewBox="0 0 155 111" fill="none" xmlns="http://www.w3.org/2000/svg">
<path d="M153.512 71.6805C147.289 100.958 108.067 117.428 65.9068 108.467C23.7468 99.5053 -5.38576 68.5063 0.837429 39.2285C7.06062 9.95068 46.283 -6.51902 88.443 2.44237C130.603 11.4038 159.736 42.4027 153.512 71.6805Z" fill="#D9D9D9"/>
<path d="M145.645 70.0083C148.342 57.3236 143.424 44.0598 132.867 32.8262C122.316 21.5993 106.254 12.563 87.1548 8.50342C68.056 4.44385 49.7067 6.16567 35.5014 12.1304C21.2877 18.0989 11.4009 28.216 8.70467 40.9007C6.00845 53.5854 10.9255 66.8492 21.4828 78.0828C32.0339 89.3097 48.0965 98.346 67.1952 102.406L66.7794 104.362C27.8839 96.0944 1.00705 67.4957 6.74838 40.4849C12.4897 13.4741 48.675 -1.72038 87.5706 6.54712C126.466 14.8146 153.343 43.4133 147.602 70.4241C141.86 97.4349 105.675 112.629 66.7794 104.362L67.1952 102.406C86.294 106.465 104.643 104.743 118.849 98.7786C133.062 92.8101 142.949 82.6931 145.645 70.0083Z" fill="black"/>
<path fill-rule="evenodd" clip-rule="evenodd" d="M100.847 17.6288C99.0519 18.2609 96.7373 19.5466 94.9705 20.8929C94.4353 21.3007 93.4252 22.05 92.7261 22.5578C92.0267 23.0658 90.6773 24.1536 89.7273 24.9756C88.2189 26.2806 87.8148 26.4932 86.5385 26.6518C85.7346 26.7517 82.6853 27.3098 79.7622 27.8918C76.8391 28.4738 70.6449 29.5871 65.9972 30.3661C55.6189 32.1057 55.5432 32.138 54.2552 35.4218C52.9799 38.6727 47.3809 49.0791 44.697 53.1861C43.4754 55.0559 40.9783 60.2704 40.2712 62.4286C39.8364 63.7562 39.7493 64.3644 39.9489 64.6823C40.3328 65.2937 41.2746 65.369 42.0665 64.8515C43.3588 64.0065 43.0417 64.7396 41.5353 66.0793C39.7275 67.6869 31 77.1001 31 77.4422C31 77.9186 31.4693 77.9428 33.0129 77.5453C38.8942 76.0316 43.1448 73.8858 48.898 69.5264C50.7127 68.1514 50.7244 68.1469 52.2199 68.3158L53.7205 68.4852L54.1832 70.2481C54.4377 71.2178 55.1786 74.4824 55.8294 77.5032C57.0279 83.0639 57.2989 83.9328 57.9027 84.1486C58.351 84.3088 59.167 83.8715 59.1705 83.4691C59.1721 83.2919 59.6422 82.9504 60.2153 82.7102C61.0915 82.3433 61.3819 82.005 62.0364 80.5891C62.4648 79.6627 62.9038 78.5467 63.0119 78.1093L63.2086 77.3138L63.8036 78.6395C66.0381 83.6162 67.1717 85.5316 68.1964 86.0603C69.0141 86.4821 69.143 86.4142 69.6973 85.268C69.9091 84.8306 70.2593 84.1536 70.4759 83.7639C71.4602 81.9917 71.4936 76.4307 70.5391 73.2042C69.6231 70.1079 69.5344 70.4541 71.4796 69.5378C71.601 69.4806 71.639 70.5029 71.5638 71.8098C71.3735 75.1111 71.669 75.5992 75.1339 77.7116C75.9713 78.2219 77.6409 79.261 78.8444 80.0204C81.2921 81.5651 83.3077 82.1582 84.5316 81.6939C85.1914 81.4437 85.2496 81.3243 85.0857 80.5573C84.985 80.0859 84.9175 79.0738 84.9358 78.3081C84.9791 76.484 84.3119 75.0326 82.5928 73.2142C81.2243 71.7666 81.0199 71.2846 81.473 70.5703C81.8326 70.0032 89.4028 73.8172 91.1556 75.4486C92.619 76.8109 95.3077 78.6419 97.3334 79.6561C98.0822 80.031 99.6367 81.0173 100.788 81.8477C105.914 85.5456 112.825 87.6426 120.962 87.9693C124.307 88.1037 125.678 88.03 129.366 87.5183C133.749 86.9095 133.795 86.9087 137.991 87.3613C137.764 87.2955 140.311 87.6113 137.991 87.3613C138.274 87.443 138.278 85.1823 138.5 86.5C138.679 87.5614 137.5 86.5 137.5 87.5183L138.127 87.2383L138.5 86.8364C138.5 86.8364 134.092 85.2475 140 86C134.092 85.2475 134.082 85.2023 131.713 85.0212C131.056 84.9708 129.162 85.0909 127.505 85.2882C124.304 85.6689 114.972 85.5242 114.972 85.0938C114.972 84.9708 114.456 84.8703 113.826 84.8703C112.162 84.8703 105.135 82.9311 105.495 82.5713C105.551 82.5151 105.883 82.5771 106.232 82.7089C106.581 82.8407 108.302 83.1689 110.056 83.4383C112.532 83.8188 114.79 83.9299 120.154 83.9352C126.487 83.9418 127.279 83.8909 129.654 83.324C133.437 82.4212 133.07 82.0681 128.458 82.1707C124.966 82.2483 117.863 82.2566 116.301 82.1845C113.307 82.0463 108.194 81.6128 107 81.3957C102.711 80.6162 96.7527 78.2076 93.5363 75.9537L91.6934 74.6624L94.8955 74.6534C97.4397 74.6463 98.4803 74.524 99.958 74.0595C100.981 73.7379 101.994 73.3606 102.209 73.2214C102.949 72.7418 102.267 72.6384 100.946 73.0297C99.3872 73.4919 91.9618 73.6268 90.5601 73.2188C90.0679 73.0756 88.1445 72.1176 86.2855 71.09C82.063 68.7562 79.5374 67.8298 75.3481 67.0779L72.0559 66.4871L63.6101 66.9623C55.3551 67.4268 52.9539 67.3913 50.7972 66.7722C49.7781 66.4797 49.8485 66.4598 52.5117 66.2869C55.0678 66.1212 55.3367 66.0518 55.8873 65.4128C57.1047 64.0009 57.3451 61.8 56.4775 60.0119C55.8243 58.6658 55.2264 58.3675 53.1051 58.3291C51.7126 58.3036 51.6672 58.2845 52.5245 58.0835C56.8899 57.0598 58.2997 56.9448 67.4056 56.8697C72.4479 56.8284 77.5899 56.7212 78.8322 56.6316C81.3513 56.4503 84.4463 55.8261 85.5098 55.2847C86.5467 54.7568 89.0443 52.4027 90.1237 50.9354C91.1859 49.4917 92.4752 46.1692 92.7431 44.1862L92.9201 42.8751L92.112 43.6477C90.859 44.8454 90.0036 46.512 89.858 48.0395C89.7855 48.7994 89.5787 49.6121 89.3985 49.8454C88.2227 51.3691 86.7093 53.0472 86.6049 52.943C86.3519 52.6906 87.2023 49.9565 87.9601 48.5865C88.3914 47.8067 88.6348 47.0909 88.5006 46.9957C88.3667 46.9005 88.1068 46.2451 87.9237 45.539C87.7404 44.8327 87.4135 44.0786 87.1972 43.8628C86.9812 43.6472 86.7999 43.2705 86.7949 43.0257C86.788 42.7049 86.6793 42.7656 86.4056 43.2434L86.0258 43.9063L86.0128 43.2434C85.9932 42.2481 85.7131 41.3874 85.4088 41.3874C85.0652 41.3874 85.3049 45.0906 85.6639 45.3282C86.1558 45.6541 86.02 49.3424 85.4718 50.5427C85.1914 51.1568 84.8481 52.1661 84.7083 52.786C84.5688 53.4059 84.3111 54.0478 84.1357 54.2125C83.8885 54.4445 83.8471 53.9948 83.951 52.2141C84.0249 50.9505 83.9855 49.817 83.8641 49.6953C83.7424 49.5736 83.6223 48.1899 83.5973 46.62C83.5532 43.8591 83.3146 42.8804 82.9848 44.108C82.8971 44.4347 82.8238 45.1132 82.8219 45.6159C82.8174 46.7191 82.317 50.7527 82.047 51.8604C81.8594 52.6307 81.8416 52.6119 81.4882 51.2639C81.2875 50.4984 81.0263 49.8719 80.9078 49.8719C80.5363 49.8719 80.6729 52.4103 81.1023 53.4852L81.5124 54.5118L80.9509 53.849C80.1287 52.8783 79.4311 51.2559 78.9547 49.2056C78.7235 48.2111 78.3621 47.0651 78.1519 46.6592C77.9414 46.2533 77.7692 45.8614 77.7692 45.7882C77.7692 45.6681 82.9558 41.3177 91.8058 34.0142C93.607 32.5281 95.2213 31.318 95.3932 31.3251C95.5654 31.3323 96.9021 32.4745 98.3636 33.863L101.021 36.388L98.7622 34.944C97.5199 34.1499 96.2444 33.4208 95.9279 33.3235C94.6396 32.9276 95.2083 33.6777 97.3863 35.2476C98.6546 36.1618 100.136 37.2311 100.679 37.624C101.222 38.017 101.67 38.4733 101.675 38.6382C101.681 38.8034 102.074 39.2385 102.549 39.6054C103.024 39.9726 103.652 40.4979 103.944 40.7728C104.236 41.0481 105.409 41.9153 106.551 42.7001C107.692 43.485 108.768 44.3236 108.943 44.5638C109.116 44.804 110.096 45.5491 111.119 46.2191C112.142 46.8893 113.756 47.9894 114.706 48.6642C115.656 49.3387 116.852 50.1734 117.364 50.5188C117.875 50.8646 119.549 52.059 121.084 53.1734C124.646 55.7601 128.675 58.4932 131.049 59.9329C135.046 62.3571 140.594 64.5381 143.693 64.9043L145 65.0588V61.4805L144.269 61.6563C143.557 61.8278 143.317 62.041 142.713 63.039C142.428 63.5099 142.362 63.5101 140.587 63.0424C137.731 62.2897 134.669 60.574 126.266 55.0172C124.718 53.9938 118.141 48.8803 114.19 45.6297C112.684 44.3901 109.284 41.5974 106.635 39.4233C102.55 36.0711 98.957 33.0016 96.791 31.0133C96.1615 30.4356 96.3754 30.1264 98.4726 28.5804C102.726 25.4451 106.324 20.092 105.455 18.1901C105.134 17.4864 104.192 16.9906 103.196 17.0002C102.877 17.0033 101.819 17.286 100.847 17.6288ZM100.224 18.9004C99.9315 19.0648 98.5714 20.1052 97.2013 21.2124C95.8312 22.3194 93.6939 23.9609 92.4518 24.8597C90.2218 26.4736 87.6189 28.7108 85.2372 31.061C84.5646 31.7247 83.4161 32.7351 82.6853 33.306C81.0904 34.5521 79.6278 35.819 76.7217 38.4709C75.5232 39.5646 74.0869 40.7659 73.5302 41.1406C72.9733 41.5152 71.9175 42.3889 71.1835 43.0822C70.4498 43.7753 69.3295 44.7176 68.6939 45.1763C68.0585 45.635 66.559 46.8193 65.3621 47.8083C64.1649 48.7976 63.1049 49.6068 63.0064 49.6068C62.8379 49.6068 59.8755 52.0312 59.3007 52.6397C59.1545 52.7945 58.5566 53.2728 57.972 53.7026C57.3874 54.1324 56.4119 54.9806 55.8042 55.5875C55.1964 56.1944 54.4191 56.7608 54.0769 56.8464C53.4646 56.9991 53.4657 56.9922 54.1516 56.4195C54.7999 55.8781 59.036 52.2794 62.6391 49.2091C63.495 48.4799 66.3822 46.0125 69.0555 43.726C81.4193 33.1501 84.4604 30.5745 86.937 28.5801C88.3986 27.4032 90.3717 25.7691 91.3217 24.9488C94.165 22.4936 97.5205 19.984 98.914 19.27C100.195 18.6141 101.276 18.3089 100.224 18.9004ZM101.512 21.8732C101.242 22.2433 100.93 22.5495 100.818 22.5543C100.706 22.5588 99.5847 23.5767 98.3254 24.8162C97.0663 26.0557 95.9542 27.0699 95.8543 27.0699C95.7546 27.0699 95.3292 27.4278 94.9091 27.8653C94.489 28.3028 94.0457 28.6607 93.924 28.6607C93.8023 28.6607 92.7912 29.5556 91.6769 30.6493C90.563 31.743 89.5078 32.6378 89.3318 32.6378C89.1562 32.6378 88.7959 32.8765 88.5315 33.1681C88.2671 33.4598 87.8522 33.6984 87.6099 33.6984C87.3675 33.6984 86.8257 34.0563 86.4056 34.4938C85.9855 34.9313 85.4819 35.2892 85.2863 35.2892C85.0907 35.2892 84.4328 35.8261 83.8242 36.4823C83.2157 37.1386 82.6045 37.6755 82.4661 37.6755C82.3279 37.6755 81.2073 38.6 79.9759 39.7303C78.7445 40.8606 77.5237 41.9063 77.263 42.0543C77.0023 42.2019 75.7839 43.2264 74.5554 44.3302C72.0623 46.5704 67.982 49.7589 66.7003 50.4685C65.799 50.9675 64.7482 51.0857 64.7482 50.6885C64.7482 50.5544 65.5255 49.8751 66.4755 49.1791C67.4255 48.4831 68.2028 47.833 68.2028 47.7341C68.2028 47.6354 69.055 46.853 70.0964 45.9956C71.1378 45.1381 72.483 43.9794 73.0859 43.4208C73.6886 42.8621 74.6304 42.1738 75.1783 41.8909C75.7262 41.608 76.1748 41.2549 76.1748 41.1059C76.1748 40.701 76.836 40.0914 79.7622 37.7977C81.2238 36.652 82.4794 35.6448 82.5524 35.5591C82.6255 35.4735 83.044 35.1291 83.4825 34.7939C83.921 34.4585 85.0939 33.4545 86.0888 32.5623C90.5967 28.5207 101.368 20.74 101.911 21.1334C101.962 21.1703 101.782 21.5033 101.512 21.8732ZM85.4638 28.469C84.5683 29.2814 80.3649 32.8335 76.7727 35.8134C75.224 37.0983 75.1092 37.1492 75.0704 36.5717C75.0035 35.5658 75.1175 34.7741 75.4385 34.0142C75.6043 33.6218 75.7616 33.0941 75.7879 32.8415C75.8145 32.5888 75.9835 32.2051 76.1634 31.9888C76.6935 31.3514 76.3784 30.9873 75.7045 31.4582C75.0343 31.9267 74.3147 33.4383 74.3147 34.3779C74.3147 34.716 74.2121 35.0559 74.0869 35.1333C73.9615 35.2105 73.704 36.0229 73.5145 36.9387C73.2241 38.3423 72.986 38.7824 71.9959 39.7441C71.3501 40.3714 70.5614 40.9831 70.2431 41.1035C69.27 41.471 65.9058 41.7154 64.491 41.5211C63.3104 41.3591 63.1538 41.2636 63.1538 40.705C63.1538 39.2289 61.484 36.1525 60.3554 35.5499C59.2717 34.9713 59.3039 35.4586 60.434 36.7398C61.1911 37.5978 61.5507 38.284 61.6742 39.1067C62.0234 41.4299 60.708 44.7932 58.086 48.2811C57.1541 49.5206 55.9655 51.2307 55.4444 52.0816C53.7495 54.8488 51.6712 57.2513 50.6789 57.5893C47.053 58.8251 44.2867 60.8179 44.2867 62.1945C44.2867 62.5453 44.1971 62.8826 44.0874 62.9441C42.9206 63.5971 41.1768 63.0644 41.8462 62.2595C42.7619 61.1586 44.8182 56.2284 44.8182 55.1336C44.8182 54.8366 45.0868 54.2173 45.415 53.7573C47.3703 51.0181 53.4676 39.6168 54.9015 36.0191C55.5985 34.27 56.8365 33.0472 58.3007 32.6625C58.8508 32.5177 60.6759 32.2067 62.3566 31.971C65.4004 31.5444 68.8514 30.9762 71.1259 30.5276C71.7836 30.3979 73.0391 30.1646 73.9161 30.0095C76.1371 29.6163 80.4223 28.736 82.951 28.1538C84.1203 27.8844 85.3759 27.6529 85.7412 27.6394C86.3878 27.6153 86.3803 27.6376 85.4638 28.469ZM91.8781 42.0956C91.0275 43.3773 90.8885 43.7737 91.29 43.7737C91.5465 43.7737 92.6477 42.4 93.1497 41.4537C93.409 40.9651 93.3971 40.8572 93.0832 40.8572C92.8728 40.8572 92.3304 41.4145 91.8781 42.0956ZM67.8042 43.3375C63.14 47.365 56.8535 52.7508 56.2049 53.2752L55.4385 53.8943L56.0364 52.8775C56.3651 52.3181 57.5955 50.5817 58.7705 49.0187C59.9454 47.4557 61.2398 45.5467 61.6466 44.7764C62.8932 42.4167 62.9689 42.3544 64.4068 42.5061C65.1062 42.5798 66.336 42.554 67.1398 42.4488C67.9437 42.3435 68.721 42.2425 68.8671 42.2239C69.0133 42.2054 68.535 42.7068 67.8042 43.3375ZM77.4774 47.26C77.9403 48.5849 77.8553 49.6068 77.2821 49.6068C77.014 49.6068 76.7161 49.6852 76.6202 49.781C76.524 49.8769 75.8166 50.0031 75.0478 50.0615C74.2793 50.1201 73.471 50.1906 73.2517 50.2187C72.3719 50.3311 72.7891 49.7574 74.7654 48.1374C75.9059 47.2022 76.917 46.4346 77.0124 46.4312C77.1078 46.4277 77.3169 46.8008 77.4774 47.26ZM72.521 51.7242C72.9228 51.7263 73.2517 51.8472 73.2517 51.993C73.2517 52.1388 73.1266 52.2582 72.9738 52.2582C72.4745 52.2582 68.6506 54.1412 67.2028 55.0999C66.4253 55.6151 65.7323 55.9797 65.6626 55.9102C65.593 55.841 66.7043 54.8112 68.1318 53.6218C70.001 52.0646 70.8761 51.4959 71.2587 51.59C71.551 51.6619 72.1192 51.7223 72.521 51.7242ZM76.7634 52.6203C77.2922 53.0212 78.391 55.4377 78.1529 55.6763C78.0645 55.7649 75.6399 55.8667 72.7652 55.9025C67.8355 55.9635 67.5839 55.9431 68.3357 55.5422C68.7741 55.3083 69.671 54.8019 70.3287 54.4167C72.015 53.4293 74.8568 52.2868 75.6433 52.2804C76.0087 52.2775 76.5128 52.4305 76.7634 52.6203ZM89.8601 53.994C89.714 54.037 89.0265 54.1489 88.3322 54.2422C87.6378 54.3355 87.0699 54.5018 87.0699 54.6121C87.0699 54.8783 94.8139 55.7148 95.5351 55.5265C95.845 55.4457 96.593 55.5772 97.1978 55.8185C97.8024 56.06 98.3509 56.2037 98.4168 56.1379C98.4827 56.0722 99.4311 56.4251 100.524 56.9222C102.709 57.9154 102.748 57.9276 102.748 57.5965C102.748 57.3149 99.5932 55.1747 99.1784 55.1747C99.0144 55.1747 98.6756 54.9361 98.4253 54.6444C98.1292 54.2995 97.6212 54.1064 96.9712 54.0921C96.4216 54.0799 94.6566 54.0354 93.0489 53.9927C91.4412 53.9503 90.0063 53.9508 89.8601 53.994ZM82.2867 55.206C82.2867 55.3518 82.1671 55.3974 82.021 55.3073C81.8748 55.2171 81.7552 55.0241 81.7552 54.8783C81.7552 54.7324 81.8748 54.6868 82.021 54.777C82.1671 54.8671 82.2867 55.0602 82.2867 55.206ZM63.001 58.2089C62.8116 58.9619 63.009 61.7472 63.2705 62.0079C63.6197 62.3565 63.7573 61.6963 63.7116 59.8897C63.6595 57.8314 63.3061 56.9957 63.001 58.2089ZM65.7078 58.3086C65.6063 58.4728 65.8577 59.83 66.2523 61.2445C66.5292 62.2383 66.9403 60.4494 66.7136 59.2364C66.5645 58.4378 65.9685 57.8879 65.7078 58.3086ZM42.7252 58.9574C42.4627 59.2173 42.4324 59.1868 42.5764 58.809C42.6763 58.5475 42.8249 58.4004 42.9067 58.482C42.9886 58.5634 42.907 58.7774 42.7252 58.9574ZM61.9987 60.0055C61.8151 60.706 62.051 61.8032 62.3853 61.8032C62.5158 61.8032 62.6224 61.2663 62.6224 60.6101C62.6224 59.3554 62.261 59.0052 61.9987 60.0055ZM64.8848 61.0401C65.0241 62.2359 64.9847 62.7179 64.7355 62.8717C64.3908 63.0841 63.4201 65.377 63.4198 65.9791C63.4193 66.7708 64.8923 66.1578 65.4902 65.1174C65.7867 64.6015 65.7952 64.6033 65.8032 65.1837C65.8125 65.8839 66.6227 66.0043 67.1398 65.3826C67.3219 65.1638 67.6952 64.9849 67.9695 64.9849C68.3468 64.9849 68.4685 64.7908 68.4685 64.1894C68.4685 63.3285 68.0521 63.1037 67.8544 63.858C67.763 64.2072 67.7253 64.1743 67.7021 63.7254C67.6668 63.0401 67.6705 63.0414 66.7434 63.3932C66.3429 63.5451 66.1115 63.5528 66.1989 63.4115C66.2829 63.2763 66.2297 63.0907 66.0812 62.999C65.9326 62.9075 65.8112 62.496 65.8112 62.085C65.8112 61.3159 65.1282 59.4169 64.8513 59.4169C64.766 59.4169 64.7809 60.1474 64.8848 61.0401ZM52.9414 60.7723C53.2733 61.3082 52.4214 61.5298 50 61.5375C47.3604 61.546 46.3422 61.7247 46.4854 62.154C46.6326 62.5946 47.8008 62.8131 50.4594 62.8971C52.863 62.973 52.9071 62.9634 53.066 62.3226L53.2279 61.6706L53.4303 62.2823C53.5558 62.6612 53.8011 62.8595 54.075 62.803C54.4133 62.7338 54.501 62.4644 54.4481 61.6613C54.3644 60.3966 54.7564 60.8964 55.0269 62.3997C55.1334 62.9913 55.3569 63.394 55.5785 63.394C55.8759 63.394 55.8961 63.5523 55.6782 64.1759C55.2849 65.3012 54.2746 65.5379 50.3991 65.4131L47.0992 65.3067L46.2244 64.3543C45.7201 63.8052 45.3496 63.1193 45.3496 62.7351C45.3496 62.0394 46.1713 61.0157 46.7447 60.9966C48.5738 60.9359 52.1495 60.6668 52.2367 60.5835C52.4394 60.3892 52.7567 60.474 52.9414 60.7723ZM144.364 63.0181C144.275 63.2487 144.203 63.4873 144.203 63.5483C144.203 63.6093 144.019 63.6592 143.795 63.6592C143.469 63.6592 143.444 63.552 143.671 63.1289C144.007 62.5031 144.598 62.4085 144.364 63.0181ZM41.6294 63.9399C41.6294 64.0773 41.4537 64.1894 41.239 64.1894C41.002 64.1894 40.9087 64.0338 41.0012 63.7933C41.1579 63.3853 41.6294 63.4956 41.6294 63.9399ZM45.2279 64.7377C45.3244 64.8934 44.9428 65.4149 44.38 65.8964C42.4821 67.5204 40.6525 69.3559 40.3334 69.9562C39.9528 70.6721 39.6247 70.7177 39.3791 70.0888C39.2409 69.7346 39.8471 69.0155 41.9416 67.0492C43.4507 65.6329 44.7679 64.4694 44.8689 64.4641C44.9699 64.4588 45.1315 64.5818 45.2279 64.7377ZM46.1468 67.2372C46.1468 67.4276 43.5719 70.0225 43.3829 70.0225C42.9607 70.0225 43.337 69.4456 44.486 68.3307C45.6329 67.2181 46.1468 66.8798 46.1468 67.2372ZM70.8601 68.1458C70.8601 68.2805 70.4286 68.5327 69.9011 68.7064C69.0412 68.9895 68.8841 68.9641 68.3806 68.4616L67.8191 67.9014H69.3396C70.1759 67.9014 70.8601 68.0114 70.8601 68.1458ZM67.354 69.0099C67.7452 69.4737 68.1977 70.2195 68.3598 70.6671C68.5217 71.1146 68.9163 72.1966 69.2365 73.0716C70.9425 77.7349 70.605 84.3103 68.6739 84.0248C68.2408 83.9609 68.0152 83.586 67.6673 82.3515C66.8486 79.4472 65.1458 76.9161 64.0108 76.9161C63.5195 76.9161 63.4783 76.678 63.3561 73.1379C63.2846 71.0597 63.1403 69.1592 63.0356 68.914C62.8833 68.5571 63.0215 68.4468 63.7305 68.3598C66.1936 68.0578 66.6148 68.1334 67.354 69.0099ZM73.117 69.6039C72.7248 70.2717 72.3822 70.8179 72.3559 70.8179C72.3294 70.8179 72.352 70.3539 72.4062 69.7868C72.4769 69.0465 72.6663 68.6817 73.0774 68.494C73.3926 68.35 73.6907 68.2678 73.7402 68.3113C73.7896 68.3545 73.5092 68.9362 73.117 69.6039ZM61.7314 68.7631C61.7125 68.9455 61.9134 70.2431 62.1783 71.647C62.7326 74.5863 62.5142 77.2942 61.5406 79.5524C60.8882 81.0656 59.6841 82.3056 58.9948 82.1744C58.5662 82.0927 58.4838 81.7258 58.3496 79.2997C58.1849 76.3169 57.418 74.0481 56.4935 73.8068C56.1772 73.7244 55.8265 72.9435 55.3444 71.248C54.9626 69.9058 54.6503 68.7233 54.6503 68.6199C54.6503 68.5163 56.2514 68.4317 58.2083 68.4317C60.8959 68.4317 61.7577 68.5128 61.7314 68.7631ZM76.0595 68.7103C78.7508 69.1863 80.1608 69.7359 80.1608 70.3089C80.1608 70.9765 80.088 70.9606 78.7686 70.0071C77.2197 68.8874 77.0911 69.5468 78.5954 70.8953C82.6125 74.4959 84.1468 76.4094 84.1468 77.8179C84.1468 78.2031 83.9212 78.1222 82.8846 77.3655C80.2113 75.4136 78.2494 75.0771 77.149 76.3819L76.4817 77.1733L74.6673 76.082C72.5388 74.8019 72.487 74.7582 72.9148 74.6057C73.095 74.5413 73.3623 74.0505 73.5087 73.5152C73.6551 72.9796 74.1353 72.1237 74.5756 71.6133C75.5155 70.5241 75.5689 70.1461 74.8461 69.6959C74.4191 69.4297 74.0659 68.4317 74.3986 68.4317C74.4449 68.4317 75.1924 68.5571 76.0595 68.7103ZM42.6923 70.5528C42.5358 70.8444 42.2475 71.0831 42.0511 71.0831C41.855 71.0831 41.5443 71.2636 41.361 71.4839C41.1024 71.795 40.9435 71.8154 40.6538 71.5757C40.3424 71.318 40.4011 71.187 41.0046 70.7919C41.403 70.5313 41.818 70.3727 41.9267 70.4396C42.0351 70.5066 42.1991 70.4401 42.291 70.2919C42.6142 69.7701 42.9833 70.01 42.6923 70.5528ZM38.1708 73.8344C37.0933 74.8867 36.2328 75.4385 34.8712 75.9505C33.8582 76.3315 32.9656 76.5797 32.888 76.502C32.8102 76.4243 33.1009 76.0274 33.534 75.6196C33.9672 75.2121 35.1484 73.9569 36.159 72.8303L37.996 70.7824L39.6284 72.4109L38.1708 73.8344ZM40.4336 73.7345C40.3432 73.8803 40.1497 73.9996 40.0036 73.9996C39.8574 73.9996 39.8117 73.8803 39.9021 73.7345C39.9924 73.5886 40.1859 73.4693 40.332 73.4693C40.4782 73.4693 40.5239 73.5886 40.4336 73.7345ZM56.903 75.9356C57.1791 76.6568 57.3079 77.6463 57.2561 78.6504L57.1748 80.2304L56.6944 77.8441C56.4302 76.5317 56.1483 75.2341 56.068 74.9607C55.7864 74.0017 56.4669 74.7961 56.903 75.9356ZM80.8321 77.0635C82.3802 77.7943 84.4888 79.922 84.3475 80.6106C84.1378 81.6293 80.5129 80.5204 78.2778 78.7541C77.1211 77.8399 77.0371 77.5769 77.6775 76.8708C78.2773 76.2095 79.1335 76.2618 80.8321 77.0635ZM66.0503 80.2304C66.3301 80.8137 66.6435 81.5892 66.7466 81.9538C67.0864 83.1567 66.4394 82.1712 65.4407 79.9652C64.4697 77.82 65.0057 78.0533 66.0503 80.2304ZM137.294 82.7473C136.782 82.8629 135.676 83.0385 134.836 83.1374C131.893 83.4844 133.35 83.7392 138.1 83.7082C141.358 83.6873 140.871 83.2996 141 83.5C141.104 83.662 140.525 83.6596 141 83.7275C141.821 83.8444 141.5 83.9463 141.5 83.1374C141.5 82.479 142.463 82.1238 142 82C141.157 81.7747 138.41 82.4952 137.294 82.7473Z" fill="black"/>
</svg>
