<svg preserveAspectRatio="none" width="100%" height="100%" overflow="visible" style="display: block;" viewBox="0 0 114.2 71.2282" fill="none" xmlns="http://www.w3.org/2000/svg">
<g id="image 3 (Traced)">
<path fill-rule="evenodd" clip-rule="evenodd" d="M69.9467 0.728781C68.1519 1.36087 65.8373 2.64653 64.0705 3.99291C63.5353 4.4007 62.5252 5.14998 61.8261 5.65773C61.1267 6.16573 59.7773 7.2536 58.8273 8.07553C57.319 9.38055 56.9148 9.59319 55.6385 9.75174C54.8346 9.8517 51.7853 10.4098 48.8622 10.9918C45.9392 11.5738 39.7449 12.6871 35.0972 13.4661C24.7189 15.2057 24.6432 15.238 23.3552 18.5218C22.0799 21.7726 16.4809 32.1791 13.797 36.2861C12.5754 38.1559 10.0783 43.3704 9.3712 45.5286C8.93646 46.8562 8.8493 47.4644 9.04887 47.7823C9.43285 48.3937 10.3746 48.469 11.1665 47.9515C12.4588 47.1065 12.1417 47.8396 10.6353 49.1793C8.82751 50.7869 0.1 60.2001 0.1 60.5421C0.1 61.0186 0.569287 61.0427 2.11294 60.6453C7.99417 59.1316 12.2449 56.9858 17.998 52.6264C19.8127 51.2514 19.8244 51.2469 21.3199 51.4158L22.8205 51.5852L23.2832 53.3481C23.5378 54.3177 24.2786 57.5824 24.9294 60.6031C26.1279 66.1639 26.3989 67.0328 27.0027 67.2486C27.451 67.4087 28.267 66.9715 28.2705 66.569C28.2721 66.3919 28.7422 66.0504 29.3154 65.8102C30.1915 65.4432 30.4819 65.1049 31.1364 63.6891C31.5648 62.7627 32.0038 61.6467 32.1119 61.2092L32.3086 60.4138L32.9036 61.7395C35.1381 66.7162 36.2717 68.6316 37.2964 69.1602C38.1141 69.5821 38.243 69.5142 38.7973 68.368C39.0091 67.9305 39.3593 67.2536 39.5759 66.8639C40.5602 65.0917 40.5937 59.5306 39.6391 56.3042C38.7232 53.2079 38.6344 53.5541 40.5796 52.6378C40.701 52.5805 40.739 53.6029 40.6638 54.9098C40.4735 58.211 40.769 58.6992 44.2339 60.8115C45.0713 61.3219 46.7409 62.361 47.9444 63.1204C50.3921 64.6651 52.4077 65.2582 53.6316 64.7939C54.2915 64.5436 54.3497 64.4243 54.1857 63.6573C54.085 63.1858 54.0175 62.1738 54.0358 61.4081C54.0791 59.5839 53.4119 58.1326 51.6928 56.3142C50.3243 54.8666 50.12 54.3845 50.573 53.6703C50.9326 53.1031 58.5028 56.9172 60.2556 58.5486C61.719 59.9108 64.4077 61.7419 66.4334 62.7561C67.1822 63.131 68.7368 64.1173 69.8879 64.9477C75.0145 68.6456 81.9249 70.7426 90.0619 71.0692C93.4067 71.2037 94.7782 71.13 98.4658 70.6182C102.849 70.0095 102.895 70.0087 107.091 70.4613C106.864 70.3955 109.411 70.7113 107.091 70.4613C107.374 70.5429 107.378 68.2823 107.6 69.6C107.779 70.6614 106.6 69.6 106.6 70.6182L107.227 70.3382L107.6 69.9364C107.6 69.9364 103.192 68.3475 109.1 69.1C103.192 68.3475 103.182 68.3023 100.813 68.1212C100.156 68.0708 98.2617 68.1909 96.6049 68.3882C93.4041 68.7689 84.072 68.6241 84.072 68.1938C84.072 68.0708 83.5565 67.9703 82.9262 67.9703C81.2619 67.9703 74.2346 66.0311 74.5952 65.6713C74.6515 65.6151 74.9834 65.6771 75.3323 65.8089C75.6815 65.9407 77.4021 66.2689 79.1559 66.5383C81.6315 66.9188 83.89 67.0298 89.2539 67.0351C95.5874 67.0418 96.3787 66.9909 98.7538 66.424C102.537 65.5212 102.17 65.168 97.558 65.2706C94.0658 65.3483 86.9632 65.3566 85.4007 65.2844C82.4069 65.1463 77.2939 64.7128 76.1 64.4956C71.8113 63.7161 65.8528 61.3076 62.6363 59.0537L60.7934 57.7624L63.9955 57.7534C66.5397 57.7462 67.5803 57.624 69.058 57.1595C70.0811 56.8379 71.0941 56.4606 71.3091 56.3214C72.0486 55.8417 71.367 55.7383 70.0463 56.1297C68.4872 56.5918 61.0618 56.7268 59.6601 56.3187C59.1679 56.1756 57.2446 55.2176 55.3855 54.1899C51.163 51.8562 48.6374 50.9298 44.4481 50.1778L41.1559 49.5871L32.7101 50.0622C24.4551 50.5268 22.0539 50.4912 19.8972 49.8721C18.8781 49.5797 18.9485 49.5598 21.6117 49.3869C24.1678 49.2212 24.4367 49.1517 24.9873 48.5128C26.2047 47.1009 26.4452 44.9 25.5775 43.1119C24.9244 41.7658 24.3265 41.4675 22.2051 41.429C20.8127 41.4036 20.7672 41.3845 21.6245 41.1835C25.99 40.1598 27.3997 40.0447 36.5056 39.9697C41.5479 39.9283 46.6899 39.8212 47.9322 39.7316C50.4513 39.5502 53.5463 38.9261 54.6098 38.3847C55.6467 37.8568 58.1443 35.5026 59.2238 34.0353C60.2859 32.5917 61.5752 29.2692 61.8431 27.2862L62.0201 25.9751L61.212 26.7477C59.959 27.9454 59.1036 29.612 58.958 31.1395C58.8855 31.8994 58.6787 32.712 58.4986 32.9454C57.3227 34.4691 55.8093 36.1472 55.7049 36.043C55.4519 35.7906 56.3023 33.0564 57.0601 31.6865C57.4914 30.9067 57.7348 30.1908 57.6006 30.0956C57.4667 30.0005 57.2068 29.345 57.0237 28.639C56.8404 27.9326 56.5135 27.1786 56.2972 26.9627C56.0812 26.7472 55.8999 26.3704 55.8949 26.1257C55.888 25.8049 55.7793 25.8656 55.5056 26.3434L55.1259 27.0062L55.1128 26.3434C55.0932 25.348 54.8131 24.4874 54.5088 24.4874C54.1652 24.4874 54.4049 28.1906 54.7639 28.4282C55.2558 28.754 55.12 32.4424 54.5718 33.6427C54.2915 34.2567 53.9481 35.2661 53.8084 35.886C53.6688 36.5059 53.4111 37.1478 53.2357 37.3125C52.9886 37.5445 52.9471 37.0948 53.051 35.3141C53.1249 34.0505 53.0856 32.917 52.9641 32.7953C52.8424 32.6736 52.7223 31.2898 52.6973 29.7199C52.6532 26.959 52.4146 25.9804 52.0848 27.208C51.9971 27.5347 51.9238 28.2131 51.9219 28.7158C51.9174 29.8191 51.417 33.8527 51.147 34.9604C50.9594 35.7306 50.9416 35.7118 50.5882 34.3639C50.3876 33.5984 50.1263 32.9719 50.0078 32.9719C49.6363 32.9719 49.7729 35.5103 50.2023 36.5852L50.6124 37.6118L50.0509 36.949C49.2287 35.9783 48.5311 34.3559 48.0547 32.3056C47.8235 31.311 47.4621 30.1651 47.2519 29.7592C47.0414 29.3532 46.8692 28.9614 46.8692 28.8882C46.8692 28.7681 52.0558 24.4177 60.9059 17.1141C62.707 15.628 64.3213 14.4179 64.4933 14.4251C64.6655 14.4323 66.0021 15.5745 67.4636 16.963L70.121 19.4879L67.8622 18.044C66.6199 17.2499 65.3444 16.5208 65.0279 16.4235C63.7396 16.0276 64.3083 16.7777 66.4863 18.3476C67.7546 19.2618 69.2364 20.3311 69.779 20.724C70.3216 21.1169 70.7699 21.5733 70.7755 21.7382C70.7808 21.9034 71.1738 22.3384 71.649 22.7054C72.1241 23.0726 72.7518 23.5979 73.0441 23.8728C73.3364 24.148 74.5093 25.0153 75.6509 25.8001C76.7922 26.5849 77.8685 27.4236 78.0425 27.6638C78.2163 27.904 79.1958 28.649 80.2189 29.319C81.242 29.9893 82.8563 31.0894 83.8063 31.7642C84.7563 32.4387 85.9521 33.2733 86.4636 33.6188C86.9752 33.9646 88.6493 35.159 90.1839 36.2734C93.7456 38.8601 97.7749 41.5931 100.149 43.0329C104.146 45.457 109.694 47.6381 112.793 48.0042L114.1 48.1588V46.3696V44.5805L113.369 44.7563C112.657 44.9278 112.417 45.141 111.813 46.139C111.528 46.6099 111.462 46.6101 109.687 46.1424C106.831 45.3897 103.769 43.674 95.3657 38.1172C93.8184 37.0937 87.2406 31.9803 83.2905 28.7296C81.7843 27.4901 78.3843 24.6974 75.7352 22.5233C71.65 19.1711 68.057 16.1016 65.891 14.1133C65.2615 13.5356 65.4754 13.2264 67.5726 11.6804C71.8265 8.54509 75.4237 3.19193 74.555 1.29008C74.2338 0.5864 73.2923 0.0905896 72.296 0.100135C71.9766 0.103316 70.9195 0.385955 69.9467 0.728781ZM69.3238 2.00039C69.0315 2.16478 67.6714 3.20518 66.3013 4.31241C64.9312 5.41936 62.7939 7.06084 61.5519 7.95967C59.3218 9.57357 56.7189 11.8108 54.3372 14.161C53.6646 14.8247 52.5161 15.8351 51.7853 16.406C50.1904 17.6521 48.7278 18.9189 45.8217 21.5709C44.6232 22.6646 43.187 23.8659 42.6302 24.2406C42.0733 24.6152 41.0175 25.4888 40.2835 26.1822C39.5498 26.8753 38.4295 27.8176 37.7939 28.2763C37.1585 28.7349 35.659 29.9193 34.4621 30.9083C33.265 31.8975 32.205 32.7067 32.1064 32.7067C31.9379 32.7067 28.9755 35.1312 28.4007 35.7397C28.2545 35.8945 27.6566 36.3728 27.072 36.8026C26.4874 37.2324 25.5119 38.0806 24.9042 38.6875C24.2964 39.2944 23.5192 39.8607 23.1769 39.9464C22.5646 40.0991 22.5657 40.0922 23.2516 39.5195C23.9 38.9781 28.136 35.3793 31.7391 32.309C32.5951 31.5799 35.4823 29.1125 38.1555 26.8259C50.5194 16.25 53.5604 13.6745 56.0371 11.6801C57.4986 10.5032 59.4717 8.8691 60.4217 8.04875C63.265 5.59356 66.6205 3.08402 68.014 2.36999C69.2946 1.71404 70.3756 1.40886 69.3238 2.00039ZM70.6121 4.97313C70.3421 5.34327 70.0296 5.64951 69.918 5.65428C69.8063 5.65879 68.6847 6.67666 67.4254 7.91618C66.1663 9.15571 65.0542 10.1699 64.9543 10.1699C64.8547 10.1699 64.4292 10.5278 64.0091 10.9653C63.589 11.4028 63.1457 11.7607 63.024 11.7607C62.9023 11.7607 61.8912 12.6556 60.777 13.7493C59.663 14.843 58.6078 15.7378 58.4319 15.7378C58.2562 15.7378 57.8959 15.9764 57.6315 16.2681C57.3671 16.5597 56.9523 16.7984 56.7099 16.7984C56.4676 16.7984 55.9257 17.1563 55.5056 17.5938C55.0855 18.0313 54.5819 18.3892 54.3863 18.3892C54.1907 18.3892 53.5328 18.9261 52.9243 19.5823C52.3157 20.2385 51.7045 20.7755 51.5661 20.7755C51.4279 20.7755 50.3073 21.7 49.0759 22.8303C47.8445 23.9606 46.6237 25.0063 46.363 25.1542C46.1023 25.3019 44.8839 26.3264 43.6554 27.4302C41.1623 29.6704 37.082 32.8589 35.8003 33.5684C34.899 34.0674 33.8483 34.1857 33.8483 33.7885C33.8483 33.6543 34.6255 32.9751 35.5755 32.2791C36.5255 31.5831 37.3028 30.9329 37.3028 30.834C37.3028 30.7354 38.155 29.953 39.1964 29.0955C40.2378 28.2381 41.583 27.0794 42.1859 26.5208C42.7886 25.9621 43.7304 25.2738 44.2783 24.9909C44.8263 24.708 45.2748 24.3548 45.2748 24.2058C45.2748 23.801 45.936 23.1914 48.8622 20.8977C50.3238 19.752 51.5794 18.7447 51.6524 18.6591C51.7255 18.5735 52.1441 18.2291 52.5825 17.8939C53.021 17.5585 54.1939 16.5544 55.1888 15.6622C59.6968 11.6207 70.4683 3.83993 71.0107 4.2334C71.0617 4.27025 70.8823 4.60326 70.6121 4.97313ZM54.5638 11.569C53.6683 12.3814 49.4649 15.9335 45.8727 18.9134C44.324 20.1982 44.2092 20.2491 44.1704 19.6717C44.1035 18.6657 44.2175 17.874 44.5385 17.1141C44.7043 16.7217 44.8616 16.1941 44.8879 15.9414C44.9145 15.6887 45.0835 15.3051 45.2634 15.0887C45.7935 14.4513 45.4784 14.0873 44.8045 14.5582C44.1343 15.0267 43.4147 16.5383 43.4147 17.4779C43.4147 17.816 43.3121 18.1559 43.187 18.2333C43.0615 18.3104 42.804 19.1228 42.6146 20.0386C42.3241 21.4423 42.086 21.8824 41.0959 22.8441C40.4502 23.4714 39.6615 24.0831 39.3431 24.2034C38.37 24.5709 35.0058 24.8154 33.591 24.621C32.4104 24.459 32.2538 24.3636 32.2538 23.8049C32.2538 22.3289 30.584 19.2525 29.4554 18.6498C28.3717 18.0713 28.4039 18.5586 29.5341 19.8398C30.2911 20.6978 30.6507 21.3839 30.7742 22.2067C31.1234 24.5298 29.808 27.8931 27.186 31.381C26.2541 32.6206 25.0655 34.3307 24.5444 35.1815C22.8495 37.9488 20.7712 40.3512 19.779 40.6893C16.153 41.9251 13.3867 43.9179 13.3867 45.2945C13.3867 45.6453 13.2972 45.9825 13.1874 46.044C12.0206 46.6971 10.2768 46.1644 10.9462 45.3595C11.8619 44.2586 13.9182 39.3283 13.9182 38.2336C13.9182 37.9366 14.1868 37.3172 14.515 36.8572C16.4703 34.1181 22.5676 22.7168 24.0015 19.1191C24.6985 17.37 25.9365 16.1472 27.4007 15.7625C27.9508 15.6177 29.7759 15.3067 31.4566 15.071C34.5004 14.6444 37.9515 14.0762 40.2259 13.6276C40.8836 13.4979 42.1392 13.2646 43.0161 13.1095C45.2371 12.7163 49.5223 11.836 52.051 11.2538C53.2203 10.9844 54.4759 10.7529 54.8413 10.7394C55.4878 10.7153 55.4804 10.7375 54.5638 11.569ZM60.9781 25.1956C60.1275 26.4773 59.9885 26.8737 60.3901 26.8737C60.6465 26.8737 61.7477 25.5 62.2497 24.5537C62.509 24.065 62.4971 23.9571 62.1832 23.9571C61.9728 23.9571 61.4304 24.5144 60.9781 25.1956ZM36.9042 26.4375C32.24 30.465 25.9536 35.8508 25.3049 36.3752L24.5385 36.9943L25.1364 35.9775C25.4651 35.418 26.6955 33.6817 27.8706 32.1187C29.0454 30.5557 30.3398 28.6467 30.7466 27.8764C31.9932 25.5167 32.0689 25.4544 33.5068 25.606C34.2062 25.6797 35.436 25.654 36.2399 25.5488C37.0437 25.4435 37.821 25.3425 37.9671 25.3239C38.1133 25.3054 37.635 25.8067 36.9042 26.4375ZM46.5775 30.36C47.0404 31.6849 46.9553 32.7067 46.3821 32.7067C46.114 32.7067 45.8161 32.7852 45.7202 32.8809C45.624 32.9769 44.9166 33.1031 44.1478 33.1614C43.3793 33.22 42.571 33.2906 42.3517 33.3187C41.4719 33.4311 41.8891 32.8573 43.8654 31.2373C45.0059 30.3022 46.017 29.5346 46.1124 29.5312C46.2078 29.5277 46.4169 29.9008 46.5775 30.36ZM41.621 34.8241C42.0228 34.8263 42.3517 34.9472 42.3517 35.093C42.3517 35.2388 42.2266 35.3581 42.0738 35.3581C41.5745 35.3581 37.7506 37.2412 36.3028 38.1999C35.5253 38.7151 34.8323 39.0796 34.7626 39.0102C34.693 38.941 35.8043 37.9112 37.2318 36.7217C39.101 35.1646 39.9761 34.5959 40.3587 34.69C40.6511 34.7618 41.2192 34.8223 41.621 34.8241ZM45.8634 35.7203C46.3922 36.1212 47.491 38.5377 47.253 38.7763C47.1645 38.8649 44.7399 38.9667 41.8652 39.0025C36.9356 39.0635 36.6839 39.043 37.4357 38.6421C37.8741 38.4083 38.771 37.9019 39.4287 37.5166C41.115 36.5292 43.9568 35.3868 44.7434 35.3804C45.1087 35.3775 45.6128 35.5305 45.8634 35.7203ZM58.9601 37.094C58.814 37.1369 58.1265 37.2488 57.4322 37.3422C56.7378 37.4355 56.1699 37.6017 56.1699 37.712C56.1699 37.9782 63.914 38.8148 64.6352 38.6265C64.945 38.5456 65.693 38.6771 66.2979 38.9184C66.9024 39.16 67.4509 39.3037 67.5168 39.2379C67.5827 39.1722 68.5311 39.5251 69.6243 40.0222C71.8087 41.0154 71.8483 41.0276 71.8483 40.6964C71.8483 40.4149 68.6932 38.2747 68.2784 38.2747C68.1144 38.2747 67.7756 38.036 67.5253 37.7444C67.2293 37.3994 66.7212 37.2064 66.0712 37.1921C65.5217 37.1799 63.7566 37.1354 62.149 37.0927C60.5413 37.0503 59.1063 37.0508 58.9601 37.094ZM51.3867 38.306C51.3867 38.4518 51.2671 38.4974 51.121 38.4072C50.9748 38.3171 50.8552 38.1241 50.8552 37.9782C50.8552 37.8324 50.9748 37.7868 51.121 37.877C51.2671 37.9671 51.3867 38.1601 51.3867 38.306ZM32.101 41.3089C31.9116 42.0619 32.109 44.8472 32.3705 45.1078C32.7197 45.4565 32.8573 44.7963 32.8116 42.9896C32.7595 40.9314 32.4061 40.0956 32.101 41.3089ZM34.8078 41.4086C34.7063 41.5727 34.9577 42.93 35.3523 44.3445C35.6292 45.3382 36.0403 43.5493 35.8136 42.3363C35.6645 41.5377 35.0685 40.9878 34.8078 41.4086ZM11.8253 42.0574C11.5627 42.3172 11.5324 42.2868 11.6764 41.9089C11.7764 41.6475 11.9249 41.5003 12.0068 41.582C12.0886 41.6634 12.007 41.8774 11.8253 42.0574ZM31.0987 43.1055C30.9151 43.806 31.1511 44.9032 31.4853 44.9032C31.6158 44.9032 31.7224 44.3662 31.7224 43.71C31.7224 42.4554 31.361 42.1051 31.0987 43.1055ZM33.9848 44.1401C34.1241 45.3359 34.0848 45.8179 33.8355 45.9717C33.4908 46.184 32.5201 48.477 32.5198 49.0791C32.5193 49.8708 33.9923 49.2578 34.5902 48.2174C34.8867 47.7014 34.8952 47.7033 34.9032 48.2837C34.9125 48.9839 35.7227 49.1043 36.2399 48.4825C36.4219 48.2638 36.7952 48.0848 37.0695 48.0848C37.4468 48.0848 37.5685 47.8907 37.5685 47.2894C37.5685 46.4285 37.1521 46.2037 36.9544 46.958C36.863 47.3072 36.8253 47.2743 36.8022 46.8254C36.7668 46.14 36.7705 46.1414 35.8434 46.4932C35.4429 46.6451 35.2115 46.6528 35.2989 46.5115C35.3829 46.3763 35.3297 46.1907 35.1812 46.0989C35.0326 46.0075 34.9112 45.596 34.9112 45.185C34.9112 44.4158 34.2283 42.5169 33.9514 42.5169C33.8661 42.5169 33.8809 43.2474 33.9848 44.1401ZM22.0414 43.8723C22.3733 44.4081 21.5214 44.6298 19.1 44.6375C16.4605 44.646 15.4422 44.8247 15.5854 45.2539C15.7326 45.6946 16.9008 45.9131 19.5595 45.9971C21.963 46.073 22.0071 46.0634 22.166 45.4226L22.3279 44.7706L22.5304 45.3823C22.6558 45.7611 22.9011 45.9595 23.175 45.903C23.5133 45.8338 23.601 45.5644 23.5481 44.7613C23.4644 43.4966 23.8564 43.9964 24.1269 45.4997C24.2335 46.0912 24.4569 46.494 24.6786 46.494C24.9759 46.494 24.9961 46.6523 24.7782 47.2759C24.3849 48.4011 23.3746 48.6379 19.4991 48.513L16.1992 48.4067L15.3244 47.4543C14.8201 46.9052 14.4497 46.2193 14.4497 45.8351C14.4497 45.1394 15.2713 44.1157 15.8448 44.0966C17.6738 44.0359 21.2495 43.7668 21.3367 43.6835C21.5394 43.4892 21.8567 43.574 22.0414 43.8723ZM113.464 46.118C113.375 46.3487 113.303 46.5873 113.303 46.6483C113.303 46.7093 113.119 46.7591 112.895 46.7591C112.569 46.7591 112.544 46.652 112.771 46.2288C113.107 45.6031 113.698 45.5085 113.464 46.118ZM10.7294 47.0399C10.7294 47.1773 10.5537 47.2894 10.339 47.2894C10.102 47.2894 10.0087 47.1338 10.1012 46.8933C10.258 46.4852 10.7294 46.5955 10.7294 47.0399ZM14.3279 47.8377C14.4244 47.9934 14.0428 48.5149 13.48 48.9964C11.5821 50.6204 9.75253 52.4559 9.43339 53.0562C9.05285 53.7721 8.72467 53.8177 8.47913 53.1888C8.34095 52.8345 8.94709 52.1155 11.0416 50.1492C12.5507 48.7328 13.868 47.5694 13.9689 47.5641C14.0699 47.5588 14.2315 47.6818 14.3279 47.8377ZM15.2469 50.3372C15.2469 50.5276 12.6719 53.1225 12.483 53.1225C12.0607 53.1225 12.437 52.5455 13.586 51.4306C14.7329 50.3181 15.2469 49.9798 15.2469 50.3372ZM39.9601 51.2458C39.9601 51.3805 39.5286 51.6327 39.0011 51.8063C38.1412 52.0895 37.9841 52.064 37.4806 51.5616L36.9191 51.0014H38.4396C39.2759 51.0014 39.9601 51.1114 39.9601 51.2458ZM36.454 52.1099C36.8452 52.5736 37.2978 53.3195 37.4598 53.767C37.6217 54.2146 38.0163 55.2966 38.3365 56.1716C40.0425 60.8349 39.705 67.4103 37.7739 67.1248C37.3408 67.0609 37.1152 66.686 36.7673 65.4515C35.9486 62.5471 34.2458 60.0161 33.1108 60.0161C32.6195 60.0161 32.5783 59.778 32.4561 56.2379C32.3846 54.1597 32.2403 52.2592 32.1356 52.0139C31.9833 51.6571 32.1215 51.5468 32.8305 51.4598C35.2936 51.1578 35.7148 51.2334 36.454 52.1099ZM42.217 52.7038C41.8248 53.3717 41.4823 53.9179 41.456 53.9179C41.4294 53.9179 41.452 53.4539 41.5062 52.8868C41.5769 52.1465 41.7663 51.7817 42.1774 51.5939C42.4926 51.45 42.7907 51.3678 42.8402 51.4113C42.8896 51.4545 42.6092 52.0362 42.217 52.7038ZM30.8314 51.8631C30.8125 52.0455 31.0134 53.3431 31.2783 54.747C31.8327 57.6863 31.6142 60.3942 30.6406 62.6524C29.9882 64.1655 28.7842 65.4056 28.0948 65.2744C27.6662 65.1927 27.5838 64.8257 27.4496 62.3997C27.2849 59.4169 26.518 57.1481 25.5935 56.9068C25.2773 56.8244 24.9265 56.0435 24.4444 54.348C24.0626 53.0058 23.7504 51.8233 23.7504 51.7199C23.7504 51.6162 25.3514 51.5316 27.3083 51.5316C29.9959 51.5316 30.8577 51.6128 30.8314 51.8631ZM45.1595 51.8103C47.8509 52.2862 49.2608 52.8359 49.2608 53.4088C49.2608 54.0765 49.188 54.0605 47.8687 53.1071C46.3197 51.9874 46.1911 52.6468 47.6954 53.9953C51.7125 57.5959 53.2469 59.5094 53.2469 60.9178C53.2469 61.3031 53.0212 61.2222 51.9846 60.4655C49.3113 58.5136 47.3494 58.1771 46.249 59.4819L45.5818 60.2733L43.7673 59.182C41.6388 57.9019 41.587 57.8581 42.0148 57.7057C42.195 57.6412 42.4623 57.1505 42.6087 56.6152C42.7551 56.0796 43.2353 55.2237 43.6756 54.7133C44.6155 53.6241 44.669 53.246 43.9462 52.7958C43.5191 52.5296 43.166 51.5316 43.4987 51.5316C43.5449 51.5316 44.2924 51.657 45.1595 51.8103ZM11.7923 53.6528C11.6358 53.9444 11.3475 54.183 11.1511 54.183C10.955 54.183 10.6443 54.3636 10.461 54.5839C10.2024 54.8949 10.0435 54.9154 9.75386 54.6757C9.44242 54.418 9.50115 54.287 10.1046 53.8919C10.503 53.6313 10.918 53.4727 11.0267 53.5395C11.1351 53.6066 11.2991 53.5401 11.391 53.3919C11.7142 52.8701 12.0833 53.11 11.7923 53.6528ZM7.27084 56.9344C6.19329 57.9867 5.33284 58.5385 3.97122 59.0505C2.95824 59.4315 2.06564 59.6796 1.98804 59.602C1.91018 59.5243 2.20089 59.1274 2.63404 58.7196C3.06719 58.3121 4.24838 57.0569 5.25897 55.9303L7.09599 53.8824L7.91206 54.6966L8.72839 55.5109L7.27084 56.9344ZM9.53357 56.8344C9.44322 56.9803 9.24976 57.0996 9.10361 57.0996C8.95745 57.0996 8.91175 56.9803 9.0021 56.8344C9.09245 56.6886 9.2859 56.5693 9.43206 56.5693C9.57821 56.5693 9.62392 56.6886 9.53357 56.8344ZM26.003 59.0356C26.2791 59.7568 26.408 60.7463 26.3561 61.7504L26.2748 63.3304L25.7944 60.9441C25.5302 59.6317 25.2483 58.3341 25.168 58.0607C24.8864 57.1017 25.5669 57.8961 26.003 59.0356ZM49.9321 60.1635C51.4803 60.8942 53.5889 63.022 53.4475 63.7106C53.2378 64.7292 49.6129 63.6204 47.3779 61.8541C46.2211 60.9399 46.1371 60.6768 46.7776 59.9708C47.3773 59.3095 48.2335 59.3617 49.9321 60.1635ZM35.1503 63.3304C35.4302 63.9137 35.7435 64.6892 35.8466 65.0538C36.1865 66.2567 35.5394 65.2712 34.5408 63.0652C33.5698 60.92 34.1057 61.1533 35.1503 63.3304ZM106.394 65.8473C105.882 65.9629 104.776 66.1384 103.936 66.2373C100.993 66.5844 102.45 66.8392 107.2 66.8082C110.458 66.7872 109.971 66.3996 110.1 66.6C110.204 66.762 109.625 66.7596 110.1 66.8275C110.921 66.9444 110.6 67.0463 110.6 66.2373C110.6 65.579 111.563 65.2238 111.1 65.1C110.257 64.8746 107.51 65.5952 106.394 65.8473Z" fill="var(--fill-0, black)"/>
<path d="M107.091 70.4613C102.895 70.0087 102.849 70.0095 98.4658 70.6182C94.7782 71.13 93.4067 71.2037 90.0619 71.0692C81.9249 70.7426 75.0145 68.6456 69.8879 64.9477C68.7368 64.1173 67.1822 63.131 66.4334 62.7561C64.4077 61.7419 61.719 59.9108 60.2556 58.5486C58.5028 56.9172 50.9326 53.1031 50.573 53.6703C50.12 54.3845 50.3243 54.8666 51.6928 56.3142C53.4119 58.1326 54.0791 59.5839 54.0358 61.4081C54.0175 62.1738 54.085 63.1858 54.1857 63.6573C54.3497 64.4243 54.2915 64.5436 53.6316 64.7939C52.4077 65.2582 50.3921 64.6651 47.9444 63.1204C46.7409 62.361 45.0713 61.3219 44.2339 60.8115C40.769 58.6992 40.4735 58.211 40.6638 54.9098C40.739 53.6029 40.701 52.5805 40.5796 52.6378C38.6344 53.5541 38.7232 53.2079 39.6391 56.3042C40.5937 59.5306 40.5602 65.0917 39.5759 66.8639C39.3593 67.2536 39.0091 67.9305 38.7973 68.368C38.243 69.5142 38.1141 69.5821 37.2964 69.1602C36.2717 68.6316 35.1381 66.7162 32.9036 61.7395L32.3086 60.4138L32.1119 61.2092C32.0038 61.6467 31.5648 62.7627 31.1364 63.6891C30.4819 65.1049 30.1915 65.4432 29.3154 65.8102C28.7422 66.0504 28.2721 66.3919 28.2705 66.569C28.267 66.9715 27.451 67.4087 27.0027 67.2486C26.3989 67.0328 26.1279 66.1639 24.9294 60.6031C24.2786 57.5824 23.5378 54.3177 23.2832 53.3481L22.8205 51.5852L21.3199 51.4158C19.8244 51.2469 19.8127 51.2514 17.998 52.6264C12.2449 56.9858 7.99417 59.1316 2.11294 60.6453C0.569287 61.0427 0.1 61.0186 0.1 60.5421C0.1 60.2001 8.82751 50.7869 10.6353 49.1793C12.1417 47.8396 12.4588 47.1065 11.1665 47.9515C10.3746 48.469 9.43285 48.3937 9.04887 47.7823C8.8493 47.4644 8.93646 46.8562 9.3712 45.5286C10.0783 43.3704 12.5754 38.1559 13.797 36.2861C16.4809 32.1791 22.0799 21.7726 23.3552 18.5218C24.6432 15.238 24.7189 15.2057 35.0972 13.4661C39.7449 12.6871 45.9392 11.5738 48.8622 10.9918C51.7853 10.4098 54.8346 9.8517 55.6385 9.75174C56.9148 9.59319 57.319 9.38055 58.8273 8.07553C59.7773 7.2536 61.1267 6.16573 61.8261 5.65773C62.5252 5.14998 63.5353 4.4007 64.0705 3.99291C65.8373 2.64653 68.1519 1.36087 69.9467 0.728781C70.9195 0.385955 71.9766 0.103316 72.296 0.100135C73.2923 0.0905896 74.2338 0.5864 74.555 1.29008C75.4237 3.19193 71.8265 8.54509 67.5726 11.6804C65.4754 13.2264 65.2615 13.5356 65.891 14.1133C68.057 16.1016 71.65 19.1711 75.7352 22.5233C78.3843 24.6974 81.7843 27.4901 83.2905 28.7296C87.2406 31.9803 93.8184 37.0937 95.3657 38.1172C103.769 43.674 106.831 45.3897 109.687 46.1424C111.462 46.6101 111.528 46.6099 111.813 46.139C112.417 45.141 112.657 44.9278 113.369 44.7563L114.1 44.5805V46.3696V48.1588L112.793 48.0042C109.694 47.6381 104.146 45.457 100.149 43.0329C97.7749 41.5931 93.7456 38.8601 90.1839 36.2734C88.6493 35.159 86.9752 33.9646 86.4636 33.6188C85.9521 33.2733 84.7563 32.4387 83.8063 31.7642C82.8563 31.0894 81.242 29.9893 80.2189 29.319C79.1958 28.649 78.2163 27.904 78.0425 27.6638C77.8685 27.4236 76.7922 26.5849 75.6509 25.8001C74.5093 25.0153 73.3364 24.148 73.0441 23.8728C72.7518 23.5979 72.1241 23.0726 71.649 22.7054C71.1738 22.3384 70.7808 21.9034 70.7755 21.7382C70.7699 21.5733 70.3216 21.1169 69.779 20.724C69.2364 20.3311 67.7546 19.2618 66.4863 18.3476C64.3083 16.7777 63.7396 16.0276 65.0279 16.4235C65.3444 16.5208 66.6199 17.2499 67.8622 18.044L70.121 19.4879L67.4636 16.963C66.0021 15.5745 64.6655 14.4323 64.4933 14.4251C64.3213 14.4179 62.707 15.628 60.9059 17.1141C52.0558 24.4177 46.8692 28.7681 46.8692 28.8882C46.8692 28.9614 47.0414 29.3532 47.2519 29.7592C47.4621 30.1651 47.8235 31.311 48.0547 32.3056C48.5311 34.3559 49.2287 35.9783 50.0509 36.949L50.6124 37.6118L50.2023 36.5852C49.7729 35.5103 49.6363 32.9719 50.0078 32.9719C50.1263 32.9719 50.3876 33.5984 50.5882 34.3639C50.9416 35.7118 50.9594 35.7306 51.147 34.9604C51.417 33.8527 51.9174 29.8191 51.9219 28.7158C51.9238 28.2131 51.9971 27.5347 52.0848 27.208C52.4146 25.9804 52.6532 26.959 52.6973 29.7199C52.7223 31.2898 52.8424 32.6736 52.9641 32.7953C53.0856 32.917 53.1249 34.0505 53.051 35.3141C52.9471 37.0948 52.9886 37.5445 53.2357 37.3125C53.4111 37.1478 53.6688 36.5059 53.8084 35.886C53.9481 35.2661 54.2915 34.2567 54.5718 33.6427C55.12 32.4424 55.2558 28.754 54.7639 28.4282C54.4049 28.1906 54.1652 24.4874 54.5088 24.4874C54.8131 24.4874 55.0932 25.348 55.1128 26.3434L55.1259 27.0062L55.5056 26.3434C55.7793 25.8656 55.888 25.8049 55.8949 26.1257C55.8999 26.3704 56.0812 26.7472 56.2972 26.9627C56.5135 27.1786 56.8404 27.9326 57.0237 28.639C57.2068 29.345 57.4667 30.0005 57.6006 30.0956C57.7348 30.1908 57.4914 30.9067 57.0601 31.6865C56.3023 33.0564 55.4519 35.7906 55.7049 36.043C55.8093 36.1472 57.3227 34.4691 58.4986 32.9454C58.6787 32.712 58.8855 31.8994 58.958 31.1395C59.1036 29.612 59.959 27.9454 61.212 26.7477L62.0201 25.9751L61.8431 27.2862C61.5752 29.2692 60.2859 32.5917 59.2238 34.0353C58.1443 35.5026 55.6467 37.8568 54.6098 38.3847C53.5463 38.9261 50.4513 39.5502 47.9322 39.7316C46.6899 39.8212 41.5479 39.9283 36.5056 39.9697C27.3997 40.0447 25.99 40.1598 21.6245 41.1835C20.7672 41.3845 20.8127 41.4036 22.2051 41.429C24.3265 41.4675 24.9244 41.7658 25.5775 43.1119C26.4452 44.9 26.2047 47.1009 24.9873 48.5128C24.4367 49.1517 24.1678 49.2212 21.6117 49.3869C18.9485 49.5598 18.8781 49.5797 19.8972 49.8721C22.0539 50.4912 24.4551 50.5268 32.7101 50.0622L41.1559 49.5871L44.4481 50.1778C48.6374 50.9298 51.163 51.8562 55.3855 54.1899C57.2446 55.2176 59.1679 56.1756 59.6601 56.3187C61.0618 56.7268 68.4872 56.5918 70.0463 56.1297C71.367 55.7383 72.0486 55.8417 71.3091 56.3214C71.0941 56.4606 70.0811 56.8379 69.058 57.1595C67.5803 57.624 66.5397 57.7462 63.9955 57.7534L60.7934 57.7624L62.6363 59.0537C65.8528 61.3076 71.8113 63.7161 76.1 64.4956C77.2939 64.7128 82.4069 65.1463 85.4007 65.2844C86.9632 65.3566 94.0658 65.3483 97.558 65.2706C102.17 65.168 102.537 65.5212 98.7538 66.424C96.3787 66.9909 95.5874 67.0418 89.2539 67.0351C83.89 67.0298 81.6315 66.9188 79.1559 66.5383C77.4021 66.2689 75.6815 65.9407 75.3323 65.8089C74.9834 65.6771 74.6515 65.6151 74.5952 65.6713C74.2346 66.0311 81.2619 67.9703 82.9262 67.9703C83.5565 67.9703 84.072 68.0708 84.072 68.1938C84.072 68.6241 93.4041 68.7689 96.6049 68.3882C98.2617 68.1909 100.156 68.0708 100.813 68.1212C103.182 68.3023 103.192 68.3475 109.1 69.1C103.192 68.3475 107.6 69.9364 107.6 69.9364L107.227 70.3382L106.6 70.6182C106.6 69.6 107.779 70.6614 107.6 69.6C107.378 68.2823 107.374 70.5429 107.091 70.4613ZM107.091 70.4613C109.411 70.7113 106.864 70.3955 107.091 70.4613ZM69.3238 2.00039C69.0315 2.16478 67.6714 3.20518 66.3013 4.31241C64.9312 5.41936 62.7939 7.06084 61.5519 7.95967C59.3218 9.57357 56.7189 11.8108 54.3372 14.161C53.6646 14.8247 52.5161 15.8351 51.7853 16.406C50.1904 17.6521 48.7278 18.9189 45.8217 21.5709C44.6232 22.6646 43.187 23.8659 42.6302 24.2406C42.0733 24.6152 41.0175 25.4888 40.2835 26.1822C39.5498 26.8753 38.4295 27.8176 37.7939 28.2763C37.1585 28.7349 35.659 29.9193 34.4621 30.9083C33.265 31.8975 32.205 32.7067 32.1064 32.7067C31.9379 32.7067 28.9755 35.1312 28.4007 35.7397C28.2545 35.8945 27.6566 36.3728 27.072 36.8026C26.4874 37.2324 25.5119 38.0806 24.9042 38.6875C24.2964 39.2944 23.5192 39.8607 23.1769 39.9464C22.5646 40.0991 22.5657 40.0922 23.2516 39.5195C23.9 38.9781 28.136 35.3793 31.7391 32.309C32.5951 31.5799 35.4823 29.1125 38.1555 26.8259C50.5194 16.25 53.5604 13.6745 56.0371 11.6801C57.4986 10.5032 59.4717 8.8691 60.4217 8.04875C63.265 5.59356 66.6205 3.08402 68.014 2.36999C69.2946 1.71404 70.3756 1.40886 69.3238 2.00039ZM70.6121 4.97313C70.3421 5.34327 70.0296 5.64951 69.918 5.65428C69.8063 5.65879 68.6847 6.67666 67.4254 7.91618C66.1663 9.15571 65.0542 10.1699 64.9543 10.1699C64.8547 10.1699 64.4292 10.5278 64.0091 10.9653C63.589 11.4028 63.1457 11.7607 63.024 11.7607C62.9023 11.7607 61.8912 12.6556 60.777 13.7493C59.663 14.843 58.6078 15.7378 58.4319 15.7378C58.2562 15.7378 57.8959 15.9764 57.6315 16.2681C57.3671 16.5597 56.9523 16.7984 56.7099 16.7984C56.4676 16.7984 55.9257 17.1563 55.5056 17.5938C55.0855 18.0313 54.5819 18.3892 54.3863 18.3892C54.1907 18.3892 53.5328 18.9261 52.9243 19.5823C52.3157 20.2385 51.7045 20.7755 51.5661 20.7755C51.4279 20.7755 50.3073 21.7 49.0759 22.8303C47.8445 23.9606 46.6237 25.0063 46.363 25.1542C46.1023 25.3019 44.8839 26.3264 43.6554 27.4302C41.1623 29.6704 37.082 32.8589 35.8003 33.5684C34.899 34.0674 33.8483 34.1857 33.8483 33.7885C33.8483 33.6543 34.6255 32.9751 35.5755 32.2791C36.5255 31.5831 37.3028 30.9329 37.3028 30.834C37.3028 30.7354 38.155 29.953 39.1964 29.0955C40.2378 28.2381 41.583 27.0794 42.1859 26.5208C42.7886 25.9621 43.7304 25.2738 44.2783 24.9909C44.8263 24.708 45.2748 24.3548 45.2748 24.2058C45.2748 23.801 45.936 23.1914 48.8622 20.8977C50.3238 19.752 51.5794 18.7447 51.6524 18.6591C51.7255 18.5735 52.1441 18.2291 52.5825 17.8939C53.021 17.5585 54.1939 16.5544 55.1888 15.6622C59.6968 11.6207 70.4683 3.83993 71.0107 4.2334C71.0617 4.27025 70.8823 4.60326 70.6121 4.97313ZM54.5638 11.569C53.6683 12.3814 49.4649 15.9335 45.8727 18.9134C44.324 20.1982 44.2092 20.2491 44.1704 19.6717C44.1035 18.6657 44.2175 17.874 44.5385 17.1141C44.7043 16.7217 44.8616 16.1941 44.8879 15.9414C44.9145 15.6887 45.0835 15.3051 45.2634 15.0887C45.7935 14.4513 45.4784 14.0873 44.8045 14.5582C44.1343 15.0267 43.4147 16.5383 43.4147 17.4779C43.4147 17.816 43.3121 18.1559 43.187 18.2333C43.0615 18.3104 42.804 19.1228 42.6146 20.0386C42.3241 21.4423 42.086 21.8824 41.0959 22.8441C40.4502 23.4714 39.6615 24.0831 39.3431 24.2034C38.37 24.5709 35.0058 24.8154 33.591 24.621C32.4104 24.459 32.2538 24.3636 32.2538 23.8049C32.2538 22.3289 30.584 19.2525 29.4554 18.6498C28.3717 18.0713 28.4039 18.5586 29.5341 19.8398C30.2911 20.6978 30.6507 21.3839 30.7742 22.2067C31.1234 24.5298 29.808 27.8931 27.186 31.381C26.2541 32.6206 25.0655 34.3307 24.5444 35.1815C22.8495 37.9488 20.7712 40.3512 19.779 40.6893C16.153 41.9251 13.3867 43.9179 13.3867 45.2945C13.3867 45.6453 13.2972 45.9825 13.1874 46.044C12.0206 46.6971 10.2768 46.1644 10.9462 45.3595C11.8619 44.2586 13.9182 39.3283 13.9182 38.2336C13.9182 37.9366 14.1868 37.3172 14.515 36.8572C16.4703 34.1181 22.5676 22.7168 24.0015 19.1191C24.6985 17.37 25.9365 16.1472 27.4007 15.7625C27.9508 15.6177 29.7759 15.3067 31.4566 15.071C34.5004 14.6444 37.9515 14.0762 40.2259 13.6276C40.8836 13.4979 42.1392 13.2646 43.0161 13.1095C45.2371 12.7163 49.5223 11.836 52.051 11.2538C53.2203 10.9844 54.4759 10.7529 54.8413 10.7394C55.4878 10.7153 55.4804 10.7375 54.5638 11.569ZM60.9781 25.1956C60.1275 26.4773 59.9885 26.8737 60.3901 26.8737C60.6465 26.8737 61.7477 25.5 62.2497 24.5537C62.509 24.065 62.4971 23.9571 62.1832 23.9571C61.9728 23.9571 61.4304 24.5144 60.9781 25.1956ZM36.9042 26.4375C32.24 30.465 25.9536 35.8508 25.3049 36.3752L24.5385 36.9943L25.1364 35.9775C25.4651 35.418 26.6955 33.6817 27.8706 32.1187C29.0454 30.5557 30.3398 28.6467 30.7466 27.8764C31.9932 25.5167 32.0689 25.4544 33.5068 25.606C34.2062 25.6797 35.436 25.654 36.2399 25.5488C37.0437 25.4435 37.821 25.3425 37.9671 25.3239C38.1133 25.3054 37.635 25.8067 36.9042 26.4375ZM46.5775 30.36C47.0404 31.6849 46.9553 32.7067 46.3821 32.7067C46.114 32.7067 45.8161 32.7852 45.7202 32.8809C45.624 32.9769 44.9166 33.1031 44.1478 33.1614C43.3793 33.22 42.571 33.2906 42.3517 33.3187C41.4719 33.4311 41.8891 32.8573 43.8654 31.2373C45.0059 30.3022 46.017 29.5346 46.1124 29.5312C46.2078 29.5277 46.4169 29.9008 46.5775 30.36ZM41.621 34.8241C42.0228 34.8263 42.3517 34.9472 42.3517 35.093C42.3517 35.2388 42.2266 35.3581 42.0738 35.3581C41.5745 35.3581 37.7506 37.2412 36.3028 38.1999C35.5253 38.7151 34.8323 39.0796 34.7626 39.0102C34.693 38.941 35.8043 37.9112 37.2318 36.7217C39.101 35.1646 39.9761 34.5959 40.3587 34.69C40.6511 34.7618 41.2192 34.8223 41.621 34.8241ZM45.8634 35.7203C46.3922 36.1212 47.491 38.5377 47.253 38.7763C47.1645 38.8649 44.7399 38.9667 41.8652 39.0025C36.9356 39.0635 36.6839 39.043 37.4357 38.6421C37.8741 38.4083 38.771 37.9019 39.4287 37.5166C41.115 36.5292 43.9568 35.3868 44.7434 35.3804C45.1087 35.3775 45.6128 35.5305 45.8634 35.7203ZM58.9601 37.094C58.814 37.1369 58.1265 37.2488 57.4322 37.3422C56.7378 37.4355 56.1699 37.6017 56.1699 37.712C56.1699 37.9782 63.914 38.8148 64.6352 38.6265C64.945 38.5456 65.693 38.6771 66.2979 38.9184C66.9024 39.16 67.4509 39.3037 67.5168 39.2379C67.5827 39.1722 68.5311 39.5251 69.6243 40.0222C71.8087 41.0154 71.8483 41.0276 71.8483 40.6964C71.8483 40.4149 68.6932 38.2747 68.2784 38.2747C68.1144 38.2747 67.7756 38.036 67.5253 37.7444C67.2293 37.3994 66.7212 37.2064 66.0712 37.1921C65.5217 37.1799 63.7566 37.1354 62.149 37.0927C60.5413 37.0503 59.1063 37.0508 58.9601 37.094ZM51.3867 38.306C51.3867 38.4518 51.2671 38.4974 51.121 38.4072C50.9748 38.3171 50.8552 38.1241 50.8552 37.9782C50.8552 37.8324 50.9748 37.7868 51.121 37.877C51.2671 37.9671 51.3867 38.1601 51.3867 38.306ZM32.101 41.3089C31.9116 42.0619 32.109 44.8472 32.3705 45.1078C32.7197 45.4565 32.8573 44.7963 32.8116 42.9896C32.7595 40.9314 32.4061 40.0956 32.101 41.3089ZM34.8078 41.4086C34.7063 41.5727 34.9577 42.93 35.3523 44.3445C35.6292 45.3382 36.0403 43.5493 35.8136 42.3363C35.6645 41.5377 35.0685 40.9878 34.8078 41.4086ZM11.8253 42.0574C11.5627 42.3172 11.5324 42.2868 11.6764 41.9089C11.7764 41.6475 11.9249 41.5003 12.0068 41.582C12.0886 41.6634 12.007 41.8774 11.8253 42.0574ZM31.0987 43.1055C30.9151 43.806 31.1511 44.9032 31.4853 44.9032C31.6158 44.9032 31.7224 44.3662 31.7224 43.71C31.7224 42.4554 31.361 42.1051 31.0987 43.1055ZM33.9848 44.1401C34.1241 45.3359 34.0848 45.8179 33.8355 45.9717C33.4908 46.184 32.5201 48.477 32.5198 49.0791C32.5193 49.8708 33.9923 49.2578 34.5902 48.2174C34.8867 47.7014 34.8952 47.7033 34.9032 48.2837C34.9125 48.9839 35.7227 49.1043 36.2399 48.4825C36.4219 48.2638 36.7952 48.0848 37.0695 48.0848C37.4468 48.0848 37.5685 47.8907 37.5685 47.2894C37.5685 46.4285 37.1521 46.2037 36.9544 46.958C36.863 47.3072 36.8253 47.2743 36.8022 46.8254C36.7668 46.14 36.7705 46.1414 35.8434 46.4932C35.4429 46.6451 35.2115 46.6528 35.2989 46.5115C35.3829 46.3763 35.3297 46.1907 35.1812 46.0989C35.0326 46.0075 34.9112 45.596 34.9112 45.185C34.9112 44.4158 34.2283 42.5169 33.9514 42.5169C33.8661 42.5169 33.8809 43.2474 33.9848 44.1401ZM22.0414 43.8723C22.3733 44.4081 21.5214 44.6298 19.1 44.6375C16.4605 44.646 15.4422 44.8247 15.5854 45.2539C15.7326 45.6946 16.9008 45.9131 19.5595 45.9971C21.963 46.073 22.0071 46.0634 22.166 45.4226L22.3279 44.7706L22.5304 45.3823C22.6558 45.7611 22.9011 45.9595 23.175 45.903C23.5133 45.8338 23.601 45.5644 23.5481 44.7613C23.4644 43.4966 23.8564 43.9964 24.1269 45.4997C24.2335 46.0912 24.4569 46.494 24.6786 46.494C24.9759 46.494 24.9961 46.6523 24.7782 47.2759C24.3849 48.4011 23.3746 48.6379 19.4991 48.513L16.1992 48.4067L15.3244 47.4543C14.8201 46.9052 14.4497 46.2193 14.4497 45.8351C14.4497 45.1394 15.2713 44.1157 15.8448 44.0966C17.6738 44.0359 21.2495 43.7668 21.3367 43.6835C21.5394 43.4892 21.8567 43.574 22.0414 43.8723ZM113.464 46.118C113.375 46.3487 113.303 46.5873 113.303 46.6483C113.303 46.7093 113.119 46.7591 112.895 46.7591C112.569 46.7591 112.544 46.652 112.771 46.2288C113.107 45.6031 113.698 45.5085 113.464 46.118ZM10.7294 47.0399C10.7294 47.1773 10.5537 47.2894 10.339 47.2894C10.102 47.2894 10.0087 47.1338 10.1012 46.8933C10.258 46.4852 10.7294 46.5955 10.7294 47.0399ZM14.3279 47.8377C14.4244 47.9934 14.0428 48.5149 13.48 48.9964C11.5821 50.6204 9.75253 52.4559 9.43339 53.0562C9.05285 53.7721 8.72467 53.8177 8.47913 53.1888C8.34095 52.8345 8.94709 52.1155 11.0416 50.1492C12.5507 48.7328 13.868 47.5694 13.9689 47.5641C14.0699 47.5588 14.2315 47.6818 14.3279 47.8377ZM15.2469 50.3372C15.2469 50.5276 12.6719 53.1225 12.483 53.1225C12.0607 53.1225 12.437 52.5455 13.586 51.4306C14.7329 50.3181 15.2469 49.9798 15.2469 50.3372ZM39.9601 51.2458C39.9601 51.3805 39.5286 51.6327 39.0011 51.8063C38.1412 52.0895 37.9841 52.064 37.4806 51.5616L36.9191 51.0014H38.4396C39.2759 51.0014 39.9601 51.1114 39.9601 51.2458ZM36.454 52.1099C36.8452 52.5736 37.2978 53.3195 37.4598 53.767C37.6217 54.2146 38.0163 55.2966 38.3365 56.1716C40.0425 60.8349 39.705 67.4103 37.7739 67.1248C37.3408 67.0609 37.1152 66.686 36.7673 65.4515C35.9486 62.5471 34.2458 60.0161 33.1108 60.0161C32.6195 60.0161 32.5783 59.778 32.4561 56.2379C32.3846 54.1597 32.2403 52.2592 32.1356 52.0139C31.9833 51.6571 32.1215 51.5468 32.8305 51.4598C35.2936 51.1578 35.7148 51.2334 36.454 52.1099ZM42.217 52.7038C41.8248 53.3717 41.4823 53.9179 41.456 53.9179C41.4294 53.9179 41.452 53.4539 41.5062 52.8868C41.5769 52.1465 41.7663 51.7817 42.1774 51.5939C42.4926 51.45 42.7907 51.3678 42.8402 51.4113C42.8896 51.4545 42.6092 52.0362 42.217 52.7038ZM30.8314 51.8631C30.8125 52.0455 31.0134 53.3431 31.2783 54.747C31.8327 57.6863 31.6142 60.3942 30.6406 62.6524C29.9882 64.1655 28.7842 65.4056 28.0948 65.2744C27.6662 65.1927 27.5838 64.8257 27.4496 62.3997C27.2849 59.4169 26.518 57.1481 25.5935 56.9068C25.2773 56.8244 24.9265 56.0435 24.4444 54.348C24.0626 53.0058 23.7504 51.8233 23.7504 51.7199C23.7504 51.6162 25.3514 51.5316 27.3083 51.5316C29.9959 51.5316 30.8577 51.6128 30.8314 51.8631ZM45.1595 51.8103C47.8509 52.2862 49.2608 52.8359 49.2608 53.4088C49.2608 54.0765 49.188 54.0605 47.8687 53.1071C46.3197 51.9874 46.1911 52.6468 47.6954 53.9953C51.7125 57.5959 53.2469 59.5094 53.2469 60.9178C53.2469 61.3031 53.0212 61.2222 51.9846 60.4655C49.3113 58.5136 47.3494 58.1771 46.249 59.4819L45.5818 60.2733L43.7673 59.182C41.6388 57.9019 41.587 57.8581 42.0148 57.7057C42.195 57.6412 42.4623 57.1505 42.6087 56.6152C42.7551 56.0796 43.2353 55.2237 43.6756 54.7133C44.6155 53.6241 44.669 53.246 43.9462 52.7958C43.5191 52.5296 43.166 51.5316 43.4987 51.5316C43.5449 51.5316 44.2924 51.657 45.1595 51.8103ZM11.7923 53.6528C11.6358 53.9444 11.3475 54.183 11.1511 54.183C10.955 54.183 10.6443 54.3636 10.461 54.5839C10.2024 54.8949 10.0435 54.9154 9.75386 54.6757C9.44242 54.418 9.50115 54.287 10.1046 53.8919C10.503 53.6313 10.918 53.4727 11.0267 53.5395C11.1351 53.6066 11.2991 53.5401 11.391 53.3919C11.7142 52.8701 12.0833 53.11 11.7923 53.6528ZM7.27084 56.9344C6.19329 57.9867 5.33284 58.5385 3.97122 59.0505C2.95824 59.4315 2.06564 59.6796 1.98804 59.602C1.91018 59.5243 2.20089 59.1274 2.63404 58.7196C3.06719 58.3121 4.24838 57.0569 5.25897 55.9303L7.09599 53.8824L7.91206 54.6966L8.72839 55.5109L7.27084 56.9344ZM9.53357 56.8344C9.44322 56.9803 9.24976 57.0996 9.10361 57.0996C8.95745 57.0996 8.91175 56.9803 9.0021 56.8344C9.09245 56.6886 9.2859 56.5693 9.43206 56.5693C9.57821 56.5693 9.62392 56.6886 9.53357 56.8344ZM26.003 59.0356C26.2791 59.7568 26.408 60.7463 26.3561 61.7504L26.2748 63.3304L25.7944 60.9441C25.5302 59.6317 25.2483 58.3341 25.168 58.0607C24.8864 57.1017 25.5669 57.8961 26.003 59.0356ZM49.9321 60.1635C51.4803 60.8942 53.5889 63.022 53.4475 63.7106C53.2378 64.7292 49.6129 63.6204 47.3779 61.8541C46.2211 60.9399 46.1371 60.6768 46.7776 59.9708C47.3773 59.3095 48.2335 59.3617 49.9321 60.1635ZM35.1503 63.3304C35.4302 63.9137 35.7435 64.6892 35.8466 65.0538C36.1865 66.2567 35.5394 65.2712 34.5408 63.0652C33.5698 60.92 34.1057 61.1533 35.1503 63.3304ZM106.394 65.8473C105.882 65.9629 104.776 66.1384 103.936 66.2373C100.993 66.5844 102.45 66.8392 107.2 66.8082C110.458 66.7872 109.971 66.3996 110.1 66.6C110.204 66.762 109.625 66.7596 110.1 66.8275C110.921 66.9444 110.6 67.0463 110.6 66.2373C110.6 65.579 111.563 65.2238 111.1 65.1C110.257 64.8746 107.51 65.5952 106.394 65.8473Z" stroke="var(--stroke-0, black)" stroke-width="0.2"/>
</g>
</svg>
