<svg preserveAspectRatio="none" width="100%" height="100%" overflow="visible" style="display: block;" viewBox="0 0 154.35 110.909" fill="none" xmlns="http://www.w3.org/2000/svg">
<g id="Group 10">
<path id="Ellipse 3" d="M153.512 71.6805C147.289 100.958 108.067 117.428 65.9069 108.467C23.7468 99.5053 -5.38574 68.5063 0.837444 39.2285C7.06063 9.95068 46.283 -6.51902 88.443 2.44237C130.603 11.4038 159.736 42.4027 153.512 71.6805Z" fill="var(--fill-0, #D9D9D9)"/>
<path id="Ellipse 2 (Stroke)" d="M145.645 70.0083C148.342 57.3236 143.425 44.0598 132.867 32.8262C122.316 21.5993 106.254 12.563 87.1548 8.50342C68.056 4.44385 49.7067 6.16567 35.5014 12.1304C21.2877 18.0989 11.4009 28.216 8.70469 40.9007C6.00846 53.5854 10.9255 66.8492 21.4828 78.0828C32.0339 89.3097 48.0965 98.346 67.1953 102.406L66.7794 104.362C27.8839 96.0944 1.00707 67.4957 6.74839 40.4849C12.4897 13.4741 48.6751 -1.72038 87.5706 6.54712C126.466 14.8146 153.343 43.4133 147.602 70.4241C141.86 97.4349 105.675 112.629 66.7794 104.362L67.1953 102.406C86.294 106.465 104.643 104.743 118.849 98.7786C133.062 92.8101 142.949 82.6931 145.645 70.0083Z" fill="var(--fill-0, black)"/>
</g>
</svg>
